<?xml version="1.0" encoding="utf-8" standalone="no"?>
<!DOCTYPE svg PUBLIC "-//W3C//DTD SVG 1.1//EN"
  "http://www.w3.org/Graphics/SVG/1.1/DTD/svg11.dtd">
<svg xmlns:xlink="http://www.w3.org/1999/xlink" width="852.371562pt" height="564.520781pt" viewBox="0 0 852.371562 564.520781" xmlns="http://www.w3.org/2000/svg" version="1.1">
 <metadata>
  <rdf:RDF xmlns:dc="http://purl.org/dc/elements/1.1/" xmlns:cc="http://creativecommons.org/ns#" xmlns:rdf="http://www.w3.org/1999/02/22-rdf-syntax-ns#">
   <cc:Work>
    <dc:type rdf:resource="http://purl.org/dc/dcmitype/StillImage"/>
    <dc:date>2025-05-13T11:57:10.743034</dc:date>
    <dc:format>image/svg+xml</dc:format>
    <dc:creator>
     <cc:Agent>
      <dc:title>Matplotlib v3.9.2, https://matplotlib.org/</dc:title>
     </cc:Agent>
    </dc:creator>
   </cc:Work>
  </rdf:RDF>
 </metadata>
 <defs>
  <style type="text/css">*{stroke-linejoin: round; stroke-linecap: butt}</style>
 </defs>
 <g id="figure_1">
  <g id="patch_1">
   <path d="M 0 564.520781 
L 852.371562 564.520781 
L 852.371562 0 
L 0 0 
z
" style="fill: #ffffff"/>
  </g>
  <g id="axes_1">
   <g id="patch_2">
    <path d="M 52.451563 517.299375 
L 845.171562 517.299375 
L 845.171562 27.759375 
L 52.451563 27.759375 
z
" style="fill: #ffffff"/>
   </g>
   <g id="matplotlib.axis_1">
    <g id="xtick_1">
     <g id="text_1">
      <!-- 0.0 -->
      <g style="fill: #262626" transform="translate(80.83929 534.672969) scale(0.11 -0.11)">
       <defs>
        <path id="ArialMT-30" d="M 266 2259 
Q 266 3072 433 3567 
Q 600 4063 929 4331 
Q 1259 4600 1759 4600 
Q 2128 4600 2406 4451 
Q 2684 4303 2865 4023 
Q 3047 3744 3150 3342 
Q 3253 2941 3253 2259 
Q 3253 1453 3087 958 
Q 2922 463 2592 192 
Q 2263 -78 1759 -78 
Q 1097 -78 719 397 
Q 266 969 266 2259 
z
M 844 2259 
Q 844 1131 1108 757 
Q 1372 384 1759 384 
Q 2147 384 2411 759 
Q 2675 1134 2675 2259 
Q 2675 3391 2411 3762 
Q 2147 4134 1753 4134 
Q 1366 4134 1134 3806 
Q 844 3388 844 2259 
z
" transform="scale(0.015625)"/>
        <path id="ArialMT-2e" d="M 581 0 
L 581 641 
L 1222 641 
L 1222 0 
L 581 0 
z
" transform="scale(0.015625)"/>
       </defs>
       <use xlink:href="#ArialMT-30"/>
       <use xlink:href="#ArialMT-2e" x="55.615234"/>
       <use xlink:href="#ArialMT-30" x="83.398438"/>
      </g>
     </g>
    </g>
    <g id="xtick_2">
     <g id="text_2">
      <!-- 0.2 -->
      <g style="fill: #262626" transform="translate(224.970199 534.672969) scale(0.11 -0.11)">
       <defs>
        <path id="ArialMT-32" d="M 3222 541 
L 3222 0 
L 194 0 
Q 188 203 259 391 
Q 375 700 629 1000 
Q 884 1300 1366 1694 
Q 2113 2306 2375 2664 
Q 2638 3022 2638 3341 
Q 2638 3675 2398 3904 
Q 2159 4134 1775 4134 
Q 1369 4134 1125 3890 
Q 881 3647 878 3216 
L 300 3275 
Q 359 3922 746 4261 
Q 1134 4600 1788 4600 
Q 2447 4600 2831 4234 
Q 3216 3869 3216 3328 
Q 3216 3053 3103 2787 
Q 2991 2522 2730 2228 
Q 2469 1934 1863 1422 
Q 1356 997 1212 845 
Q 1069 694 975 541 
L 3222 541 
z
" transform="scale(0.015625)"/>
       </defs>
       <use xlink:href="#ArialMT-30"/>
       <use xlink:href="#ArialMT-2e" x="55.615234"/>
       <use xlink:href="#ArialMT-32" x="83.398438"/>
      </g>
     </g>
    </g>
    <g id="xtick_3">
     <g id="text_3">
      <!-- 0.4 -->
      <g style="fill: #262626" transform="translate(369.101108 534.672969) scale(0.11 -0.11)">
       <defs>
        <path id="ArialMT-34" d="M 2069 0 
L 2069 1097 
L 81 1097 
L 81 1613 
L 2172 4581 
L 2631 4581 
L 2631 1613 
L 3250 1613 
L 3250 1097 
L 2631 1097 
L 2631 0 
L 2069 0 
z
M 2069 1613 
L 2069 3678 
L 634 1613 
L 2069 1613 
z
" transform="scale(0.015625)"/>
       </defs>
       <use xlink:href="#ArialMT-30"/>
       <use xlink:href="#ArialMT-2e" x="55.615234"/>
       <use xlink:href="#ArialMT-34" x="83.398438"/>
      </g>
     </g>
    </g>
    <g id="xtick_4">
     <g id="text_4">
      <!-- 0.6 -->
      <g style="fill: #262626" transform="translate(513.232017 534.672969) scale(0.11 -0.11)">
       <defs>
        <path id="ArialMT-36" d="M 3184 3459 
L 2625 3416 
Q 2550 3747 2413 3897 
Q 2184 4138 1850 4138 
Q 1581 4138 1378 3988 
Q 1113 3794 959 3422 
Q 806 3050 800 2363 
Q 1003 2672 1297 2822 
Q 1591 2972 1913 2972 
Q 2475 2972 2870 2558 
Q 3266 2144 3266 1488 
Q 3266 1056 3080 686 
Q 2894 316 2569 119 
Q 2244 -78 1831 -78 
Q 1128 -78 684 439 
Q 241 956 241 2144 
Q 241 3472 731 4075 
Q 1159 4600 1884 4600 
Q 2425 4600 2770 4297 
Q 3116 3994 3184 3459 
z
M 888 1484 
Q 888 1194 1011 928 
Q 1134 663 1356 523 
Q 1578 384 1822 384 
Q 2178 384 2434 671 
Q 2691 959 2691 1453 
Q 2691 1928 2437 2201 
Q 2184 2475 1800 2475 
Q 1419 2475 1153 2201 
Q 888 1928 888 1484 
z
" transform="scale(0.015625)"/>
       </defs>
       <use xlink:href="#ArialMT-30"/>
       <use xlink:href="#ArialMT-2e" x="55.615234"/>
       <use xlink:href="#ArialMT-36" x="83.398438"/>
      </g>
     </g>
    </g>
    <g id="xtick_5">
     <g id="text_5">
      <!-- 0.8 -->
      <g style="fill: #262626" transform="translate(657.362926 534.672969) scale(0.11 -0.11)">
       <defs>
        <path id="ArialMT-38" d="M 1131 2484 
Q 781 2613 612 2850 
Q 444 3088 444 3419 
Q 444 3919 803 4259 
Q 1163 4600 1759 4600 
Q 2359 4600 2725 4251 
Q 3091 3903 3091 3403 
Q 3091 3084 2923 2848 
Q 2756 2613 2416 2484 
Q 2838 2347 3058 2040 
Q 3278 1734 3278 1309 
Q 3278 722 2862 322 
Q 2447 -78 1769 -78 
Q 1091 -78 675 323 
Q 259 725 259 1325 
Q 259 1772 486 2073 
Q 713 2375 1131 2484 
z
M 1019 3438 
Q 1019 3113 1228 2906 
Q 1438 2700 1772 2700 
Q 2097 2700 2305 2904 
Q 2513 3109 2513 3406 
Q 2513 3716 2298 3927 
Q 2084 4138 1766 4138 
Q 1444 4138 1231 3931 
Q 1019 3725 1019 3438 
z
M 838 1322 
Q 838 1081 952 856 
Q 1066 631 1291 507 
Q 1516 384 1775 384 
Q 2178 384 2440 643 
Q 2703 903 2703 1303 
Q 2703 1709 2433 1975 
Q 2163 2241 1756 2241 
Q 1359 2241 1098 1978 
Q 838 1716 838 1322 
z
" transform="scale(0.015625)"/>
       </defs>
       <use xlink:href="#ArialMT-30"/>
       <use xlink:href="#ArialMT-2e" x="55.615234"/>
       <use xlink:href="#ArialMT-38" x="83.398438"/>
      </g>
     </g>
    </g>
    <g id="xtick_6">
     <g id="text_6">
      <!-- 1.0 -->
      <g style="fill: #262626" transform="translate(801.493835 534.672969) scale(0.11 -0.11)">
       <defs>
        <path id="ArialMT-31" d="M 2384 0 
L 1822 0 
L 1822 3584 
Q 1619 3391 1289 3197 
Q 959 3003 697 2906 
L 697 3450 
Q 1169 3672 1522 3987 
Q 1875 4303 2022 4600 
L 2384 4600 
L 2384 0 
z
" transform="scale(0.015625)"/>
       </defs>
       <use xlink:href="#ArialMT-31"/>
       <use xlink:href="#ArialMT-2e" x="55.615234"/>
       <use xlink:href="#ArialMT-30" x="83.398438"/>
      </g>
     </g>
    </g>
    <g id="text_7">
     <!-- False Positive Rate -->
     <g style="fill: #262626" transform="translate(371.282187 553.743281) scale(0.18 -0.18)">
      <defs>
       <path id="ArialMT-46" d="M 525 0 
L 525 4581 
L 3616 4581 
L 3616 4041 
L 1131 4041 
L 1131 2622 
L 3281 2622 
L 3281 2081 
L 1131 2081 
L 1131 0 
L 525 0 
z
" transform="scale(0.015625)"/>
       <path id="ArialMT-61" d="M 2588 409 
Q 2275 144 1986 34 
Q 1697 -75 1366 -75 
Q 819 -75 525 192 
Q 231 459 231 875 
Q 231 1119 342 1320 
Q 453 1522 633 1644 
Q 813 1766 1038 1828 
Q 1203 1872 1538 1913 
Q 2219 1994 2541 2106 
Q 2544 2222 2544 2253 
Q 2544 2597 2384 2738 
Q 2169 2928 1744 2928 
Q 1347 2928 1158 2789 
Q 969 2650 878 2297 
L 328 2372 
Q 403 2725 575 2942 
Q 747 3159 1072 3276 
Q 1397 3394 1825 3394 
Q 2250 3394 2515 3294 
Q 2781 3194 2906 3042 
Q 3031 2891 3081 2659 
Q 3109 2516 3109 2141 
L 3109 1391 
Q 3109 606 3145 398 
Q 3181 191 3288 0 
L 2700 0 
Q 2613 175 2588 409 
z
M 2541 1666 
Q 2234 1541 1622 1453 
Q 1275 1403 1131 1340 
Q 988 1278 909 1158 
Q 831 1038 831 891 
Q 831 666 1001 516 
Q 1172 366 1500 366 
Q 1825 366 2078 508 
Q 2331 650 2450 897 
Q 2541 1088 2541 1459 
L 2541 1666 
z
" transform="scale(0.015625)"/>
       <path id="ArialMT-6c" d="M 409 0 
L 409 4581 
L 972 4581 
L 972 0 
L 409 0 
z
" transform="scale(0.015625)"/>
       <path id="ArialMT-73" d="M 197 991 
L 753 1078 
Q 800 744 1014 566 
Q 1228 388 1613 388 
Q 2000 388 2187 545 
Q 2375 703 2375 916 
Q 2375 1106 2209 1216 
Q 2094 1291 1634 1406 
Q 1016 1563 777 1677 
Q 538 1791 414 1992 
Q 291 2194 291 2438 
Q 291 2659 392 2848 
Q 494 3038 669 3163 
Q 800 3259 1026 3326 
Q 1253 3394 1513 3394 
Q 1903 3394 2198 3281 
Q 2494 3169 2634 2976 
Q 2775 2784 2828 2463 
L 2278 2388 
Q 2241 2644 2061 2787 
Q 1881 2931 1553 2931 
Q 1166 2931 1000 2803 
Q 834 2675 834 2503 
Q 834 2394 903 2306 
Q 972 2216 1119 2156 
Q 1203 2125 1616 2013 
Q 2213 1853 2448 1751 
Q 2684 1650 2818 1456 
Q 2953 1263 2953 975 
Q 2953 694 2789 445 
Q 2625 197 2315 61 
Q 2006 -75 1616 -75 
Q 969 -75 630 194 
Q 291 463 197 991 
z
" transform="scale(0.015625)"/>
       <path id="ArialMT-65" d="M 2694 1069 
L 3275 997 
Q 3138 488 2766 206 
Q 2394 -75 1816 -75 
Q 1088 -75 661 373 
Q 234 822 234 1631 
Q 234 2469 665 2931 
Q 1097 3394 1784 3394 
Q 2450 3394 2872 2941 
Q 3294 2488 3294 1666 
Q 3294 1616 3291 1516 
L 816 1516 
Q 847 969 1125 678 
Q 1403 388 1819 388 
Q 2128 388 2347 550 
Q 2566 713 2694 1069 
z
M 847 1978 
L 2700 1978 
Q 2663 2397 2488 2606 
Q 2219 2931 1791 2931 
Q 1403 2931 1139 2672 
Q 875 2413 847 1978 
z
" transform="scale(0.015625)"/>
       <path id="ArialMT-20" transform="scale(0.015625)"/>
       <path id="ArialMT-50" d="M 494 0 
L 494 4581 
L 2222 4581 
Q 2678 4581 2919 4538 
Q 3256 4481 3484 4323 
Q 3713 4166 3852 3881 
Q 3991 3597 3991 3256 
Q 3991 2672 3619 2267 
Q 3247 1863 2275 1863 
L 1100 1863 
L 1100 0 
L 494 0 
z
M 1100 2403 
L 2284 2403 
Q 2872 2403 3119 2622 
Q 3366 2841 3366 3238 
Q 3366 3525 3220 3729 
Q 3075 3934 2838 4000 
Q 2684 4041 2272 4041 
L 1100 4041 
L 1100 2403 
z
" transform="scale(0.015625)"/>
       <path id="ArialMT-6f" d="M 213 1659 
Q 213 2581 725 3025 
Q 1153 3394 1769 3394 
Q 2453 3394 2887 2945 
Q 3322 2497 3322 1706 
Q 3322 1066 3130 698 
Q 2938 331 2570 128 
Q 2203 -75 1769 -75 
Q 1072 -75 642 372 
Q 213 819 213 1659 
z
M 791 1659 
Q 791 1022 1069 705 
Q 1347 388 1769 388 
Q 2188 388 2466 706 
Q 2744 1025 2744 1678 
Q 2744 2294 2464 2611 
Q 2184 2928 1769 2928 
Q 1347 2928 1069 2612 
Q 791 2297 791 1659 
z
" transform="scale(0.015625)"/>
       <path id="ArialMT-69" d="M 425 3934 
L 425 4581 
L 988 4581 
L 988 3934 
L 425 3934 
z
M 425 0 
L 425 3319 
L 988 3319 
L 988 0 
L 425 0 
z
" transform="scale(0.015625)"/>
       <path id="ArialMT-74" d="M 1650 503 
L 1731 6 
Q 1494 -44 1306 -44 
Q 1000 -44 831 53 
Q 663 150 594 308 
Q 525 466 525 972 
L 525 2881 
L 113 2881 
L 113 3319 
L 525 3319 
L 525 4141 
L 1084 4478 
L 1084 3319 
L 1650 3319 
L 1650 2881 
L 1084 2881 
L 1084 941 
Q 1084 700 1114 631 
Q 1144 563 1211 522 
Q 1278 481 1403 481 
Q 1497 481 1650 503 
z
" transform="scale(0.015625)"/>
       <path id="ArialMT-76" d="M 1344 0 
L 81 3319 
L 675 3319 
L 1388 1331 
Q 1503 1009 1600 663 
Q 1675 925 1809 1294 
L 2547 3319 
L 3125 3319 
L 1869 0 
L 1344 0 
z
" transform="scale(0.015625)"/>
       <path id="ArialMT-52" d="M 503 0 
L 503 4581 
L 2534 4581 
Q 3147 4581 3465 4457 
Q 3784 4334 3975 4021 
Q 4166 3709 4166 3331 
Q 4166 2844 3850 2509 
Q 3534 2175 2875 2084 
Q 3116 1969 3241 1856 
Q 3506 1613 3744 1247 
L 4541 0 
L 3778 0 
L 3172 953 
Q 2906 1366 2734 1584 
Q 2563 1803 2427 1890 
Q 2291 1978 2150 2013 
Q 2047 2034 1813 2034 
L 1109 2034 
L 1109 0 
L 503 0 
z
M 1109 2559 
L 2413 2559 
Q 2828 2559 3062 2645 
Q 3297 2731 3419 2920 
Q 3541 3109 3541 3331 
Q 3541 3656 3305 3865 
Q 3069 4075 2559 4075 
L 1109 4075 
L 1109 2559 
z
" transform="scale(0.015625)"/>
      </defs>
      <use xlink:href="#ArialMT-46"/>
      <use xlink:href="#ArialMT-61" x="61.083984"/>
      <use xlink:href="#ArialMT-6c" x="116.699219"/>
      <use xlink:href="#ArialMT-73" x="138.916016"/>
      <use xlink:href="#ArialMT-65" x="188.916016"/>
      <use xlink:href="#ArialMT-20" x="244.53125"/>
      <use xlink:href="#ArialMT-50" x="272.314453"/>
      <use xlink:href="#ArialMT-6f" x="339.013672"/>
      <use xlink:href="#ArialMT-73" x="394.628906"/>
      <use xlink:href="#ArialMT-69" x="444.628906"/>
      <use xlink:href="#ArialMT-74" x="466.845703"/>
      <use xlink:href="#ArialMT-69" x="494.628906"/>
      <use xlink:href="#ArialMT-76" x="516.845703"/>
      <use xlink:href="#ArialMT-65" x="566.845703"/>
      <use xlink:href="#ArialMT-20" x="622.460938"/>
      <use xlink:href="#ArialMT-52" x="650.244141"/>
      <use xlink:href="#ArialMT-61" x="722.460938"/>
      <use xlink:href="#ArialMT-74" x="778.076172"/>
      <use xlink:href="#ArialMT-65" x="805.859375"/>
     </g>
    </g>
   </g>
   <g id="matplotlib.axis_2">
    <g id="ytick_1">
     <g id="text_8">
      <!-- 0.0 -->
      <g style="fill: #262626" transform="translate(27.661563 498.984354) scale(0.11 -0.11)">
       <use xlink:href="#ArialMT-30"/>
       <use xlink:href="#ArialMT-2e" x="55.615234"/>
       <use xlink:href="#ArialMT-30" x="83.398438"/>
      </g>
     </g>
    </g>
    <g id="ytick_2">
     <g id="text_9">
      <!-- 0.2 -->
      <g style="fill: #262626" transform="translate(27.661563 409.977081) scale(0.11 -0.11)">
       <use xlink:href="#ArialMT-30"/>
       <use xlink:href="#ArialMT-2e" x="55.615234"/>
       <use xlink:href="#ArialMT-32" x="83.398438"/>
      </g>
     </g>
    </g>
    <g id="ytick_3">
     <g id="text_10">
      <!-- 0.4 -->
      <g style="fill: #262626" transform="translate(27.661563 320.969808) scale(0.11 -0.11)">
       <use xlink:href="#ArialMT-30"/>
       <use xlink:href="#ArialMT-2e" x="55.615234"/>
       <use xlink:href="#ArialMT-34" x="83.398438"/>
      </g>
     </g>
    </g>
    <g id="ytick_4">
     <g id="text_11">
      <!-- 0.6 -->
      <g style="fill: #262626" transform="translate(27.661563 231.962536) scale(0.11 -0.11)">
       <use xlink:href="#ArialMT-30"/>
       <use xlink:href="#ArialMT-2e" x="55.615234"/>
       <use xlink:href="#ArialMT-36" x="83.398438"/>
      </g>
     </g>
    </g>
    <g id="ytick_5">
     <g id="text_12">
      <!-- 0.8 -->
      <g style="fill: #262626" transform="translate(27.661563 142.955263) scale(0.11 -0.11)">
       <use xlink:href="#ArialMT-30"/>
       <use xlink:href="#ArialMT-2e" x="55.615234"/>
       <use xlink:href="#ArialMT-38" x="83.398438"/>
      </g>
     </g>
    </g>
    <g id="ytick_6">
     <g id="text_13">
      <!-- 1.0 -->
      <g style="fill: #262626" transform="translate(27.661563 53.94799) scale(0.11 -0.11)">
       <use xlink:href="#ArialMT-31"/>
       <use xlink:href="#ArialMT-2e" x="55.615234"/>
       <use xlink:href="#ArialMT-30" x="83.398438"/>
      </g>
     </g>
    </g>
    <g id="text_14">
     <!-- True Positive Rate -->
     <g style="fill: #262626" transform="translate(20.084062 346.218281) rotate(-90) scale(0.18 -0.18)">
      <defs>
       <path id="ArialMT-54" d="M 1659 0 
L 1659 4041 
L 150 4041 
L 150 4581 
L 3781 4581 
L 3781 4041 
L 2266 4041 
L 2266 0 
L 1659 0 
z
" transform="scale(0.015625)"/>
       <path id="ArialMT-72" d="M 416 0 
L 416 3319 
L 922 3319 
L 922 2816 
Q 1116 3169 1280 3281 
Q 1444 3394 1641 3394 
Q 1925 3394 2219 3213 
L 2025 2691 
Q 1819 2813 1613 2813 
Q 1428 2813 1281 2702 
Q 1134 2591 1072 2394 
Q 978 2094 978 1738 
L 978 0 
L 416 0 
z
" transform="scale(0.015625)"/>
       <path id="ArialMT-75" d="M 2597 0 
L 2597 488 
Q 2209 -75 1544 -75 
Q 1250 -75 995 37 
Q 741 150 617 320 
Q 494 491 444 738 
Q 409 903 409 1263 
L 409 3319 
L 972 3319 
L 972 1478 
Q 972 1038 1006 884 
Q 1059 663 1231 536 
Q 1403 409 1656 409 
Q 1909 409 2131 539 
Q 2353 669 2445 892 
Q 2538 1116 2538 1541 
L 2538 3319 
L 3100 3319 
L 3100 0 
L 2597 0 
z
" transform="scale(0.015625)"/>
      </defs>
      <use xlink:href="#ArialMT-54"/>
      <use xlink:href="#ArialMT-72" x="57.333984"/>
      <use xlink:href="#ArialMT-75" x="90.634766"/>
      <use xlink:href="#ArialMT-65" x="146.25"/>
      <use xlink:href="#ArialMT-20" x="201.865234"/>
      <use xlink:href="#ArialMT-50" x="229.648438"/>
      <use xlink:href="#ArialMT-6f" x="296.347656"/>
      <use xlink:href="#ArialMT-73" x="351.962891"/>
      <use xlink:href="#ArialMT-69" x="401.962891"/>
      <use xlink:href="#ArialMT-74" x="424.179688"/>
      <use xlink:href="#ArialMT-69" x="451.962891"/>
      <use xlink:href="#ArialMT-76" x="474.179688"/>
      <use xlink:href="#ArialMT-65" x="524.179688"/>
      <use xlink:href="#ArialMT-20" x="579.794922"/>
      <use xlink:href="#ArialMT-52" x="607.578125"/>
      <use xlink:href="#ArialMT-61" x="679.794922"/>
      <use xlink:href="#ArialMT-74" x="735.410156"/>
      <use xlink:href="#ArialMT-65" x="763.193359"/>
     </g>
    </g>
   </g>
   <g id="line2d_1">
    <path d="M 88.48429 495.047557 
L 88.584007 483.734671 
L 88.683724 483.734671 
L 88.783441 442.756884 
L 88.982875 442.756884 
L 89.082592 429.684216 
L 89.182309 429.684216 
L 89.282026 415.668807 
L 89.381743 415.668807 
L 89.481459 389.272073 
L 89.581176 389.272073 
L 89.680893 372.051347 
L 89.78061 372.051347 
L 89.880327 367.903289 
L 90.079761 367.903289 
L 90.179478 358.538733 
L 90.279195 358.538733 
L 90.378912 334.593124 
L 90.478629 334.593124 
L 90.578346 311.150311 
L 90.678063 311.150311 
L 90.678063 307.127951 
L 90.877497 307.127951 
L 90.977214 299.208931 
L 91.276365 299.146082 
L 91.376082 285.947715 
L 91.475799 285.947715 
L 91.575516 276.960255 
L 91.675233 276.960255 
L 91.77495 265.898767 
L 91.874667 265.898767 
L 91.974384 253.517442 
L 92.074101 253.517442 
L 92.173818 248.175246 
L 92.273535 248.175246 
L 92.373252 244.78138 
L 92.472969 244.78138 
L 92.572686 239.250635 
L 92.672403 239.250635 
L 92.77212 237.113757 
L 92.871836 237.113757 
L 92.971553 235.353975 
L 93.07127 235.353975 
L 93.170987 231.771561 
L 93.270704 231.771561 
L 93.370421 229.131887 
L 93.470138 229.131887 
L 93.569855 227.497804 
L 93.769289 227.497804 
L 93.869006 224.732432 
L 93.968723 224.732432 
L 94.06844 223.286896 
L 94.168157 223.286896 
L 94.267874 219.453085 
L 94.367591 219.453085 
L 94.467308 217.504755 
L 94.567025 217.504755 
L 94.666742 210.717023 
L 94.766459 210.717023 
L 94.866176 207.825952 
L 94.965893 207.825952 
L 95.06561 206.506116 
L 95.165327 206.506116 
L 95.265044 200.661124 
L 95.364761 200.661124 
L 95.464478 194.753284 
L 95.564195 194.753284 
L 95.663912 193.056351 
L 95.763629 193.056351 
L 95.763629 192.930652 
L 95.963063 192.930652 
L 96.06278 191.987912 
L 96.162496 191.987912 
L 96.262213 187.022812 
L 96.36193 187.022812 
L 96.461647 185.891523 
L 96.561364 185.891523 
L 96.661081 182.497658 
L 96.760798 182.497658 
L 96.860515 181.554917 
L 96.960232 181.554917 
L 97.059949 177.972503 
L 97.159666 177.972503 
L 97.259383 175.081432 
L 97.3591 175.081432 
L 97.458817 174.012993 
L 97.757968 173.950144 
L 97.857685 173.32165 
L 97.957402 173.32165 
L 98.057119 172.567458 
L 98.156836 172.567458 
L 98.156836 172.504608 
L 98.156836 171.813265 
L 98.455987 171.750416 
L 98.455987 171.499018 
L 98.655421 171.499018 
L 98.755138 168.042303 
L 98.854855 168.042303 
L 98.954572 167.036713 
L 99.054289 167.036713 
L 99.154006 166.219672 
L 99.253723 166.219672 
L 99.35344 165.214082 
L 99.453157 165.214082 
L 99.552873 164.648438 
L 99.65259 164.648438 
L 99.752307 163.642848 
L 99.852024 163.642848 
L 99.951741 161.505969 
L 100.051458 161.505969 
L 100.151175 160.123283 
L 100.250892 160.123283 
L 100.250892 159.871886 
L 100.550043 159.809036 
L 100.64976 159.43194 
L 100.849194 159.43194 
L 100.948911 157.609308 
L 101.148345 157.609308 
L 101.248062 156.792267 
L 101.447496 156.792267 
L 101.547213 153.46125 
L 101.64693 153.46125 
L 101.64693 152.45566 
L 101.846364 152.45566 
L 101.946081 152.141414 
L 102.045798 152.141414 
L 102.145515 150.255933 
L 102.245232 150.255933 
L 102.344949 149.50174 
L 102.444666 149.50174 
L 102.544383 148.873247 
L 102.6441 148.873247 
L 102.6441 148.621849 
L 102.743817 148.621849 
L 102.94325 148.621849 
L 103.042967 147.993355 
L 103.142684 147.993355 
L 103.142684 147.867657 
L 103.342118 147.867657 
L 103.441835 147.050615 
L 103.541552 147.050615 
L 103.641269 146.673519 
L 103.740986 146.673519 
L 103.840703 145.102285 
L 103.94042 145.102285 
L 104.040137 144.662339 
L 104.139854 144.662339 
L 104.139854 144.410942 
L 104.339288 144.410942 
L 104.439005 144.033845 
L 104.638439 144.033845 
L 104.738156 143.405352 
L 104.837873 143.405352 
L 104.93759 141.896967 
L 105.037307 141.896967 
L 105.137024 141.268473 
L 105.236741 141.268473 
L 105.336458 140.074335 
L 105.535892 140.011486 
L 105.635609 137.371813 
L 105.735326 137.371813 
L 105.835043 136.869018 
L 106.034477 136.806168 
L 106.134194 136.680469 
L 106.333627 136.61762 
L 106.333627 136.429072 
L 106.533061 136.429072 
L 106.632778 135.989126 
L 106.832212 135.989126 
L 106.931929 134.60644 
L 107.23108 134.60644 
L 107.330797 133.160905 
L 107.430514 133.160905 
L 107.530231 132.343863 
L 107.629948 132.343863 
L 107.629948 131.903918 
L 107.929099 131.903918 
L 107.929099 129.829889 
L 108.128533 129.829889 
L 108.128533 129.70419 
L 108.327967 129.70419 
L 108.427684 129.389943 
L 108.527401 129.389943 
L 108.627118 128.887148 
L 108.726835 128.887148 
L 108.826552 128.635751 
L 109.025986 128.635751 
L 109.125703 128.132956 
L 109.22542 128.132956 
L 109.325137 127.630161 
L 109.424854 127.630161 
L 109.424854 127.441613 
L 109.624288 127.441613 
L 109.624288 127.190215 
L 109.724004 127.190215 
L 109.923438 127.190215 
L 110.023155 126.498872 
L 110.122872 126.498872 
L 110.222589 125.74468 
L 110.322306 125.74468 
L 110.422023 123.984897 
L 110.52174 123.984897 
L 110.621457 123.7335 
L 110.920608 123.7335 
L 111.020325 123.419253 
L 111.219759 123.356404 
L 111.319476 122.916458 
L 111.618627 122.853609 
L 111.718344 122.287965 
L 111.818061 122.287965 
L 111.917778 121.533772 
L 112.017495 121.533772 
L 112.017495 121.030977 
L 112.316646 120.968128 
L 112.416363 120.339634 
L 112.51608 120.339634 
L 112.51608 119.899689 
L 112.715514 119.899689 
L 112.815231 119.459743 
L 112.914948 119.459743 
L 112.914948 119.271195 
L 113.114381 119.271195 
L 113.214098 118.642701 
L 113.313815 118.642701 
L 113.413532 118.202756 
L 113.513249 118.202756 
L 113.513249 117.951358 
L 113.712683 117.951358 
L 113.712683 117.385714 
L 114.011834 117.385714 
L 114.111551 116.75722 
L 114.211268 116.75722 
L 114.211268 116.254425 
L 114.510419 116.191576 
L 114.610136 116.003028 
L 114.709853 116.003028 
L 114.80957 115.563082 
L 115.009004 115.500233 
L 115.108721 114.620342 
L 115.208438 114.620342 
L 115.308155 113.8033 
L 115.407872 113.8033 
L 115.507589 113.614752 
L 115.707023 113.551903 
L 115.707023 113.237656 
L 116.006174 113.237656 
L 116.105891 112.86056 
L 116.305325 112.79771 
L 116.305325 112.672012 
L 116.405041 112.672012 
L 116.604475 112.672012 
L 116.704192 112.420614 
L 116.903626 112.420614 
L 116.903626 112.169217 
L 117.10306 112.169217 
L 117.202777 110.912229 
L 117.302494 110.912229 
L 117.402211 110.597982 
L 117.501928 110.597982 
L 117.501928 110.283736 
L 117.801079 110.283736 
L 117.900796 110.095187 
L 118.000513 110.095187 
L 118.000513 109.906639 
L 118.299664 109.84379 
L 118.299664 109.215296 
L 118.499098 109.215296 
L 118.598815 108.775351 
L 118.798249 108.775351 
L 118.897966 108.586803 
L 118.997683 108.586803 
L 119.0974 108.021158 
L 119.396551 107.958309 
L 119.496268 107.329815 
L 119.695702 107.266966 
L 119.695702 107.141267 
L 119.994852 107.078418 
L 120.094569 106.575623 
L 120.792588 106.512774 
L 120.892305 106.198527 
L 120.992022 106.198527 
L 121.091739 105.758581 
L 121.39089 105.695732 
L 121.490607 104.627293 
L 121.690041 104.627293 
L 121.690041 104.501594 
L 122.188626 104.438745 
L 122.188626 104.313046 
L 122.587494 104.250196 
L 122.687211 103.8731 
L 122.886645 103.8731 
L 122.886645 103.621703 
L 123.086079 103.621703 
L 123.185795 103.433155 
L 123.883814 103.370305 
L 123.983531 103.118908 
L 124.083248 103.118908 
L 124.182965 101.799071 
L 124.482116 101.799071 
L 124.482116 101.610523 
L 124.68155 101.610523 
L 124.68155 101.296276 
L 125.180135 101.296276 
L 125.180135 100.982029 
L 125.379569 100.982029 
L 125.379569 100.856331 
L 125.67872 100.793481 
L 125.778437 100.542084 
L 125.878154 100.542084 
L 125.977871 99.976439 
L 126.177305 99.91359 
L 126.177305 99.725042 
L 126.376739 99.725042 
L 126.476456 99.285096 
L 126.576172 99.285096 
L 126.576172 99.096548 
L 126.875323 99.033699 
L 126.875323 98.530904 
L 127.174474 98.468055 
L 127.174474 98.405205 
L 127.373908 98.405205 
L 127.473625 98.153808 
L 127.673059 98.153808 
L 127.772776 97.776712 
L 127.872493 97.776712 
L 127.872493 97.336766 
L 128.171644 97.336766 
L 128.271361 97.085369 
L 128.470795 97.022519 
L 128.570512 96.833971 
L 128.769946 96.771122 
L 128.869663 96.519724 
L 129.368248 96.456875 
L 129.467965 96.016929 
L 129.767116 95.95408 
L 129.866833 95.639833 
L 130.066266 95.639833 
L 130.066266 95.451285 
L 130.465134 95.451285 
L 130.465134 95.262737 
L 130.664568 95.262737 
L 130.664568 95.074189 
L 130.963719 95.01134 
L 130.963719 94.885641 
L 131.26287 94.822791 
L 131.26287 94.759942 
L 132.060606 94.697093 
L 132.060606 94.382846 
L 132.26004 94.382846 
L 132.359757 94.00575 
L 132.658908 93.9429 
L 132.658908 93.880051 
L 132.858342 93.880051 
L 132.858342 93.754352 
L 133.057776 93.754352 
L 133.157493 93.502955 
L 133.55636 93.440105 
L 133.55636 93.377256 
L 133.656077 93.377256 
L 134.254379 93.377256 
L 134.254379 93.251557 
L 134.453813 93.251557 
L 134.453813 93.125859 
L 134.752964 93.125859 
L 134.852681 92.811612 
L 134.952398 92.811612 
L 135.052115 92.497365 
L 135.151832 92.497365 
L 135.151832 92.120269 
L 135.5507 92.120269 
L 135.650417 91.868871 
L 135.949568 91.806022 
L 136.049285 91.491775 
L 136.248719 91.428926 
L 136.348436 91.114679 
L 136.448153 91.114679 
L 136.54787 90.926131 
L 136.747303 90.863281 
L 136.84702 90.674733 
L 137.046454 90.611884 
L 137.046454 90.297637 
L 137.644756 90.234788 
L 137.644756 89.920541 
L 137.943907 89.920541 
L 138.043624 89.417746 
L 138.342775 89.354897 
L 138.442492 89.166348 
L 138.542209 89.166348 
L 138.641926 88.789252 
L 138.941077 88.789252 
L 139.040794 88.537855 
L 139.339945 88.537855 
L 139.439662 88.349307 
L 140.037963 88.349307 
L 140.13768 88.160759 
L 140.636265 88.097909 
L 140.636265 88.03506 
L 141.13485 87.972211 
L 141.234567 87.846512 
L 141.334284 87.846512 
L 141.334284 87.720813 
L 141.832869 87.657964 
L 141.932586 87.343717 
L 142.231737 87.280867 
L 142.331454 87.092319 
L 142.830039 87.02947 
L 142.830039 86.903771 
L 143.029473 86.903771 
L 143.12919 86.715223 
L 143.328624 86.652374 
L 143.328624 86.589524 
L 143.627774 86.526675 
L 143.727491 86.400976 
L 144.026642 86.338127 
L 144.026642 86.275278 
L 144.325793 86.275278 
L 144.42551 86.08673 
L 144.724661 86.08673 
L 144.724661 85.835332 
L 145.023812 85.772483 
L 145.023812 85.521085 
L 145.223246 85.521085 
L 145.322963 85.206838 
L 145.522397 85.143989 
L 145.522397 85.01829 
L 145.721831 85.01829 
L 145.721831 84.766893 
L 145.921265 84.766893 
L 145.921265 84.641194 
L 146.120699 84.641194 
L 146.220416 84.201249 
L 146.719001 84.138399 
L 146.719001 83.949851 
L 147.217585 83.887002 
L 147.317302 83.698454 
L 147.815887 83.698454 
L 147.915604 83.447056 
L 148.015321 83.447056 
L 148.015321 83.258508 
L 148.513906 83.195659 
L 148.613623 82.755713 
L 148.813057 82.692864 
L 148.912774 82.441466 
L 149.311642 82.378617 
L 149.411359 82.190069 
L 149.511076 82.190069 
L 149.610793 81.812973 
L 149.71051 81.812973 
L 149.71051 81.624424 
L 150.009661 81.561575 
L 150.009661 81.435876 
L 150.408528 81.373027 
L 150.408528 81.310178 
L 150.607962 81.310178 
L 150.607962 81.184479 
L 150.907113 81.184479 
L 151.00683 80.807383 
L 151.804566 80.744533 
L 151.804566 80.555985 
L 152.103717 80.493136 
L 152.103717 80.367437 
L 152.303151 80.367437 
L 152.303151 80.241738 
L 152.502585 80.241738 
L 152.602302 79.990341 
L 152.801736 79.927492 
L 152.901453 79.424697 
L 153.400038 79.361847 
L 153.400038 79.236149 
L 153.599471 79.236149 
L 153.599471 79.11045 
L 154.197773 79.0476 
L 154.197773 78.984751 
L 154.496924 78.984751 
L 154.596641 78.733354 
L 154.895792 78.733354 
L 154.995509 78.481956 
L 155.095226 78.481956 
L 155.095226 78.356257 
L 155.693528 78.356257 
L 155.693528 78.230559 
L 155.892962 78.230559 
L 155.892962 78.10486 
L 156.391547 78.042011 
L 156.491264 77.853463 
L 156.790415 77.790613 
L 156.890132 77.664914 
L 157.288999 77.602065 
L 157.388716 77.350668 
L 158.186452 77.350668 
L 158.186452 77.162119 
L 158.58532 77.162119 
L 158.685037 76.973571 
L 158.884471 76.910722 
L 158.884471 76.847873 
L 159.283339 76.847873 
L 159.283339 76.722174 
L 159.781924 76.659325 
L 159.781924 76.596475 
L 160.081075 76.533626 
L 160.081075 76.470776 
L 160.380225 76.407927 
L 160.479942 76.15653 
L 161.078244 76.09368 
L 161.078244 76.030831 
L 161.477112 76.030831 
L 161.477112 75.905132 
L 162.274848 75.842283 
L 162.274848 75.779433 
L 162.374565 75.779433 
L 162.773433 75.716584 
L 162.773433 75.653735 
L 162.87315 75.653735 
L 163.571169 75.590885 
L 163.571169 75.528036 
L 164.16947 75.465187 
L 164.16947 75.402337 
L 164.568338 75.339488 
L 164.568338 75.213789 
L 165.066923 75.213789 
L 165.066923 75.08809 
L 165.964376 75.025241 
L 165.964376 74.962392 
L 166.662395 74.962392 
L 166.662395 74.836693 
L 167.160979 74.773844 
L 167.260696 74.585295 
L 167.858998 74.585295 
L 167.858998 74.396747 
L 168.257866 74.333898 
L 168.257866 74.271049 
L 169.354753 74.208199 
L 169.354753 74.14535 
L 169.653904 74.082501 
L 169.753621 73.831103 
L 169.853338 73.831103 
L 169.953055 73.516856 
L 170.052772 73.516856 
L 170.052772 73.328308 
L 170.451639 73.265459 
L 170.451639 73.202609 
L 170.551356 73.202609 
L 172.047111 73.202609 
L 172.047111 73.014061 
L 172.346262 73.014061 
L 172.445979 72.825513 
L 172.74513 72.762664 
L 172.844847 72.574116 
L 173.343432 72.511266 
L 173.443149 72.322718 
L 173.941733 72.322718 
L 174.04145 72.13417 
L 174.141167 72.13417 
L 174.240884 71.757074 
L 174.440318 71.757074 
L 174.440318 71.631375 
L 175.636922 71.568526 
L 175.636922 71.505676 
L 176.03579 71.505676 
L 176.03579 71.317128 
L 176.434658 71.317128 
L 176.434658 71.12858 
L 177.730978 71.065731 
L 177.730978 71.002882 
L 178.32928 70.940032 
L 178.32928 70.877183 
L 178.927582 70.877183 
L 178.927582 70.751484 
L 179.127016 70.751484 
L 179.127016 70.625785 
L 179.32645 70.625785 
L 179.32645 70.437237 
L 180.722487 70.374388 
L 180.822204 70.18584 
L 181.221072 70.18584 
L 181.221072 70.060141 
L 182.317959 69.997292 
L 182.317959 69.871593 
L 183.115695 69.808744 
L 183.115695 69.745894 
L 184.013147 69.683045 
L 184.013147 69.620196 
L 184.212581 69.620196 
L 184.212581 69.494497 
L 184.412015 69.494497 
L 184.412015 69.368798 
L 184.9106 69.368798 
L 184.9106 69.243099 
L 185.508902 69.243099 
L 185.508902 69.117401 
L 186.406355 69.054551 
L 186.406355 68.991702 
L 186.90494 68.928852 
L 186.90494 68.803154 
L 187.802392 68.740304 
L 187.802392 68.551756 
L 188.300977 68.488907 
L 188.300977 68.426058 
L 188.899279 68.363208 
L 188.899279 68.300359 
L 188.998996 68.300359 
L 189.597298 68.237509 
L 189.597298 68.111811 
L 190.1956 68.111811 
L 190.1956 67.923263 
L 190.494751 67.860413 
L 190.494751 67.797564 
L 191.691354 67.734715 
L 191.691354 67.420468 
L 192.189939 67.420468 
L 192.189939 67.294769 
L 192.887958 67.23192 
L 192.987675 67.106221 
L 193.386543 67.043371 
L 193.386543 66.980522 
L 193.48626 66.980522 
L 194.682863 66.917673 
L 194.682863 66.791974 
L 195.081731 66.729125 
L 195.081731 66.603426 
L 196.378052 66.540577 
L 196.477769 66.414878 
L 197.275505 66.352028 
L 197.275505 66.289179 
L 197.474938 66.289179 
L 197.574655 66.100631 
L 197.774089 66.100631 
L 197.774089 65.974932 
L 198.970693 65.912083 
L 198.970693 65.786384 
L 199.568995 65.723535 
L 199.568995 65.660685 
L 200.06758 65.597836 
L 200.167297 65.409288 
L 200.366731 65.346439 
L 200.366731 65.283589 
L 201.3639 65.22074 
L 201.463617 65.095041 
L 202.560504 65.032192 
L 202.660221 64.906493 
L 203.258523 64.843644 
L 203.258523 64.780794 
L 204.455126 64.717945 
L 204.554843 64.466547 
L 205.851164 64.403698 
L 205.950881 64.277999 
L 207.546352 64.277999 
L 207.546352 64.089451 
L 208.643239 64.026602 
L 208.643239 63.963753 
L 208.94239 63.900903 
L 208.94239 63.838054 
L 210.238711 63.775204 
L 210.338428 63.586656 
L 211.23588 63.523807 
L 211.23588 63.460958 
L 211.834182 63.398108 
L 211.834182 63.335259 
L 212.831352 63.272409 
L 212.831352 63.20956 
L 213.130503 63.20956 
L 213.23022 63.021012 
L 214.626257 62.958163 
L 214.626257 62.895313 
L 215.623427 62.832464 
L 215.623427 62.706765 
L 216.022295 62.706765 
L 216.022295 62.581066 
L 216.620597 62.581066 
L 216.620597 62.455368 
L 218.515219 62.392518 
L 218.515219 62.329669 
L 219.312955 62.26682 
L 219.312955 62.20397 
L 219.612106 62.20397 
L 219.711823 62.015422 
L 221.10786 61.952573 
L 221.10786 61.889723 
L 221.207577 61.889723 
L 222.304464 61.826874 
L 222.304464 61.764025 
L 223.401351 61.701175 
L 223.401351 61.638326 
L 224.298804 61.575477 
L 224.298804 61.512627 
L 224.697671 61.449778 
L 224.697671 61.386929 
L 227.090879 61.324079 
L 227.090879 61.26123 
L 229.184935 61.19838 
L 229.184935 61.135531 
L 230.979841 61.072682 
L 230.979841 61.009832 
L 231.378708 60.946983 
L 231.378708 60.884134 
L 233.373048 60.821284 
L 233.373048 60.758435 
L 234.370218 60.695585 
L 234.370218 60.632736 
L 234.569651 60.632736 
L 234.569651 60.507037 
L 234.669368 60.507037 
L 237.561161 60.444188 
L 237.561161 60.318489 
L 238.259179 60.25564 
L 238.259179 60.192791 
L 238.358896 60.192791 
L 239.256349 60.129941 
L 239.356066 60.004242 
L 240.652387 59.941393 
L 240.652387 59.878544 
L 242.945877 59.815694 
L 242.945877 59.627146 
L 244.740782 59.564297 
L 244.740782 59.501448 
L 245.438801 59.501448 
L 245.438801 59.375749 
L 245.837669 59.375749 
L 245.837669 59.187201 
L 247.13399 59.124351 
L 247.13399 59.061502 
L 249.527197 58.998653 
L 249.527197 58.935803 
L 249.926065 58.872954 
L 249.926065 58.810104 
L 252.219555 58.747255 
L 252.219555 58.684406 
L 252.917574 58.621556 
L 252.917574 58.558707 
L 253.316442 58.558707 
L 253.316442 58.370159 
L 254.513046 58.30731 
L 254.513046 58.24446 
L 255.510215 58.181611 
L 255.510215 58.055912 
L 257.604272 57.993063 
L 257.604272 57.930213 
L 259.798045 57.867364 
L 259.798045 57.804515 
L 260.695498 57.741665 
L 260.695498 57.678816 
L 264.484743 57.615967 
L 264.484743 57.553117 
L 264.783894 57.490268 
L 264.783894 57.427418 
L 265.282478 57.364569 
L 265.282478 57.30172 
L 267.177101 57.23887 
L 267.177101 57.176021 
L 270.368044 57.113172 
L 270.368044 57.050322 
L 271.265497 56.987473 
L 271.265497 56.924623 
L 272.362383 56.861774 
L 272.4621 56.736075 
L 275.553326 56.673226 
L 275.553326 56.610377 
L 279.143137 56.547527 
L 279.143137 56.484678 
L 287.918231 56.421829 
L 287.918231 56.358979 
L 291.408325 56.29613 
L 291.508042 56.170431 
L 292.20606 56.107582 
L 292.20606 56.044732 
L 293.901249 55.981883 
L 294.000966 55.856184 
L 296.892758 55.793335 
L 296.992475 55.667636 
L 300.083701 55.604787 
L 300.083701 55.541937 
L 300.78172 55.479088 
L 300.78172 55.416239 
L 304.172097 55.353389 
L 304.172097 55.29054 
L 309.457096 55.227691 
L 309.457096 55.164841 
L 312.049738 55.101992 
L 312.049738 55.039142 
L 314.542662 54.976293 
L 314.542662 54.913444 
L 318.930208 54.850594 
L 318.930208 54.787745 
L 335.68266 54.724896 
L 335.782376 54.536348 
L 341.26681 54.473498 
L 341.26681 54.410649 
L 348.645866 54.347799 
L 348.645866 54.28495 
L 353.232846 54.222101 
L 353.232846 54.159251 
L 366.196052 54.096402 
L 366.196052 54.033553 
L 374.273127 53.970703 
L 374.273127 53.907854 
L 378.660674 53.845005 
L 378.760391 53.719306 
L 380.355862 53.656456 
L 380.355862 53.593607 
L 382.350202 53.530758 
L 382.350202 53.467908 
L 385.241994 53.405059 
L 385.241994 53.34221 
L 400.299256 53.27936 
L 400.299256 53.216511 
L 403.490199 53.153662 
L 403.490199 53.090812 
L 415.456236 53.027963 
L 415.456236 52.965113 
L 422.037556 52.902264 
L 422.037556 52.839415 
L 426.624537 52.776565 
L 426.624537 52.713716 
L 431.909536 52.650867 
L 431.909536 52.588017 
L 432.208687 52.588017 
L 432.208687 52.462318 
L 442.97812 52.399469 
L 442.97812 52.33662 
L 449.459723 52.27377 
L 449.459723 52.210921 
L 452.351515 52.148072 
L 452.351515 52.085222 
L 452.451232 52.085222 
L 456.739062 52.022373 
L 456.739062 51.959524 
L 460.827457 51.896674 
L 460.827457 51.833825 
L 467.00991 51.770975 
L 467.00991 51.708126 
L 469.901702 51.645277 
L 469.901702 51.582427 
L 481.568587 51.519578 
L 481.568587 51.456729 
L 513.178867 51.393879 
L 513.178867 51.33103 
L 536.014053 51.268181 
L 536.014053 51.205331 
L 541.39877 51.142482 
L 541.39877 51.079632 
L 551.569901 51.016783 
L 551.569901 50.953934 
L 570.516125 50.891084 
L 570.516125 50.828235 
L 602.126405 50.765386 
L 602.126405 50.702536 
L 625.360459 50.639687 
L 625.360459 50.576837 
L 638.323665 50.513988 
L 638.323665 50.451139 
L 667.341303 50.451139 
L 667.341303 50.32544 
L 678.110736 50.262591 
L 678.110736 50.199741 
L 696.75781 50.136892 
L 696.75781 50.074043 
L 809.138835 50.011193 
L 809.138835 50.011193 
" clip-path="url(#p019e4b29a1)" style="fill: none; stroke: #4c72b0; stroke-width: 1.5; stroke-linecap: round"/>
   </g>
   <g id="line2d_2">
    <path d="M 88.48429 495.047557 
L 88.48429 491.465143 
L 88.48429 483.79752 
L 88.48429 471.793291 
L 88.48429 458.783472 
L 88.48429 445.585105 
L 88.48429 429.809914 
L 88.48429 410.766556 
L 88.48429 394.174324 
L 88.48429 376.890748 
L 88.48429 359.79572 
L 88.48429 344.649023 
L 88.48429 329.628024 
L 88.48429 315.046971 
L 88.783441 300.34022 
L 88.982875 285.696317 
L 89.282026 273.440691 
L 89.680893 262.127805 
L 89.680893 250.437823 
L 89.880327 240.381924 
L 90.279195 229.571833 
L 90.578346 218.824591 
L 90.877497 208.957241 
L 90.977214 199.215589 
L 91.276365 189.851033 
L 91.675233 181.554917 
L 92.173818 174.452939 
L 92.971553 166.848165 
L 93.470138 159.243392 
L 93.769289 153.084154 
L 94.567025 147.113464 
L 94.965893 141.142774 
L 95.863346 135.61203 
L 96.661081 130.961177 
L 97.059949 126.373173 
L 98.156836 122.099416 
L 98.954572 117.951358 
L 100.051458 113.991848 
L 100.64976 110.220886 
L 101.447496 105.88428 
L 102.544383 103.244607 
L 103.441835 99.536494 
L 105.037307 96.645423 
L 106.233911 94.508545 
L 107.131363 92.120269 
L 108.427684 88.726403 
L 110.322306 86.275278 
L 112.216929 83.887002 
L 113.513249 81.435876 
L 115.707023 79.550395 
L 118.399381 77.664914 
L 121.291173 76.030831 
L 122.986362 74.459597 
L 124.382399 72.888363 
L 126.277022 71.254279 
L 129.168814 70.060141 
L 132.359757 67.986112 
L 135.450983 65.974932 
L 138.741643 64.403698 
L 141.832869 63.649506 
L 144.42551 62.581066 
L 148.71334 61.512627 
L 153.699188 60.569887 
L 159.083905 59.061502 
L 163.670885 58.30731 
L 167.260696 57.553117 
L 173.044281 56.987473 
L 178.428997 56.170431 
L 183.414846 55.604787 
L 188.799562 54.976293 
L 195.680033 54.410649 
L 201.463617 53.970703 
L 209.440975 53.593607 
L 218.116351 53.090812 
L 226.692011 52.650867 
L 235.766255 52.399469 
L 244.341915 52.085222 
L 253.71531 51.833825 
L 263.687007 51.268181 
L 275.852477 51.142482 
L 287.319929 50.891084 
L 300.78172 50.765386 
L 314.542662 50.639687 
L 329.599924 50.639687 
L 347.947847 50.388289 
L 365.498034 50.388289 
L 389.629541 50.32544 
L 412.564444 50.32544 
L 441.681799 50.32544 
L 465.314721 50.32544 
L 491.640001 50.32544 
L 519.161885 50.262591 
L 548.279241 50.262591 
L 576.59886 50.136892 
L 605.516782 50.136892 
L 635.431873 50.074043 
L 667.241586 50.074043 
L 698.552715 50.011193 
L 730.661579 50.011193 
L 759.380067 50.011193 
L 784.708177 50.011193 
L 809.138835 50.011193 
" clip-path="url(#p019e4b29a1)" style="fill: none; stroke: #dd8452; stroke-width: 1.5; stroke-linecap: round"/>
   </g>
   <g id="line2d_3">
    <path d="M 88.48429 495.047557 
L 88.48429 382.295793 
L 88.683724 382.295793 
L 88.683724 382.232944 
L 88.783441 321.017661 
L 88.883158 321.017661 
L 88.883158 292.672597 
L 89.082592 292.672597 
L 89.182309 244.027187 
L 89.282026 244.027187 
L 89.381743 234.85118 
L 89.481459 234.85118 
L 89.581176 224.041089 
L 89.680893 224.041089 
L 89.78061 219.830181 
L 89.880327 219.830181 
L 89.980044 215.744972 
L 90.179478 215.744972 
L 90.279195 198.335698 
L 90.378912 198.335698 
L 90.478629 184.006042 
L 90.578346 184.006042 
L 90.678063 175.395679 
L 90.77778 175.395679 
L 90.877497 170.179182 
L 91.076931 170.179182 
L 91.076931 161.631668 
L 91.276365 161.631668 
L 91.376082 149.313192 
L 91.475799 149.313192 
L 91.575516 144.788038 
L 91.675233 144.788038 
L 91.77495 143.970996 
L 91.974384 143.908147 
L 92.074101 134.794988 
L 92.173818 134.794988 
L 92.273535 131.463972 
L 92.373252 131.463972 
L 92.472969 129.515642 
L 92.572686 129.515642 
L 92.572686 129.075696 
L 92.77212 129.075696 
L 92.871836 127.69301 
L 92.971553 127.69301 
L 93.07127 126.875968 
L 93.170987 126.875968 
L 93.270704 124.67624 
L 93.370421 124.67624 
L 93.470138 122.916458 
L 93.569855 122.916458 
L 93.669572 120.465333 
L 94.06844 120.402484 
L 94.06844 119.585442 
L 94.267874 119.585442 
L 94.367591 118.139906 
L 94.467308 118.139906 
L 94.567025 116.82007 
L 94.666742 116.82007 
L 94.766459 114.934589 
L 94.866176 114.934589 
L 94.965893 114.368944 
L 95.06561 114.368944 
L 95.165327 113.426204 
L 95.265044 113.426204 
L 95.364761 110.220886 
L 95.464478 110.220886 
L 95.464478 109.403844 
L 95.663912 109.403844 
L 95.763629 108.209706 
L 95.863346 108.209706 
L 95.963063 107.769761 
L 96.06278 107.769761 
L 96.162496 105.695732 
L 96.262213 105.695732 
L 96.262213 104.187347 
L 96.36193 104.187347 
L 96.561364 104.187347 
L 96.661081 102.741812 
L 96.760798 102.741812 
L 96.860515 99.787891 
L 96.960232 99.787891 
L 97.059949 99.347946 
L 97.159666 99.347946 
L 97.259383 98.153808 
L 97.3591 98.153808 
L 97.458817 96.582574 
L 97.658251 96.582574 
L 97.658251 96.016929 
L 97.857685 96.016929 
L 97.957402 95.576984 
L 98.156836 95.514134 
L 98.256553 94.759942 
L 98.455987 94.759942 
L 98.555704 93.880051 
L 98.854855 93.817202 
L 98.954572 93.251557 
L 99.154006 93.251557 
L 99.253723 89.857691 
L 99.35344 89.857691 
L 99.453157 89.480595 
L 99.552873 89.480595 
L 99.65259 88.600704 
L 99.852024 88.600704 
L 99.951741 87.343717 
L 100.151175 87.343717 
L 100.250892 86.715223 
L 100.350609 86.715223 
L 100.450326 86.02388 
L 100.550043 86.02388 
L 100.64976 85.583935 
L 101.048628 85.583935 
L 101.148345 85.395386 
L 101.347779 85.395386 
L 101.447496 85.143989 
L 101.547213 85.143989 
L 101.64693 84.578345 
L 101.746647 84.578345 
L 101.846364 84.138399 
L 101.946081 84.138399 
L 102.045798 83.824152 
L 102.245232 83.824152 
L 102.245232 83.698454 
L 102.444666 83.698454 
L 102.544383 83.007111 
L 102.6441 83.007111 
L 102.743817 82.504316 
L 102.843534 82.504316 
L 102.94325 81.812973 
L 103.042967 81.812973 
L 103.142684 81.05878 
L 103.242401 81.05878 
L 103.242401 80.807383 
L 103.541552 80.744533 
L 103.641269 80.430287 
L 103.740986 80.430287 
L 103.740986 80.304588 
L 103.94042 80.304588 
L 103.94042 80.178889 
L 104.139854 80.178889 
L 104.239571 79.676094 
L 104.538722 79.676094 
L 104.638439 79.424697 
L 104.738156 79.424697 
L 104.837873 78.796203 
L 105.436175 78.733354 
L 105.535892 78.419107 
L 105.635609 78.419107 
L 105.735326 77.539216 
L 106.034477 77.476366 
L 106.134194 77.224969 
L 106.632778 77.162119 
L 106.732495 76.910722 
L 107.031646 76.910722 
L 107.031646 76.785023 
L 107.23108 76.785023 
L 107.330797 76.470776 
L 107.430514 76.470776 
L 107.430514 76.09368 
L 107.729665 76.09368 
L 107.829382 75.213789 
L 107.929099 75.213789 
L 108.028816 74.962392 
L 108.826552 74.899542 
L 108.926269 74.271049 
L 109.125703 74.271049 
L 109.22542 73.768254 
L 109.325137 73.768254 
L 109.325137 73.328308 
L 109.424854 73.328308 
L 109.724004 73.328308 
L 109.823721 72.951212 
L 110.122872 72.951212 
L 110.222589 72.071321 
L 110.621457 72.008471 
L 110.621457 71.945622 
L 110.820891 71.945622 
L 110.920608 71.379978 
L 111.020325 71.379978 
L 111.120042 71.12858 
L 111.51891 71.065731 
L 111.618627 70.625785 
L 111.718344 70.625785 
L 111.718344 70.500087 
L 112.117212 70.437237 
L 112.216929 69.808744 
L 112.615797 69.745894 
L 112.715514 69.368798 
L 112.914948 69.368798 
L 113.014665 69.18025 
L 113.313815 69.18025 
L 113.313815 69.054551 
L 113.612966 69.054551 
L 113.712683 68.551756 
L 114.011834 68.488907 
L 114.111551 68.237509 
L 114.211268 68.237509 
L 114.310985 67.797564 
L 114.610136 67.797564 
L 114.709853 67.546166 
L 115.308155 67.483317 
L 115.407872 67.23192 
L 115.607306 67.23192 
L 115.707023 66.854823 
L 115.80674 66.854823 
L 115.80674 66.729125 
L 116.305325 66.666275 
L 116.305325 66.603426 
L 117.10306 66.603426 
L 117.202777 66.352028 
L 117.801079 66.289179 
L 117.801079 66.22633 
L 118.299664 66.22633 
L 118.399381 65.974932 
L 119.396551 65.912083 
L 119.396551 65.849234 
L 119.795418 65.786384 
L 119.795418 65.472137 
L 120.094569 65.409288 
L 120.094569 65.346439 
L 120.294003 65.346439 
L 120.39372 65.15789 
L 121.291173 65.095041 
L 121.39089 64.906493 
L 121.490607 64.906493 
L 121.590324 64.655096 
L 121.889475 64.655096 
L 121.889475 64.529397 
L 123.185795 64.466547 
L 123.185795 64.403698 
L 123.385229 64.403698 
L 123.385229 64.152301 
L 124.083248 64.152301 
L 124.182965 63.963753 
L 124.282682 63.963753 
L 124.282682 63.838054 
L 124.482116 63.838054 
L 124.581833 63.586656 
L 124.880984 63.523807 
L 124.880984 63.398108 
L 126.177305 63.335259 
L 126.177305 63.272409 
L 127.174474 63.272409 
L 127.174474 63.083861 
L 128.371078 63.021012 
L 128.371078 62.895313 
L 128.96938 62.895313 
L 129.069097 62.643916 
L 129.467965 62.643916 
L 129.467965 62.518217 
L 130.465134 62.455368 
L 130.564851 62.141121 
L 130.764285 62.141121 
L 130.764285 62.015422 
L 131.163153 61.952573 
L 131.163153 61.764025 
L 131.462304 61.764025 
L 131.462304 61.638326 
L 131.960889 61.638326 
L 131.960889 61.449778 
L 133.057776 61.386929 
L 133.157493 61.19838 
L 133.25721 61.19838 
L 133.25721 61.072682 
L 134.852681 61.009832 
L 134.952398 60.884134 
L 135.251549 60.821284 
L 135.251549 60.758435 
L 136.149002 60.695585 
L 136.149002 60.569887 
L 137.245888 60.507037 
L 137.245888 60.444188 
L 137.84419 60.444188 
L 137.84419 60.318489 
L 138.84136 60.25564 
L 138.84136 60.192791 
L 139.240228 60.129941 
L 139.240228 60.004242 
L 140.735982 59.941393 
L 140.735982 59.878544 
L 141.334284 59.815694 
L 141.334284 59.752845 
L 142.830039 59.689996 
L 142.830039 59.627146 
L 143.029473 59.627146 
L 143.12919 59.438598 
L 143.328624 59.375749 
L 143.328624 59.312899 
L 143.727491 59.25005 
L 143.827208 58.935803 
L 146.020982 58.872954 
L 146.020982 58.810104 
L 147.117868 58.747255 
L 147.217585 58.621556 
L 148.015321 58.558707 
L 148.015321 58.495858 
L 149.012491 58.433008 
L 149.012491 58.370159 
L 149.411359 58.370159 
L 149.511076 58.181611 
L 150.707679 58.118761 
L 150.807396 57.993063 
L 153.100887 57.930213 
L 153.100887 57.867364 
L 153.699188 57.804515 
L 153.699188 57.678816 
L 156.192113 57.615967 
L 156.192113 57.490268 
L 157.089565 57.427418 
L 157.089565 57.364569 
L 158.385886 57.30172 
L 158.385886 57.23887 
L 158.685037 57.176021 
L 158.685037 56.987473 
L 160.081075 56.924623 
L 160.081075 56.861774 
L 160.87881 56.798925 
L 160.87881 56.736075 
L 162.374565 56.673226 
L 162.374565 56.610377 
L 163.471452 56.547527 
L 163.471452 56.421829 
L 163.770602 56.358979 
L 163.770602 56.29613 
L 166.462961 56.23328 
L 166.562678 56.044732 
L 169.055602 55.981883 
L 169.055602 55.919034 
L 170.252206 55.856184 
L 170.252206 55.793335 
L 171.249375 55.730486 
L 171.249375 55.667636 
L 173.143998 55.604787 
L 173.143998 55.541937 
L 173.243715 55.541937 
L 173.7423 55.541937 
L 173.7423 55.416239 
L 177.33211 55.353389 
L 177.33211 55.29054 
L 178.827865 55.227691 
L 178.927582 55.101992 
L 181.719657 55.039142 
L 181.719657 54.976293 
L 182.118525 54.976293 
L 182.118525 54.850594 
L 186.90494 54.787745 
L 186.90494 54.724896 
L 190.395034 54.662046 
L 190.395034 54.599197 
L 192.887958 54.536348 
L 192.887958 54.473498 
L 195.181448 54.410649 
L 195.181448 54.347799 
L 200.566165 54.28495 
L 200.566165 54.222101 
L 202.161636 54.159251 
L 202.161636 54.096402 
L 204.355409 54.033553 
L 204.355409 53.970703 
L 205.950881 53.907854 
L 205.950881 53.845005 
L 206.748617 53.782155 
L 206.748617 53.719306 
L 207.845503 53.656456 
L 207.94522 53.530758 
L 219.213238 53.467908 
L 219.213238 53.405059 
L 221.407011 53.34221 
L 221.407011 53.27936 
L 233.073897 53.216511 
L 233.073897 53.153662 
L 234.968519 53.090812 
L 234.968519 53.027963 
L 238.159462 52.965113 
L 238.159462 52.902264 
L 241.749273 52.839415 
L 241.749273 52.776565 
L 244.042764 52.713716 
L 244.042764 52.650867 
L 248.928895 52.588017 
L 248.928895 52.525168 
L 254.213895 52.462318 
L 254.213895 52.399469 
L 258.701158 52.33662 
L 258.701158 52.27377 
L 258.800875 52.27377 
L 267.276818 52.210921 
L 267.276818 52.148072 
L 271.365214 52.085222 
L 271.365214 52.022373 
L 286.223042 51.959524 
L 286.223042 51.896674 
L 292.604928 51.833825 
L 292.604928 51.770975 
L 294.698985 51.708126 
L 294.698985 51.645277 
L 306.764738 51.582427 
L 306.864455 51.456729 
L 317.434454 51.393879 
L 317.434454 51.33103 
L 325.312095 51.268181 
L 325.312095 51.205331 
L 334.486056 51.142482 
L 334.486056 51.079632 
L 347.150111 51.016783 
L 347.150111 50.953934 
L 369.287279 50.891084 
L 369.287279 50.828235 
L 407.379161 50.765386 
L 407.379161 50.702536 
L 421.638688 50.639687 
L 421.638688 50.576837 
L 426.823971 50.513988 
L 426.823971 50.451139 
L 439.488026 50.388289 
L 439.488026 50.32544 
L 439.587743 50.32544 
L 446.069346 50.262591 
L 446.069346 50.199741 
L 498.91934 50.136892 
L 498.91934 50.074043 
L 809.138835 50.011193 
L 809.138835 50.011193 
" clip-path="url(#p019e4b29a1)" style="fill: none; stroke: #55a868; stroke-width: 1.5; stroke-linecap: round"/>
   </g>
   <g id="line2d_4">
    <path d="M 88.48429 495.047557 
L 809.138835 50.011193 
" clip-path="url(#p019e4b29a1)" style="fill: none; stroke-dasharray: 5.55,2.4; stroke-dashoffset: 0; stroke: #1a1a1a; stroke-width: 1.5"/>
   </g>
   <g id="patch_3">
    <path d="M 52.451563 517.299375 
L 52.451563 27.759375 
" style="fill: none; stroke: #262626; stroke-width: 1.25; stroke-linejoin: miter; stroke-linecap: square"/>
   </g>
   <g id="patch_4">
    <path d="M 845.171562 517.299375 
L 845.171562 27.759375 
" style="fill: none; stroke: #262626; stroke-width: 1.25; stroke-linejoin: miter; stroke-linecap: square"/>
   </g>
   <g id="patch_5">
    <path d="M 52.451563 517.299375 
L 845.171562 517.299375 
" style="fill: none; stroke: #262626; stroke-width: 1.25; stroke-linejoin: miter; stroke-linecap: square"/>
   </g>
   <g id="patch_6">
    <path d="M 52.451563 27.759375 
L 845.171562 27.759375 
" style="fill: none; stroke: #262626; stroke-width: 1.25; stroke-linejoin: miter; stroke-linecap: square"/>
   </g>
   <g id="text_15">
    <!-- ROC Curve - model comparison -->
    <g style="fill: #262626" transform="translate(297.680313 21.759375) scale(0.2 -0.2)">
     <defs>
      <path id="Arial-BoldMT-52" d="M 469 0 
L 469 4581 
L 2416 4581 
Q 3150 4581 3483 4457 
Q 3816 4334 4016 4018 
Q 4216 3703 4216 3297 
Q 4216 2781 3912 2445 
Q 3609 2109 3006 2022 
Q 3306 1847 3501 1637 
Q 3697 1428 4028 894 
L 4588 0 
L 3481 0 
L 2813 997 
Q 2456 1531 2325 1670 
Q 2194 1809 2047 1861 
Q 1900 1913 1581 1913 
L 1394 1913 
L 1394 0 
L 469 0 
z
M 1394 2644 
L 2078 2644 
Q 2744 2644 2909 2700 
Q 3075 2756 3169 2893 
Q 3263 3031 3263 3238 
Q 3263 3469 3139 3611 
Q 3016 3753 2791 3791 
Q 2678 3806 2116 3806 
L 1394 3806 
L 1394 2644 
z
" transform="scale(0.015625)"/>
      <path id="Arial-BoldMT-4f" d="M 278 2263 
Q 278 2963 488 3438 
Q 644 3788 914 4066 
Q 1184 4344 1506 4478 
Q 1934 4659 2494 4659 
Q 3506 4659 4114 4031 
Q 4722 3403 4722 2284 
Q 4722 1175 4119 548 
Q 3516 -78 2506 -78 
Q 1484 -78 881 545 
Q 278 1169 278 2263 
z
M 1231 2294 
Q 1231 1516 1590 1114 
Q 1950 713 2503 713 
Q 3056 713 3411 1111 
Q 3766 1509 3766 2306 
Q 3766 3094 3420 3481 
Q 3075 3869 2503 3869 
Q 1931 3869 1581 3476 
Q 1231 3084 1231 2294 
z
" transform="scale(0.015625)"/>
      <path id="Arial-BoldMT-43" d="M 3397 1684 
L 4294 1400 
Q 4088 650 3608 286 
Q 3128 -78 2391 -78 
Q 1478 -78 890 545 
Q 303 1169 303 2250 
Q 303 3394 893 4026 
Q 1484 4659 2447 4659 
Q 3288 4659 3813 4163 
Q 4125 3869 4281 3319 
L 3366 3100 
Q 3284 3456 3026 3662 
Q 2769 3869 2400 3869 
Q 1891 3869 1573 3503 
Q 1256 3138 1256 2319 
Q 1256 1450 1568 1081 
Q 1881 713 2381 713 
Q 2750 713 3015 947 
Q 3281 1181 3397 1684 
z
" transform="scale(0.015625)"/>
      <path id="Arial-BoldMT-20" transform="scale(0.015625)"/>
      <path id="Arial-BoldMT-75" d="M 2644 0 
L 2644 497 
Q 2463 231 2167 78 
Q 1872 -75 1544 -75 
Q 1209 -75 943 72 
Q 678 219 559 484 
Q 441 750 441 1219 
L 441 3319 
L 1319 3319 
L 1319 1794 
Q 1319 1094 1367 936 
Q 1416 778 1544 686 
Q 1672 594 1869 594 
Q 2094 594 2272 717 
Q 2450 841 2515 1023 
Q 2581 1206 2581 1919 
L 2581 3319 
L 3459 3319 
L 3459 0 
L 2644 0 
z
" transform="scale(0.015625)"/>
      <path id="Arial-BoldMT-72" d="M 1300 0 
L 422 0 
L 422 3319 
L 1238 3319 
L 1238 2847 
Q 1447 3181 1614 3287 
Q 1781 3394 1994 3394 
Q 2294 3394 2572 3228 
L 2300 2463 
Q 2078 2606 1888 2606 
Q 1703 2606 1575 2504 
Q 1447 2403 1373 2137 
Q 1300 1872 1300 1025 
L 1300 0 
z
" transform="scale(0.015625)"/>
      <path id="Arial-BoldMT-76" d="M 1372 0 
L 34 3319 
L 956 3319 
L 1581 1625 
L 1763 1059 
Q 1834 1275 1853 1344 
Q 1897 1484 1947 1625 
L 2578 3319 
L 3481 3319 
L 2163 0 
L 1372 0 
z
" transform="scale(0.015625)"/>
      <path id="Arial-BoldMT-65" d="M 2381 1056 
L 3256 909 
Q 3088 428 2723 176 
Q 2359 -75 1813 -75 
Q 947 -75 531 491 
Q 203 944 203 1634 
Q 203 2459 634 2926 
Q 1066 3394 1725 3394 
Q 2466 3394 2894 2905 
Q 3322 2416 3303 1406 
L 1103 1406 
Q 1113 1016 1316 798 
Q 1519 581 1822 581 
Q 2028 581 2168 693 
Q 2309 806 2381 1056 
z
M 2431 1944 
Q 2422 2325 2234 2523 
Q 2047 2722 1778 2722 
Q 1491 2722 1303 2513 
Q 1116 2303 1119 1944 
L 2431 1944 
z
" transform="scale(0.015625)"/>
      <path id="Arial-BoldMT-2d" d="M 359 1222 
L 359 2100 
L 2084 2100 
L 2084 1222 
L 359 1222 
z
" transform="scale(0.015625)"/>
      <path id="Arial-BoldMT-6d" d="M 394 3319 
L 1203 3319 
L 1203 2866 
Q 1638 3394 2238 3394 
Q 2556 3394 2790 3262 
Q 3025 3131 3175 2866 
Q 3394 3131 3647 3262 
Q 3900 3394 4188 3394 
Q 4553 3394 4806 3245 
Q 5059 3097 5184 2809 
Q 5275 2597 5275 2122 
L 5275 0 
L 4397 0 
L 4397 1897 
Q 4397 2391 4306 2534 
Q 4184 2722 3931 2722 
Q 3747 2722 3584 2609 
Q 3422 2497 3350 2280 
Q 3278 2063 3278 1594 
L 3278 0 
L 2400 0 
L 2400 1819 
Q 2400 2303 2353 2443 
Q 2306 2584 2207 2653 
Q 2109 2722 1941 2722 
Q 1738 2722 1575 2612 
Q 1413 2503 1342 2297 
Q 1272 2091 1272 1613 
L 1272 0 
L 394 0 
L 394 3319 
z
" transform="scale(0.015625)"/>
      <path id="Arial-BoldMT-6f" d="M 256 1706 
Q 256 2144 472 2553 
Q 688 2963 1083 3178 
Q 1478 3394 1966 3394 
Q 2719 3394 3200 2905 
Q 3681 2416 3681 1669 
Q 3681 916 3195 420 
Q 2709 -75 1972 -75 
Q 1516 -75 1102 131 
Q 688 338 472 736 
Q 256 1134 256 1706 
z
M 1156 1659 
Q 1156 1166 1390 903 
Q 1625 641 1969 641 
Q 2313 641 2545 903 
Q 2778 1166 2778 1666 
Q 2778 2153 2545 2415 
Q 2313 2678 1969 2678 
Q 1625 2678 1390 2415 
Q 1156 2153 1156 1659 
z
" transform="scale(0.015625)"/>
      <path id="Arial-BoldMT-64" d="M 3503 0 
L 2688 0 
L 2688 488 
Q 2484 203 2207 64 
Q 1931 -75 1650 -75 
Q 1078 -75 670 386 
Q 263 847 263 1672 
Q 263 2516 659 2955 
Q 1056 3394 1663 3394 
Q 2219 3394 2625 2931 
L 2625 4581 
L 3503 4581 
L 3503 0 
z
M 1159 1731 
Q 1159 1200 1306 963 
Q 1519 619 1900 619 
Q 2203 619 2415 876 
Q 2628 1134 2628 1647 
Q 2628 2219 2422 2470 
Q 2216 2722 1894 2722 
Q 1581 2722 1370 2473 
Q 1159 2225 1159 1731 
z
" transform="scale(0.015625)"/>
      <path id="Arial-BoldMT-6c" d="M 459 0 
L 459 4581 
L 1338 4581 
L 1338 0 
L 459 0 
z
" transform="scale(0.015625)"/>
      <path id="Arial-BoldMT-63" d="M 3353 2338 
L 2488 2181 
Q 2444 2441 2289 2572 
Q 2134 2703 1888 2703 
Q 1559 2703 1364 2476 
Q 1169 2250 1169 1719 
Q 1169 1128 1367 884 
Q 1566 641 1900 641 
Q 2150 641 2309 783 
Q 2469 925 2534 1272 
L 3397 1125 
Q 3263 531 2881 228 
Q 2500 -75 1859 -75 
Q 1131 -75 698 384 
Q 266 844 266 1656 
Q 266 2478 700 2936 
Q 1134 3394 1875 3394 
Q 2481 3394 2839 3133 
Q 3197 2872 3353 2338 
z
" transform="scale(0.015625)"/>
      <path id="Arial-BoldMT-70" d="M 434 3319 
L 1253 3319 
L 1253 2831 
Q 1413 3081 1684 3237 
Q 1956 3394 2288 3394 
Q 2866 3394 3269 2941 
Q 3672 2488 3672 1678 
Q 3672 847 3265 386 
Q 2859 -75 2281 -75 
Q 2006 -75 1782 34 
Q 1559 144 1313 409 
L 1313 -1263 
L 434 -1263 
L 434 3319 
z
M 1303 1716 
Q 1303 1156 1525 889 
Q 1747 622 2066 622 
Q 2372 622 2575 867 
Q 2778 1113 2778 1672 
Q 2778 2194 2568 2447 
Q 2359 2700 2050 2700 
Q 1728 2700 1515 2451 
Q 1303 2203 1303 1716 
z
" transform="scale(0.015625)"/>
      <path id="Arial-BoldMT-61" d="M 1116 2306 
L 319 2450 
Q 453 2931 781 3162 
Q 1109 3394 1756 3394 
Q 2344 3394 2631 3255 
Q 2919 3116 3036 2902 
Q 3153 2688 3153 2116 
L 3144 1091 
Q 3144 653 3186 445 
Q 3228 238 3344 0 
L 2475 0 
Q 2441 88 2391 259 
Q 2369 338 2359 363 
Q 2134 144 1878 34 
Q 1622 -75 1331 -75 
Q 819 -75 523 203 
Q 228 481 228 906 
Q 228 1188 362 1408 
Q 497 1628 739 1745 
Q 981 1863 1438 1950 
Q 2053 2066 2291 2166 
L 2291 2253 
Q 2291 2506 2166 2614 
Q 2041 2722 1694 2722 
Q 1459 2722 1328 2630 
Q 1197 2538 1116 2306 
z
M 2291 1594 
Q 2122 1538 1756 1459 
Q 1391 1381 1278 1306 
Q 1106 1184 1106 997 
Q 1106 813 1243 678 
Q 1381 544 1594 544 
Q 1831 544 2047 700 
Q 2206 819 2256 991 
Q 2291 1103 2291 1419 
L 2291 1594 
z
" transform="scale(0.015625)"/>
      <path id="Arial-BoldMT-69" d="M 459 3769 
L 459 4581 
L 1338 4581 
L 1338 3769 
L 459 3769 
z
M 459 0 
L 459 3319 
L 1338 3319 
L 1338 0 
L 459 0 
z
" transform="scale(0.015625)"/>
      <path id="Arial-BoldMT-73" d="M 150 947 
L 1031 1081 
Q 1088 825 1259 692 
Q 1431 559 1741 559 
Q 2081 559 2253 684 
Q 2369 772 2369 919 
Q 2369 1019 2306 1084 
Q 2241 1147 2013 1200 
Q 950 1434 666 1628 
Q 272 1897 272 2375 
Q 272 2806 612 3100 
Q 953 3394 1669 3394 
Q 2350 3394 2681 3172 
Q 3013 2950 3138 2516 
L 2309 2363 
Q 2256 2556 2107 2659 
Q 1959 2763 1684 2763 
Q 1338 2763 1188 2666 
Q 1088 2597 1088 2488 
Q 1088 2394 1175 2328 
Q 1294 2241 1995 2081 
Q 2697 1922 2975 1691 
Q 3250 1456 3250 1038 
Q 3250 581 2869 253 
Q 2488 -75 1741 -75 
Q 1063 -75 667 200 
Q 272 475 150 947 
z
" transform="scale(0.015625)"/>
      <path id="Arial-BoldMT-6e" d="M 3478 0 
L 2600 0 
L 2600 1694 
Q 2600 2231 2544 2389 
Q 2488 2547 2361 2634 
Q 2234 2722 2056 2722 
Q 1828 2722 1647 2597 
Q 1466 2472 1398 2265 
Q 1331 2059 1331 1503 
L 1331 0 
L 453 0 
L 453 3319 
L 1269 3319 
L 1269 2831 
Q 1703 3394 2363 3394 
Q 2653 3394 2893 3289 
Q 3134 3184 3257 3021 
Q 3381 2859 3429 2653 
Q 3478 2447 3478 2063 
L 3478 0 
z
" transform="scale(0.015625)"/>
     </defs>
     <use xlink:href="#Arial-BoldMT-52"/>
     <use xlink:href="#Arial-BoldMT-4f" x="72.216797"/>
     <use xlink:href="#Arial-BoldMT-43" x="150"/>
     <use xlink:href="#Arial-BoldMT-20" x="222.216797"/>
     <use xlink:href="#Arial-BoldMT-43" x="250"/>
     <use xlink:href="#Arial-BoldMT-75" x="322.216797"/>
     <use xlink:href="#Arial-BoldMT-72" x="383.300781"/>
     <use xlink:href="#Arial-BoldMT-76" x="422.216797"/>
     <use xlink:href="#Arial-BoldMT-65" x="477.832031"/>
     <use xlink:href="#Arial-BoldMT-20" x="533.447266"/>
     <use xlink:href="#Arial-BoldMT-2d" x="561.230469"/>
     <use xlink:href="#Arial-BoldMT-20" x="594.53125"/>
     <use xlink:href="#Arial-BoldMT-6d" x="622.314453"/>
     <use xlink:href="#Arial-BoldMT-6f" x="711.230469"/>
     <use xlink:href="#Arial-BoldMT-64" x="772.314453"/>
     <use xlink:href="#Arial-BoldMT-65" x="833.398438"/>
     <use xlink:href="#Arial-BoldMT-6c" x="889.013672"/>
     <use xlink:href="#Arial-BoldMT-20" x="916.796875"/>
     <use xlink:href="#Arial-BoldMT-63" x="944.580078"/>
     <use xlink:href="#Arial-BoldMT-6f" x="1000.195312"/>
     <use xlink:href="#Arial-BoldMT-6d" x="1061.279297"/>
     <use xlink:href="#Arial-BoldMT-70" x="1150.195312"/>
     <use xlink:href="#Arial-BoldMT-61" x="1211.279297"/>
     <use xlink:href="#Arial-BoldMT-72" x="1266.894531"/>
     <use xlink:href="#Arial-BoldMT-69" x="1305.810547"/>
     <use xlink:href="#Arial-BoldMT-73" x="1333.59375"/>
     <use xlink:href="#Arial-BoldMT-6f" x="1389.208984"/>
     <use xlink:href="#Arial-BoldMT-6e" x="1450.292969"/>
    </g>
   </g>
   <g id="legend_1">
    <g id="patch_7">
     <path d="M 638.734219 511.799375 
L 837.471562 511.799375 
Q 839.671562 511.799375 839.671562 509.599375 
L 839.671562 447.671094 
Q 839.671562 445.471094 837.471562 445.471094 
L 638.734219 445.471094 
Q 636.534219 445.471094 636.534219 447.671094 
L 636.534219 509.599375 
Q 636.534219 511.799375 638.734219 511.799375 
z
" style="fill: #ffffff; opacity: 0.8; stroke: #cccccc; stroke-linejoin: miter"/>
    </g>
    <g id="line2d_5">
     <path d="M 640.934219 454.02875 
L 651.934219 454.02875 
L 662.934219 454.02875 
" style="fill: none; stroke: #4c72b0; stroke-width: 1.5; stroke-linecap: round"/>
    </g>
    <g id="text_16">
     <!-- Logistic Regression (AUC = 0.98) -->
     <g style="fill: #262626" transform="translate(671.734219 457.87875) scale(0.11 -0.11)">
      <defs>
       <path id="ArialMT-4c" d="M 469 0 
L 469 4581 
L 1075 4581 
L 1075 541 
L 3331 541 
L 3331 0 
L 469 0 
z
" transform="scale(0.015625)"/>
       <path id="ArialMT-67" d="M 319 -275 
L 866 -356 
Q 900 -609 1056 -725 
Q 1266 -881 1628 -881 
Q 2019 -881 2231 -725 
Q 2444 -569 2519 -288 
Q 2563 -116 2559 434 
Q 2191 0 1641 0 
Q 956 0 581 494 
Q 206 988 206 1678 
Q 206 2153 378 2554 
Q 550 2956 876 3175 
Q 1203 3394 1644 3394 
Q 2231 3394 2613 2919 
L 2613 3319 
L 3131 3319 
L 3131 450 
Q 3131 -325 2973 -648 
Q 2816 -972 2473 -1159 
Q 2131 -1347 1631 -1347 
Q 1038 -1347 672 -1080 
Q 306 -813 319 -275 
z
M 784 1719 
Q 784 1066 1043 766 
Q 1303 466 1694 466 
Q 2081 466 2343 764 
Q 2606 1063 2606 1700 
Q 2606 2309 2336 2618 
Q 2066 2928 1684 2928 
Q 1309 2928 1046 2623 
Q 784 2319 784 1719 
z
" transform="scale(0.015625)"/>
       <path id="ArialMT-63" d="M 2588 1216 
L 3141 1144 
Q 3050 572 2676 248 
Q 2303 -75 1759 -75 
Q 1078 -75 664 370 
Q 250 816 250 1647 
Q 250 2184 428 2587 
Q 606 2991 970 3192 
Q 1334 3394 1763 3394 
Q 2303 3394 2647 3120 
Q 2991 2847 3088 2344 
L 2541 2259 
Q 2463 2594 2264 2762 
Q 2066 2931 1784 2931 
Q 1359 2931 1093 2626 
Q 828 2322 828 1663 
Q 828 994 1084 691 
Q 1341 388 1753 388 
Q 2084 388 2306 591 
Q 2528 794 2588 1216 
z
" transform="scale(0.015625)"/>
       <path id="ArialMT-6e" d="M 422 0 
L 422 3319 
L 928 3319 
L 928 2847 
Q 1294 3394 1984 3394 
Q 2284 3394 2536 3286 
Q 2788 3178 2913 3003 
Q 3038 2828 3088 2588 
Q 3119 2431 3119 2041 
L 3119 0 
L 2556 0 
L 2556 2019 
Q 2556 2363 2490 2533 
Q 2425 2703 2258 2804 
Q 2091 2906 1866 2906 
Q 1506 2906 1245 2678 
Q 984 2450 984 1813 
L 984 0 
L 422 0 
z
" transform="scale(0.015625)"/>
       <path id="ArialMT-28" d="M 1497 -1347 
Q 1031 -759 709 28 
Q 388 816 388 1659 
Q 388 2403 628 3084 
Q 909 3875 1497 4659 
L 1900 4659 
Q 1522 4009 1400 3731 
Q 1209 3300 1100 2831 
Q 966 2247 966 1656 
Q 966 153 1900 -1347 
L 1497 -1347 
z
" transform="scale(0.015625)"/>
       <path id="ArialMT-41" d="M -9 0 
L 1750 4581 
L 2403 4581 
L 4278 0 
L 3588 0 
L 3053 1388 
L 1138 1388 
L 634 0 
L -9 0 
z
M 1313 1881 
L 2866 1881 
L 2388 3150 
Q 2169 3728 2063 4100 
Q 1975 3659 1816 3225 
L 1313 1881 
z
" transform="scale(0.015625)"/>
       <path id="ArialMT-55" d="M 3500 4581 
L 4106 4581 
L 4106 1934 
Q 4106 1244 3950 837 
Q 3794 431 3386 176 
Q 2978 -78 2316 -78 
Q 1672 -78 1262 144 
Q 853 366 678 786 
Q 503 1206 503 1934 
L 503 4581 
L 1109 4581 
L 1109 1938 
Q 1109 1341 1220 1058 
Q 1331 775 1601 622 
Q 1872 469 2263 469 
Q 2931 469 3215 772 
Q 3500 1075 3500 1938 
L 3500 4581 
z
" transform="scale(0.015625)"/>
       <path id="ArialMT-43" d="M 3763 1606 
L 4369 1453 
Q 4178 706 3683 314 
Q 3188 -78 2472 -78 
Q 1731 -78 1267 223 
Q 803 525 561 1097 
Q 319 1669 319 2325 
Q 319 3041 592 3573 
Q 866 4106 1370 4382 
Q 1875 4659 2481 4659 
Q 3169 4659 3637 4309 
Q 4106 3959 4291 3325 
L 3694 3184 
Q 3534 3684 3231 3912 
Q 2928 4141 2469 4141 
Q 1941 4141 1586 3887 
Q 1231 3634 1087 3207 
Q 944 2781 944 2328 
Q 944 1744 1114 1308 
Q 1284 872 1643 656 
Q 2003 441 2422 441 
Q 2931 441 3284 734 
Q 3638 1028 3763 1606 
z
" transform="scale(0.015625)"/>
       <path id="ArialMT-3d" d="M 3381 2694 
L 356 2694 
L 356 3219 
L 3381 3219 
L 3381 2694 
z
M 3381 1303 
L 356 1303 
L 356 1828 
L 3381 1828 
L 3381 1303 
z
" transform="scale(0.015625)"/>
       <path id="ArialMT-39" d="M 350 1059 
L 891 1109 
Q 959 728 1153 556 
Q 1347 384 1650 384 
Q 1909 384 2104 503 
Q 2300 622 2425 820 
Q 2550 1019 2634 1356 
Q 2719 1694 2719 2044 
Q 2719 2081 2716 2156 
Q 2547 1888 2255 1720 
Q 1963 1553 1622 1553 
Q 1053 1553 659 1965 
Q 266 2378 266 3053 
Q 266 3750 677 4175 
Q 1088 4600 1706 4600 
Q 2153 4600 2523 4359 
Q 2894 4119 3086 3673 
Q 3278 3228 3278 2384 
Q 3278 1506 3087 986 
Q 2897 466 2520 194 
Q 2144 -78 1638 -78 
Q 1100 -78 759 220 
Q 419 519 350 1059 
z
M 2653 3081 
Q 2653 3566 2395 3850 
Q 2138 4134 1775 4134 
Q 1400 4134 1122 3828 
Q 844 3522 844 3034 
Q 844 2597 1108 2323 
Q 1372 2050 1759 2050 
Q 2150 2050 2401 2323 
Q 2653 2597 2653 3081 
z
" transform="scale(0.015625)"/>
       <path id="ArialMT-29" d="M 791 -1347 
L 388 -1347 
Q 1322 153 1322 1656 
Q 1322 2244 1188 2822 
Q 1081 3291 891 3722 
Q 769 4003 388 4659 
L 791 4659 
Q 1378 3875 1659 3084 
Q 1900 2403 1900 1659 
Q 1900 816 1576 28 
Q 1253 -759 791 -1347 
z
" transform="scale(0.015625)"/>
      </defs>
      <use xlink:href="#ArialMT-4c"/>
      <use xlink:href="#ArialMT-6f" x="55.615234"/>
      <use xlink:href="#ArialMT-67" x="111.230469"/>
      <use xlink:href="#ArialMT-69" x="166.845703"/>
      <use xlink:href="#ArialMT-73" x="189.0625"/>
      <use xlink:href="#ArialMT-74" x="239.0625"/>
      <use xlink:href="#ArialMT-69" x="266.845703"/>
      <use xlink:href="#ArialMT-63" x="289.0625"/>
      <use xlink:href="#ArialMT-20" x="339.0625"/>
      <use xlink:href="#ArialMT-52" x="366.845703"/>
      <use xlink:href="#ArialMT-65" x="439.0625"/>
      <use xlink:href="#ArialMT-67" x="494.677734"/>
      <use xlink:href="#ArialMT-72" x="550.292969"/>
      <use xlink:href="#ArialMT-65" x="583.59375"/>
      <use xlink:href="#ArialMT-73" x="639.208984"/>
      <use xlink:href="#ArialMT-73" x="689.208984"/>
      <use xlink:href="#ArialMT-69" x="739.208984"/>
      <use xlink:href="#ArialMT-6f" x="761.425781"/>
      <use xlink:href="#ArialMT-6e" x="817.041016"/>
      <use xlink:href="#ArialMT-20" x="872.65625"/>
      <use xlink:href="#ArialMT-28" x="900.439453"/>
      <use xlink:href="#ArialMT-41" x="933.740234"/>
      <use xlink:href="#ArialMT-55" x="1000.439453"/>
      <use xlink:href="#ArialMT-43" x="1072.65625"/>
      <use xlink:href="#ArialMT-20" x="1144.873047"/>
      <use xlink:href="#ArialMT-3d" x="1172.65625"/>
      <use xlink:href="#ArialMT-20" x="1231.054688"/>
      <use xlink:href="#ArialMT-30" x="1258.837891"/>
      <use xlink:href="#ArialMT-2e" x="1314.453125"/>
      <use xlink:href="#ArialMT-39" x="1342.236328"/>
      <use xlink:href="#ArialMT-38" x="1397.851562"/>
      <use xlink:href="#ArialMT-29" x="1453.466797"/>
     </g>
    </g>
    <g id="line2d_6">
     <path d="M 640.934219 469.851563 
L 651.934219 469.851563 
L 662.934219 469.851563 
" style="fill: none; stroke: #dd8452; stroke-width: 1.5; stroke-linecap: round"/>
    </g>
    <g id="text_17">
     <!-- Random Forest (AUC = 0.99) -->
     <g style="fill: #262626" transform="translate(671.734219 473.701563) scale(0.11 -0.11)">
      <defs>
       <path id="ArialMT-64" d="M 2575 0 
L 2575 419 
Q 2259 -75 1647 -75 
Q 1250 -75 917 144 
Q 584 363 401 755 
Q 219 1147 219 1656 
Q 219 2153 384 2558 
Q 550 2963 881 3178 
Q 1213 3394 1622 3394 
Q 1922 3394 2156 3267 
Q 2391 3141 2538 2938 
L 2538 4581 
L 3097 4581 
L 3097 0 
L 2575 0 
z
M 797 1656 
Q 797 1019 1065 703 
Q 1334 388 1700 388 
Q 2069 388 2326 689 
Q 2584 991 2584 1609 
Q 2584 2291 2321 2609 
Q 2059 2928 1675 2928 
Q 1300 2928 1048 2622 
Q 797 2316 797 1656 
z
" transform="scale(0.015625)"/>
       <path id="ArialMT-6d" d="M 422 0 
L 422 3319 
L 925 3319 
L 925 2853 
Q 1081 3097 1340 3245 
Q 1600 3394 1931 3394 
Q 2300 3394 2536 3241 
Q 2772 3088 2869 2813 
Q 3263 3394 3894 3394 
Q 4388 3394 4653 3120 
Q 4919 2847 4919 2278 
L 4919 0 
L 4359 0 
L 4359 2091 
Q 4359 2428 4304 2576 
Q 4250 2725 4106 2815 
Q 3963 2906 3769 2906 
Q 3419 2906 3187 2673 
Q 2956 2441 2956 1928 
L 2956 0 
L 2394 0 
L 2394 2156 
Q 2394 2531 2256 2718 
Q 2119 2906 1806 2906 
Q 1569 2906 1367 2781 
Q 1166 2656 1075 2415 
Q 984 2175 984 1722 
L 984 0 
L 422 0 
z
" transform="scale(0.015625)"/>
      </defs>
      <use xlink:href="#ArialMT-52"/>
      <use xlink:href="#ArialMT-61" x="72.216797"/>
      <use xlink:href="#ArialMT-6e" x="127.832031"/>
      <use xlink:href="#ArialMT-64" x="183.447266"/>
      <use xlink:href="#ArialMT-6f" x="239.0625"/>
      <use xlink:href="#ArialMT-6d" x="294.677734"/>
      <use xlink:href="#ArialMT-20" x="377.978516"/>
      <use xlink:href="#ArialMT-46" x="405.761719"/>
      <use xlink:href="#ArialMT-6f" x="466.845703"/>
      <use xlink:href="#ArialMT-72" x="522.460938"/>
      <use xlink:href="#ArialMT-65" x="555.761719"/>
      <use xlink:href="#ArialMT-73" x="611.376953"/>
      <use xlink:href="#ArialMT-74" x="661.376953"/>
      <use xlink:href="#ArialMT-20" x="689.160156"/>
      <use xlink:href="#ArialMT-28" x="716.943359"/>
      <use xlink:href="#ArialMT-41" x="750.244141"/>
      <use xlink:href="#ArialMT-55" x="816.943359"/>
      <use xlink:href="#ArialMT-43" x="889.160156"/>
      <use xlink:href="#ArialMT-20" x="961.376953"/>
      <use xlink:href="#ArialMT-3d" x="989.160156"/>
      <use xlink:href="#ArialMT-20" x="1047.558594"/>
      <use xlink:href="#ArialMT-30" x="1075.341797"/>
      <use xlink:href="#ArialMT-2e" x="1130.957031"/>
      <use xlink:href="#ArialMT-39" x="1158.740234"/>
      <use xlink:href="#ArialMT-39" x="1214.355469"/>
      <use xlink:href="#ArialMT-29" x="1269.970703"/>
     </g>
    </g>
    <g id="line2d_7">
     <path d="M 640.934219 485.674375 
L 651.934219 485.674375 
L 662.934219 485.674375 
" style="fill: none; stroke: #55a868; stroke-width: 1.5; stroke-linecap: round"/>
    </g>
    <g id="text_18">
     <!-- XGBoost (AUC = 0.99) -->
     <g style="fill: #262626" transform="translate(671.734219 489.524375) scale(0.11 -0.11)">
      <defs>
       <path id="ArialMT-58" d="M 28 0 
L 1800 2388 
L 238 4581 
L 959 4581 
L 1791 3406 
Q 2050 3041 2159 2844 
Q 2313 3094 2522 3366 
L 3444 4581 
L 4103 4581 
L 2494 2422 
L 4228 0 
L 3478 0 
L 2325 1634 
Q 2228 1775 2125 1941 
Q 1972 1691 1906 1597 
L 756 0 
L 28 0 
z
" transform="scale(0.015625)"/>
       <path id="ArialMT-47" d="M 2638 1797 
L 2638 2334 
L 4578 2338 
L 4578 638 
Q 4131 281 3656 101 
Q 3181 -78 2681 -78 
Q 2006 -78 1454 211 
Q 903 500 622 1047 
Q 341 1594 341 2269 
Q 341 2938 620 3517 
Q 900 4097 1425 4378 
Q 1950 4659 2634 4659 
Q 3131 4659 3532 4498 
Q 3934 4338 4162 4050 
Q 4391 3763 4509 3300 
L 3963 3150 
Q 3859 3500 3706 3700 
Q 3553 3900 3268 4020 
Q 2984 4141 2638 4141 
Q 2222 4141 1919 4014 
Q 1616 3888 1430 3681 
Q 1244 3475 1141 3228 
Q 966 2803 966 2306 
Q 966 1694 1177 1281 
Q 1388 869 1791 669 
Q 2194 469 2647 469 
Q 3041 469 3416 620 
Q 3791 772 3984 944 
L 3984 1797 
L 2638 1797 
z
" transform="scale(0.015625)"/>
       <path id="ArialMT-42" d="M 469 0 
L 469 4581 
L 2188 4581 
Q 2713 4581 3030 4442 
Q 3347 4303 3526 4014 
Q 3706 3725 3706 3409 
Q 3706 3116 3547 2856 
Q 3388 2597 3066 2438 
Q 3481 2316 3704 2022 
Q 3928 1728 3928 1328 
Q 3928 1006 3792 729 
Q 3656 453 3456 303 
Q 3256 153 2954 76 
Q 2653 0 2216 0 
L 469 0 
z
M 1075 2656 
L 2066 2656 
Q 2469 2656 2644 2709 
Q 2875 2778 2992 2937 
Q 3109 3097 3109 3338 
Q 3109 3566 3000 3739 
Q 2891 3913 2687 3977 
Q 2484 4041 1991 4041 
L 1075 4041 
L 1075 2656 
z
M 1075 541 
L 2216 541 
Q 2509 541 2628 563 
Q 2838 600 2978 687 
Q 3119 775 3209 942 
Q 3300 1109 3300 1328 
Q 3300 1584 3169 1773 
Q 3038 1963 2805 2039 
Q 2572 2116 2134 2116 
L 1075 2116 
L 1075 541 
z
" transform="scale(0.015625)"/>
      </defs>
      <use xlink:href="#ArialMT-58"/>
      <use xlink:href="#ArialMT-47" x="66.699219"/>
      <use xlink:href="#ArialMT-42" x="144.482422"/>
      <use xlink:href="#ArialMT-6f" x="211.181641"/>
      <use xlink:href="#ArialMT-6f" x="266.796875"/>
      <use xlink:href="#ArialMT-73" x="322.412109"/>
      <use xlink:href="#ArialMT-74" x="372.412109"/>
      <use xlink:href="#ArialMT-20" x="400.195312"/>
      <use xlink:href="#ArialMT-28" x="427.978516"/>
      <use xlink:href="#ArialMT-41" x="461.279297"/>
      <use xlink:href="#ArialMT-55" x="527.978516"/>
      <use xlink:href="#ArialMT-43" x="600.195312"/>
      <use xlink:href="#ArialMT-20" x="672.412109"/>
      <use xlink:href="#ArialMT-3d" x="700.195312"/>
      <use xlink:href="#ArialMT-20" x="758.59375"/>
      <use xlink:href="#ArialMT-30" x="786.376953"/>
      <use xlink:href="#ArialMT-2e" x="841.992188"/>
      <use xlink:href="#ArialMT-39" x="869.775391"/>
      <use xlink:href="#ArialMT-39" x="925.390625"/>
      <use xlink:href="#ArialMT-29" x="981.005859"/>
     </g>
    </g>
    <g id="line2d_8">
     <path d="M 640.934219 501.363125 
L 651.934219 501.363125 
L 662.934219 501.363125 
" style="fill: none; stroke-dasharray: 5.55,2.4; stroke-dashoffset: 0; stroke: #1a1a1a; stroke-width: 1.5"/>
    </g>
    <g id="text_19">
     <!-- Random Chance -->
     <g style="fill: #262626" transform="translate(671.734219 505.213125) scale(0.11 -0.11)">
      <defs>
       <path id="ArialMT-68" d="M 422 0 
L 422 4581 
L 984 4581 
L 984 2938 
Q 1378 3394 1978 3394 
Q 2347 3394 2619 3248 
Q 2891 3103 3008 2847 
Q 3125 2591 3125 2103 
L 3125 0 
L 2563 0 
L 2563 2103 
Q 2563 2525 2380 2717 
Q 2197 2909 1863 2909 
Q 1613 2909 1392 2779 
Q 1172 2650 1078 2428 
Q 984 2206 984 1816 
L 984 0 
L 422 0 
z
" transform="scale(0.015625)"/>
      </defs>
      <use xlink:href="#ArialMT-52"/>
      <use xlink:href="#ArialMT-61" x="72.216797"/>
      <use xlink:href="#ArialMT-6e" x="127.832031"/>
      <use xlink:href="#ArialMT-64" x="183.447266"/>
      <use xlink:href="#ArialMT-6f" x="239.0625"/>
      <use xlink:href="#ArialMT-6d" x="294.677734"/>
      <use xlink:href="#ArialMT-20" x="377.978516"/>
      <use xlink:href="#ArialMT-43" x="405.761719"/>
      <use xlink:href="#ArialMT-68" x="477.978516"/>
      <use xlink:href="#ArialMT-61" x="533.59375"/>
      <use xlink:href="#ArialMT-6e" x="589.208984"/>
      <use xlink:href="#ArialMT-63" x="644.824219"/>
      <use xlink:href="#ArialMT-65" x="694.824219"/>
     </g>
    </g>
   </g>
  </g>
 </g>
 <defs>
  <clipPath id="p019e4b29a1">
   <rect x="52.451563" y="27.759375" width="792.72" height="489.54"/>
  </clipPath>
 </defs>
</svg>
