<?xml version="1.0" encoding="utf-8" standalone="no"?>
<!DOCTYPE svg PUBLIC "-//W3C//DTD SVG 1.1//EN"
  "http://www.w3.org/Graphics/SVG/1.1/DTD/svg11.dtd">
<svg xmlns:xlink="http://www.w3.org/1999/xlink" width="852.794844pt" height="348.363281pt" viewBox="0 0 852.794844 348.363281" xmlns="http://www.w3.org/2000/svg" version="1.1">
 <metadata>
  <rdf:RDF xmlns:dc="http://purl.org/dc/elements/1.1/" xmlns:cc="http://creativecommons.org/ns#" xmlns:rdf="http://www.w3.org/1999/02/22-rdf-syntax-ns#">
   <cc:Work>
    <dc:type rdf:resource="http://purl.org/dc/dcmitype/StillImage"/>
    <dc:date>2025-05-13T11:57:12.210083</dc:date>
    <dc:format>image/svg+xml</dc:format>
    <dc:creator>
     <cc:Agent>
      <dc:title>Matplotlib v3.9.2, https://matplotlib.org/</dc:title>
     </cc:Agent>
    </dc:creator>
   </cc:Work>
  </rdf:RDF>
 </metadata>
 <defs>
  <style type="text/css">*{stroke-linejoin: round; stroke-linecap: butt}</style>
 </defs>
 <g id="figure_1">
  <g id="patch_1">
   <path d="M 0 348.363281 
L 852.794844 348.363281 
L 852.794844 0 
L 0 0 
z
" style="fill: #ffffff"/>
  </g>
  <g id="axes_1">
   <g id="patch_2">
    <path d="M 148.144844 304.8 
L 845.594844 304.8 
L 845.594844 24.8475 
L 148.144844 24.8475 
z
" style="fill: #ffffff"/>
   </g>
   <g id="matplotlib.axis_1">
    <g id="xtick_1">
     <g id="text_1">
      <!-- 0.000 -->
      <g style="fill: #262626" transform="translate(134.382812 322.173594) scale(0.11 -0.11)">
       <defs>
        <path id="ArialMT-30" d="M 266 2259 
Q 266 3072 433 3567 
Q 600 4063 929 4331 
Q 1259 4600 1759 4600 
Q 2128 4600 2406 4451 
Q 2684 4303 2865 4023 
Q 3047 3744 3150 3342 
Q 3253 2941 3253 2259 
Q 3253 1453 3087 958 
Q 2922 463 2592 192 
Q 2263 -78 1759 -78 
Q 1097 -78 719 397 
Q 266 969 266 2259 
z
M 844 2259 
Q 844 1131 1108 757 
Q 1372 384 1759 384 
Q 2147 384 2411 759 
Q 2675 1134 2675 2259 
Q 2675 3391 2411 3762 
Q 2147 4134 1753 4134 
Q 1366 4134 1134 3806 
Q 844 3388 844 2259 
z
" transform="scale(0.015625)"/>
        <path id="ArialMT-2e" d="M 581 0 
L 581 641 
L 1222 641 
L 1222 0 
L 581 0 
z
" transform="scale(0.015625)"/>
       </defs>
       <use xlink:href="#ArialMT-30"/>
       <use xlink:href="#ArialMT-2e" x="55.615234"/>
       <use xlink:href="#ArialMT-30" x="83.398438"/>
       <use xlink:href="#ArialMT-30" x="139.013672"/>
       <use xlink:href="#ArialMT-30" x="194.628906"/>
      </g>
     </g>
    </g>
    <g id="xtick_2">
     <g id="text_2">
      <!-- 0.005 -->
      <g style="fill: #262626" transform="translate(281.581782 322.173594) scale(0.11 -0.11)">
       <defs>
        <path id="ArialMT-35" d="M 266 1200 
L 856 1250 
Q 922 819 1161 601 
Q 1400 384 1738 384 
Q 2144 384 2425 690 
Q 2706 997 2706 1503 
Q 2706 1984 2436 2262 
Q 2166 2541 1728 2541 
Q 1456 2541 1237 2417 
Q 1019 2294 894 2097 
L 366 2166 
L 809 4519 
L 3088 4519 
L 3088 3981 
L 1259 3981 
L 1013 2750 
Q 1425 3038 1878 3038 
Q 2478 3038 2890 2622 
Q 3303 2206 3303 1553 
Q 3303 931 2941 478 
Q 2500 -78 1738 -78 
Q 1113 -78 717 272 
Q 322 622 266 1200 
z
" transform="scale(0.015625)"/>
       </defs>
       <use xlink:href="#ArialMT-30"/>
       <use xlink:href="#ArialMT-2e" x="55.615234"/>
       <use xlink:href="#ArialMT-30" x="83.398438"/>
       <use xlink:href="#ArialMT-30" x="139.013672"/>
       <use xlink:href="#ArialMT-35" x="194.628906"/>
      </g>
     </g>
    </g>
    <g id="xtick_3">
     <g id="text_3">
      <!-- 0.010 -->
      <g style="fill: #262626" transform="translate(428.780752 322.173594) scale(0.11 -0.11)">
       <defs>
        <path id="ArialMT-31" d="M 2384 0 
L 1822 0 
L 1822 3584 
Q 1619 3391 1289 3197 
Q 959 3003 697 2906 
L 697 3450 
Q 1169 3672 1522 3987 
Q 1875 4303 2022 4600 
L 2384 4600 
L 2384 0 
z
" transform="scale(0.015625)"/>
       </defs>
       <use xlink:href="#ArialMT-30"/>
       <use xlink:href="#ArialMT-2e" x="55.615234"/>
       <use xlink:href="#ArialMT-30" x="83.398438"/>
       <use xlink:href="#ArialMT-31" x="139.013672"/>
       <use xlink:href="#ArialMT-30" x="194.628906"/>
      </g>
     </g>
    </g>
    <g id="xtick_4">
     <g id="text_4">
      <!-- 0.015 -->
      <g style="fill: #262626" transform="translate(575.979722 322.173594) scale(0.11 -0.11)">
       <use xlink:href="#ArialMT-30"/>
       <use xlink:href="#ArialMT-2e" x="55.615234"/>
       <use xlink:href="#ArialMT-30" x="83.398438"/>
       <use xlink:href="#ArialMT-31" x="139.013672"/>
       <use xlink:href="#ArialMT-35" x="194.628906"/>
      </g>
     </g>
    </g>
    <g id="xtick_5">
     <g id="text_5">
      <!-- 0.020 -->
      <g style="fill: #262626" transform="translate(723.178691 322.173594) scale(0.11 -0.11)">
       <defs>
        <path id="ArialMT-32" d="M 3222 541 
L 3222 0 
L 194 0 
Q 188 203 259 391 
Q 375 700 629 1000 
Q 884 1300 1366 1694 
Q 2113 2306 2375 2664 
Q 2638 3022 2638 3341 
Q 2638 3675 2398 3904 
Q 2159 4134 1775 4134 
Q 1369 4134 1125 3890 
Q 881 3647 878 3216 
L 300 3275 
Q 359 3922 746 4261 
Q 1134 4600 1788 4600 
Q 2447 4600 2831 4234 
Q 3216 3869 3216 3328 
Q 3216 3053 3103 2787 
Q 2991 2522 2730 2228 
Q 2469 1934 1863 1422 
Q 1356 997 1212 845 
Q 1069 694 975 541 
L 3222 541 
z
" transform="scale(0.015625)"/>
       </defs>
       <use xlink:href="#ArialMT-30"/>
       <use xlink:href="#ArialMT-2e" x="55.615234"/>
       <use xlink:href="#ArialMT-30" x="83.398438"/>
       <use xlink:href="#ArialMT-32" x="139.013672"/>
       <use xlink:href="#ArialMT-30" x="194.628906"/>
      </g>
     </g>
    </g>
    <g id="text_6">
     <!-- Feature Importance -->
     <g style="fill: #262626" transform="translate(435.789375 338.380781) scale(0.14 -0.14)">
      <defs>
       <path id="ArialMT-46" d="M 525 0 
L 525 4581 
L 3616 4581 
L 3616 4041 
L 1131 4041 
L 1131 2622 
L 3281 2622 
L 3281 2081 
L 1131 2081 
L 1131 0 
L 525 0 
z
" transform="scale(0.015625)"/>
       <path id="ArialMT-65" d="M 2694 1069 
L 3275 997 
Q 3138 488 2766 206 
Q 2394 -75 1816 -75 
Q 1088 -75 661 373 
Q 234 822 234 1631 
Q 234 2469 665 2931 
Q 1097 3394 1784 3394 
Q 2450 3394 2872 2941 
Q 3294 2488 3294 1666 
Q 3294 1616 3291 1516 
L 816 1516 
Q 847 969 1125 678 
Q 1403 388 1819 388 
Q 2128 388 2347 550 
Q 2566 713 2694 1069 
z
M 847 1978 
L 2700 1978 
Q 2663 2397 2488 2606 
Q 2219 2931 1791 2931 
Q 1403 2931 1139 2672 
Q 875 2413 847 1978 
z
" transform="scale(0.015625)"/>
       <path id="ArialMT-61" d="M 2588 409 
Q 2275 144 1986 34 
Q 1697 -75 1366 -75 
Q 819 -75 525 192 
Q 231 459 231 875 
Q 231 1119 342 1320 
Q 453 1522 633 1644 
Q 813 1766 1038 1828 
Q 1203 1872 1538 1913 
Q 2219 1994 2541 2106 
Q 2544 2222 2544 2253 
Q 2544 2597 2384 2738 
Q 2169 2928 1744 2928 
Q 1347 2928 1158 2789 
Q 969 2650 878 2297 
L 328 2372 
Q 403 2725 575 2942 
Q 747 3159 1072 3276 
Q 1397 3394 1825 3394 
Q 2250 3394 2515 3294 
Q 2781 3194 2906 3042 
Q 3031 2891 3081 2659 
Q 3109 2516 3109 2141 
L 3109 1391 
Q 3109 606 3145 398 
Q 3181 191 3288 0 
L 2700 0 
Q 2613 175 2588 409 
z
M 2541 1666 
Q 2234 1541 1622 1453 
Q 1275 1403 1131 1340 
Q 988 1278 909 1158 
Q 831 1038 831 891 
Q 831 666 1001 516 
Q 1172 366 1500 366 
Q 1825 366 2078 508 
Q 2331 650 2450 897 
Q 2541 1088 2541 1459 
L 2541 1666 
z
" transform="scale(0.015625)"/>
       <path id="ArialMT-74" d="M 1650 503 
L 1731 6 
Q 1494 -44 1306 -44 
Q 1000 -44 831 53 
Q 663 150 594 308 
Q 525 466 525 972 
L 525 2881 
L 113 2881 
L 113 3319 
L 525 3319 
L 525 4141 
L 1084 4478 
L 1084 3319 
L 1650 3319 
L 1650 2881 
L 1084 2881 
L 1084 941 
Q 1084 700 1114 631 
Q 1144 563 1211 522 
Q 1278 481 1403 481 
Q 1497 481 1650 503 
z
" transform="scale(0.015625)"/>
       <path id="ArialMT-75" d="M 2597 0 
L 2597 488 
Q 2209 -75 1544 -75 
Q 1250 -75 995 37 
Q 741 150 617 320 
Q 494 491 444 738 
Q 409 903 409 1263 
L 409 3319 
L 972 3319 
L 972 1478 
Q 972 1038 1006 884 
Q 1059 663 1231 536 
Q 1403 409 1656 409 
Q 1909 409 2131 539 
Q 2353 669 2445 892 
Q 2538 1116 2538 1541 
L 2538 3319 
L 3100 3319 
L 3100 0 
L 2597 0 
z
" transform="scale(0.015625)"/>
       <path id="ArialMT-72" d="M 416 0 
L 416 3319 
L 922 3319 
L 922 2816 
Q 1116 3169 1280 3281 
Q 1444 3394 1641 3394 
Q 1925 3394 2219 3213 
L 2025 2691 
Q 1819 2813 1613 2813 
Q 1428 2813 1281 2702 
Q 1134 2591 1072 2394 
Q 978 2094 978 1738 
L 978 0 
L 416 0 
z
" transform="scale(0.015625)"/>
       <path id="ArialMT-20" transform="scale(0.015625)"/>
       <path id="ArialMT-49" d="M 597 0 
L 597 4581 
L 1203 4581 
L 1203 0 
L 597 0 
z
" transform="scale(0.015625)"/>
       <path id="ArialMT-6d" d="M 422 0 
L 422 3319 
L 925 3319 
L 925 2853 
Q 1081 3097 1340 3245 
Q 1600 3394 1931 3394 
Q 2300 3394 2536 3241 
Q 2772 3088 2869 2813 
Q 3263 3394 3894 3394 
Q 4388 3394 4653 3120 
Q 4919 2847 4919 2278 
L 4919 0 
L 4359 0 
L 4359 2091 
Q 4359 2428 4304 2576 
Q 4250 2725 4106 2815 
Q 3963 2906 3769 2906 
Q 3419 2906 3187 2673 
Q 2956 2441 2956 1928 
L 2956 0 
L 2394 0 
L 2394 2156 
Q 2394 2531 2256 2718 
Q 2119 2906 1806 2906 
Q 1569 2906 1367 2781 
Q 1166 2656 1075 2415 
Q 984 2175 984 1722 
L 984 0 
L 422 0 
z
" transform="scale(0.015625)"/>
       <path id="ArialMT-70" d="M 422 -1272 
L 422 3319 
L 934 3319 
L 934 2888 
Q 1116 3141 1344 3267 
Q 1572 3394 1897 3394 
Q 2322 3394 2647 3175 
Q 2972 2956 3137 2557 
Q 3303 2159 3303 1684 
Q 3303 1175 3120 767 
Q 2938 359 2589 142 
Q 2241 -75 1856 -75 
Q 1575 -75 1351 44 
Q 1128 163 984 344 
L 984 -1272 
L 422 -1272 
z
M 931 1641 
Q 931 1000 1190 694 
Q 1450 388 1819 388 
Q 2194 388 2461 705 
Q 2728 1022 2728 1688 
Q 2728 2322 2467 2637 
Q 2206 2953 1844 2953 
Q 1484 2953 1207 2617 
Q 931 2281 931 1641 
z
" transform="scale(0.015625)"/>
       <path id="ArialMT-6f" d="M 213 1659 
Q 213 2581 725 3025 
Q 1153 3394 1769 3394 
Q 2453 3394 2887 2945 
Q 3322 2497 3322 1706 
Q 3322 1066 3130 698 
Q 2938 331 2570 128 
Q 2203 -75 1769 -75 
Q 1072 -75 642 372 
Q 213 819 213 1659 
z
M 791 1659 
Q 791 1022 1069 705 
Q 1347 388 1769 388 
Q 2188 388 2466 706 
Q 2744 1025 2744 1678 
Q 2744 2294 2464 2611 
Q 2184 2928 1769 2928 
Q 1347 2928 1069 2612 
Q 791 2297 791 1659 
z
" transform="scale(0.015625)"/>
       <path id="ArialMT-6e" d="M 422 0 
L 422 3319 
L 928 3319 
L 928 2847 
Q 1294 3394 1984 3394 
Q 2284 3394 2536 3286 
Q 2788 3178 2913 3003 
Q 3038 2828 3088 2588 
Q 3119 2431 3119 2041 
L 3119 0 
L 2556 0 
L 2556 2019 
Q 2556 2363 2490 2533 
Q 2425 2703 2258 2804 
Q 2091 2906 1866 2906 
Q 1506 2906 1245 2678 
Q 984 2450 984 1813 
L 984 0 
L 422 0 
z
" transform="scale(0.015625)"/>
       <path id="ArialMT-63" d="M 2588 1216 
L 3141 1144 
Q 3050 572 2676 248 
Q 2303 -75 1759 -75 
Q 1078 -75 664 370 
Q 250 816 250 1647 
Q 250 2184 428 2587 
Q 606 2991 970 3192 
Q 1334 3394 1763 3394 
Q 2303 3394 2647 3120 
Q 2991 2847 3088 2344 
L 2541 2259 
Q 2463 2594 2264 2762 
Q 2066 2931 1784 2931 
Q 1359 2931 1093 2626 
Q 828 2322 828 1663 
Q 828 994 1084 691 
Q 1341 388 1753 388 
Q 2084 388 2306 591 
Q 2528 794 2588 1216 
z
" transform="scale(0.015625)"/>
      </defs>
      <use xlink:href="#ArialMT-46"/>
      <use xlink:href="#ArialMT-65" x="61.083984"/>
      <use xlink:href="#ArialMT-61" x="116.699219"/>
      <use xlink:href="#ArialMT-74" x="172.314453"/>
      <use xlink:href="#ArialMT-75" x="200.097656"/>
      <use xlink:href="#ArialMT-72" x="255.712891"/>
      <use xlink:href="#ArialMT-65" x="289.013672"/>
      <use xlink:href="#ArialMT-20" x="344.628906"/>
      <use xlink:href="#ArialMT-49" x="372.412109"/>
      <use xlink:href="#ArialMT-6d" x="400.195312"/>
      <use xlink:href="#ArialMT-70" x="483.496094"/>
      <use xlink:href="#ArialMT-6f" x="539.111328"/>
      <use xlink:href="#ArialMT-72" x="594.726562"/>
      <use xlink:href="#ArialMT-74" x="628.027344"/>
      <use xlink:href="#ArialMT-61" x="655.810547"/>
      <use xlink:href="#ArialMT-6e" x="711.425781"/>
      <use xlink:href="#ArialMT-63" x="767.041016"/>
      <use xlink:href="#ArialMT-65" x="817.041016"/>
     </g>
    </g>
   </g>
   <g id="matplotlib.axis_2">
    <g id="ytick_1">
     <g id="text_7">
      <!-- num_exclam -->
      <g style="fill: #262626" transform="translate(76.290312 51.897258) scale(0.11 -0.11)">
       <defs>
        <path id="ArialMT-5f" d="M -97 -1272 
L -97 -866 
L 3631 -866 
L 3631 -1272 
L -97 -1272 
z
" transform="scale(0.015625)"/>
        <path id="ArialMT-78" d="M 47 0 
L 1259 1725 
L 138 3319 
L 841 3319 
L 1350 2541 
Q 1494 2319 1581 2169 
Q 1719 2375 1834 2534 
L 2394 3319 
L 3066 3319 
L 1919 1756 
L 3153 0 
L 2463 0 
L 1781 1031 
L 1600 1309 
L 728 0 
L 47 0 
z
" transform="scale(0.015625)"/>
        <path id="ArialMT-6c" d="M 409 0 
L 409 4581 
L 972 4581 
L 972 0 
L 409 0 
z
" transform="scale(0.015625)"/>
       </defs>
       <use xlink:href="#ArialMT-6e"/>
       <use xlink:href="#ArialMT-75" x="55.615234"/>
       <use xlink:href="#ArialMT-6d" x="111.230469"/>
       <use xlink:href="#ArialMT-5f" x="194.53125"/>
       <use xlink:href="#ArialMT-65" x="250.146484"/>
       <use xlink:href="#ArialMT-78" x="305.761719"/>
       <use xlink:href="#ArialMT-63" x="355.761719"/>
       <use xlink:href="#ArialMT-6c" x="405.761719"/>
       <use xlink:href="#ArialMT-61" x="427.978516"/>
       <use xlink:href="#ArialMT-6d" x="483.59375"/>
      </g>
     </g>
    </g>
    <g id="ytick_2">
     <g id="text_8">
      <!-- num_question -->
      <g style="fill: #262626" transform="translate(69.545937 77.866878) scale(0.11 -0.11)">
       <defs>
        <path id="ArialMT-71" d="M 2538 -1272 
L 2538 353 
Q 2406 169 2170 47 
Q 1934 -75 1669 -75 
Q 1078 -75 651 397 
Q 225 869 225 1691 
Q 225 2191 398 2587 
Q 572 2984 901 3189 
Q 1231 3394 1625 3394 
Q 2241 3394 2594 2875 
L 2594 3319 
L 3100 3319 
L 3100 -1272 
L 2538 -1272 
z
M 803 1669 
Q 803 1028 1072 708 
Q 1341 388 1716 388 
Q 2075 388 2334 692 
Q 2594 997 2594 1619 
Q 2594 2281 2320 2615 
Q 2047 2950 1678 2950 
Q 1313 2950 1058 2639 
Q 803 2328 803 1669 
z
" transform="scale(0.015625)"/>
        <path id="ArialMT-73" d="M 197 991 
L 753 1078 
Q 800 744 1014 566 
Q 1228 388 1613 388 
Q 2000 388 2187 545 
Q 2375 703 2375 916 
Q 2375 1106 2209 1216 
Q 2094 1291 1634 1406 
Q 1016 1563 777 1677 
Q 538 1791 414 1992 
Q 291 2194 291 2438 
Q 291 2659 392 2848 
Q 494 3038 669 3163 
Q 800 3259 1026 3326 
Q 1253 3394 1513 3394 
Q 1903 3394 2198 3281 
Q 2494 3169 2634 2976 
Q 2775 2784 2828 2463 
L 2278 2388 
Q 2241 2644 2061 2787 
Q 1881 2931 1553 2931 
Q 1166 2931 1000 2803 
Q 834 2675 834 2503 
Q 834 2394 903 2306 
Q 972 2216 1119 2156 
Q 1203 2125 1616 2013 
Q 2213 1853 2448 1751 
Q 2684 1650 2818 1456 
Q 2953 1263 2953 975 
Q 2953 694 2789 445 
Q 2625 197 2315 61 
Q 2006 -75 1616 -75 
Q 969 -75 630 194 
Q 291 463 197 991 
z
" transform="scale(0.015625)"/>
        <path id="ArialMT-69" d="M 425 3934 
L 425 4581 
L 988 4581 
L 988 3934 
L 425 3934 
z
M 425 0 
L 425 3319 
L 988 3319 
L 988 0 
L 425 0 
z
" transform="scale(0.015625)"/>
       </defs>
       <use xlink:href="#ArialMT-6e"/>
       <use xlink:href="#ArialMT-75" x="55.615234"/>
       <use xlink:href="#ArialMT-6d" x="111.230469"/>
       <use xlink:href="#ArialMT-5f" x="194.53125"/>
       <use xlink:href="#ArialMT-71" x="250.146484"/>
       <use xlink:href="#ArialMT-75" x="305.761719"/>
       <use xlink:href="#ArialMT-65" x="361.376953"/>
       <use xlink:href="#ArialMT-73" x="416.992188"/>
       <use xlink:href="#ArialMT-74" x="466.992188"/>
       <use xlink:href="#ArialMT-69" x="494.775391"/>
       <use xlink:href="#ArialMT-6f" x="516.992188"/>
       <use xlink:href="#ArialMT-6e" x="572.607422"/>
      </g>
     </g>
    </g>
    <g id="ytick_3">
     <g id="text_9">
      <!-- stopword_ratio -->
      <g style="fill: #262626" transform="translate(66.500312 103.836498) scale(0.11 -0.11)">
       <defs>
        <path id="ArialMT-77" d="M 1034 0 
L 19 3319 
L 600 3319 
L 1128 1403 
L 1325 691 
Q 1338 744 1497 1375 
L 2025 3319 
L 2603 3319 
L 3100 1394 
L 3266 759 
L 3456 1400 
L 4025 3319 
L 4572 3319 
L 3534 0 
L 2950 0 
L 2422 1988 
L 2294 2553 
L 1622 0 
L 1034 0 
z
" transform="scale(0.015625)"/>
        <path id="ArialMT-64" d="M 2575 0 
L 2575 419 
Q 2259 -75 1647 -75 
Q 1250 -75 917 144 
Q 584 363 401 755 
Q 219 1147 219 1656 
Q 219 2153 384 2558 
Q 550 2963 881 3178 
Q 1213 3394 1622 3394 
Q 1922 3394 2156 3267 
Q 2391 3141 2538 2938 
L 2538 4581 
L 3097 4581 
L 3097 0 
L 2575 0 
z
M 797 1656 
Q 797 1019 1065 703 
Q 1334 388 1700 388 
Q 2069 388 2326 689 
Q 2584 991 2584 1609 
Q 2584 2291 2321 2609 
Q 2059 2928 1675 2928 
Q 1300 2928 1048 2622 
Q 797 2316 797 1656 
z
" transform="scale(0.015625)"/>
       </defs>
       <use xlink:href="#ArialMT-73"/>
       <use xlink:href="#ArialMT-74" x="50"/>
       <use xlink:href="#ArialMT-6f" x="77.783203"/>
       <use xlink:href="#ArialMT-70" x="133.398438"/>
       <use xlink:href="#ArialMT-77" x="189.013672"/>
       <use xlink:href="#ArialMT-6f" x="261.230469"/>
       <use xlink:href="#ArialMT-72" x="316.845703"/>
       <use xlink:href="#ArialMT-64" x="350.146484"/>
       <use xlink:href="#ArialMT-5f" x="405.761719"/>
       <use xlink:href="#ArialMT-72" x="461.376953"/>
       <use xlink:href="#ArialMT-61" x="494.677734"/>
       <use xlink:href="#ArialMT-74" x="550.292969"/>
       <use xlink:href="#ArialMT-69" x="578.076172"/>
       <use xlink:href="#ArialMT-6f" x="600.292969"/>
      </g>
     </g>
    </g>
    <g id="ytick_4">
     <g id="text_10">
      <!-- sentiment_title_polarity -->
      <g style="fill: #262626" transform="translate(26.149219 129.806117) scale(0.11 -0.11)">
       <defs>
        <path id="ArialMT-79" d="M 397 -1278 
L 334 -750 
Q 519 -800 656 -800 
Q 844 -800 956 -737 
Q 1069 -675 1141 -563 
Q 1194 -478 1313 -144 
Q 1328 -97 1363 -6 
L 103 3319 
L 709 3319 
L 1400 1397 
Q 1534 1031 1641 628 
Q 1738 1016 1872 1384 
L 2581 3319 
L 3144 3319 
L 1881 -56 
Q 1678 -603 1566 -809 
Q 1416 -1088 1222 -1217 
Q 1028 -1347 759 -1347 
Q 597 -1347 397 -1278 
z
" transform="scale(0.015625)"/>
       </defs>
       <use xlink:href="#ArialMT-73"/>
       <use xlink:href="#ArialMT-65" x="50"/>
       <use xlink:href="#ArialMT-6e" x="105.615234"/>
       <use xlink:href="#ArialMT-74" x="161.230469"/>
       <use xlink:href="#ArialMT-69" x="189.013672"/>
       <use xlink:href="#ArialMT-6d" x="211.230469"/>
       <use xlink:href="#ArialMT-65" x="294.53125"/>
       <use xlink:href="#ArialMT-6e" x="350.146484"/>
       <use xlink:href="#ArialMT-74" x="405.761719"/>
       <use xlink:href="#ArialMT-5f" x="433.544922"/>
       <use xlink:href="#ArialMT-74" x="489.160156"/>
       <use xlink:href="#ArialMT-69" x="516.943359"/>
       <use xlink:href="#ArialMT-74" x="539.160156"/>
       <use xlink:href="#ArialMT-6c" x="566.943359"/>
       <use xlink:href="#ArialMT-65" x="589.160156"/>
       <use xlink:href="#ArialMT-5f" x="644.775391"/>
       <use xlink:href="#ArialMT-70" x="700.390625"/>
       <use xlink:href="#ArialMT-6f" x="756.005859"/>
       <use xlink:href="#ArialMT-6c" x="811.621094"/>
       <use xlink:href="#ArialMT-61" x="833.837891"/>
       <use xlink:href="#ArialMT-72" x="889.453125"/>
       <use xlink:href="#ArialMT-69" x="922.753906"/>
       <use xlink:href="#ArialMT-74" x="944.970703"/>
       <use xlink:href="#ArialMT-79" x="972.753906"/>
      </g>
     </g>
    </g>
    <g id="ytick_5">
     <g id="text_11">
      <!-- sentiment_title_subjectivity -->
      <g style="fill: #262626" transform="translate(7.811875 155.775737) scale(0.11 -0.11)">
       <defs>
        <path id="ArialMT-62" d="M 941 0 
L 419 0 
L 419 4581 
L 981 4581 
L 981 2947 
Q 1338 3394 1891 3394 
Q 2197 3394 2470 3270 
Q 2744 3147 2920 2923 
Q 3097 2700 3197 2384 
Q 3297 2069 3297 1709 
Q 3297 856 2875 390 
Q 2453 -75 1863 -75 
Q 1275 -75 941 416 
L 941 0 
z
M 934 1684 
Q 934 1088 1097 822 
Q 1363 388 1816 388 
Q 2184 388 2453 708 
Q 2722 1028 2722 1663 
Q 2722 2313 2464 2622 
Q 2206 2931 1841 2931 
Q 1472 2931 1203 2611 
Q 934 2291 934 1684 
z
" transform="scale(0.015625)"/>
        <path id="ArialMT-6a" d="M 419 3928 
L 419 4581 
L 981 4581 
L 981 3928 
L 419 3928 
z
M -294 -1288 
L -188 -809 
Q -19 -853 78 -853 
Q 250 -853 334 -739 
Q 419 -625 419 -169 
L 419 3319 
L 981 3319 
L 981 -181 
Q 981 -794 822 -1034 
Q 619 -1347 147 -1347 
Q -81 -1347 -294 -1288 
z
" transform="scale(0.015625)"/>
        <path id="ArialMT-76" d="M 1344 0 
L 81 3319 
L 675 3319 
L 1388 1331 
Q 1503 1009 1600 663 
Q 1675 925 1809 1294 
L 2547 3319 
L 3125 3319 
L 1869 0 
L 1344 0 
z
" transform="scale(0.015625)"/>
       </defs>
       <use xlink:href="#ArialMT-73"/>
       <use xlink:href="#ArialMT-65" x="50"/>
       <use xlink:href="#ArialMT-6e" x="105.615234"/>
       <use xlink:href="#ArialMT-74" x="161.230469"/>
       <use xlink:href="#ArialMT-69" x="189.013672"/>
       <use xlink:href="#ArialMT-6d" x="211.230469"/>
       <use xlink:href="#ArialMT-65" x="294.53125"/>
       <use xlink:href="#ArialMT-6e" x="350.146484"/>
       <use xlink:href="#ArialMT-74" x="405.761719"/>
       <use xlink:href="#ArialMT-5f" x="433.544922"/>
       <use xlink:href="#ArialMT-74" x="489.160156"/>
       <use xlink:href="#ArialMT-69" x="516.943359"/>
       <use xlink:href="#ArialMT-74" x="539.160156"/>
       <use xlink:href="#ArialMT-6c" x="566.943359"/>
       <use xlink:href="#ArialMT-65" x="589.160156"/>
       <use xlink:href="#ArialMT-5f" x="644.775391"/>
       <use xlink:href="#ArialMT-73" x="700.390625"/>
       <use xlink:href="#ArialMT-75" x="750.390625"/>
       <use xlink:href="#ArialMT-62" x="806.005859"/>
       <use xlink:href="#ArialMT-6a" x="861.621094"/>
       <use xlink:href="#ArialMT-65" x="883.837891"/>
       <use xlink:href="#ArialMT-63" x="939.453125"/>
       <use xlink:href="#ArialMT-74" x="989.453125"/>
       <use xlink:href="#ArialMT-69" x="1017.236328"/>
       <use xlink:href="#ArialMT-76" x="1039.453125"/>
       <use xlink:href="#ArialMT-69" x="1089.453125"/>
       <use xlink:href="#ArialMT-74" x="1111.669922"/>
       <use xlink:href="#ArialMT-79" x="1139.453125"/>
      </g>
     </g>
    </g>
    <g id="ytick_6">
     <g id="text_12">
      <!-- avg_word_len -->
      <g style="fill: #262626" transform="translate(70.157812 181.745357) scale(0.11 -0.11)">
       <defs>
        <path id="ArialMT-67" d="M 319 -275 
L 866 -356 
Q 900 -609 1056 -725 
Q 1266 -881 1628 -881 
Q 2019 -881 2231 -725 
Q 2444 -569 2519 -288 
Q 2563 -116 2559 434 
Q 2191 0 1641 0 
Q 956 0 581 494 
Q 206 988 206 1678 
Q 206 2153 378 2554 
Q 550 2956 876 3175 
Q 1203 3394 1644 3394 
Q 2231 3394 2613 2919 
L 2613 3319 
L 3131 3319 
L 3131 450 
Q 3131 -325 2973 -648 
Q 2816 -972 2473 -1159 
Q 2131 -1347 1631 -1347 
Q 1038 -1347 672 -1080 
Q 306 -813 319 -275 
z
M 784 1719 
Q 784 1066 1043 766 
Q 1303 466 1694 466 
Q 2081 466 2343 764 
Q 2606 1063 2606 1700 
Q 2606 2309 2336 2618 
Q 2066 2928 1684 2928 
Q 1309 2928 1046 2623 
Q 784 2319 784 1719 
z
" transform="scale(0.015625)"/>
       </defs>
       <use xlink:href="#ArialMT-61"/>
       <use xlink:href="#ArialMT-76" x="55.615234"/>
       <use xlink:href="#ArialMT-67" x="105.615234"/>
       <use xlink:href="#ArialMT-5f" x="161.230469"/>
       <use xlink:href="#ArialMT-77" x="216.845703"/>
       <use xlink:href="#ArialMT-6f" x="289.0625"/>
       <use xlink:href="#ArialMT-72" x="344.677734"/>
       <use xlink:href="#ArialMT-64" x="377.978516"/>
       <use xlink:href="#ArialMT-5f" x="433.59375"/>
       <use xlink:href="#ArialMT-6c" x="489.208984"/>
       <use xlink:href="#ArialMT-65" x="511.425781"/>
       <use xlink:href="#ArialMT-6e" x="567.041016"/>
      </g>
     </g>
    </g>
    <g id="ytick_7">
     <g id="text_13">
      <!-- punctuation_ratio -->
      <g style="fill: #262626" transform="translate(54.255937 207.714976) scale(0.11 -0.11)">
       <use xlink:href="#ArialMT-70"/>
       <use xlink:href="#ArialMT-75" x="55.615234"/>
       <use xlink:href="#ArialMT-6e" x="111.230469"/>
       <use xlink:href="#ArialMT-63" x="166.845703"/>
       <use xlink:href="#ArialMT-74" x="216.845703"/>
       <use xlink:href="#ArialMT-75" x="244.628906"/>
       <use xlink:href="#ArialMT-61" x="300.244141"/>
       <use xlink:href="#ArialMT-74" x="355.859375"/>
       <use xlink:href="#ArialMT-69" x="383.642578"/>
       <use xlink:href="#ArialMT-6f" x="405.859375"/>
       <use xlink:href="#ArialMT-6e" x="461.474609"/>
       <use xlink:href="#ArialMT-5f" x="517.089844"/>
       <use xlink:href="#ArialMT-72" x="572.705078"/>
       <use xlink:href="#ArialMT-61" x="606.005859"/>
       <use xlink:href="#ArialMT-74" x="661.621094"/>
       <use xlink:href="#ArialMT-69" x="689.404297"/>
       <use xlink:href="#ArialMT-6f" x="711.621094"/>
      </g>
     </g>
    </g>
    <g id="ytick_8">
     <g id="text_14">
      <!-- sentiment_text_subjectivity -->
      <g style="fill: #262626" transform="translate(7.2 233.684596) scale(0.11 -0.11)">
       <use xlink:href="#ArialMT-73"/>
       <use xlink:href="#ArialMT-65" x="50"/>
       <use xlink:href="#ArialMT-6e" x="105.615234"/>
       <use xlink:href="#ArialMT-74" x="161.230469"/>
       <use xlink:href="#ArialMT-69" x="189.013672"/>
       <use xlink:href="#ArialMT-6d" x="211.230469"/>
       <use xlink:href="#ArialMT-65" x="294.53125"/>
       <use xlink:href="#ArialMT-6e" x="350.146484"/>
       <use xlink:href="#ArialMT-74" x="405.761719"/>
       <use xlink:href="#ArialMT-5f" x="433.544922"/>
       <use xlink:href="#ArialMT-74" x="489.160156"/>
       <use xlink:href="#ArialMT-65" x="516.943359"/>
       <use xlink:href="#ArialMT-78" x="572.558594"/>
       <use xlink:href="#ArialMT-74" x="622.558594"/>
       <use xlink:href="#ArialMT-5f" x="650.341797"/>
       <use xlink:href="#ArialMT-73" x="705.957031"/>
       <use xlink:href="#ArialMT-75" x="755.957031"/>
       <use xlink:href="#ArialMT-62" x="811.572266"/>
       <use xlink:href="#ArialMT-6a" x="867.1875"/>
       <use xlink:href="#ArialMT-65" x="889.404297"/>
       <use xlink:href="#ArialMT-63" x="945.019531"/>
       <use xlink:href="#ArialMT-74" x="995.019531"/>
       <use xlink:href="#ArialMT-69" x="1022.802734"/>
       <use xlink:href="#ArialMT-76" x="1045.019531"/>
       <use xlink:href="#ArialMT-69" x="1095.019531"/>
       <use xlink:href="#ArialMT-74" x="1117.236328"/>
       <use xlink:href="#ArialMT-79" x="1145.019531"/>
      </g>
     </g>
    </g>
    <g id="ytick_9">
     <g id="text_15">
      <!-- lexical_diversity -->
      <g style="fill: #262626" transform="translate(61.620781 259.654216) scale(0.11 -0.11)">
       <use xlink:href="#ArialMT-6c"/>
       <use xlink:href="#ArialMT-65" x="22.216797"/>
       <use xlink:href="#ArialMT-78" x="77.832031"/>
       <use xlink:href="#ArialMT-69" x="127.832031"/>
       <use xlink:href="#ArialMT-63" x="150.048828"/>
       <use xlink:href="#ArialMT-61" x="200.048828"/>
       <use xlink:href="#ArialMT-6c" x="255.664062"/>
       <use xlink:href="#ArialMT-5f" x="277.880859"/>
       <use xlink:href="#ArialMT-64" x="333.496094"/>
       <use xlink:href="#ArialMT-69" x="389.111328"/>
       <use xlink:href="#ArialMT-76" x="411.328125"/>
       <use xlink:href="#ArialMT-65" x="461.328125"/>
       <use xlink:href="#ArialMT-72" x="516.943359"/>
       <use xlink:href="#ArialMT-73" x="550.244141"/>
       <use xlink:href="#ArialMT-69" x="600.244141"/>
       <use xlink:href="#ArialMT-74" x="622.460938"/>
       <use xlink:href="#ArialMT-79" x="650.244141"/>
      </g>
     </g>
    </g>
    <g id="ytick_10">
     <g id="text_16">
      <!-- sentiment_text_polarity -->
      <g style="fill: #262626" transform="translate(25.537344 285.623835) scale(0.11 -0.11)">
       <use xlink:href="#ArialMT-73"/>
       <use xlink:href="#ArialMT-65" x="50"/>
       <use xlink:href="#ArialMT-6e" x="105.615234"/>
       <use xlink:href="#ArialMT-74" x="161.230469"/>
       <use xlink:href="#ArialMT-69" x="189.013672"/>
       <use xlink:href="#ArialMT-6d" x="211.230469"/>
       <use xlink:href="#ArialMT-65" x="294.53125"/>
       <use xlink:href="#ArialMT-6e" x="350.146484"/>
       <use xlink:href="#ArialMT-74" x="405.761719"/>
       <use xlink:href="#ArialMT-5f" x="433.544922"/>
       <use xlink:href="#ArialMT-74" x="489.160156"/>
       <use xlink:href="#ArialMT-65" x="516.943359"/>
       <use xlink:href="#ArialMT-78" x="572.558594"/>
       <use xlink:href="#ArialMT-74" x="622.558594"/>
       <use xlink:href="#ArialMT-5f" x="650.341797"/>
       <use xlink:href="#ArialMT-70" x="705.957031"/>
       <use xlink:href="#ArialMT-6f" x="761.572266"/>
       <use xlink:href="#ArialMT-6c" x="817.1875"/>
       <use xlink:href="#ArialMT-61" x="839.404297"/>
       <use xlink:href="#ArialMT-72" x="895.019531"/>
       <use xlink:href="#ArialMT-69" x="928.320312"/>
       <use xlink:href="#ArialMT-74" x="950.537109"/>
       <use xlink:href="#ArialMT-79" x="978.320312"/>
      </g>
     </g>
    </g>
   </g>
   <g id="patch_3">
    <path d="M 148.144844 37.572614 
L 812.382939 37.572614 
L 812.382939 58.348309 
L 148.144844 58.348309 
z
" clip-path="url(#p65b62b200b)" style="fill: #fc8d62; stroke: #ffffff; stroke-linejoin: miter"/>
   </g>
   <g id="patch_4">
    <path d="M 148.144844 63.542233 
L 365.771777 63.542233 
L 365.771777 84.317929 
L 148.144844 84.317929 
z
" clip-path="url(#p65b62b200b)" style="fill: #fc8d62; stroke: #ffffff; stroke-linejoin: miter"/>
   </g>
   <g id="patch_5">
    <path d="M 148.144844 89.511853 
L 332.041989 89.511853 
L 332.041989 110.287549 
L 148.144844 110.287549 
z
" clip-path="url(#p65b62b200b)" style="fill: #fc8d62; stroke: #ffffff; stroke-linejoin: miter"/>
   </g>
   <g id="patch_6">
    <path d="M 148.144844 115.481473 
L 282.248657 115.481473 
L 282.248657 136.257168 
L 148.144844 136.257168 
z
" clip-path="url(#p65b62b200b)" style="fill: #fc8d62; stroke: #ffffff; stroke-linejoin: miter"/>
   </g>
   <g id="patch_7">
    <path d="M 148.144844 141.451092 
L 258.569499 141.451092 
L 258.569499 162.226788 
L 148.144844 162.226788 
z
" clip-path="url(#p65b62b200b)" style="fill: #fc8d62; stroke: #ffffff; stroke-linejoin: miter"/>
   </g>
   <g id="patch_8">
    <path d="M 148.144844 167.420712 
L 185.612733 167.420712 
L 185.612733 188.196408 
L 148.144844 188.196408 
z
" clip-path="url(#p65b62b200b)" style="fill: #fc8d62; stroke: #ffffff; stroke-linejoin: miter"/>
   </g>
   <g id="patch_9">
    <path d="M 148.144844 193.390332 
L 184.088505 193.390332 
L 184.088505 214.166027 
L 148.144844 214.166027 
z
" clip-path="url(#p65b62b200b)" style="fill: #fc8d62; stroke: #ffffff; stroke-linejoin: miter"/>
   </g>
   <g id="patch_10">
    <path d="M 148.144844 219.359951 
L 180.493025 219.359951 
L 180.493025 240.135647 
L 148.144844 240.135647 
z
" clip-path="url(#p65b62b200b)" style="fill: #fc8d62; stroke: #ffffff; stroke-linejoin: miter"/>
   </g>
   <g id="patch_11">
    <path d="M 148.144844 245.329571 
L 172.846635 245.329571 
L 172.846635 266.105267 
L 148.144844 266.105267 
z
" clip-path="url(#p65b62b200b)" style="fill: #fc8d62; stroke: #ffffff; stroke-linejoin: miter"/>
   </g>
   <g id="patch_12">
    <path d="M 148.144844 271.299191 
L 159.422626 271.299191 
L 159.422626 292.074886 
L 148.144844 292.074886 
z
" clip-path="url(#p65b62b200b)" style="fill: #fc8d62; stroke: #ffffff; stroke-linejoin: miter"/>
   </g>
   <g id="patch_13">
    <path d="M 148.144844 304.8 
L 148.144844 24.8475 
" style="fill: none; stroke: #262626; stroke-width: 1.25; stroke-linejoin: miter; stroke-linecap: square"/>
   </g>
   <g id="patch_14">
    <path d="M 845.594844 304.8 
L 845.594844 24.8475 
" style="fill: none; stroke: #262626; stroke-width: 1.25; stroke-linejoin: miter; stroke-linecap: square"/>
   </g>
   <g id="patch_15">
    <path d="M 148.144844 304.8 
L 845.594844 304.8 
" style="fill: none; stroke: #262626; stroke-width: 1.25; stroke-linejoin: miter; stroke-linecap: square"/>
   </g>
   <g id="patch_16">
    <path d="M 148.144844 24.8475 
L 845.594844 24.8475 
" style="fill: none; stroke: #262626; stroke-width: 1.25; stroke-linejoin: miter; stroke-linecap: square"/>
   </g>
   <g id="text_17">
    <!-- XGBoost - Numeric Feature Importances -->
    <g style="fill: #262626" transform="translate(351.937344 18.8475) scale(0.16 -0.16)">
     <defs>
      <path id="ArialMT-58" d="M 28 0 
L 1800 2388 
L 238 4581 
L 959 4581 
L 1791 3406 
Q 2050 3041 2159 2844 
Q 2313 3094 2522 3366 
L 3444 4581 
L 4103 4581 
L 2494 2422 
L 4228 0 
L 3478 0 
L 2325 1634 
Q 2228 1775 2125 1941 
Q 1972 1691 1906 1597 
L 756 0 
L 28 0 
z
" transform="scale(0.015625)"/>
      <path id="ArialMT-47" d="M 2638 1797 
L 2638 2334 
L 4578 2338 
L 4578 638 
Q 4131 281 3656 101 
Q 3181 -78 2681 -78 
Q 2006 -78 1454 211 
Q 903 500 622 1047 
Q 341 1594 341 2269 
Q 341 2938 620 3517 
Q 900 4097 1425 4378 
Q 1950 4659 2634 4659 
Q 3131 4659 3532 4498 
Q 3934 4338 4162 4050 
Q 4391 3763 4509 3300 
L 3963 3150 
Q 3859 3500 3706 3700 
Q 3553 3900 3268 4020 
Q 2984 4141 2638 4141 
Q 2222 4141 1919 4014 
Q 1616 3888 1430 3681 
Q 1244 3475 1141 3228 
Q 966 2803 966 2306 
Q 966 1694 1177 1281 
Q 1388 869 1791 669 
Q 2194 469 2647 469 
Q 3041 469 3416 620 
Q 3791 772 3984 944 
L 3984 1797 
L 2638 1797 
z
" transform="scale(0.015625)"/>
      <path id="ArialMT-42" d="M 469 0 
L 469 4581 
L 2188 4581 
Q 2713 4581 3030 4442 
Q 3347 4303 3526 4014 
Q 3706 3725 3706 3409 
Q 3706 3116 3547 2856 
Q 3388 2597 3066 2438 
Q 3481 2316 3704 2022 
Q 3928 1728 3928 1328 
Q 3928 1006 3792 729 
Q 3656 453 3456 303 
Q 3256 153 2954 76 
Q 2653 0 2216 0 
L 469 0 
z
M 1075 2656 
L 2066 2656 
Q 2469 2656 2644 2709 
Q 2875 2778 2992 2937 
Q 3109 3097 3109 3338 
Q 3109 3566 3000 3739 
Q 2891 3913 2687 3977 
Q 2484 4041 1991 4041 
L 1075 4041 
L 1075 2656 
z
M 1075 541 
L 2216 541 
Q 2509 541 2628 563 
Q 2838 600 2978 687 
Q 3119 775 3209 942 
Q 3300 1109 3300 1328 
Q 3300 1584 3169 1773 
Q 3038 1963 2805 2039 
Q 2572 2116 2134 2116 
L 1075 2116 
L 1075 541 
z
" transform="scale(0.015625)"/>
      <path id="ArialMT-2d" d="M 203 1375 
L 203 1941 
L 1931 1941 
L 1931 1375 
L 203 1375 
z
" transform="scale(0.015625)"/>
      <path id="ArialMT-4e" d="M 488 0 
L 488 4581 
L 1109 4581 
L 3516 984 
L 3516 4581 
L 4097 4581 
L 4097 0 
L 3475 0 
L 1069 3600 
L 1069 0 
L 488 0 
z
" transform="scale(0.015625)"/>
     </defs>
     <use xlink:href="#ArialMT-58"/>
     <use xlink:href="#ArialMT-47" x="66.699219"/>
     <use xlink:href="#ArialMT-42" x="144.482422"/>
     <use xlink:href="#ArialMT-6f" x="211.181641"/>
     <use xlink:href="#ArialMT-6f" x="266.796875"/>
     <use xlink:href="#ArialMT-73" x="322.412109"/>
     <use xlink:href="#ArialMT-74" x="372.412109"/>
     <use xlink:href="#ArialMT-20" x="400.195312"/>
     <use xlink:href="#ArialMT-2d" x="427.978516"/>
     <use xlink:href="#ArialMT-20" x="461.279297"/>
     <use xlink:href="#ArialMT-4e" x="489.0625"/>
     <use xlink:href="#ArialMT-75" x="561.279297"/>
     <use xlink:href="#ArialMT-6d" x="616.894531"/>
     <use xlink:href="#ArialMT-65" x="700.195312"/>
     <use xlink:href="#ArialMT-72" x="755.810547"/>
     <use xlink:href="#ArialMT-69" x="789.111328"/>
     <use xlink:href="#ArialMT-63" x="811.328125"/>
     <use xlink:href="#ArialMT-20" x="861.328125"/>
     <use xlink:href="#ArialMT-46" x="889.111328"/>
     <use xlink:href="#ArialMT-65" x="950.195312"/>
     <use xlink:href="#ArialMT-61" x="1005.810547"/>
     <use xlink:href="#ArialMT-74" x="1061.425781"/>
     <use xlink:href="#ArialMT-75" x="1089.208984"/>
     <use xlink:href="#ArialMT-72" x="1144.824219"/>
     <use xlink:href="#ArialMT-65" x="1178.125"/>
     <use xlink:href="#ArialMT-20" x="1233.740234"/>
     <use xlink:href="#ArialMT-49" x="1261.523438"/>
     <use xlink:href="#ArialMT-6d" x="1289.306641"/>
     <use xlink:href="#ArialMT-70" x="1372.607422"/>
     <use xlink:href="#ArialMT-6f" x="1428.222656"/>
     <use xlink:href="#ArialMT-72" x="1483.837891"/>
     <use xlink:href="#ArialMT-74" x="1517.138672"/>
     <use xlink:href="#ArialMT-61" x="1544.921875"/>
     <use xlink:href="#ArialMT-6e" x="1600.537109"/>
     <use xlink:href="#ArialMT-63" x="1656.152344"/>
     <use xlink:href="#ArialMT-65" x="1706.152344"/>
     <use xlink:href="#ArialMT-73" x="1761.767578"/>
    </g>
   </g>
  </g>
 </g>
 <defs>
  <clipPath id="p65b62b200b">
   <rect x="148.144844" y="24.8475" width="697.45" height="279.9525"/>
  </clipPath>
 </defs>
</svg>
