<?xml version="1.0" encoding="utf-8" standalone="no"?>
<!DOCTYPE svg PUBLIC "-//W3C//DTD SVG 1.1//EN"
  "http://www.w3.org/Graphics/SVG/1.1/DTD/svg11.dtd">
<svg xmlns:xlink="http://www.w3.org/1999/xlink" width="852.545078pt" height="420.904219pt" viewBox="0 0 852.545078 420.904219" xmlns="http://www.w3.org/2000/svg" version="1.1">
 <metadata>
  <rdf:RDF xmlns:dc="http://purl.org/dc/elements/1.1/" xmlns:cc="http://creativecommons.org/ns#" xmlns:rdf="http://www.w3.org/1999/02/22-rdf-syntax-ns#">
   <cc:Work>
    <dc:type rdf:resource="http://purl.org/dc/dcmitype/StillImage"/>
    <dc:date>2025-05-17T18:08:10.039577</dc:date>
    <dc:format>image/svg+xml</dc:format>
    <dc:creator>
     <cc:Agent>
      <dc:title>Matplotlib v3.10.1, https://matplotlib.org/</dc:title>
     </cc:Agent>
    </dc:creator>
   </cc:Work>
  </rdf:RDF>
 </metadata>
 <defs>
  <style type="text/css">*{stroke-linejoin: round; stroke-linecap: butt}</style>
 </defs>
 <g id="figure_1">
  <g id="patch_1">
   <path d="M 0 420.904219 
L 852.545078 420.904219 
L 852.545078 0 
L 0 0 
z
" style="fill: #ffffff"/>
  </g>
  <g id="axes_1">
   <g id="patch_2">
    <path d="M 56.1425 378.883125 
L 830.0525 378.883125 
L 830.0525 21.935625 
L 56.1425 21.935625 
z
" style="fill: #ffffff"/>
   </g>
   <g id="matplotlib.axis_1">
    <g id="xtick_1">
     <g id="text_1">
      <!-- 0 -->
      <g style="fill: #262626" transform="translate(53.083984 396.256719) scale(0.11 -0.11)">
       <defs>
        <path id="ArialMT-30" d="M 266 2259 
Q 266 3072 433 3567 
Q 600 4063 929 4331 
Q 1259 4600 1759 4600 
Q 2128 4600 2406 4451 
Q 2684 4303 2865 4023 
Q 3047 3744 3150 3342 
Q 3253 2941 3253 2259 
Q 3253 1453 3087 958 
Q 2922 463 2592 192 
Q 2263 -78 1759 -78 
Q 1097 -78 719 397 
Q 266 969 266 2259 
z
M 844 2259 
Q 844 1131 1108 757 
Q 1372 384 1759 384 
Q 2147 384 2411 759 
Q 2675 1134 2675 2259 
Q 2675 3391 2411 3762 
Q 2147 4134 1753 4134 
Q 1366 4134 1134 3806 
Q 844 3388 844 2259 
z
" transform="scale(0.015625)"/>
       </defs>
       <use xlink:href="#ArialMT-30"/>
      </g>
     </g>
    </g>
    <g id="xtick_2">
     <g id="text_2">
      <!-- 5000 -->
      <g style="fill: #262626" transform="translate(172.893438 396.256719) scale(0.11 -0.11)">
       <defs>
        <path id="ArialMT-35" d="M 266 1200 
L 856 1250 
Q 922 819 1161 601 
Q 1400 384 1738 384 
Q 2144 384 2425 690 
Q 2706 997 2706 1503 
Q 2706 1984 2436 2262 
Q 2166 2541 1728 2541 
Q 1456 2541 1237 2417 
Q 1019 2294 894 2097 
L 366 2166 
L 809 4519 
L 3088 4519 
L 3088 3981 
L 1259 3981 
L 1013 2750 
Q 1425 3038 1878 3038 
Q 2478 3038 2890 2622 
Q 3303 2206 3303 1553 
Q 3303 931 2941 478 
Q 2500 -78 1738 -78 
Q 1113 -78 717 272 
Q 322 622 266 1200 
z
" transform="scale(0.015625)"/>
       </defs>
       <use xlink:href="#ArialMT-35"/>
       <use xlink:href="#ArialMT-30" transform="translate(55.615234 0)"/>
       <use xlink:href="#ArialMT-30" transform="translate(111.230469 0)"/>
       <use xlink:href="#ArialMT-30" transform="translate(166.845703 0)"/>
      </g>
     </g>
    </g>
    <g id="xtick_3">
     <g id="text_3">
      <!-- 10000 -->
      <g style="fill: #262626" transform="translate(298.819922 396.256719) scale(0.11 -0.11)">
       <defs>
        <path id="ArialMT-31" d="M 2384 0 
L 1822 0 
L 1822 3584 
Q 1619 3391 1289 3197 
Q 959 3003 697 2906 
L 697 3450 
Q 1169 3672 1522 3987 
Q 1875 4303 2022 4600 
L 2384 4600 
L 2384 0 
z
" transform="scale(0.015625)"/>
       </defs>
       <use xlink:href="#ArialMT-31"/>
       <use xlink:href="#ArialMT-30" transform="translate(55.615234 0)"/>
       <use xlink:href="#ArialMT-30" transform="translate(111.230469 0)"/>
       <use xlink:href="#ArialMT-30" transform="translate(166.845703 0)"/>
       <use xlink:href="#ArialMT-30" transform="translate(222.460938 0)"/>
      </g>
     </g>
    </g>
    <g id="xtick_4">
     <g id="text_4">
      <!-- 15000 -->
      <g style="fill: #262626" transform="translate(427.804922 396.256719) scale(0.11 -0.11)">
       <use xlink:href="#ArialMT-31"/>
       <use xlink:href="#ArialMT-35" transform="translate(55.615234 0)"/>
       <use xlink:href="#ArialMT-30" transform="translate(111.230469 0)"/>
       <use xlink:href="#ArialMT-30" transform="translate(166.845703 0)"/>
       <use xlink:href="#ArialMT-30" transform="translate(222.460938 0)"/>
      </g>
     </g>
    </g>
    <g id="xtick_5">
     <g id="text_5">
      <!-- 20000 -->
      <g style="fill: #262626" transform="translate(556.789922 396.256719) scale(0.11 -0.11)">
       <defs>
        <path id="ArialMT-32" d="M 3222 541 
L 3222 0 
L 194 0 
Q 188 203 259 391 
Q 375 700 629 1000 
Q 884 1300 1366 1694 
Q 2113 2306 2375 2664 
Q 2638 3022 2638 3341 
Q 2638 3675 2398 3904 
Q 2159 4134 1775 4134 
Q 1369 4134 1125 3890 
Q 881 3647 878 3216 
L 300 3275 
Q 359 3922 746 4261 
Q 1134 4600 1788 4600 
Q 2447 4600 2831 4234 
Q 3216 3869 3216 3328 
Q 3216 3053 3103 2787 
Q 2991 2522 2730 2228 
Q 2469 1934 1863 1422 
Q 1356 997 1212 845 
Q 1069 694 975 541 
L 3222 541 
z
" transform="scale(0.015625)"/>
       </defs>
       <use xlink:href="#ArialMT-32"/>
       <use xlink:href="#ArialMT-30" transform="translate(55.615234 0)"/>
       <use xlink:href="#ArialMT-30" transform="translate(111.230469 0)"/>
       <use xlink:href="#ArialMT-30" transform="translate(166.845703 0)"/>
       <use xlink:href="#ArialMT-30" transform="translate(222.460938 0)"/>
      </g>
     </g>
    </g>
    <g id="xtick_6">
     <g id="text_6">
      <!-- 25000 -->
      <g style="fill: #262626" transform="translate(685.774922 396.256719) scale(0.11 -0.11)">
       <use xlink:href="#ArialMT-32"/>
       <use xlink:href="#ArialMT-35" transform="translate(55.615234 0)"/>
       <use xlink:href="#ArialMT-30" transform="translate(111.230469 0)"/>
       <use xlink:href="#ArialMT-30" transform="translate(166.845703 0)"/>
       <use xlink:href="#ArialMT-30" transform="translate(222.460938 0)"/>
      </g>
     </g>
    </g>
    <g id="xtick_7">
     <g id="text_7">
      <!-- 30000 -->
      <g style="fill: #262626" transform="translate(814.759922 396.256719) scale(0.11 -0.11)">
       <defs>
        <path id="ArialMT-33" d="M 269 1209 
L 831 1284 
Q 928 806 1161 595 
Q 1394 384 1728 384 
Q 2125 384 2398 659 
Q 2672 934 2672 1341 
Q 2672 1728 2419 1979 
Q 2166 2231 1775 2231 
Q 1616 2231 1378 2169 
L 1441 2663 
Q 1497 2656 1531 2656 
Q 1891 2656 2178 2843 
Q 2466 3031 2466 3422 
Q 2466 3731 2256 3934 
Q 2047 4138 1716 4138 
Q 1388 4138 1169 3931 
Q 950 3725 888 3313 
L 325 3413 
Q 428 3978 793 4289 
Q 1159 4600 1703 4600 
Q 2078 4600 2393 4439 
Q 2709 4278 2876 4000 
Q 3044 3722 3044 3409 
Q 3044 3113 2884 2869 
Q 2725 2625 2413 2481 
Q 2819 2388 3044 2092 
Q 3269 1797 3269 1353 
Q 3269 753 2831 336 
Q 2394 -81 1725 -81 
Q 1122 -81 723 278 
Q 325 638 269 1209 
z
" transform="scale(0.015625)"/>
       </defs>
       <use xlink:href="#ArialMT-33"/>
       <use xlink:href="#ArialMT-30" transform="translate(55.615234 0)"/>
       <use xlink:href="#ArialMT-30" transform="translate(111.230469 0)"/>
       <use xlink:href="#ArialMT-30" transform="translate(166.845703 0)"/>
       <use xlink:href="#ArialMT-30" transform="translate(222.460938 0)"/>
      </g>
     </g>
    </g>
    <g id="text_8">
     <!-- Combined Text Length -->
     <g style="fill: #262626" transform="translate(383.171562 411.178594) scale(0.12 -0.12)">
      <defs>
       <path id="ArialMT-43" d="M 3763 1606 
L 4369 1453 
Q 4178 706 3683 314 
Q 3188 -78 2472 -78 
Q 1731 -78 1267 223 
Q 803 525 561 1097 
Q 319 1669 319 2325 
Q 319 3041 592 3573 
Q 866 4106 1370 4382 
Q 1875 4659 2481 4659 
Q 3169 4659 3637 4309 
Q 4106 3959 4291 3325 
L 3694 3184 
Q 3534 3684 3231 3912 
Q 2928 4141 2469 4141 
Q 1941 4141 1586 3887 
Q 1231 3634 1087 3207 
Q 944 2781 944 2328 
Q 944 1744 1114 1308 
Q 1284 872 1643 656 
Q 2003 441 2422 441 
Q 2931 441 3284 734 
Q 3638 1028 3763 1606 
z
" transform="scale(0.015625)"/>
       <path id="ArialMT-6f" d="M 213 1659 
Q 213 2581 725 3025 
Q 1153 3394 1769 3394 
Q 2453 3394 2887 2945 
Q 3322 2497 3322 1706 
Q 3322 1066 3130 698 
Q 2938 331 2570 128 
Q 2203 -75 1769 -75 
Q 1072 -75 642 372 
Q 213 819 213 1659 
z
M 791 1659 
Q 791 1022 1069 705 
Q 1347 388 1769 388 
Q 2188 388 2466 706 
Q 2744 1025 2744 1678 
Q 2744 2294 2464 2611 
Q 2184 2928 1769 2928 
Q 1347 2928 1069 2612 
Q 791 2297 791 1659 
z
" transform="scale(0.015625)"/>
       <path id="ArialMT-6d" d="M 422 0 
L 422 3319 
L 925 3319 
L 925 2853 
Q 1081 3097 1340 3245 
Q 1600 3394 1931 3394 
Q 2300 3394 2536 3241 
Q 2772 3088 2869 2813 
Q 3263 3394 3894 3394 
Q 4388 3394 4653 3120 
Q 4919 2847 4919 2278 
L 4919 0 
L 4359 0 
L 4359 2091 
Q 4359 2428 4304 2576 
Q 4250 2725 4106 2815 
Q 3963 2906 3769 2906 
Q 3419 2906 3187 2673 
Q 2956 2441 2956 1928 
L 2956 0 
L 2394 0 
L 2394 2156 
Q 2394 2531 2256 2718 
Q 2119 2906 1806 2906 
Q 1569 2906 1367 2781 
Q 1166 2656 1075 2415 
Q 984 2175 984 1722 
L 984 0 
L 422 0 
z
" transform="scale(0.015625)"/>
       <path id="ArialMT-62" d="M 941 0 
L 419 0 
L 419 4581 
L 981 4581 
L 981 2947 
Q 1338 3394 1891 3394 
Q 2197 3394 2470 3270 
Q 2744 3147 2920 2923 
Q 3097 2700 3197 2384 
Q 3297 2069 3297 1709 
Q 3297 856 2875 390 
Q 2453 -75 1863 -75 
Q 1275 -75 941 416 
L 941 0 
z
M 934 1684 
Q 934 1088 1097 822 
Q 1363 388 1816 388 
Q 2184 388 2453 708 
Q 2722 1028 2722 1663 
Q 2722 2313 2464 2622 
Q 2206 2931 1841 2931 
Q 1472 2931 1203 2611 
Q 934 2291 934 1684 
z
" transform="scale(0.015625)"/>
       <path id="ArialMT-69" d="M 425 3934 
L 425 4581 
L 988 4581 
L 988 3934 
L 425 3934 
z
M 425 0 
L 425 3319 
L 988 3319 
L 988 0 
L 425 0 
z
" transform="scale(0.015625)"/>
       <path id="ArialMT-6e" d="M 422 0 
L 422 3319 
L 928 3319 
L 928 2847 
Q 1294 3394 1984 3394 
Q 2284 3394 2536 3286 
Q 2788 3178 2913 3003 
Q 3038 2828 3088 2588 
Q 3119 2431 3119 2041 
L 3119 0 
L 2556 0 
L 2556 2019 
Q 2556 2363 2490 2533 
Q 2425 2703 2258 2804 
Q 2091 2906 1866 2906 
Q 1506 2906 1245 2678 
Q 984 2450 984 1813 
L 984 0 
L 422 0 
z
" transform="scale(0.015625)"/>
       <path id="ArialMT-65" d="M 2694 1069 
L 3275 997 
Q 3138 488 2766 206 
Q 2394 -75 1816 -75 
Q 1088 -75 661 373 
Q 234 822 234 1631 
Q 234 2469 665 2931 
Q 1097 3394 1784 3394 
Q 2450 3394 2872 2941 
Q 3294 2488 3294 1666 
Q 3294 1616 3291 1516 
L 816 1516 
Q 847 969 1125 678 
Q 1403 388 1819 388 
Q 2128 388 2347 550 
Q 2566 713 2694 1069 
z
M 847 1978 
L 2700 1978 
Q 2663 2397 2488 2606 
Q 2219 2931 1791 2931 
Q 1403 2931 1139 2672 
Q 875 2413 847 1978 
z
" transform="scale(0.015625)"/>
       <path id="ArialMT-64" d="M 2575 0 
L 2575 419 
Q 2259 -75 1647 -75 
Q 1250 -75 917 144 
Q 584 363 401 755 
Q 219 1147 219 1656 
Q 219 2153 384 2558 
Q 550 2963 881 3178 
Q 1213 3394 1622 3394 
Q 1922 3394 2156 3267 
Q 2391 3141 2538 2938 
L 2538 4581 
L 3097 4581 
L 3097 0 
L 2575 0 
z
M 797 1656 
Q 797 1019 1065 703 
Q 1334 388 1700 388 
Q 2069 388 2326 689 
Q 2584 991 2584 1609 
Q 2584 2291 2321 2609 
Q 2059 2928 1675 2928 
Q 1300 2928 1048 2622 
Q 797 2316 797 1656 
z
" transform="scale(0.015625)"/>
       <path id="ArialMT-20" transform="scale(0.015625)"/>
       <path id="ArialMT-54" d="M 1659 0 
L 1659 4041 
L 150 4041 
L 150 4581 
L 3781 4581 
L 3781 4041 
L 2266 4041 
L 2266 0 
L 1659 0 
z
" transform="scale(0.015625)"/>
       <path id="ArialMT-78" d="M 47 0 
L 1259 1725 
L 138 3319 
L 841 3319 
L 1350 2541 
Q 1494 2319 1581 2169 
Q 1719 2375 1834 2534 
L 2394 3319 
L 3066 3319 
L 1919 1756 
L 3153 0 
L 2463 0 
L 1781 1031 
L 1600 1309 
L 728 0 
L 47 0 
z
" transform="scale(0.015625)"/>
       <path id="ArialMT-74" d="M 1650 503 
L 1731 6 
Q 1494 -44 1306 -44 
Q 1000 -44 831 53 
Q 663 150 594 308 
Q 525 466 525 972 
L 525 2881 
L 113 2881 
L 113 3319 
L 525 3319 
L 525 4141 
L 1084 4478 
L 1084 3319 
L 1650 3319 
L 1650 2881 
L 1084 2881 
L 1084 941 
Q 1084 700 1114 631 
Q 1144 563 1211 522 
Q 1278 481 1403 481 
Q 1497 481 1650 503 
z
" transform="scale(0.015625)"/>
       <path id="ArialMT-4c" d="M 469 0 
L 469 4581 
L 1075 4581 
L 1075 541 
L 3331 541 
L 3331 0 
L 469 0 
z
" transform="scale(0.015625)"/>
       <path id="ArialMT-67" d="M 319 -275 
L 866 -356 
Q 900 -609 1056 -725 
Q 1266 -881 1628 -881 
Q 2019 -881 2231 -725 
Q 2444 -569 2519 -288 
Q 2563 -116 2559 434 
Q 2191 0 1641 0 
Q 956 0 581 494 
Q 206 988 206 1678 
Q 206 2153 378 2554 
Q 550 2956 876 3175 
Q 1203 3394 1644 3394 
Q 2231 3394 2613 2919 
L 2613 3319 
L 3131 3319 
L 3131 450 
Q 3131 -325 2973 -648 
Q 2816 -972 2473 -1159 
Q 2131 -1347 1631 -1347 
Q 1038 -1347 672 -1080 
Q 306 -813 319 -275 
z
M 784 1719 
Q 784 1066 1043 766 
Q 1303 466 1694 466 
Q 2081 466 2343 764 
Q 2606 1063 2606 1700 
Q 2606 2309 2336 2618 
Q 2066 2928 1684 2928 
Q 1309 2928 1046 2623 
Q 784 2319 784 1719 
z
" transform="scale(0.015625)"/>
       <path id="ArialMT-68" d="M 422 0 
L 422 4581 
L 984 4581 
L 984 2938 
Q 1378 3394 1978 3394 
Q 2347 3394 2619 3248 
Q 2891 3103 3008 2847 
Q 3125 2591 3125 2103 
L 3125 0 
L 2563 0 
L 2563 2103 
Q 2563 2525 2380 2717 
Q 2197 2909 1863 2909 
Q 1613 2909 1392 2779 
Q 1172 2650 1078 2428 
Q 984 2206 984 1816 
L 984 0 
L 422 0 
z
" transform="scale(0.015625)"/>
      </defs>
      <use xlink:href="#ArialMT-43"/>
      <use xlink:href="#ArialMT-6f" transform="translate(72.216797 0)"/>
      <use xlink:href="#ArialMT-6d" transform="translate(127.832031 0)"/>
      <use xlink:href="#ArialMT-62" transform="translate(211.132812 0)"/>
      <use xlink:href="#ArialMT-69" transform="translate(266.748047 0)"/>
      <use xlink:href="#ArialMT-6e" transform="translate(288.964844 0)"/>
      <use xlink:href="#ArialMT-65" transform="translate(344.580078 0)"/>
      <use xlink:href="#ArialMT-64" transform="translate(400.195312 0)"/>
      <use xlink:href="#ArialMT-20" transform="translate(455.810547 0)"/>
      <use xlink:href="#ArialMT-54" transform="translate(481.84375 0)"/>
      <use xlink:href="#ArialMT-65" transform="translate(531.802734 0)"/>
      <use xlink:href="#ArialMT-78" transform="translate(587.417969 0)"/>
      <use xlink:href="#ArialMT-74" transform="translate(637.417969 0)"/>
      <use xlink:href="#ArialMT-20" transform="translate(665.201172 0)"/>
      <use xlink:href="#ArialMT-4c" transform="translate(692.984375 0)"/>
      <use xlink:href="#ArialMT-65" transform="translate(748.599609 0)"/>
      <use xlink:href="#ArialMT-6e" transform="translate(804.214844 0)"/>
      <use xlink:href="#ArialMT-67" transform="translate(859.830078 0)"/>
      <use xlink:href="#ArialMT-74" transform="translate(915.445312 0)"/>
      <use xlink:href="#ArialMT-68" transform="translate(943.228516 0)"/>
     </g>
    </g>
   </g>
   <g id="matplotlib.axis_2">
    <g id="ytick_1">
     <g id="text_9">
      <!-- 0 -->
      <g style="fill: #262626" transform="translate(40.525469 382.819922) scale(0.11 -0.11)">
       <use xlink:href="#ArialMT-30"/>
      </g>
     </g>
    </g>
    <g id="ytick_2">
     <g id="text_10">
      <!-- 1000 -->
      <g style="fill: #262626" transform="translate(22.174375 334.158313) scale(0.11 -0.11)">
       <use xlink:href="#ArialMT-31"/>
       <use xlink:href="#ArialMT-30" transform="translate(55.615234 0)"/>
       <use xlink:href="#ArialMT-30" transform="translate(111.230469 0)"/>
       <use xlink:href="#ArialMT-30" transform="translate(166.845703 0)"/>
      </g>
     </g>
    </g>
    <g id="ytick_3">
     <g id="text_11">
      <!-- 2000 -->
      <g style="fill: #262626" transform="translate(22.174375 285.496704) scale(0.11 -0.11)">
       <use xlink:href="#ArialMT-32"/>
       <use xlink:href="#ArialMT-30" transform="translate(55.615234 0)"/>
       <use xlink:href="#ArialMT-30" transform="translate(111.230469 0)"/>
       <use xlink:href="#ArialMT-30" transform="translate(166.845703 0)"/>
      </g>
     </g>
    </g>
    <g id="ytick_4">
     <g id="text_12">
      <!-- 3000 -->
      <g style="fill: #262626" transform="translate(22.174375 236.835095) scale(0.11 -0.11)">
       <use xlink:href="#ArialMT-33"/>
       <use xlink:href="#ArialMT-30" transform="translate(55.615234 0)"/>
       <use xlink:href="#ArialMT-30" transform="translate(111.230469 0)"/>
       <use xlink:href="#ArialMT-30" transform="translate(166.845703 0)"/>
      </g>
     </g>
    </g>
    <g id="ytick_5">
     <g id="text_13">
      <!-- 4000 -->
      <g style="fill: #262626" transform="translate(22.174375 188.173486) scale(0.11 -0.11)">
       <defs>
        <path id="ArialMT-34" d="M 2069 0 
L 2069 1097 
L 81 1097 
L 81 1613 
L 2172 4581 
L 2631 4581 
L 2631 1613 
L 3250 1613 
L 3250 1097 
L 2631 1097 
L 2631 0 
L 2069 0 
z
M 2069 1613 
L 2069 3678 
L 634 1613 
L 2069 1613 
z
" transform="scale(0.015625)"/>
       </defs>
       <use xlink:href="#ArialMT-34"/>
       <use xlink:href="#ArialMT-30" transform="translate(55.615234 0)"/>
       <use xlink:href="#ArialMT-30" transform="translate(111.230469 0)"/>
       <use xlink:href="#ArialMT-30" transform="translate(166.845703 0)"/>
      </g>
     </g>
    </g>
    <g id="ytick_6">
     <g id="text_14">
      <!-- 5000 -->
      <g style="fill: #262626" transform="translate(22.174375 139.511877) scale(0.11 -0.11)">
       <use xlink:href="#ArialMT-35"/>
       <use xlink:href="#ArialMT-30" transform="translate(55.615234 0)"/>
       <use xlink:href="#ArialMT-30" transform="translate(111.230469 0)"/>
       <use xlink:href="#ArialMT-30" transform="translate(166.845703 0)"/>
      </g>
     </g>
    </g>
    <g id="ytick_7">
     <g id="text_15">
      <!-- 6000 -->
      <g style="fill: #262626" transform="translate(22.174375 90.850268) scale(0.11 -0.11)">
       <defs>
        <path id="ArialMT-36" d="M 3184 3459 
L 2625 3416 
Q 2550 3747 2413 3897 
Q 2184 4138 1850 4138 
Q 1581 4138 1378 3988 
Q 1113 3794 959 3422 
Q 806 3050 800 2363 
Q 1003 2672 1297 2822 
Q 1591 2972 1913 2972 
Q 2475 2972 2870 2558 
Q 3266 2144 3266 1488 
Q 3266 1056 3080 686 
Q 2894 316 2569 119 
Q 2244 -78 1831 -78 
Q 1128 -78 684 439 
Q 241 956 241 2144 
Q 241 3472 731 4075 
Q 1159 4600 1884 4600 
Q 2425 4600 2770 4297 
Q 3116 3994 3184 3459 
z
M 888 1484 
Q 888 1194 1011 928 
Q 1134 663 1356 523 
Q 1578 384 1822 384 
Q 2178 384 2434 671 
Q 2691 959 2691 1453 
Q 2691 1928 2437 2201 
Q 2184 2475 1800 2475 
Q 1419 2475 1153 2201 
Q 888 1928 888 1484 
z
" transform="scale(0.015625)"/>
       </defs>
       <use xlink:href="#ArialMT-36"/>
       <use xlink:href="#ArialMT-30" transform="translate(55.615234 0)"/>
       <use xlink:href="#ArialMT-30" transform="translate(111.230469 0)"/>
       <use xlink:href="#ArialMT-30" transform="translate(166.845703 0)"/>
      </g>
     </g>
    </g>
    <g id="ytick_8">
     <g id="text_16">
      <!-- 7000 -->
      <g style="fill: #262626" transform="translate(22.174375 42.188659) scale(0.11 -0.11)">
       <defs>
        <path id="ArialMT-37" d="M 303 3981 
L 303 4522 
L 3269 4522 
L 3269 4084 
Q 2831 3619 2401 2847 
Q 1972 2075 1738 1259 
Q 1569 684 1522 0 
L 944 0 
Q 953 541 1156 1306 
Q 1359 2072 1739 2783 
Q 2119 3494 2547 3981 
L 303 3981 
z
" transform="scale(0.015625)"/>
       </defs>
       <use xlink:href="#ArialMT-37"/>
       <use xlink:href="#ArialMT-30" transform="translate(55.615234 0)"/>
       <use xlink:href="#ArialMT-30" transform="translate(111.230469 0)"/>
       <use xlink:href="#ArialMT-30" transform="translate(166.845703 0)"/>
      </g>
     </g>
    </g>
    <g id="text_17">
     <!-- Count -->
     <g style="fill: #262626" transform="translate(15.789375 216.419062) rotate(-90) scale(0.12 -0.12)">
      <defs>
       <path id="ArialMT-75" d="M 2597 0 
L 2597 488 
Q 2209 -75 1544 -75 
Q 1250 -75 995 37 
Q 741 150 617 320 
Q 494 491 444 738 
Q 409 903 409 1263 
L 409 3319 
L 972 3319 
L 972 1478 
Q 972 1038 1006 884 
Q 1059 663 1231 536 
Q 1403 409 1656 409 
Q 1909 409 2131 539 
Q 2353 669 2445 892 
Q 2538 1116 2538 1541 
L 2538 3319 
L 3100 3319 
L 3100 0 
L 2597 0 
z
" transform="scale(0.015625)"/>
      </defs>
      <use xlink:href="#ArialMT-43"/>
      <use xlink:href="#ArialMT-6f" transform="translate(72.216797 0)"/>
      <use xlink:href="#ArialMT-75" transform="translate(127.832031 0)"/>
      <use xlink:href="#ArialMT-6e" transform="translate(183.447266 0)"/>
      <use xlink:href="#ArialMT-74" transform="translate(239.0625 0)"/>
     </g>
    </g>
   </g>
   <g id="patch_3">
    <path d="M 56.503658 378.883125 
L 71.939551 378.883125 
L 71.939551 226.377643 
L 56.503658 226.377643 
z
" clip-path="url(#p5a98d1151c)" style="fill: #fc8d62; fill-opacity: 0.5; stroke: #ffffff; stroke-linejoin: miter"/>
   </g>
   <g id="patch_4">
    <path d="M 71.939551 378.883125 
L 87.375444 378.883125 
L 87.375444 184.090704 
L 71.939551 184.090704 
z
" clip-path="url(#p5a98d1151c)" style="fill: #fc8d62; fill-opacity: 0.5; stroke: #ffffff; stroke-linejoin: miter"/>
   </g>
   <g id="patch_5">
    <path d="M 87.375444 378.883125 
L 102.811337 378.883125 
L 102.811337 222.67936 
L 87.375444 222.67936 
z
" clip-path="url(#p5a98d1151c)" style="fill: #fc8d62; fill-opacity: 0.5; stroke: #ffffff; stroke-linejoin: miter"/>
   </g>
   <g id="patch_6">
    <path d="M 102.811337 378.883125 
L 118.24723 378.883125 
L 118.24723 174.261059 
L 102.811337 174.261059 
z
" clip-path="url(#p5a98d1151c)" style="fill: #fc8d62; fill-opacity: 0.5; stroke: #ffffff; stroke-linejoin: miter"/>
   </g>
   <g id="patch_7">
    <path d="M 118.24723 378.883125 
L 133.683123 378.883125 
L 133.683123 145.453387 
L 118.24723 145.453387 
z
" clip-path="url(#p5a98d1151c)" style="fill: #fc8d62; fill-opacity: 0.5; stroke: #ffffff; stroke-linejoin: miter"/>
   </g>
   <g id="patch_8">
    <path d="M 133.683123 378.883125 
L 149.119016 378.883125 
L 149.119016 251.146402 
L 133.683123 251.146402 
z
" clip-path="url(#p5a98d1151c)" style="fill: #fc8d62; fill-opacity: 0.5; stroke: #ffffff; stroke-linejoin: miter"/>
   </g>
   <g id="patch_9">
    <path d="M 149.119016 378.883125 
L 164.554908 378.883125 
L 164.554908 269.832459 
L 149.119016 269.832459 
z
" clip-path="url(#p5a98d1151c)" style="fill: #fc8d62; fill-opacity: 0.5; stroke: #ffffff; stroke-linejoin: miter"/>
   </g>
   <g id="patch_10">
    <path d="M 164.554908 378.883125 
L 179.990801 378.883125 
L 179.990801 283.701018 
L 164.554908 283.701018 
z
" clip-path="url(#p5a98d1151c)" style="fill: #fc8d62; fill-opacity: 0.5; stroke: #ffffff; stroke-linejoin: miter"/>
   </g>
   <g id="patch_11">
    <path d="M 179.990801 378.883125 
L 195.426694 378.883125 
L 195.426694 288.567179 
L 179.990801 288.567179 
z
" clip-path="url(#p5a98d1151c)" style="fill: #fc8d62; fill-opacity: 0.5; stroke: #ffffff; stroke-linejoin: miter"/>
   </g>
   <g id="patch_12">
    <path d="M 195.426694 378.883125 
L 210.862587 378.883125 
L 210.862587 307.593868 
L 195.426694 307.593868 
z
" clip-path="url(#p5a98d1151c)" style="fill: #fc8d62; fill-opacity: 0.5; stroke: #ffffff; stroke-linejoin: miter"/>
   </g>
   <g id="patch_13">
    <path d="M 210.862587 378.883125 
L 226.29848 378.883125 
L 226.29848 324.041492 
L 210.862587 324.041492 
z
" clip-path="url(#p5a98d1151c)" style="fill: #fc8d62; fill-opacity: 0.5; stroke: #ffffff; stroke-linejoin: miter"/>
   </g>
   <g id="patch_14">
    <path d="M 226.29848 378.883125 
L 241.734373 378.883125 
L 241.734373 330.854117 
L 226.29848 330.854117 
z
" clip-path="url(#p5a98d1151c)" style="fill: #fc8d62; fill-opacity: 0.5; stroke: #ffffff; stroke-linejoin: miter"/>
   </g>
   <g id="patch_15">
    <path d="M 241.734373 378.883125 
L 257.170266 378.883125 
L 257.170266 336.304217 
L 241.734373 336.304217 
z
" clip-path="url(#p5a98d1151c)" style="fill: #fc8d62; fill-opacity: 0.5; stroke: #ffffff; stroke-linejoin: miter"/>
   </g>
   <g id="patch_16">
    <path d="M 257.170266 378.883125 
L 272.606159 378.883125 
L 272.606159 347.204418 
L 257.170266 347.204418 
z
" clip-path="url(#p5a98d1151c)" style="fill: #fc8d62; fill-opacity: 0.5; stroke: #ffffff; stroke-linejoin: miter"/>
   </g>
   <g id="patch_17">
    <path d="M 272.606159 378.883125 
L 288.042052 378.883125 
L 288.042052 356.985401 
L 272.606159 356.985401 
z
" clip-path="url(#p5a98d1151c)" style="fill: #fc8d62; fill-opacity: 0.5; stroke: #ffffff; stroke-linejoin: miter"/>
   </g>
   <g id="patch_18">
    <path d="M 288.042052 378.883125 
L 303.477945 378.883125 
L 303.477945 362.435501 
L 288.042052 362.435501 
z
" clip-path="url(#p5a98d1151c)" style="fill: #fc8d62; fill-opacity: 0.5; stroke: #ffffff; stroke-linejoin: miter"/>
   </g>
   <g id="patch_19">
    <path d="M 303.477945 378.883125 
L 318.913838 378.883125 
L 318.913838 368.080248 
L 303.477945 368.080248 
z
" clip-path="url(#p5a98d1151c)" style="fill: #fc8d62; fill-opacity: 0.5; stroke: #ffffff; stroke-linejoin: miter"/>
   </g>
   <g id="patch_20">
    <path d="M 318.913838 378.883125 
L 334.349731 378.883125 
L 334.349731 372.313808 
L 318.913838 372.313808 
z
" clip-path="url(#p5a98d1151c)" style="fill: #fc8d62; fill-opacity: 0.5; stroke: #ffffff; stroke-linejoin: miter"/>
   </g>
   <g id="patch_21">
    <path d="M 334.349731 378.883125 
L 349.785623 378.883125 
L 349.785623 373.092394 
L 334.349731 373.092394 
z
" clip-path="url(#p5a98d1151c)" style="fill: #fc8d62; fill-opacity: 0.5; stroke: #ffffff; stroke-linejoin: miter"/>
   </g>
   <g id="patch_22">
    <path d="M 349.785623 378.883125 
L 365.221516 378.883125 
L 365.221516 375.08752 
L 349.785623 375.08752 
z
" clip-path="url(#p5a98d1151c)" style="fill: #fc8d62; fill-opacity: 0.5; stroke: #ffffff; stroke-linejoin: miter"/>
   </g>
   <g id="patch_23">
    <path d="M 365.221516 378.883125 
L 380.657409 378.883125 
L 380.657409 375.768782 
L 365.221516 375.768782 
z
" clip-path="url(#p5a98d1151c)" style="fill: #fc8d62; fill-opacity: 0.5; stroke: #ffffff; stroke-linejoin: miter"/>
   </g>
   <g id="patch_24">
    <path d="M 380.657409 378.883125 
L 396.093302 378.883125 
L 396.093302 376.644691 
L 380.657409 376.644691 
z
" clip-path="url(#p5a98d1151c)" style="fill: #fc8d62; fill-opacity: 0.5; stroke: #ffffff; stroke-linejoin: miter"/>
   </g>
   <g id="patch_25">
    <path d="M 396.093302 378.883125 
L 411.529195 378.883125 
L 411.529195 377.374615 
L 396.093302 377.374615 
z
" clip-path="url(#p5a98d1151c)" style="fill: #fc8d62; fill-opacity: 0.5; stroke: #ffffff; stroke-linejoin: miter"/>
   </g>
   <g id="patch_26">
    <path d="M 411.529195 378.883125 
L 426.965088 378.883125 
L 426.965088 376.985322 
L 411.529195 376.985322 
z
" clip-path="url(#p5a98d1151c)" style="fill: #fc8d62; fill-opacity: 0.5; stroke: #ffffff; stroke-linejoin: miter"/>
   </g>
   <g id="patch_27">
    <path d="M 426.965088 378.883125 
L 442.400981 378.883125 
L 442.400981 377.22863 
L 426.965088 377.22863 
z
" clip-path="url(#p5a98d1151c)" style="fill: #fc8d62; fill-opacity: 0.5; stroke: #ffffff; stroke-linejoin: miter"/>
   </g>
   <g id="patch_28">
    <path d="M 442.400981 378.883125 
L 457.836874 378.883125 
L 457.836874 376.644691 
L 442.400981 376.644691 
z
" clip-path="url(#p5a98d1151c)" style="fill: #fc8d62; fill-opacity: 0.5; stroke: #ffffff; stroke-linejoin: miter"/>
   </g>
   <g id="patch_29">
    <path d="M 457.836874 378.883125 
L 473.272767 378.883125 
L 473.272767 377.715246 
L 457.836874 377.715246 
z
" clip-path="url(#p5a98d1151c)" style="fill: #fc8d62; fill-opacity: 0.5; stroke: #ffffff; stroke-linejoin: miter"/>
   </g>
   <g id="patch_30">
    <path d="M 473.272767 378.883125 
L 488.70866 378.883125 
L 488.70866 377.909893 
L 473.272767 377.909893 
z
" clip-path="url(#p5a98d1151c)" style="fill: #fc8d62; fill-opacity: 0.5; stroke: #ffffff; stroke-linejoin: miter"/>
   </g>
   <g id="patch_31">
    <path d="M 488.70866 378.883125 
L 504.144553 378.883125 
L 504.144553 378.299186 
L 488.70866 378.299186 
z
" clip-path="url(#p5a98d1151c)" style="fill: #fc8d62; fill-opacity: 0.5; stroke: #ffffff; stroke-linejoin: miter"/>
   </g>
   <g id="patch_32">
    <path d="M 504.144553 378.883125 
L 519.580446 378.883125 
L 519.580446 378.299186 
L 504.144553 378.299186 
z
" clip-path="url(#p5a98d1151c)" style="fill: #fc8d62; fill-opacity: 0.5; stroke: #ffffff; stroke-linejoin: miter"/>
   </g>
   <g id="patch_33">
    <path d="M 519.580446 378.883125 
L 535.016339 378.883125 
L 535.016339 378.153201 
L 519.580446 378.153201 
z
" clip-path="url(#p5a98d1151c)" style="fill: #fc8d62; fill-opacity: 0.5; stroke: #ffffff; stroke-linejoin: miter"/>
   </g>
   <g id="patch_34">
    <path d="M 535.016339 378.883125 
L 550.452231 378.883125 
L 550.452231 378.153201 
L 535.016339 378.153201 
z
" clip-path="url(#p5a98d1151c)" style="fill: #fc8d62; fill-opacity: 0.5; stroke: #ffffff; stroke-linejoin: miter"/>
   </g>
   <g id="patch_35">
    <path d="M 550.452231 378.883125 
L 565.888124 378.883125 
L 565.888124 378.201862 
L 550.452231 378.201862 
z
" clip-path="url(#p5a98d1151c)" style="fill: #fc8d62; fill-opacity: 0.5; stroke: #ffffff; stroke-linejoin: miter"/>
   </g>
   <g id="patch_36">
    <path d="M 565.888124 378.883125 
L 581.324017 378.883125 
L 581.324017 378.299186 
L 565.888124 378.299186 
z
" clip-path="url(#p5a98d1151c)" style="fill: #fc8d62; fill-opacity: 0.5; stroke: #ffffff; stroke-linejoin: miter"/>
   </g>
   <g id="patch_37">
    <path d="M 581.324017 378.883125 
L 596.75991 378.883125 
L 596.75991 378.104539 
L 581.324017 378.104539 
z
" clip-path="url(#p5a98d1151c)" style="fill: #fc8d62; fill-opacity: 0.5; stroke: #ffffff; stroke-linejoin: miter"/>
   </g>
   <g id="patch_38">
    <path d="M 596.75991 378.883125 
L 612.195803 378.883125 
L 612.195803 378.639817 
L 596.75991 378.639817 
z
" clip-path="url(#p5a98d1151c)" style="fill: #fc8d62; fill-opacity: 0.5; stroke: #ffffff; stroke-linejoin: miter"/>
   </g>
   <g id="patch_39">
    <path d="M 612.195803 378.883125 
L 627.631696 378.883125 
L 627.631696 378.493832 
L 612.195803 378.493832 
z
" clip-path="url(#p5a98d1151c)" style="fill: #fc8d62; fill-opacity: 0.5; stroke: #ffffff; stroke-linejoin: miter"/>
   </g>
   <g id="patch_40">
    <path d="M 627.631696 378.883125 
L 643.067589 378.883125 
L 643.067589 378.396509 
L 627.631696 378.396509 
z
" clip-path="url(#p5a98d1151c)" style="fill: #fc8d62; fill-opacity: 0.5; stroke: #ffffff; stroke-linejoin: miter"/>
   </g>
   <g id="patch_41">
    <path d="M 643.067589 378.883125 
L 658.503482 378.883125 
L 658.503482 378.591155 
L 643.067589 378.591155 
z
" clip-path="url(#p5a98d1151c)" style="fill: #fc8d62; fill-opacity: 0.5; stroke: #ffffff; stroke-linejoin: miter"/>
   </g>
   <g id="patch_42">
    <path d="M 658.503482 378.883125 
L 673.939375 378.883125 
L 673.939375 378.688479 
L 658.503482 378.688479 
z
" clip-path="url(#p5a98d1151c)" style="fill: #fc8d62; fill-opacity: 0.5; stroke: #ffffff; stroke-linejoin: miter"/>
   </g>
   <g id="patch_43">
    <path d="M 673.939375 378.883125 
L 689.375268 378.883125 
L 689.375268 378.542494 
L 673.939375 378.542494 
z
" clip-path="url(#p5a98d1151c)" style="fill: #fc8d62; fill-opacity: 0.5; stroke: #ffffff; stroke-linejoin: miter"/>
   </g>
   <g id="patch_44">
    <path d="M 689.375268 378.883125 
L 704.811161 378.883125 
L 704.811161 378.591155 
L 689.375268 378.591155 
z
" clip-path="url(#p5a98d1151c)" style="fill: #fc8d62; fill-opacity: 0.5; stroke: #ffffff; stroke-linejoin: miter"/>
   </g>
   <g id="patch_45">
    <path d="M 704.811161 378.883125 
L 720.247054 378.883125 
L 720.247054 378.493832 
L 704.811161 378.493832 
z
" clip-path="url(#p5a98d1151c)" style="fill: #fc8d62; fill-opacity: 0.5; stroke: #ffffff; stroke-linejoin: miter"/>
   </g>
   <g id="patch_46">
    <path d="M 720.247054 378.883125 
L 735.682946 378.883125 
L 735.682946 378.396509 
L 720.247054 378.396509 
z
" clip-path="url(#p5a98d1151c)" style="fill: #fc8d62; fill-opacity: 0.5; stroke: #ffffff; stroke-linejoin: miter"/>
   </g>
   <g id="patch_47">
    <path d="M 735.682946 378.883125 
L 751.118839 378.883125 
L 751.118839 378.639817 
L 735.682946 378.639817 
z
" clip-path="url(#p5a98d1151c)" style="fill: #fc8d62; fill-opacity: 0.5; stroke: #ffffff; stroke-linejoin: miter"/>
   </g>
   <g id="patch_48">
    <path d="M 751.118839 378.883125 
L 766.554732 378.883125 
L 766.554732 378.542494 
L 751.118839 378.542494 
z
" clip-path="url(#p5a98d1151c)" style="fill: #fc8d62; fill-opacity: 0.5; stroke: #ffffff; stroke-linejoin: miter"/>
   </g>
   <g id="patch_49">
    <path d="M 766.554732 378.883125 
L 781.990625 378.883125 
L 781.990625 378.542494 
L 766.554732 378.542494 
z
" clip-path="url(#p5a98d1151c)" style="fill: #fc8d62; fill-opacity: 0.5; stroke: #ffffff; stroke-linejoin: miter"/>
   </g>
   <g id="patch_50">
    <path d="M 781.990625 378.883125 
L 797.426518 378.883125 
L 797.426518 378.73714 
L 781.990625 378.73714 
z
" clip-path="url(#p5a98d1151c)" style="fill: #fc8d62; fill-opacity: 0.5; stroke: #ffffff; stroke-linejoin: miter"/>
   </g>
   <g id="patch_51">
    <path d="M 797.426518 378.883125 
L 812.862411 378.883125 
L 812.862411 378.73714 
L 797.426518 378.73714 
z
" clip-path="url(#p5a98d1151c)" style="fill: #fc8d62; fill-opacity: 0.5; stroke: #ffffff; stroke-linejoin: miter"/>
   </g>
   <g id="patch_52">
    <path d="M 812.862411 378.883125 
L 828.298304 378.883125 
L 828.298304 378.73714 
L 812.862411 378.73714 
z
" clip-path="url(#p5a98d1151c)" style="fill: #fc8d62; fill-opacity: 0.5; stroke: #ffffff; stroke-linejoin: miter"/>
   </g>
   <g id="patch_53">
    <path d="M 56.503658 378.883125 
L 71.939551 378.883125 
L 71.939551 191.000653 
L 56.503658 191.000653 
z
" clip-path="url(#p5a98d1151c)" style="fill: #66c2a5; fill-opacity: 0.5; stroke: #ffffff; stroke-linejoin: miter"/>
   </g>
   <g id="patch_54">
    <path d="M 71.939551 378.883125 
L 87.375444 378.883125 
L 87.375444 213.968932 
L 71.939551 213.968932 
z
" clip-path="url(#p5a98d1151c)" style="fill: #66c2a5; fill-opacity: 0.5; stroke: #ffffff; stroke-linejoin: miter"/>
   </g>
   <g id="patch_55">
    <path d="M 87.375444 378.883125 
L 102.811337 378.883125 
L 102.811337 138.786747 
L 87.375444 138.786747 
z
" clip-path="url(#p5a98d1151c)" style="fill: #66c2a5; fill-opacity: 0.5; stroke: #ffffff; stroke-linejoin: miter"/>
   </g>
   <g id="patch_56">
    <path d="M 102.811337 378.883125 
L 118.24723 378.883125 
L 118.24723 38.933125 
L 102.811337 38.933125 
z
" clip-path="url(#p5a98d1151c)" style="fill: #66c2a5; fill-opacity: 0.5; stroke: #ffffff; stroke-linejoin: miter"/>
   </g>
   <g id="patch_57">
    <path d="M 118.24723 378.883125 
L 133.683123 378.883125 
L 133.683123 131.730813 
L 118.24723 131.730813 
z
" clip-path="url(#p5a98d1151c)" style="fill: #66c2a5; fill-opacity: 0.5; stroke: #ffffff; stroke-linejoin: miter"/>
   </g>
   <g id="patch_58">
    <path d="M 133.683123 378.883125 
L 149.119016 378.883125 
L 149.119016 213.482316 
L 133.683123 213.482316 
z
" clip-path="url(#p5a98d1151c)" style="fill: #66c2a5; fill-opacity: 0.5; stroke: #ffffff; stroke-linejoin: miter"/>
   </g>
   <g id="patch_59">
    <path d="M 149.119016 378.883125 
L 164.554908 378.883125 
L 164.554908 276.693746 
L 149.119016 276.693746 
z
" clip-path="url(#p5a98d1151c)" style="fill: #66c2a5; fill-opacity: 0.5; stroke: #ffffff; stroke-linejoin: miter"/>
   </g>
   <g id="patch_60">
    <path d="M 164.554908 378.883125 
L 179.990801 378.883125 
L 179.990801 310.805534 
L 164.554908 310.805534 
z
" clip-path="url(#p5a98d1151c)" style="fill: #66c2a5; fill-opacity: 0.5; stroke: #ffffff; stroke-linejoin: miter"/>
   </g>
   <g id="patch_61">
    <path d="M 179.990801 378.883125 
L 195.426694 378.883125 
L 195.426694 331.048763 
L 179.990801 331.048763 
z
" clip-path="url(#p5a98d1151c)" style="fill: #66c2a5; fill-opacity: 0.5; stroke: #ffffff; stroke-linejoin: miter"/>
   </g>
   <g id="patch_62">
    <path d="M 195.426694 378.883125 
L 210.862587 378.883125 
L 210.862587 344.819999 
L 195.426694 344.819999 
z
" clip-path="url(#p5a98d1151c)" style="fill: #66c2a5; fill-opacity: 0.5; stroke: #ffffff; stroke-linejoin: miter"/>
   </g>
   <g id="patch_63">
    <path d="M 210.862587 378.883125 
L 226.29848 378.883125 
L 226.29848 352.800503 
L 210.862587 352.800503 
z
" clip-path="url(#p5a98d1151c)" style="fill: #66c2a5; fill-opacity: 0.5; stroke: #ffffff; stroke-linejoin: miter"/>
   </g>
   <g id="patch_64">
    <path d="M 226.29848 378.883125 
L 241.734373 378.883125 
L 241.734373 356.109492 
L 226.29848 356.109492 
z
" clip-path="url(#p5a98d1151c)" style="fill: #66c2a5; fill-opacity: 0.5; stroke: #ffffff; stroke-linejoin: miter"/>
   </g>
   <g id="patch_65">
    <path d="M 241.734373 378.883125 
L 257.170266 378.883125 
L 257.170266 360.051082 
L 241.734373 360.051082 
z
" clip-path="url(#p5a98d1151c)" style="fill: #66c2a5; fill-opacity: 0.5; stroke: #ffffff; stroke-linejoin: miter"/>
   </g>
   <g id="patch_66">
    <path d="M 257.170266 378.883125 
L 272.606159 378.883125 
L 272.606159 363.944011 
L 257.170266 363.944011 
z
" clip-path="url(#p5a98d1151c)" style="fill: #66c2a5; fill-opacity: 0.5; stroke: #ffffff; stroke-linejoin: miter"/>
   </g>
   <g id="patch_67">
    <path d="M 272.606159 378.883125 
L 288.042052 378.883125 
L 288.042052 365.452521 
L 272.606159 365.452521 
z
" clip-path="url(#p5a98d1151c)" style="fill: #66c2a5; fill-opacity: 0.5; stroke: #ffffff; stroke-linejoin: miter"/>
   </g>
   <g id="patch_68">
    <path d="M 288.042052 378.883125 
L 303.477945 378.883125 
L 303.477945 366.863708 
L 288.042052 366.863708 
z
" clip-path="url(#p5a98d1151c)" style="fill: #66c2a5; fill-opacity: 0.5; stroke: #ffffff; stroke-linejoin: miter"/>
   </g>
   <g id="patch_69">
    <path d="M 303.477945 378.883125 
L 318.913838 378.883125 
L 318.913838 369.734743 
L 303.477945 369.734743 
z
" clip-path="url(#p5a98d1151c)" style="fill: #66c2a5; fill-opacity: 0.5; stroke: #ffffff; stroke-linejoin: miter"/>
   </g>
   <g id="patch_70">
    <path d="M 318.913838 378.883125 
L 334.349731 378.883125 
L 334.349731 374.016964 
L 318.913838 374.016964 
z
" clip-path="url(#p5a98d1151c)" style="fill: #66c2a5; fill-opacity: 0.5; stroke: #ffffff; stroke-linejoin: miter"/>
   </g>
   <g id="patch_71">
    <path d="M 334.349731 378.883125 
L 349.785623 378.883125 
L 349.785623 372.265146 
L 334.349731 372.265146 
z
" clip-path="url(#p5a98d1151c)" style="fill: #66c2a5; fill-opacity: 0.5; stroke: #ffffff; stroke-linejoin: miter"/>
   </g>
   <g id="patch_72">
    <path d="M 349.785623 378.883125 
L 365.221516 378.883125 
L 365.221516 373.968302 
L 349.785623 373.968302 
z
" clip-path="url(#p5a98d1151c)" style="fill: #66c2a5; fill-opacity: 0.5; stroke: #ffffff; stroke-linejoin: miter"/>
   </g>
   <g id="patch_73">
    <path d="M 365.221516 378.883125 
L 380.657409 378.883125 
L 380.657409 374.162949 
L 365.221516 374.162949 
z
" clip-path="url(#p5a98d1151c)" style="fill: #66c2a5; fill-opacity: 0.5; stroke: #ffffff; stroke-linejoin: miter"/>
   </g>
   <g id="patch_74">
    <path d="M 380.657409 378.883125 
L 396.093302 378.883125 
L 396.093302 374.357595 
L 380.657409 374.357595 
z
" clip-path="url(#p5a98d1151c)" style="fill: #66c2a5; fill-opacity: 0.5; stroke: #ffffff; stroke-linejoin: miter"/>
   </g>
   <g id="patch_75">
    <path d="M 396.093302 378.883125 
L 411.529195 378.883125 
L 411.529195 375.72012 
L 396.093302 375.72012 
z
" clip-path="url(#p5a98d1151c)" style="fill: #66c2a5; fill-opacity: 0.5; stroke: #ffffff; stroke-linejoin: miter"/>
   </g>
   <g id="patch_76">
    <path d="M 411.529195 378.883125 
L 426.965088 378.883125 
L 426.965088 376.352721 
L 411.529195 376.352721 
z
" clip-path="url(#p5a98d1151c)" style="fill: #66c2a5; fill-opacity: 0.5; stroke: #ffffff; stroke-linejoin: miter"/>
   </g>
   <g id="patch_77">
    <path d="M 426.965088 378.883125 
L 442.400981 378.883125 
L 442.400981 376.790676 
L 426.965088 376.790676 
z
" clip-path="url(#p5a98d1151c)" style="fill: #66c2a5; fill-opacity: 0.5; stroke: #ffffff; stroke-linejoin: miter"/>
   </g>
   <g id="patch_78">
    <path d="M 442.400981 378.883125 
L 457.836874 378.883125 
L 457.836874 376.352721 
L 442.400981 376.352721 
z
" clip-path="url(#p5a98d1151c)" style="fill: #66c2a5; fill-opacity: 0.5; stroke: #ffffff; stroke-linejoin: miter"/>
   </g>
   <g id="patch_79">
    <path d="M 457.836874 378.883125 
L 473.272767 378.883125 
L 473.272767 376.498706 
L 457.836874 376.498706 
z
" clip-path="url(#p5a98d1151c)" style="fill: #66c2a5; fill-opacity: 0.5; stroke: #ffffff; stroke-linejoin: miter"/>
   </g>
   <g id="patch_80">
    <path d="M 473.272767 378.883125 
L 488.70866 378.883125 
L 488.70866 377.861231 
L 473.272767 377.861231 
z
" clip-path="url(#p5a98d1151c)" style="fill: #66c2a5; fill-opacity: 0.5; stroke: #ffffff; stroke-linejoin: miter"/>
   </g>
   <g id="patch_81">
    <path d="M 488.70866 378.883125 
L 504.144553 378.883125 
L 504.144553 377.179969 
L 488.70866 377.179969 
z
" clip-path="url(#p5a98d1151c)" style="fill: #66c2a5; fill-opacity: 0.5; stroke: #ffffff; stroke-linejoin: miter"/>
   </g>
   <g id="patch_82">
    <path d="M 504.144553 378.883125 
L 519.580446 378.883125 
L 519.580446 377.374615 
L 504.144553 377.374615 
z
" clip-path="url(#p5a98d1151c)" style="fill: #66c2a5; fill-opacity: 0.5; stroke: #ffffff; stroke-linejoin: miter"/>
   </g>
   <g id="patch_83">
    <path d="M 519.580446 378.883125 
L 535.016339 378.883125 
L 535.016339 377.471938 
L 519.580446 377.471938 
z
" clip-path="url(#p5a98d1151c)" style="fill: #66c2a5; fill-opacity: 0.5; stroke: #ffffff; stroke-linejoin: miter"/>
   </g>
   <g id="patch_84">
    <path d="M 535.016339 378.883125 
L 550.452231 378.883125 
L 550.452231 377.861231 
L 535.016339 377.861231 
z
" clip-path="url(#p5a98d1151c)" style="fill: #66c2a5; fill-opacity: 0.5; stroke: #ffffff; stroke-linejoin: miter"/>
   </g>
   <g id="patch_85">
    <path d="M 550.452231 378.883125 
L 565.888124 378.883125 
L 565.888124 378.055878 
L 550.452231 378.055878 
z
" clip-path="url(#p5a98d1151c)" style="fill: #66c2a5; fill-opacity: 0.5; stroke: #ffffff; stroke-linejoin: miter"/>
   </g>
   <g id="patch_86">
    <path d="M 565.888124 378.883125 
L 581.324017 378.883125 
L 581.324017 377.617923 
L 565.888124 377.617923 
z
" clip-path="url(#p5a98d1151c)" style="fill: #66c2a5; fill-opacity: 0.5; stroke: #ffffff; stroke-linejoin: miter"/>
   </g>
   <g id="patch_87">
    <path d="M 581.324017 378.883125 
L 596.75991 378.883125 
L 596.75991 377.763908 
L 581.324017 377.763908 
z
" clip-path="url(#p5a98d1151c)" style="fill: #66c2a5; fill-opacity: 0.5; stroke: #ffffff; stroke-linejoin: miter"/>
   </g>
   <g id="patch_88">
    <path d="M 596.75991 378.883125 
L 612.195803 378.883125 
L 612.195803 378.347847 
L 596.75991 378.347847 
z
" clip-path="url(#p5a98d1151c)" style="fill: #66c2a5; fill-opacity: 0.5; stroke: #ffffff; stroke-linejoin: miter"/>
   </g>
   <g id="patch_89">
    <path d="M 612.195803 378.883125 
L 627.631696 378.883125 
L 627.631696 378.007216 
L 612.195803 378.007216 
z
" clip-path="url(#p5a98d1151c)" style="fill: #66c2a5; fill-opacity: 0.5; stroke: #ffffff; stroke-linejoin: miter"/>
   </g>
   <g id="patch_90">
    <path d="M 627.631696 378.883125 
L 643.067589 378.883125 
L 643.067589 378.299186 
L 627.631696 378.299186 
z
" clip-path="url(#p5a98d1151c)" style="fill: #66c2a5; fill-opacity: 0.5; stroke: #ffffff; stroke-linejoin: miter"/>
   </g>
   <g id="patch_91">
    <path d="M 643.067589 378.883125 
L 658.503482 378.883125 
L 658.503482 378.347847 
L 643.067589 378.347847 
z
" clip-path="url(#p5a98d1151c)" style="fill: #66c2a5; fill-opacity: 0.5; stroke: #ffffff; stroke-linejoin: miter"/>
   </g>
   <g id="patch_92">
    <path d="M 658.503482 378.883125 
L 673.939375 378.883125 
L 673.939375 378.201862 
L 658.503482 378.201862 
z
" clip-path="url(#p5a98d1151c)" style="fill: #66c2a5; fill-opacity: 0.5; stroke: #ffffff; stroke-linejoin: miter"/>
   </g>
   <g id="patch_93">
    <path d="M 673.939375 378.883125 
L 689.375268 378.883125 
L 689.375268 378.445171 
L 673.939375 378.445171 
z
" clip-path="url(#p5a98d1151c)" style="fill: #66c2a5; fill-opacity: 0.5; stroke: #ffffff; stroke-linejoin: miter"/>
   </g>
   <g id="patch_94">
    <path d="M 689.375268 378.883125 
L 704.811161 378.883125 
L 704.811161 378.347847 
L 689.375268 378.347847 
z
" clip-path="url(#p5a98d1151c)" style="fill: #66c2a5; fill-opacity: 0.5; stroke: #ffffff; stroke-linejoin: miter"/>
   </g>
   <g id="patch_95">
    <path d="M 704.811161 378.883125 
L 720.247054 378.883125 
L 720.247054 377.958554 
L 704.811161 377.958554 
z
" clip-path="url(#p5a98d1151c)" style="fill: #66c2a5; fill-opacity: 0.5; stroke: #ffffff; stroke-linejoin: miter"/>
   </g>
   <g id="patch_96">
    <path d="M 720.247054 378.883125 
L 735.682946 378.883125 
L 735.682946 378.104539 
L 720.247054 378.104539 
z
" clip-path="url(#p5a98d1151c)" style="fill: #66c2a5; fill-opacity: 0.5; stroke: #ffffff; stroke-linejoin: miter"/>
   </g>
   <g id="patch_97">
    <path d="M 735.682946 378.883125 
L 751.118839 378.883125 
L 751.118839 377.81257 
L 735.682946 377.81257 
z
" clip-path="url(#p5a98d1151c)" style="fill: #66c2a5; fill-opacity: 0.5; stroke: #ffffff; stroke-linejoin: miter"/>
   </g>
   <g id="patch_98">
    <path d="M 751.118839 378.883125 
L 766.554732 378.883125 
L 766.554732 378.299186 
L 751.118839 378.299186 
z
" clip-path="url(#p5a98d1151c)" style="fill: #66c2a5; fill-opacity: 0.5; stroke: #ffffff; stroke-linejoin: miter"/>
   </g>
   <g id="patch_99">
    <path d="M 766.554732 378.883125 
L 781.990625 378.883125 
L 781.990625 377.81257 
L 766.554732 377.81257 
z
" clip-path="url(#p5a98d1151c)" style="fill: #66c2a5; fill-opacity: 0.5; stroke: #ffffff; stroke-linejoin: miter"/>
   </g>
   <g id="patch_100">
    <path d="M 781.990625 378.883125 
L 797.426518 378.883125 
L 797.426518 378.591155 
L 781.990625 378.591155 
z
" clip-path="url(#p5a98d1151c)" style="fill: #66c2a5; fill-opacity: 0.5; stroke: #ffffff; stroke-linejoin: miter"/>
   </g>
   <g id="patch_101">
    <path d="M 797.426518 378.883125 
L 812.862411 378.883125 
L 812.862411 378.785802 
L 797.426518 378.785802 
z
" clip-path="url(#p5a98d1151c)" style="fill: #66c2a5; fill-opacity: 0.5; stroke: #ffffff; stroke-linejoin: miter"/>
   </g>
   <g id="patch_102">
    <path d="M 812.862411 378.883125 
L 828.298304 378.883125 
L 828.298304 378.785802 
L 812.862411 378.785802 
z
" clip-path="url(#p5a98d1151c)" style="fill: #66c2a5; fill-opacity: 0.5; stroke: #ffffff; stroke-linejoin: miter"/>
   </g>
   <g id="line2d_1">
    <path d="M 56.503658 319.104336 
L 60.382023 282.111999 
L 64.260388 240.899283 
L 68.138753 204.806366 
L 72.017118 182.789713 
L 75.895483 178.330065 
L 79.773848 187.521575 
L 83.652213 201.884243 
L 87.530578 213.385738 
L 91.408943 217.827562 
L 95.287309 214.991549 
L 99.165674 206.758109 
L 103.044039 195.248512 
L 110.800769 169.11908 
L 114.679134 158.569484 
L 118.557499 153.605664 
L 122.435864 156.872021 
L 126.314229 168.879202 
L 130.192594 187.301653 
L 134.070959 208.02577 
L 137.949324 227.163109 
L 141.827689 242.493336 
L 145.706054 253.602013 
L 149.584419 261.18542 
L 153.462784 266.321705 
L 157.341149 270.047737 
L 165.09788 276.140264 
L 172.85461 282.005504 
L 176.732975 284.634473 
L 180.61134 286.958589 
L 184.489705 289.143506 
L 188.36807 291.534699 
L 192.246435 294.510604 
L 196.1248 298.298508 
L 200.003165 302.844003 
L 207.759895 312.708818 
L 211.63826 317.114974 
L 215.516625 320.79333 
L 219.39499 323.727054 
L 223.273355 326.044708 
L 227.15172 327.920309 
L 231.030085 329.502968 
L 242.665181 333.749158 
L 246.543546 335.499902 
L 250.421911 337.589071 
L 254.300276 339.961173 
L 273.692101 352.572645 
L 277.570466 354.886519 
L 281.448831 357.006062 
L 285.327196 358.886976 
L 289.205561 360.538882 
L 296.962291 363.381791 
L 304.719022 365.910232 
L 312.475752 368.24902 
L 320.232482 370.343652 
L 324.110847 371.195825 
L 327.989212 371.867455 
L 331.867577 372.371425 
L 355.137767 374.616515 
L 362.894497 375.278002 
L 374.529593 375.869792 
L 386.164688 376.507672 
L 397.799783 377.105717 
L 405.556513 377.187286 
L 421.069973 377.085431 
L 432.705068 377.029683 
L 444.340164 376.85613 
L 452.096894 377.048255 
L 467.610354 377.706331 
L 487.002179 378.064194 
L 502.515639 378.257865 
L 533.54256 378.244246 
L 549.05602 378.229729 
L 583.961306 378.160427 
L 607.231496 378.552245 
L 634.380051 378.491635 
L 646.015146 378.641858 
L 708.068987 378.49362 
L 723.582448 378.387534 
L 750.731003 378.606838 
L 781.757923 378.598048 
L 805.028114 378.748667 
L 828.298304 378.807415 
L 828.298304 378.807415 
" clip-path="url(#p5a98d1151c)" style="fill: none; stroke: #fc8d62; stroke-width: 1.5; stroke-linecap: round"/>
   </g>
   <g id="line2d_2">
    <path d="M 56.503658 281.422909 
L 60.382023 256.086076 
L 64.260388 237.327475 
L 68.138753 225.535837 
L 75.895483 210.34465 
L 79.773848 200.196109 
L 83.652213 186.578595 
L 87.530578 170.021757 
L 91.408943 151.407337 
L 99.165674 111.518135 
L 103.044039 93.388398 
L 106.922404 80.114191 
L 110.800769 74.583907 
L 114.679134 78.203338 
L 118.557499 90.185355 
L 122.435864 108.083413 
L 126.314229 129.076209 
L 134.070959 172.745808 
L 137.949324 193.673379 
L 141.827689 213.422706 
L 145.706054 231.596248 
L 149.584419 247.847516 
L 153.462784 262.027016 
L 157.341149 274.243206 
L 161.219514 284.784251 
L 165.09788 293.965753 
L 168.976245 302.023153 
L 172.85461 309.115517 
L 176.732975 315.393225 
L 180.61134 321.026377 
L 184.489705 326.157059 
L 188.36807 330.838998 
L 192.246435 335.039582 
L 196.1248 338.705912 
L 200.003165 341.836369 
L 203.88153 344.502418 
L 207.759895 346.809579 
L 211.63826 348.835523 
L 215.516625 350.602686 
L 219.39499 352.108883 
L 223.273355 353.380425 
L 231.030085 355.533418 
L 242.665181 358.494549 
L 262.057006 362.680356 
L 265.935371 363.487687 
L 269.813736 364.180054 
L 273.692101 364.73912 
L 281.448831 365.534327 
L 289.205561 366.23571 
L 293.083926 366.718277 
L 300.840656 368.035421 
L 312.475752 370.424844 
L 320.232482 371.941394 
L 324.110847 372.476351 
L 327.989212 372.793468 
L 335.745942 372.971718 
L 343.502672 373.130226 
L 359.016132 373.689109 
L 378.407958 374.169383 
L 386.164688 374.617229 
L 397.799783 375.425497 
L 417.191608 376.048451 
L 424.948338 376.505043 
L 432.705068 376.689745 
L 444.340164 376.543973 
L 455.975259 376.479901 
L 463.731989 376.659152 
L 483.123814 377.458355 
L 490.880544 377.375334 
L 498.637274 377.208927 
L 506.394004 377.24737 
L 529.664195 377.66679 
L 552.934385 377.921253 
L 568.447845 377.862756 
L 583.961306 377.76224 
L 595.596401 377.970438 
L 607.231496 378.252132 
L 614.988226 378.236101 
L 626.623321 378.12179 
L 684.798797 378.316916 
L 696.433892 378.211902 
L 708.068987 378.08921 
L 727.460813 378.119412 
L 746.852638 377.912175 
L 770.122828 378.061938 
L 812.784844 378.818425 
L 828.298304 378.821082 
L 828.298304 378.821082 
" clip-path="url(#p5a98d1151c)" style="fill: none; stroke: #66c2a5; stroke-width: 1.5; stroke-linecap: round"/>
   </g>
   <g id="patch_103">
    <path d="M 56.1425 378.883125 
L 56.1425 21.935625 
" style="fill: none; stroke: #cccccc; stroke-width: 1.25; stroke-linejoin: miter; stroke-linecap: square"/>
   </g>
   <g id="patch_104">
    <path d="M 830.0525 378.883125 
L 830.0525 21.935625 
" style="fill: none; stroke: #cccccc; stroke-width: 1.25; stroke-linejoin: miter; stroke-linecap: square"/>
   </g>
   <g id="patch_105">
    <path d="M 56.1425 378.883125 
L 830.0525 378.883125 
" style="fill: none; stroke: #cccccc; stroke-width: 1.25; stroke-linejoin: miter; stroke-linecap: square"/>
   </g>
   <g id="patch_106">
    <path d="M 56.1425 21.935625 
L 830.0525 21.935625 
" style="fill: none; stroke: #cccccc; stroke-width: 1.25; stroke-linejoin: miter; stroke-linecap: square"/>
   </g>
   <g id="text_18">
    <!-- Distribution of Combined Text Length -->
    <g style="fill: #262626" transform="translate(344.824062 15.935625) scale(0.12 -0.12)">
     <defs>
      <path id="ArialMT-44" d="M 494 0 
L 494 4581 
L 2072 4581 
Q 2606 4581 2888 4516 
Q 3281 4425 3559 4188 
Q 3922 3881 4101 3404 
Q 4281 2928 4281 2316 
Q 4281 1794 4159 1391 
Q 4038 988 3847 723 
Q 3656 459 3429 307 
Q 3203 156 2883 78 
Q 2563 0 2147 0 
L 494 0 
z
M 1100 541 
L 2078 541 
Q 2531 541 2789 625 
Q 3047 709 3200 863 
Q 3416 1078 3536 1442 
Q 3656 1806 3656 2325 
Q 3656 3044 3420 3430 
Q 3184 3816 2847 3947 
Q 2603 4041 2063 4041 
L 1100 4041 
L 1100 541 
z
" transform="scale(0.015625)"/>
      <path id="ArialMT-73" d="M 197 991 
L 753 1078 
Q 800 744 1014 566 
Q 1228 388 1613 388 
Q 2000 388 2187 545 
Q 2375 703 2375 916 
Q 2375 1106 2209 1216 
Q 2094 1291 1634 1406 
Q 1016 1563 777 1677 
Q 538 1791 414 1992 
Q 291 2194 291 2438 
Q 291 2659 392 2848 
Q 494 3038 669 3163 
Q 800 3259 1026 3326 
Q 1253 3394 1513 3394 
Q 1903 3394 2198 3281 
Q 2494 3169 2634 2976 
Q 2775 2784 2828 2463 
L 2278 2388 
Q 2241 2644 2061 2787 
Q 1881 2931 1553 2931 
Q 1166 2931 1000 2803 
Q 834 2675 834 2503 
Q 834 2394 903 2306 
Q 972 2216 1119 2156 
Q 1203 2125 1616 2013 
Q 2213 1853 2448 1751 
Q 2684 1650 2818 1456 
Q 2953 1263 2953 975 
Q 2953 694 2789 445 
Q 2625 197 2315 61 
Q 2006 -75 1616 -75 
Q 969 -75 630 194 
Q 291 463 197 991 
z
" transform="scale(0.015625)"/>
      <path id="ArialMT-72" d="M 416 0 
L 416 3319 
L 922 3319 
L 922 2816 
Q 1116 3169 1280 3281 
Q 1444 3394 1641 3394 
Q 1925 3394 2219 3213 
L 2025 2691 
Q 1819 2813 1613 2813 
Q 1428 2813 1281 2702 
Q 1134 2591 1072 2394 
Q 978 2094 978 1738 
L 978 0 
L 416 0 
z
" transform="scale(0.015625)"/>
      <path id="ArialMT-66" d="M 556 0 
L 556 2881 
L 59 2881 
L 59 3319 
L 556 3319 
L 556 3672 
Q 556 4006 616 4169 
Q 697 4388 901 4523 
Q 1106 4659 1475 4659 
Q 1713 4659 2000 4603 
L 1916 4113 
Q 1741 4144 1584 4144 
Q 1328 4144 1222 4034 
Q 1116 3925 1116 3625 
L 1116 3319 
L 1763 3319 
L 1763 2881 
L 1116 2881 
L 1116 0 
L 556 0 
z
" transform="scale(0.015625)"/>
     </defs>
     <use xlink:href="#ArialMT-44"/>
     <use xlink:href="#ArialMT-69" transform="translate(72.216797 0)"/>
     <use xlink:href="#ArialMT-73" transform="translate(94.433594 0)"/>
     <use xlink:href="#ArialMT-74" transform="translate(144.433594 0)"/>
     <use xlink:href="#ArialMT-72" transform="translate(172.216797 0)"/>
     <use xlink:href="#ArialMT-69" transform="translate(205.517578 0)"/>
     <use xlink:href="#ArialMT-62" transform="translate(227.734375 0)"/>
     <use xlink:href="#ArialMT-75" transform="translate(283.349609 0)"/>
     <use xlink:href="#ArialMT-74" transform="translate(338.964844 0)"/>
     <use xlink:href="#ArialMT-69" transform="translate(366.748047 0)"/>
     <use xlink:href="#ArialMT-6f" transform="translate(388.964844 0)"/>
     <use xlink:href="#ArialMT-6e" transform="translate(444.580078 0)"/>
     <use xlink:href="#ArialMT-20" transform="translate(500.195312 0)"/>
     <use xlink:href="#ArialMT-6f" transform="translate(527.978516 0)"/>
     <use xlink:href="#ArialMT-66" transform="translate(583.59375 0)"/>
     <use xlink:href="#ArialMT-20" transform="translate(611.376953 0)"/>
     <use xlink:href="#ArialMT-43" transform="translate(639.160156 0)"/>
     <use xlink:href="#ArialMT-6f" transform="translate(711.376953 0)"/>
     <use xlink:href="#ArialMT-6d" transform="translate(766.992188 0)"/>
     <use xlink:href="#ArialMT-62" transform="translate(850.292969 0)"/>
     <use xlink:href="#ArialMT-69" transform="translate(905.908203 0)"/>
     <use xlink:href="#ArialMT-6e" transform="translate(928.125 0)"/>
     <use xlink:href="#ArialMT-65" transform="translate(983.740234 0)"/>
     <use xlink:href="#ArialMT-64" transform="translate(1039.355469 0)"/>
     <use xlink:href="#ArialMT-20" transform="translate(1094.970703 0)"/>
     <use xlink:href="#ArialMT-54" transform="translate(1121.003906 0)"/>
     <use xlink:href="#ArialMT-65" transform="translate(1170.962891 0)"/>
     <use xlink:href="#ArialMT-78" transform="translate(1226.578125 0)"/>
     <use xlink:href="#ArialMT-74" transform="translate(1276.578125 0)"/>
     <use xlink:href="#ArialMT-20" transform="translate(1304.361328 0)"/>
     <use xlink:href="#ArialMT-4c" transform="translate(1332.144531 0)"/>
     <use xlink:href="#ArialMT-65" transform="translate(1387.759766 0)"/>
     <use xlink:href="#ArialMT-6e" transform="translate(1443.375 0)"/>
     <use xlink:href="#ArialMT-67" transform="translate(1498.990234 0)"/>
     <use xlink:href="#ArialMT-74" transform="translate(1554.605469 0)"/>
     <use xlink:href="#ArialMT-68" transform="translate(1582.388672 0)"/>
    </g>
   </g>
   <g id="legend_1">
    <g id="patch_107">
     <path d="M 746.201563 78.855625 
L 822.3525 78.855625 
Q 824.5525 78.855625 824.5525 76.655625 
L 824.5525 29.635625 
Q 824.5525 27.435625 822.3525 27.435625 
L 746.201563 27.435625 
Q 744.001562 27.435625 744.001562 29.635625 
L 744.001562 76.655625 
Q 744.001562 78.855625 746.201563 78.855625 
z
" style="fill: #ffffff; opacity: 0.8; stroke: #cccccc; stroke-linejoin: miter"/>
    </g>
    <g id="text_19">
     <!-- Label -->
     <g style="fill: #262626" transform="translate(769.597656 40.425) scale(0.12 -0.12)">
      <defs>
       <path id="ArialMT-61" d="M 2588 409 
Q 2275 144 1986 34 
Q 1697 -75 1366 -75 
Q 819 -75 525 192 
Q 231 459 231 875 
Q 231 1119 342 1320 
Q 453 1522 633 1644 
Q 813 1766 1038 1828 
Q 1203 1872 1538 1913 
Q 2219 1994 2541 2106 
Q 2544 2222 2544 2253 
Q 2544 2597 2384 2738 
Q 2169 2928 1744 2928 
Q 1347 2928 1158 2789 
Q 969 2650 878 2297 
L 328 2372 
Q 403 2725 575 2942 
Q 747 3159 1072 3276 
Q 1397 3394 1825 3394 
Q 2250 3394 2515 3294 
Q 2781 3194 2906 3042 
Q 3031 2891 3081 2659 
Q 3109 2516 3109 2141 
L 3109 1391 
Q 3109 606 3145 398 
Q 3181 191 3288 0 
L 2700 0 
Q 2613 175 2588 409 
z
M 2541 1666 
Q 2234 1541 1622 1453 
Q 1275 1403 1131 1340 
Q 988 1278 909 1158 
Q 831 1038 831 891 
Q 831 666 1001 516 
Q 1172 366 1500 366 
Q 1825 366 2078 508 
Q 2331 650 2450 897 
Q 2541 1088 2541 1459 
L 2541 1666 
z
" transform="scale(0.015625)"/>
       <path id="ArialMT-6c" d="M 409 0 
L 409 4581 
L 972 4581 
L 972 0 
L 409 0 
z
" transform="scale(0.015625)"/>
      </defs>
      <use xlink:href="#ArialMT-4c"/>
      <use xlink:href="#ArialMT-61" transform="translate(55.615234 0)"/>
      <use xlink:href="#ArialMT-62" transform="translate(111.230469 0)"/>
      <use xlink:href="#ArialMT-65" transform="translate(166.845703 0)"/>
      <use xlink:href="#ArialMT-6c" transform="translate(222.460938 0)"/>
     </g>
    </g>
    <g id="line2d_3">
     <path d="M 748.401562 52.467656 
L 759.401562 52.467656 
L 770.401562 52.467656 
" style="fill: none; stroke: #fc8d62; stroke-width: 1.5; stroke-linecap: round"/>
    </g>
    <g id="text_20">
     <!-- Fake (0) -->
     <g style="fill: #262626" transform="translate(779.201562 56.317656) scale(0.11 -0.11)">
      <defs>
       <path id="ArialMT-46" d="M 525 0 
L 525 4581 
L 3616 4581 
L 3616 4041 
L 1131 4041 
L 1131 2622 
L 3281 2622 
L 3281 2081 
L 1131 2081 
L 1131 0 
L 525 0 
z
" transform="scale(0.015625)"/>
       <path id="ArialMT-6b" d="M 425 0 
L 425 4581 
L 988 4581 
L 988 1969 
L 2319 3319 
L 3047 3319 
L 1778 2088 
L 3175 0 
L 2481 0 
L 1384 1697 
L 988 1316 
L 988 0 
L 425 0 
z
" transform="scale(0.015625)"/>
       <path id="ArialMT-28" d="M 1497 -1347 
Q 1031 -759 709 28 
Q 388 816 388 1659 
Q 388 2403 628 3084 
Q 909 3875 1497 4659 
L 1900 4659 
Q 1522 4009 1400 3731 
Q 1209 3300 1100 2831 
Q 966 2247 966 1656 
Q 966 153 1900 -1347 
L 1497 -1347 
z
" transform="scale(0.015625)"/>
       <path id="ArialMT-29" d="M 791 -1347 
L 388 -1347 
Q 1322 153 1322 1656 
Q 1322 2244 1188 2822 
Q 1081 3291 891 3722 
Q 769 4003 388 4659 
L 791 4659 
Q 1378 3875 1659 3084 
Q 1900 2403 1900 1659 
Q 1900 816 1576 28 
Q 1253 -759 791 -1347 
z
" transform="scale(0.015625)"/>
      </defs>
      <use xlink:href="#ArialMT-46"/>
      <use xlink:href="#ArialMT-61" transform="translate(61.083984 0)"/>
      <use xlink:href="#ArialMT-6b" transform="translate(116.699219 0)"/>
      <use xlink:href="#ArialMT-65" transform="translate(166.699219 0)"/>
      <use xlink:href="#ArialMT-20" transform="translate(222.314453 0)"/>
      <use xlink:href="#ArialMT-28" transform="translate(250.097656 0)"/>
      <use xlink:href="#ArialMT-30" transform="translate(283.398438 0)"/>
      <use xlink:href="#ArialMT-29" transform="translate(339.013672 0)"/>
     </g>
    </g>
    <g id="line2d_4">
     <path d="M 748.401562 68.290469 
L 759.401562 68.290469 
L 770.401562 68.290469 
" style="fill: none; stroke: #66c2a5; stroke-width: 1.5; stroke-linecap: round"/>
    </g>
    <g id="text_21">
     <!-- Real (1) -->
     <g style="fill: #262626" transform="translate(779.201562 72.140469) scale(0.11 -0.11)">
      <defs>
       <path id="ArialMT-52" d="M 503 0 
L 503 4581 
L 2534 4581 
Q 3147 4581 3465 4457 
Q 3784 4334 3975 4021 
Q 4166 3709 4166 3331 
Q 4166 2844 3850 2509 
Q 3534 2175 2875 2084 
Q 3116 1969 3241 1856 
Q 3506 1613 3744 1247 
L 4541 0 
L 3778 0 
L 3172 953 
Q 2906 1366 2734 1584 
Q 2563 1803 2427 1890 
Q 2291 1978 2150 2013 
Q 2047 2034 1813 2034 
L 1109 2034 
L 1109 0 
L 503 0 
z
M 1109 2559 
L 2413 2559 
Q 2828 2559 3062 2645 
Q 3297 2731 3419 2920 
Q 3541 3109 3541 3331 
Q 3541 3656 3305 3865 
Q 3069 4075 2559 4075 
L 1109 4075 
L 1109 2559 
z
" transform="scale(0.015625)"/>
      </defs>
      <use xlink:href="#ArialMT-52"/>
      <use xlink:href="#ArialMT-65" transform="translate(72.216797 0)"/>
      <use xlink:href="#ArialMT-61" transform="translate(127.832031 0)"/>
      <use xlink:href="#ArialMT-6c" transform="translate(183.447266 0)"/>
      <use xlink:href="#ArialMT-20" transform="translate(205.664062 0)"/>
      <use xlink:href="#ArialMT-28" transform="translate(233.447266 0)"/>
      <use xlink:href="#ArialMT-31" transform="translate(266.748047 0)"/>
      <use xlink:href="#ArialMT-29" transform="translate(322.363281 0)"/>
     </g>
    </g>
   </g>
  </g>
 </g>
 <defs>
  <clipPath id="p5a98d1151c">
   <rect x="56.1425" y="21.935625" width="773.91" height="356.9475"/>
  </clipPath>
 </defs>
</svg>
