<?xml version="1.0" encoding="utf-8" standalone="no"?>
<!DOCTYPE svg PUBLIC "-//W3C//DTD SVG 1.1//EN"
  "http://www.w3.org/Graphics/SVG/1.1/DTD/svg11.dtd">
<svg xmlns:xlink="http://www.w3.org/1999/xlink" width="852.783125pt" height="348.757969pt" viewBox="0 0 852.783125 348.757969" xmlns="http://www.w3.org/2000/svg" version="1.1">
 <metadata>
  <rdf:RDF xmlns:dc="http://purl.org/dc/elements/1.1/" xmlns:cc="http://creativecommons.org/ns#" xmlns:rdf="http://www.w3.org/1999/02/22-rdf-syntax-ns#">
   <cc:Work>
    <dc:type rdf:resource="http://purl.org/dc/dcmitype/StillImage"/>
    <dc:date>2025-05-17T18:11:31.121311</dc:date>
    <dc:format>image/svg+xml</dc:format>
    <dc:creator>
     <cc:Agent>
      <dc:title>Matplotlib v3.10.1, https://matplotlib.org/</dc:title>
     </cc:Agent>
    </dc:creator>
   </cc:Work>
  </rdf:RDF>
 </metadata>
 <defs>
  <style type="text/css">*{stroke-linejoin: round; stroke-linecap: butt}</style>
 </defs>
 <g id="figure_1">
  <g id="patch_1">
   <path d="M 0 348.757969 
L 852.783125 348.757969 
L 852.783125 0 
L 0 0 
z
" style="fill: #ffffff"/>
  </g>
  <g id="axes_1">
   <g id="patch_2">
    <path d="M 56.283125 306.736875 
L 845.583125 306.736875 
L 845.583125 21.789375 
L 56.283125 21.789375 
z
" style="fill: #ffffff"/>
   </g>
   <g id="matplotlib.axis_1">
    <g id="xtick_1">
     <g id="text_1">
      <!-- 0.2 -->
      <g style="fill: #262626" transform="translate(127.630446 324.110469) scale(0.11 -0.11)">
       <defs>
        <path id="ArialMT-30" d="M 266 2259 
Q 266 3072 433 3567 
Q 600 4063 929 4331 
Q 1259 4600 1759 4600 
Q 2128 4600 2406 4451 
Q 2684 4303 2865 4023 
Q 3047 3744 3150 3342 
Q 3253 2941 3253 2259 
Q 3253 1453 3087 958 
Q 2922 463 2592 192 
Q 2263 -78 1759 -78 
Q 1097 -78 719 397 
Q 266 969 266 2259 
z
M 844 2259 
Q 844 1131 1108 757 
Q 1372 384 1759 384 
Q 2147 384 2411 759 
Q 2675 1134 2675 2259 
Q 2675 3391 2411 3762 
Q 2147 4134 1753 4134 
Q 1366 4134 1134 3806 
Q 844 3388 844 2259 
z
" transform="scale(0.015625)"/>
        <path id="ArialMT-2e" d="M 581 0 
L 581 641 
L 1222 641 
L 1222 0 
L 581 0 
z
" transform="scale(0.015625)"/>
        <path id="ArialMT-32" d="M 3222 541 
L 3222 0 
L 194 0 
Q 188 203 259 391 
Q 375 700 629 1000 
Q 884 1300 1366 1694 
Q 2113 2306 2375 2664 
Q 2638 3022 2638 3341 
Q 2638 3675 2398 3904 
Q 2159 4134 1775 4134 
Q 1369 4134 1125 3890 
Q 881 3647 878 3216 
L 300 3275 
Q 359 3922 746 4261 
Q 1134 4600 1788 4600 
Q 2447 4600 2831 4234 
Q 3216 3869 3216 3328 
Q 3216 3053 3103 2787 
Q 2991 2522 2730 2228 
Q 2469 1934 1863 1422 
Q 1356 997 1212 845 
Q 1069 694 975 541 
L 3222 541 
z
" transform="scale(0.015625)"/>
       </defs>
       <use xlink:href="#ArialMT-30"/>
       <use xlink:href="#ArialMT-2e" transform="translate(55.615234 0)"/>
       <use xlink:href="#ArialMT-32" transform="translate(83.398438 0)"/>
      </g>
     </g>
    </g>
    <g id="xtick_2">
     <g id="text_2">
      <!-- 0.4 -->
      <g style="fill: #262626" transform="translate(296.238048 324.110469) scale(0.11 -0.11)">
       <defs>
        <path id="ArialMT-34" d="M 2069 0 
L 2069 1097 
L 81 1097 
L 81 1613 
L 2172 4581 
L 2631 4581 
L 2631 1613 
L 3250 1613 
L 3250 1097 
L 2631 1097 
L 2631 0 
L 2069 0 
z
M 2069 1613 
L 2069 3678 
L 634 1613 
L 2069 1613 
z
" transform="scale(0.015625)"/>
       </defs>
       <use xlink:href="#ArialMT-30"/>
       <use xlink:href="#ArialMT-2e" transform="translate(55.615234 0)"/>
       <use xlink:href="#ArialMT-34" transform="translate(83.398438 0)"/>
      </g>
     </g>
    </g>
    <g id="xtick_3">
     <g id="text_3">
      <!-- 0.6 -->
      <g style="fill: #262626" transform="translate(464.845649 324.110469) scale(0.11 -0.11)">
       <defs>
        <path id="ArialMT-36" d="M 3184 3459 
L 2625 3416 
Q 2550 3747 2413 3897 
Q 2184 4138 1850 4138 
Q 1581 4138 1378 3988 
Q 1113 3794 959 3422 
Q 806 3050 800 2363 
Q 1003 2672 1297 2822 
Q 1591 2972 1913 2972 
Q 2475 2972 2870 2558 
Q 3266 2144 3266 1488 
Q 3266 1056 3080 686 
Q 2894 316 2569 119 
Q 2244 -78 1831 -78 
Q 1128 -78 684 439 
Q 241 956 241 2144 
Q 241 3472 731 4075 
Q 1159 4600 1884 4600 
Q 2425 4600 2770 4297 
Q 3116 3994 3184 3459 
z
M 888 1484 
Q 888 1194 1011 928 
Q 1134 663 1356 523 
Q 1578 384 1822 384 
Q 2178 384 2434 671 
Q 2691 959 2691 1453 
Q 2691 1928 2437 2201 
Q 2184 2475 1800 2475 
Q 1419 2475 1153 2201 
Q 888 1928 888 1484 
z
" transform="scale(0.015625)"/>
       </defs>
       <use xlink:href="#ArialMT-30"/>
       <use xlink:href="#ArialMT-2e" transform="translate(55.615234 0)"/>
       <use xlink:href="#ArialMT-36" transform="translate(83.398438 0)"/>
      </g>
     </g>
    </g>
    <g id="xtick_4">
     <g id="text_4">
      <!-- 0.8 -->
      <g style="fill: #262626" transform="translate(633.453251 324.110469) scale(0.11 -0.11)">
       <defs>
        <path id="ArialMT-38" d="M 1131 2484 
Q 781 2613 612 2850 
Q 444 3088 444 3419 
Q 444 3919 803 4259 
Q 1163 4600 1759 4600 
Q 2359 4600 2725 4251 
Q 3091 3903 3091 3403 
Q 3091 3084 2923 2848 
Q 2756 2613 2416 2484 
Q 2838 2347 3058 2040 
Q 3278 1734 3278 1309 
Q 3278 722 2862 322 
Q 2447 -78 1769 -78 
Q 1091 -78 675 323 
Q 259 725 259 1325 
Q 259 1772 486 2073 
Q 713 2375 1131 2484 
z
M 1019 3438 
Q 1019 3113 1228 2906 
Q 1438 2700 1772 2700 
Q 2097 2700 2305 2904 
Q 2513 3109 2513 3406 
Q 2513 3716 2298 3927 
Q 2084 4138 1766 4138 
Q 1444 4138 1231 3931 
Q 1019 3725 1019 3438 
z
M 838 1322 
Q 838 1081 952 856 
Q 1066 631 1291 507 
Q 1516 384 1775 384 
Q 2178 384 2440 643 
Q 2703 903 2703 1303 
Q 2703 1709 2433 1975 
Q 2163 2241 1756 2241 
Q 1359 2241 1098 1978 
Q 838 1716 838 1322 
z
" transform="scale(0.015625)"/>
       </defs>
       <use xlink:href="#ArialMT-30"/>
       <use xlink:href="#ArialMT-2e" transform="translate(55.615234 0)"/>
       <use xlink:href="#ArialMT-38" transform="translate(83.398438 0)"/>
      </g>
     </g>
    </g>
    <g id="xtick_5">
     <g id="text_5">
      <!-- 1.0 -->
      <g style="fill: #262626" transform="translate(802.060852 324.110469) scale(0.11 -0.11)">
       <defs>
        <path id="ArialMT-31" d="M 2384 0 
L 1822 0 
L 1822 3584 
Q 1619 3391 1289 3197 
Q 959 3003 697 2906 
L 697 3450 
Q 1169 3672 1522 3987 
Q 1875 4303 2022 4600 
L 2384 4600 
L 2384 0 
z
" transform="scale(0.015625)"/>
       </defs>
       <use xlink:href="#ArialMT-31"/>
       <use xlink:href="#ArialMT-2e" transform="translate(55.615234 0)"/>
       <use xlink:href="#ArialMT-30" transform="translate(83.398438 0)"/>
      </g>
     </g>
    </g>
    <g id="text_6">
     <!-- Lexical Diversity (Unique Words / Total Words) -->
     <g style="fill: #262626" transform="translate(327.55625 339.032344) scale(0.12 -0.12)">
      <defs>
       <path id="ArialMT-4c" d="M 469 0 
L 469 4581 
L 1075 4581 
L 1075 541 
L 3331 541 
L 3331 0 
L 469 0 
z
" transform="scale(0.015625)"/>
       <path id="ArialMT-65" d="M 2694 1069 
L 3275 997 
Q 3138 488 2766 206 
Q 2394 -75 1816 -75 
Q 1088 -75 661 373 
Q 234 822 234 1631 
Q 234 2469 665 2931 
Q 1097 3394 1784 3394 
Q 2450 3394 2872 2941 
Q 3294 2488 3294 1666 
Q 3294 1616 3291 1516 
L 816 1516 
Q 847 969 1125 678 
Q 1403 388 1819 388 
Q 2128 388 2347 550 
Q 2566 713 2694 1069 
z
M 847 1978 
L 2700 1978 
Q 2663 2397 2488 2606 
Q 2219 2931 1791 2931 
Q 1403 2931 1139 2672 
Q 875 2413 847 1978 
z
" transform="scale(0.015625)"/>
       <path id="ArialMT-78" d="M 47 0 
L 1259 1725 
L 138 3319 
L 841 3319 
L 1350 2541 
Q 1494 2319 1581 2169 
Q 1719 2375 1834 2534 
L 2394 3319 
L 3066 3319 
L 1919 1756 
L 3153 0 
L 2463 0 
L 1781 1031 
L 1600 1309 
L 728 0 
L 47 0 
z
" transform="scale(0.015625)"/>
       <path id="ArialMT-69" d="M 425 3934 
L 425 4581 
L 988 4581 
L 988 3934 
L 425 3934 
z
M 425 0 
L 425 3319 
L 988 3319 
L 988 0 
L 425 0 
z
" transform="scale(0.015625)"/>
       <path id="ArialMT-63" d="M 2588 1216 
L 3141 1144 
Q 3050 572 2676 248 
Q 2303 -75 1759 -75 
Q 1078 -75 664 370 
Q 250 816 250 1647 
Q 250 2184 428 2587 
Q 606 2991 970 3192 
Q 1334 3394 1763 3394 
Q 2303 3394 2647 3120 
Q 2991 2847 3088 2344 
L 2541 2259 
Q 2463 2594 2264 2762 
Q 2066 2931 1784 2931 
Q 1359 2931 1093 2626 
Q 828 2322 828 1663 
Q 828 994 1084 691 
Q 1341 388 1753 388 
Q 2084 388 2306 591 
Q 2528 794 2588 1216 
z
" transform="scale(0.015625)"/>
       <path id="ArialMT-61" d="M 2588 409 
Q 2275 144 1986 34 
Q 1697 -75 1366 -75 
Q 819 -75 525 192 
Q 231 459 231 875 
Q 231 1119 342 1320 
Q 453 1522 633 1644 
Q 813 1766 1038 1828 
Q 1203 1872 1538 1913 
Q 2219 1994 2541 2106 
Q 2544 2222 2544 2253 
Q 2544 2597 2384 2738 
Q 2169 2928 1744 2928 
Q 1347 2928 1158 2789 
Q 969 2650 878 2297 
L 328 2372 
Q 403 2725 575 2942 
Q 747 3159 1072 3276 
Q 1397 3394 1825 3394 
Q 2250 3394 2515 3294 
Q 2781 3194 2906 3042 
Q 3031 2891 3081 2659 
Q 3109 2516 3109 2141 
L 3109 1391 
Q 3109 606 3145 398 
Q 3181 191 3288 0 
L 2700 0 
Q 2613 175 2588 409 
z
M 2541 1666 
Q 2234 1541 1622 1453 
Q 1275 1403 1131 1340 
Q 988 1278 909 1158 
Q 831 1038 831 891 
Q 831 666 1001 516 
Q 1172 366 1500 366 
Q 1825 366 2078 508 
Q 2331 650 2450 897 
Q 2541 1088 2541 1459 
L 2541 1666 
z
" transform="scale(0.015625)"/>
       <path id="ArialMT-6c" d="M 409 0 
L 409 4581 
L 972 4581 
L 972 0 
L 409 0 
z
" transform="scale(0.015625)"/>
       <path id="ArialMT-20" transform="scale(0.015625)"/>
       <path id="ArialMT-44" d="M 494 0 
L 494 4581 
L 2072 4581 
Q 2606 4581 2888 4516 
Q 3281 4425 3559 4188 
Q 3922 3881 4101 3404 
Q 4281 2928 4281 2316 
Q 4281 1794 4159 1391 
Q 4038 988 3847 723 
Q 3656 459 3429 307 
Q 3203 156 2883 78 
Q 2563 0 2147 0 
L 494 0 
z
M 1100 541 
L 2078 541 
Q 2531 541 2789 625 
Q 3047 709 3200 863 
Q 3416 1078 3536 1442 
Q 3656 1806 3656 2325 
Q 3656 3044 3420 3430 
Q 3184 3816 2847 3947 
Q 2603 4041 2063 4041 
L 1100 4041 
L 1100 541 
z
" transform="scale(0.015625)"/>
       <path id="ArialMT-76" d="M 1344 0 
L 81 3319 
L 675 3319 
L 1388 1331 
Q 1503 1009 1600 663 
Q 1675 925 1809 1294 
L 2547 3319 
L 3125 3319 
L 1869 0 
L 1344 0 
z
" transform="scale(0.015625)"/>
       <path id="ArialMT-72" d="M 416 0 
L 416 3319 
L 922 3319 
L 922 2816 
Q 1116 3169 1280 3281 
Q 1444 3394 1641 3394 
Q 1925 3394 2219 3213 
L 2025 2691 
Q 1819 2813 1613 2813 
Q 1428 2813 1281 2702 
Q 1134 2591 1072 2394 
Q 978 2094 978 1738 
L 978 0 
L 416 0 
z
" transform="scale(0.015625)"/>
       <path id="ArialMT-73" d="M 197 991 
L 753 1078 
Q 800 744 1014 566 
Q 1228 388 1613 388 
Q 2000 388 2187 545 
Q 2375 703 2375 916 
Q 2375 1106 2209 1216 
Q 2094 1291 1634 1406 
Q 1016 1563 777 1677 
Q 538 1791 414 1992 
Q 291 2194 291 2438 
Q 291 2659 392 2848 
Q 494 3038 669 3163 
Q 800 3259 1026 3326 
Q 1253 3394 1513 3394 
Q 1903 3394 2198 3281 
Q 2494 3169 2634 2976 
Q 2775 2784 2828 2463 
L 2278 2388 
Q 2241 2644 2061 2787 
Q 1881 2931 1553 2931 
Q 1166 2931 1000 2803 
Q 834 2675 834 2503 
Q 834 2394 903 2306 
Q 972 2216 1119 2156 
Q 1203 2125 1616 2013 
Q 2213 1853 2448 1751 
Q 2684 1650 2818 1456 
Q 2953 1263 2953 975 
Q 2953 694 2789 445 
Q 2625 197 2315 61 
Q 2006 -75 1616 -75 
Q 969 -75 630 194 
Q 291 463 197 991 
z
" transform="scale(0.015625)"/>
       <path id="ArialMT-74" d="M 1650 503 
L 1731 6 
Q 1494 -44 1306 -44 
Q 1000 -44 831 53 
Q 663 150 594 308 
Q 525 466 525 972 
L 525 2881 
L 113 2881 
L 113 3319 
L 525 3319 
L 525 4141 
L 1084 4478 
L 1084 3319 
L 1650 3319 
L 1650 2881 
L 1084 2881 
L 1084 941 
Q 1084 700 1114 631 
Q 1144 563 1211 522 
Q 1278 481 1403 481 
Q 1497 481 1650 503 
z
" transform="scale(0.015625)"/>
       <path id="ArialMT-79" d="M 397 -1278 
L 334 -750 
Q 519 -800 656 -800 
Q 844 -800 956 -737 
Q 1069 -675 1141 -563 
Q 1194 -478 1313 -144 
Q 1328 -97 1363 -6 
L 103 3319 
L 709 3319 
L 1400 1397 
Q 1534 1031 1641 628 
Q 1738 1016 1872 1384 
L 2581 3319 
L 3144 3319 
L 1881 -56 
Q 1678 -603 1566 -809 
Q 1416 -1088 1222 -1217 
Q 1028 -1347 759 -1347 
Q 597 -1347 397 -1278 
z
" transform="scale(0.015625)"/>
       <path id="ArialMT-28" d="M 1497 -1347 
Q 1031 -759 709 28 
Q 388 816 388 1659 
Q 388 2403 628 3084 
Q 909 3875 1497 4659 
L 1900 4659 
Q 1522 4009 1400 3731 
Q 1209 3300 1100 2831 
Q 966 2247 966 1656 
Q 966 153 1900 -1347 
L 1497 -1347 
z
" transform="scale(0.015625)"/>
       <path id="ArialMT-55" d="M 3500 4581 
L 4106 4581 
L 4106 1934 
Q 4106 1244 3950 837 
Q 3794 431 3386 176 
Q 2978 -78 2316 -78 
Q 1672 -78 1262 144 
Q 853 366 678 786 
Q 503 1206 503 1934 
L 503 4581 
L 1109 4581 
L 1109 1938 
Q 1109 1341 1220 1058 
Q 1331 775 1601 622 
Q 1872 469 2263 469 
Q 2931 469 3215 772 
Q 3500 1075 3500 1938 
L 3500 4581 
z
" transform="scale(0.015625)"/>
       <path id="ArialMT-6e" d="M 422 0 
L 422 3319 
L 928 3319 
L 928 2847 
Q 1294 3394 1984 3394 
Q 2284 3394 2536 3286 
Q 2788 3178 2913 3003 
Q 3038 2828 3088 2588 
Q 3119 2431 3119 2041 
L 3119 0 
L 2556 0 
L 2556 2019 
Q 2556 2363 2490 2533 
Q 2425 2703 2258 2804 
Q 2091 2906 1866 2906 
Q 1506 2906 1245 2678 
Q 984 2450 984 1813 
L 984 0 
L 422 0 
z
" transform="scale(0.015625)"/>
       <path id="ArialMT-71" d="M 2538 -1272 
L 2538 353 
Q 2406 169 2170 47 
Q 1934 -75 1669 -75 
Q 1078 -75 651 397 
Q 225 869 225 1691 
Q 225 2191 398 2587 
Q 572 2984 901 3189 
Q 1231 3394 1625 3394 
Q 2241 3394 2594 2875 
L 2594 3319 
L 3100 3319 
L 3100 -1272 
L 2538 -1272 
z
M 803 1669 
Q 803 1028 1072 708 
Q 1341 388 1716 388 
Q 2075 388 2334 692 
Q 2594 997 2594 1619 
Q 2594 2281 2320 2615 
Q 2047 2950 1678 2950 
Q 1313 2950 1058 2639 
Q 803 2328 803 1669 
z
" transform="scale(0.015625)"/>
       <path id="ArialMT-75" d="M 2597 0 
L 2597 488 
Q 2209 -75 1544 -75 
Q 1250 -75 995 37 
Q 741 150 617 320 
Q 494 491 444 738 
Q 409 903 409 1263 
L 409 3319 
L 972 3319 
L 972 1478 
Q 972 1038 1006 884 
Q 1059 663 1231 536 
Q 1403 409 1656 409 
Q 1909 409 2131 539 
Q 2353 669 2445 892 
Q 2538 1116 2538 1541 
L 2538 3319 
L 3100 3319 
L 3100 0 
L 2597 0 
z
" transform="scale(0.015625)"/>
       <path id="ArialMT-57" d="M 1294 0 
L 78 4581 
L 700 4581 
L 1397 1578 
Q 1509 1106 1591 641 
Q 1766 1375 1797 1488 
L 2669 4581 
L 3400 4581 
L 4056 2263 
Q 4303 1400 4413 641 
Q 4500 1075 4641 1638 
L 5359 4581 
L 5969 4581 
L 4713 0 
L 4128 0 
L 3163 3491 
Q 3041 3928 3019 4028 
Q 2947 3713 2884 3491 
L 1913 0 
L 1294 0 
z
" transform="scale(0.015625)"/>
       <path id="ArialMT-6f" d="M 213 1659 
Q 213 2581 725 3025 
Q 1153 3394 1769 3394 
Q 2453 3394 2887 2945 
Q 3322 2497 3322 1706 
Q 3322 1066 3130 698 
Q 2938 331 2570 128 
Q 2203 -75 1769 -75 
Q 1072 -75 642 372 
Q 213 819 213 1659 
z
M 791 1659 
Q 791 1022 1069 705 
Q 1347 388 1769 388 
Q 2188 388 2466 706 
Q 2744 1025 2744 1678 
Q 2744 2294 2464 2611 
Q 2184 2928 1769 2928 
Q 1347 2928 1069 2612 
Q 791 2297 791 1659 
z
" transform="scale(0.015625)"/>
       <path id="ArialMT-64" d="M 2575 0 
L 2575 419 
Q 2259 -75 1647 -75 
Q 1250 -75 917 144 
Q 584 363 401 755 
Q 219 1147 219 1656 
Q 219 2153 384 2558 
Q 550 2963 881 3178 
Q 1213 3394 1622 3394 
Q 1922 3394 2156 3267 
Q 2391 3141 2538 2938 
L 2538 4581 
L 3097 4581 
L 3097 0 
L 2575 0 
z
M 797 1656 
Q 797 1019 1065 703 
Q 1334 388 1700 388 
Q 2069 388 2326 689 
Q 2584 991 2584 1609 
Q 2584 2291 2321 2609 
Q 2059 2928 1675 2928 
Q 1300 2928 1048 2622 
Q 797 2316 797 1656 
z
" transform="scale(0.015625)"/>
       <path id="ArialMT-2f" d="M 0 -78 
L 1328 4659 
L 1778 4659 
L 453 -78 
L 0 -78 
z
" transform="scale(0.015625)"/>
       <path id="ArialMT-54" d="M 1659 0 
L 1659 4041 
L 150 4041 
L 150 4581 
L 3781 4581 
L 3781 4041 
L 2266 4041 
L 2266 0 
L 1659 0 
z
" transform="scale(0.015625)"/>
       <path id="ArialMT-29" d="M 791 -1347 
L 388 -1347 
Q 1322 153 1322 1656 
Q 1322 2244 1188 2822 
Q 1081 3291 891 3722 
Q 769 4003 388 4659 
L 791 4659 
Q 1378 3875 1659 3084 
Q 1900 2403 1900 1659 
Q 1900 816 1576 28 
Q 1253 -759 791 -1347 
z
" transform="scale(0.015625)"/>
      </defs>
      <use xlink:href="#ArialMT-4c"/>
      <use xlink:href="#ArialMT-65" transform="translate(55.615234 0)"/>
      <use xlink:href="#ArialMT-78" transform="translate(111.230469 0)"/>
      <use xlink:href="#ArialMT-69" transform="translate(161.230469 0)"/>
      <use xlink:href="#ArialMT-63" transform="translate(183.447266 0)"/>
      <use xlink:href="#ArialMT-61" transform="translate(233.447266 0)"/>
      <use xlink:href="#ArialMT-6c" transform="translate(289.0625 0)"/>
      <use xlink:href="#ArialMT-20" transform="translate(311.279297 0)"/>
      <use xlink:href="#ArialMT-44" transform="translate(339.0625 0)"/>
      <use xlink:href="#ArialMT-69" transform="translate(411.279297 0)"/>
      <use xlink:href="#ArialMT-76" transform="translate(433.496094 0)"/>
      <use xlink:href="#ArialMT-65" transform="translate(483.496094 0)"/>
      <use xlink:href="#ArialMT-72" transform="translate(539.111328 0)"/>
      <use xlink:href="#ArialMT-73" transform="translate(572.412109 0)"/>
      <use xlink:href="#ArialMT-69" transform="translate(622.412109 0)"/>
      <use xlink:href="#ArialMT-74" transform="translate(644.628906 0)"/>
      <use xlink:href="#ArialMT-79" transform="translate(672.412109 0)"/>
      <use xlink:href="#ArialMT-20" transform="translate(722.412109 0)"/>
      <use xlink:href="#ArialMT-28" transform="translate(750.195312 0)"/>
      <use xlink:href="#ArialMT-55" transform="translate(783.496094 0)"/>
      <use xlink:href="#ArialMT-6e" transform="translate(855.712891 0)"/>
      <use xlink:href="#ArialMT-69" transform="translate(911.328125 0)"/>
      <use xlink:href="#ArialMT-71" transform="translate(933.544922 0)"/>
      <use xlink:href="#ArialMT-75" transform="translate(989.160156 0)"/>
      <use xlink:href="#ArialMT-65" transform="translate(1044.775391 0)"/>
      <use xlink:href="#ArialMT-20" transform="translate(1100.390625 0)"/>
      <use xlink:href="#ArialMT-57" transform="translate(1128.173828 0)"/>
      <use xlink:href="#ArialMT-6f" transform="translate(1220.808594 0)"/>
      <use xlink:href="#ArialMT-72" transform="translate(1276.423828 0)"/>
      <use xlink:href="#ArialMT-64" transform="translate(1309.724609 0)"/>
      <use xlink:href="#ArialMT-73" transform="translate(1365.339844 0)"/>
      <use xlink:href="#ArialMT-20" transform="translate(1415.339844 0)"/>
      <use xlink:href="#ArialMT-2f" transform="translate(1443.123047 0)"/>
      <use xlink:href="#ArialMT-20" transform="translate(1470.90625 0)"/>
      <use xlink:href="#ArialMT-54" transform="translate(1496.939453 0)"/>
      <use xlink:href="#ArialMT-6f" transform="translate(1546.898438 0)"/>
      <use xlink:href="#ArialMT-74" transform="translate(1602.513672 0)"/>
      <use xlink:href="#ArialMT-61" transform="translate(1630.296875 0)"/>
      <use xlink:href="#ArialMT-6c" transform="translate(1685.912109 0)"/>
      <use xlink:href="#ArialMT-20" transform="translate(1708.128906 0)"/>
      <use xlink:href="#ArialMT-57" transform="translate(1735.912109 0)"/>
      <use xlink:href="#ArialMT-6f" transform="translate(1828.546875 0)"/>
      <use xlink:href="#ArialMT-72" transform="translate(1884.162109 0)"/>
      <use xlink:href="#ArialMT-64" transform="translate(1917.462891 0)"/>
      <use xlink:href="#ArialMT-73" transform="translate(1973.078125 0)"/>
      <use xlink:href="#ArialMT-29" transform="translate(2023.078125 0)"/>
     </g>
    </g>
   </g>
   <g id="matplotlib.axis_2">
    <g id="ytick_1">
     <g id="text_7">
      <!-- 0 -->
      <g style="fill: #262626" transform="translate(40.666094 310.673672) scale(0.11 -0.11)">
       <use xlink:href="#ArialMT-30"/>
      </g>
     </g>
    </g>
    <g id="ytick_2">
     <g id="text_8">
      <!-- 500 -->
      <g style="fill: #262626" transform="translate(28.432031 267.936889) scale(0.11 -0.11)">
       <defs>
        <path id="ArialMT-35" d="M 266 1200 
L 856 1250 
Q 922 819 1161 601 
Q 1400 384 1738 384 
Q 2144 384 2425 690 
Q 2706 997 2706 1503 
Q 2706 1984 2436 2262 
Q 2166 2541 1728 2541 
Q 1456 2541 1237 2417 
Q 1019 2294 894 2097 
L 366 2166 
L 809 4519 
L 3088 4519 
L 3088 3981 
L 1259 3981 
L 1013 2750 
Q 1425 3038 1878 3038 
Q 2478 3038 2890 2622 
Q 3303 2206 3303 1553 
Q 3303 931 2941 478 
Q 2500 -78 1738 -78 
Q 1113 -78 717 272 
Q 322 622 266 1200 
z
" transform="scale(0.015625)"/>
       </defs>
       <use xlink:href="#ArialMT-35"/>
       <use xlink:href="#ArialMT-30" transform="translate(55.615234 0)"/>
       <use xlink:href="#ArialMT-30" transform="translate(111.230469 0)"/>
      </g>
     </g>
    </g>
    <g id="ytick_3">
     <g id="text_9">
      <!-- 1000 -->
      <g style="fill: #262626" transform="translate(22.315 225.200106) scale(0.11 -0.11)">
       <use xlink:href="#ArialMT-31"/>
       <use xlink:href="#ArialMT-30" transform="translate(55.615234 0)"/>
       <use xlink:href="#ArialMT-30" transform="translate(111.230469 0)"/>
       <use xlink:href="#ArialMT-30" transform="translate(166.845703 0)"/>
      </g>
     </g>
    </g>
    <g id="ytick_4">
     <g id="text_10">
      <!-- 1500 -->
      <g style="fill: #262626" transform="translate(22.315 182.463323) scale(0.11 -0.11)">
       <use xlink:href="#ArialMT-31"/>
       <use xlink:href="#ArialMT-35" transform="translate(55.615234 0)"/>
       <use xlink:href="#ArialMT-30" transform="translate(111.230469 0)"/>
       <use xlink:href="#ArialMT-30" transform="translate(166.845703 0)"/>
      </g>
     </g>
    </g>
    <g id="ytick_5">
     <g id="text_11">
      <!-- 2000 -->
      <g style="fill: #262626" transform="translate(22.315 139.72654) scale(0.11 -0.11)">
       <use xlink:href="#ArialMT-32"/>
       <use xlink:href="#ArialMT-30" transform="translate(55.615234 0)"/>
       <use xlink:href="#ArialMT-30" transform="translate(111.230469 0)"/>
       <use xlink:href="#ArialMT-30" transform="translate(166.845703 0)"/>
      </g>
     </g>
    </g>
    <g id="ytick_6">
     <g id="text_12">
      <!-- 2500 -->
      <g style="fill: #262626" transform="translate(22.315 96.989757) scale(0.11 -0.11)">
       <use xlink:href="#ArialMT-32"/>
       <use xlink:href="#ArialMT-35" transform="translate(55.615234 0)"/>
       <use xlink:href="#ArialMT-30" transform="translate(111.230469 0)"/>
       <use xlink:href="#ArialMT-30" transform="translate(166.845703 0)"/>
      </g>
     </g>
    </g>
    <g id="ytick_7">
     <g id="text_13">
      <!-- 3000 -->
      <g style="fill: #262626" transform="translate(22.315 54.252974) scale(0.11 -0.11)">
       <defs>
        <path id="ArialMT-33" d="M 269 1209 
L 831 1284 
Q 928 806 1161 595 
Q 1394 384 1728 384 
Q 2125 384 2398 659 
Q 2672 934 2672 1341 
Q 2672 1728 2419 1979 
Q 2166 2231 1775 2231 
Q 1616 2231 1378 2169 
L 1441 2663 
Q 1497 2656 1531 2656 
Q 1891 2656 2178 2843 
Q 2466 3031 2466 3422 
Q 2466 3731 2256 3934 
Q 2047 4138 1716 4138 
Q 1388 4138 1169 3931 
Q 950 3725 888 3313 
L 325 3413 
Q 428 3978 793 4289 
Q 1159 4600 1703 4600 
Q 2078 4600 2393 4439 
Q 2709 4278 2876 4000 
Q 3044 3722 3044 3409 
Q 3044 3113 2884 2869 
Q 2725 2625 2413 2481 
Q 2819 2388 3044 2092 
Q 3269 1797 3269 1353 
Q 3269 753 2831 336 
Q 2394 -81 1725 -81 
Q 1122 -81 723 278 
Q 325 638 269 1209 
z
" transform="scale(0.015625)"/>
       </defs>
       <use xlink:href="#ArialMT-33"/>
       <use xlink:href="#ArialMT-30" transform="translate(55.615234 0)"/>
       <use xlink:href="#ArialMT-30" transform="translate(111.230469 0)"/>
       <use xlink:href="#ArialMT-30" transform="translate(166.845703 0)"/>
      </g>
     </g>
    </g>
    <g id="text_14">
     <!-- Frequency -->
     <g style="fill: #262626" transform="translate(15.789375 192.608437) rotate(-90) scale(0.12 -0.12)">
      <defs>
       <path id="ArialMT-46" d="M 525 0 
L 525 4581 
L 3616 4581 
L 3616 4041 
L 1131 4041 
L 1131 2622 
L 3281 2622 
L 3281 2081 
L 1131 2081 
L 1131 0 
L 525 0 
z
" transform="scale(0.015625)"/>
      </defs>
      <use xlink:href="#ArialMT-46"/>
      <use xlink:href="#ArialMT-72" transform="translate(61.083984 0)"/>
      <use xlink:href="#ArialMT-65" transform="translate(94.384766 0)"/>
      <use xlink:href="#ArialMT-71" transform="translate(150 0)"/>
      <use xlink:href="#ArialMT-75" transform="translate(205.615234 0)"/>
      <use xlink:href="#ArialMT-65" transform="translate(261.230469 0)"/>
      <use xlink:href="#ArialMT-6e" transform="translate(316.845703 0)"/>
      <use xlink:href="#ArialMT-63" transform="translate(372.460938 0)"/>
      <use xlink:href="#ArialMT-79" transform="translate(422.460938 0)"/>
     </g>
    </g>
   </g>
   <g id="patch_3">
    <path d="M 92.160398 306.736875 
L 106.511307 306.736875 
L 106.511307 306.736875 
L 92.160398 306.736875 
z
" clip-path="url(#pbbf8990d4f)" style="fill: #fc8d62; fill-opacity: 0.5; stroke: #ffffff; stroke-linejoin: miter"/>
   </g>
   <g id="patch_4">
    <path d="M 106.511307 306.736875 
L 120.862216 306.736875 
L 120.862216 306.651401 
L 106.511307 306.651401 
z
" clip-path="url(#pbbf8990d4f)" style="fill: #fc8d62; fill-opacity: 0.5; stroke: #ffffff; stroke-linejoin: miter"/>
   </g>
   <g id="patch_5">
    <path d="M 120.862216 306.736875 
L 135.213125 306.736875 
L 135.213125 306.651401 
L 120.862216 306.651401 
z
" clip-path="url(#pbbf8990d4f)" style="fill: #fc8d62; fill-opacity: 0.5; stroke: #ffffff; stroke-linejoin: miter"/>
   </g>
   <g id="patch_6">
    <path d="M 135.213125 306.736875 
L 149.564034 306.736875 
L 149.564034 306.651401 
L 135.213125 306.651401 
z
" clip-path="url(#pbbf8990d4f)" style="fill: #fc8d62; fill-opacity: 0.5; stroke: #ffffff; stroke-linejoin: miter"/>
   </g>
   <g id="patch_7">
    <path d="M 149.564034 306.736875 
L 163.914943 306.736875 
L 163.914943 306.736875 
L 149.564034 306.736875 
z
" clip-path="url(#pbbf8990d4f)" style="fill: #fc8d62; fill-opacity: 0.5; stroke: #ffffff; stroke-linejoin: miter"/>
   </g>
   <g id="patch_8">
    <path d="M 163.914943 306.736875 
L 178.265852 306.736875 
L 178.265852 306.736875 
L 163.914943 306.736875 
z
" clip-path="url(#pbbf8990d4f)" style="fill: #fc8d62; fill-opacity: 0.5; stroke: #ffffff; stroke-linejoin: miter"/>
   </g>
   <g id="patch_9">
    <path d="M 178.265852 306.736875 
L 192.616761 306.736875 
L 192.616761 306.480454 
L 178.265852 306.480454 
z
" clip-path="url(#pbbf8990d4f)" style="fill: #fc8d62; fill-opacity: 0.5; stroke: #ffffff; stroke-linejoin: miter"/>
   </g>
   <g id="patch_10">
    <path d="M 192.616761 306.736875 
L 206.96767 306.736875 
L 206.96767 306.13856 
L 192.616761 306.13856 
z
" clip-path="url(#pbbf8990d4f)" style="fill: #fc8d62; fill-opacity: 0.5; stroke: #ffffff; stroke-linejoin: miter"/>
   </g>
   <g id="patch_11">
    <path d="M 206.96767 306.736875 
L 221.31858 306.736875 
L 221.31858 305.796666 
L 206.96767 305.796666 
z
" clip-path="url(#pbbf8990d4f)" style="fill: #fc8d62; fill-opacity: 0.5; stroke: #ffffff; stroke-linejoin: miter"/>
   </g>
   <g id="patch_12">
    <path d="M 221.31858 306.736875 
L 235.669489 306.736875 
L 235.669489 305.540245 
L 221.31858 305.540245 
z
" clip-path="url(#pbbf8990d4f)" style="fill: #fc8d62; fill-opacity: 0.5; stroke: #ffffff; stroke-linejoin: miter"/>
   </g>
   <g id="patch_13">
    <path d="M 235.669489 306.736875 
L 250.020398 306.736875 
L 250.020398 304.856457 
L 235.669489 304.856457 
z
" clip-path="url(#pbbf8990d4f)" style="fill: #fc8d62; fill-opacity: 0.5; stroke: #ffffff; stroke-linejoin: miter"/>
   </g>
   <g id="patch_14">
    <path d="M 250.020398 306.736875 
L 264.371307 306.736875 
L 264.371307 303.7453 
L 250.020398 303.7453 
z
" clip-path="url(#pbbf8990d4f)" style="fill: #fc8d62; fill-opacity: 0.5; stroke: #ffffff; stroke-linejoin: miter"/>
   </g>
   <g id="patch_15">
    <path d="M 264.371307 306.736875 
L 278.722216 306.736875 
L 278.722216 301.266567 
L 264.371307 301.266567 
z
" clip-path="url(#pbbf8990d4f)" style="fill: #fc8d62; fill-opacity: 0.5; stroke: #ffffff; stroke-linejoin: miter"/>
   </g>
   <g id="patch_16">
    <path d="M 278.722216 306.736875 
L 293.073125 306.736875 
L 293.073125 300.582778 
L 278.722216 300.582778 
z
" clip-path="url(#pbbf8990d4f)" style="fill: #fc8d62; fill-opacity: 0.5; stroke: #ffffff; stroke-linejoin: miter"/>
   </g>
   <g id="patch_17">
    <path d="M 293.073125 306.736875 
L 307.424034 306.736875 
L 307.424034 295.283417 
L 293.073125 295.283417 
z
" clip-path="url(#pbbf8990d4f)" style="fill: #fc8d62; fill-opacity: 0.5; stroke: #ffffff; stroke-linejoin: miter"/>
   </g>
   <g id="patch_18">
    <path d="M 307.424034 306.736875 
L 321.774943 306.736875 
L 321.774943 290.240477 
L 307.424034 290.240477 
z
" clip-path="url(#pbbf8990d4f)" style="fill: #fc8d62; fill-opacity: 0.5; stroke: #ffffff; stroke-linejoin: miter"/>
   </g>
   <g id="patch_19">
    <path d="M 321.774943 306.736875 
L 336.125852 306.736875 
L 336.125852 271.692713 
L 321.774943 271.692713 
z
" clip-path="url(#pbbf8990d4f)" style="fill: #fc8d62; fill-opacity: 0.5; stroke: #ffffff; stroke-linejoin: miter"/>
   </g>
   <g id="patch_20">
    <path d="M 336.125852 306.736875 
L 350.476761 306.736875 
L 350.476761 239.041811 
L 336.125852 239.041811 
z
" clip-path="url(#pbbf8990d4f)" style="fill: #fc8d62; fill-opacity: 0.5; stroke: #ffffff; stroke-linejoin: miter"/>
   </g>
   <g id="patch_21">
    <path d="M 350.476761 306.736875 
L 364.82767 306.736875 
L 364.82767 204.339543 
L 350.476761 204.339543 
z
" clip-path="url(#pbbf8990d4f)" style="fill: #fc8d62; fill-opacity: 0.5; stroke: #ffffff; stroke-linejoin: miter"/>
   </g>
   <g id="patch_22">
    <path d="M 364.82767 306.736875 
L 379.17858 306.736875 
L 379.17858 165.790965 
L 364.82767 165.790965 
z
" clip-path="url(#pbbf8990d4f)" style="fill: #fc8d62; fill-opacity: 0.5; stroke: #ffffff; stroke-linejoin: miter"/>
   </g>
   <g id="patch_23">
    <path d="M 379.17858 306.736875 
L 393.529489 306.736875 
L 393.529489 126.815019 
L 379.17858 126.815019 
z
" clip-path="url(#pbbf8990d4f)" style="fill: #fc8d62; fill-opacity: 0.5; stroke: #ffffff; stroke-linejoin: miter"/>
   </g>
   <g id="patch_24">
    <path d="M 393.529489 306.736875 
L 407.880398 306.736875 
L 407.880398 110.318621 
L 393.529489 110.318621 
z
" clip-path="url(#pbbf8990d4f)" style="fill: #fc8d62; fill-opacity: 0.5; stroke: #ffffff; stroke-linejoin: miter"/>
   </g>
   <g id="patch_25">
    <path d="M 407.880398 306.736875 
L 422.231307 306.736875 
L 422.231307 73.906882 
L 407.880398 73.906882 
z
" clip-path="url(#pbbf8990d4f)" style="fill: #fc8d62; fill-opacity: 0.5; stroke: #ffffff; stroke-linejoin: miter"/>
   </g>
   <g id="patch_26">
    <path d="M 422.231307 306.736875 
L 436.582216 306.736875 
L 436.582216 72.624778 
L 422.231307 72.624778 
z
" clip-path="url(#pbbf8990d4f)" style="fill: #fc8d62; fill-opacity: 0.5; stroke: #ffffff; stroke-linejoin: miter"/>
   </g>
   <g id="patch_27">
    <path d="M 436.582216 306.736875 
L 450.933125 306.736875 
L 450.933125 55.444592 
L 436.582216 55.444592 
z
" clip-path="url(#pbbf8990d4f)" style="fill: #fc8d62; fill-opacity: 0.5; stroke: #ffffff; stroke-linejoin: miter"/>
   </g>
   <g id="patch_28">
    <path d="M 450.933125 306.736875 
L 465.284034 306.736875 
L 465.284034 66.385208 
L 450.933125 66.385208 
z
" clip-path="url(#pbbf8990d4f)" style="fill: #fc8d62; fill-opacity: 0.5; stroke: #ffffff; stroke-linejoin: miter"/>
   </g>
   <g id="patch_29">
    <path d="M 465.284034 306.736875 
L 479.634943 306.736875 
L 479.634943 80.915714 
L 465.284034 80.915714 
z
" clip-path="url(#pbbf8990d4f)" style="fill: #fc8d62; fill-opacity: 0.5; stroke: #ffffff; stroke-linejoin: miter"/>
   </g>
   <g id="patch_30">
    <path d="M 479.634943 306.736875 
L 493.985852 306.736875 
L 493.985852 107.925361 
L 479.634943 107.925361 
z
" clip-path="url(#pbbf8990d4f)" style="fill: #fc8d62; fill-opacity: 0.5; stroke: #ffffff; stroke-linejoin: miter"/>
   </g>
   <g id="patch_31">
    <path d="M 493.985852 306.736875 
L 508.336761 306.736875 
L 508.336761 152.798983 
L 493.985852 152.798983 
z
" clip-path="url(#pbbf8990d4f)" style="fill: #fc8d62; fill-opacity: 0.5; stroke: #ffffff; stroke-linejoin: miter"/>
   </g>
   <g id="patch_32">
    <path d="M 508.336761 306.736875 
L 522.68767 306.736875 
L 522.68767 189.809037 
L 508.336761 189.809037 
z
" clip-path="url(#pbbf8990d4f)" style="fill: #fc8d62; fill-opacity: 0.5; stroke: #ffffff; stroke-linejoin: miter"/>
   </g>
   <g id="patch_33">
    <path d="M 522.68767 306.736875 
L 537.03858 306.736875 
L 537.03858 208.356801 
L 522.68767 208.356801 
z
" clip-path="url(#pbbf8990d4f)" style="fill: #fc8d62; fill-opacity: 0.5; stroke: #ffffff; stroke-linejoin: miter"/>
   </g>
   <g id="patch_34">
    <path d="M 537.03858 306.736875 
L 551.389489 306.736875 
L 551.389489 227.331932 
L 537.03858 227.331932 
z
" clip-path="url(#pbbf8990d4f)" style="fill: #fc8d62; fill-opacity: 0.5; stroke: #ffffff; stroke-linejoin: miter"/>
   </g>
   <g id="patch_35">
    <path d="M 551.389489 306.736875 
L 565.740398 306.736875 
L 565.740398 231.007296 
L 551.389489 231.007296 
z
" clip-path="url(#pbbf8990d4f)" style="fill: #fc8d62; fill-opacity: 0.5; stroke: #ffffff; stroke-linejoin: miter"/>
   </g>
   <g id="patch_36">
    <path d="M 565.740398 306.736875 
L 580.091307 306.736875 
L 580.091307 238.699917 
L 565.740398 238.699917 
z
" clip-path="url(#pbbf8990d4f)" style="fill: #fc8d62; fill-opacity: 0.5; stroke: #ffffff; stroke-linejoin: miter"/>
   </g>
   <g id="patch_37">
    <path d="M 580.091307 306.736875 
L 594.442216 306.736875 
L 594.442216 247.1618 
L 580.091307 247.1618 
z
" clip-path="url(#pbbf8990d4f)" style="fill: #fc8d62; fill-opacity: 0.5; stroke: #ffffff; stroke-linejoin: miter"/>
   </g>
   <g id="patch_38">
    <path d="M 594.442216 306.736875 
L 608.793125 306.736875 
L 608.793125 256.563892 
L 594.442216 256.563892 
z
" clip-path="url(#pbbf8990d4f)" style="fill: #fc8d62; fill-opacity: 0.5; stroke: #ffffff; stroke-linejoin: miter"/>
   </g>
   <g id="patch_39">
    <path d="M 608.793125 306.736875 
L 623.144034 306.736875 
L 623.144034 264.42746 
L 608.793125 264.42746 
z
" clip-path="url(#pbbf8990d4f)" style="fill: #fc8d62; fill-opacity: 0.5; stroke: #ffffff; stroke-linejoin: miter"/>
   </g>
   <g id="patch_40">
    <path d="M 623.144034 306.736875 
L 637.494943 306.736875 
L 637.494943 276.992074 
L 623.144034 276.992074 
z
" clip-path="url(#pbbf8990d4f)" style="fill: #fc8d62; fill-opacity: 0.5; stroke: #ffffff; stroke-linejoin: miter"/>
   </g>
   <g id="patch_41">
    <path d="M 637.494943 306.736875 
L 651.845852 306.736875 
L 651.845852 285.881325 
L 637.494943 285.881325 
z
" clip-path="url(#pbbf8990d4f)" style="fill: #fc8d62; fill-opacity: 0.5; stroke: #ffffff; stroke-linejoin: miter"/>
   </g>
   <g id="patch_42">
    <path d="M 651.845852 306.736875 
L 666.196761 306.736875 
L 666.196761 294.856049 
L 651.845852 294.856049 
z
" clip-path="url(#pbbf8990d4f)" style="fill: #fc8d62; fill-opacity: 0.5; stroke: #ffffff; stroke-linejoin: miter"/>
   </g>
   <g id="patch_43">
    <path d="M 666.196761 306.736875 
L 680.54767 306.736875 
L 680.54767 299.89899 
L 666.196761 299.89899 
z
" clip-path="url(#pbbf8990d4f)" style="fill: #fc8d62; fill-opacity: 0.5; stroke: #ffffff; stroke-linejoin: miter"/>
   </g>
   <g id="patch_44">
    <path d="M 680.54767 306.736875 
L 694.89858 306.736875 
L 694.89858 302.035829 
L 680.54767 302.035829 
z
" clip-path="url(#pbbf8990d4f)" style="fill: #fc8d62; fill-opacity: 0.5; stroke: #ffffff; stroke-linejoin: miter"/>
   </g>
   <g id="patch_45">
    <path d="M 694.89858 306.736875 
L 709.249489 306.736875 
L 709.249489 304.429089 
L 694.89858 304.429089 
z
" clip-path="url(#pbbf8990d4f)" style="fill: #fc8d62; fill-opacity: 0.5; stroke: #ffffff; stroke-linejoin: miter"/>
   </g>
   <g id="patch_46">
    <path d="M 709.249489 306.736875 
L 723.600398 306.736875 
L 723.600398 305.540245 
L 709.249489 305.540245 
z
" clip-path="url(#pbbf8990d4f)" style="fill: #fc8d62; fill-opacity: 0.5; stroke: #ffffff; stroke-linejoin: miter"/>
   </g>
   <g id="patch_47">
    <path d="M 723.600398 306.736875 
L 737.951307 306.736875 
L 737.951307 304.172668 
L 723.600398 304.172668 
z
" clip-path="url(#pbbf8990d4f)" style="fill: #fc8d62; fill-opacity: 0.5; stroke: #ffffff; stroke-linejoin: miter"/>
   </g>
   <g id="patch_48">
    <path d="M 737.951307 306.736875 
L 752.302216 306.736875 
L 752.302216 303.916247 
L 737.951307 303.916247 
z
" clip-path="url(#pbbf8990d4f)" style="fill: #fc8d62; fill-opacity: 0.5; stroke: #ffffff; stroke-linejoin: miter"/>
   </g>
   <g id="patch_49">
    <path d="M 752.302216 306.736875 
L 766.653125 306.736875 
L 766.653125 305.027404 
L 752.302216 305.027404 
z
" clip-path="url(#pbbf8990d4f)" style="fill: #fc8d62; fill-opacity: 0.5; stroke: #ffffff; stroke-linejoin: miter"/>
   </g>
   <g id="patch_50">
    <path d="M 766.653125 306.736875 
L 781.004034 306.736875 
L 781.004034 302.206776 
L 766.653125 302.206776 
z
" clip-path="url(#pbbf8990d4f)" style="fill: #fc8d62; fill-opacity: 0.5; stroke: #ffffff; stroke-linejoin: miter"/>
   </g>
   <g id="patch_51">
    <path d="M 781.004034 306.736875 
L 795.354943 306.736875 
L 795.354943 306.224034 
L 781.004034 306.224034 
z
" clip-path="url(#pbbf8990d4f)" style="fill: #fc8d62; fill-opacity: 0.5; stroke: #ffffff; stroke-linejoin: miter"/>
   </g>
   <g id="patch_52">
    <path d="M 795.354943 306.736875 
L 809.705852 306.736875 
L 809.705852 300.240884 
L 795.354943 300.240884 
z
" clip-path="url(#pbbf8990d4f)" style="fill: #fc8d62; fill-opacity: 0.5; stroke: #ffffff; stroke-linejoin: miter"/>
   </g>
   <g id="patch_53">
    <path d="M 92.160398 306.736875 
L 106.511307 306.736875 
L 106.511307 306.565928 
L 92.160398 306.565928 
z
" clip-path="url(#pbbf8990d4f)" style="fill: #66c2a5; fill-opacity: 0.5; stroke: #ffffff; stroke-linejoin: miter"/>
   </g>
   <g id="patch_54">
    <path d="M 106.511307 306.736875 
L 120.862216 306.736875 
L 120.862216 306.736875 
L 106.511307 306.736875 
z
" clip-path="url(#pbbf8990d4f)" style="fill: #66c2a5; fill-opacity: 0.5; stroke: #ffffff; stroke-linejoin: miter"/>
   </g>
   <g id="patch_55">
    <path d="M 120.862216 306.736875 
L 135.213125 306.736875 
L 135.213125 306.651401 
L 120.862216 306.651401 
z
" clip-path="url(#pbbf8990d4f)" style="fill: #66c2a5; fill-opacity: 0.5; stroke: #ffffff; stroke-linejoin: miter"/>
   </g>
   <g id="patch_56">
    <path d="M 135.213125 306.736875 
L 149.564034 306.736875 
L 149.564034 306.736875 
L 135.213125 306.736875 
z
" clip-path="url(#pbbf8990d4f)" style="fill: #66c2a5; fill-opacity: 0.5; stroke: #ffffff; stroke-linejoin: miter"/>
   </g>
   <g id="patch_57">
    <path d="M 149.564034 306.736875 
L 163.914943 306.736875 
L 163.914943 306.309507 
L 149.564034 306.309507 
z
" clip-path="url(#pbbf8990d4f)" style="fill: #66c2a5; fill-opacity: 0.5; stroke: #ffffff; stroke-linejoin: miter"/>
   </g>
   <g id="patch_58">
    <path d="M 163.914943 306.736875 
L 178.265852 306.736875 
L 178.265852 306.309507 
L 163.914943 306.309507 
z
" clip-path="url(#pbbf8990d4f)" style="fill: #66c2a5; fill-opacity: 0.5; stroke: #ffffff; stroke-linejoin: miter"/>
   </g>
   <g id="patch_59">
    <path d="M 178.265852 306.736875 
L 192.616761 306.736875 
L 192.616761 305.796666 
L 178.265852 305.796666 
z
" clip-path="url(#pbbf8990d4f)" style="fill: #66c2a5; fill-opacity: 0.5; stroke: #ffffff; stroke-linejoin: miter"/>
   </g>
   <g id="patch_60">
    <path d="M 192.616761 306.736875 
L 206.96767 306.736875 
L 206.96767 305.625719 
L 192.616761 305.625719 
z
" clip-path="url(#pbbf8990d4f)" style="fill: #66c2a5; fill-opacity: 0.5; stroke: #ffffff; stroke-linejoin: miter"/>
   </g>
   <g id="patch_61">
    <path d="M 206.96767 306.736875 
L 221.31858 306.736875 
L 221.31858 305.711192 
L 206.96767 305.711192 
z
" clip-path="url(#pbbf8990d4f)" style="fill: #66c2a5; fill-opacity: 0.5; stroke: #ffffff; stroke-linejoin: miter"/>
   </g>
   <g id="patch_62">
    <path d="M 221.31858 306.736875 
L 235.669489 306.736875 
L 235.669489 304.172668 
L 221.31858 304.172668 
z
" clip-path="url(#pbbf8990d4f)" style="fill: #66c2a5; fill-opacity: 0.5; stroke: #ffffff; stroke-linejoin: miter"/>
   </g>
   <g id="patch_63">
    <path d="M 235.669489 306.736875 
L 250.020398 306.736875 
L 250.020398 303.146985 
L 235.669489 303.146985 
z
" clip-path="url(#pbbf8990d4f)" style="fill: #66c2a5; fill-opacity: 0.5; stroke: #ffffff; stroke-linejoin: miter"/>
   </g>
   <g id="patch_64">
    <path d="M 250.020398 306.736875 
L 264.371307 306.736875 
L 264.371307 300.924673 
L 250.020398 300.924673 
z
" clip-path="url(#pbbf8990d4f)" style="fill: #66c2a5; fill-opacity: 0.5; stroke: #ffffff; stroke-linejoin: miter"/>
   </g>
   <g id="patch_65">
    <path d="M 264.371307 306.736875 
L 278.722216 306.736875 
L 278.722216 297.50573 
L 264.371307 297.50573 
z
" clip-path="url(#pbbf8990d4f)" style="fill: #66c2a5; fill-opacity: 0.5; stroke: #ffffff; stroke-linejoin: miter"/>
   </g>
   <g id="patch_66">
    <path d="M 278.722216 306.736875 
L 293.073125 306.736875 
L 293.073125 295.026996 
L 278.722216 295.026996 
z
" clip-path="url(#pbbf8990d4f)" style="fill: #66c2a5; fill-opacity: 0.5; stroke: #ffffff; stroke-linejoin: miter"/>
   </g>
   <g id="patch_67">
    <path d="M 293.073125 306.736875 
L 307.424034 306.736875 
L 307.424034 286.907008 
L 293.073125 286.907008 
z
" clip-path="url(#pbbf8990d4f)" style="fill: #66c2a5; fill-opacity: 0.5; stroke: #ffffff; stroke-linejoin: miter"/>
   </g>
   <g id="patch_68">
    <path d="M 307.424034 306.736875 
L 321.774943 306.736875 
L 321.774943 280.154596 
L 307.424034 280.154596 
z
" clip-path="url(#pbbf8990d4f)" style="fill: #66c2a5; fill-opacity: 0.5; stroke: #ffffff; stroke-linejoin: miter"/>
   </g>
   <g id="patch_69">
    <path d="M 321.774943 306.736875 
L 336.125852 306.736875 
L 336.125852 269.641347 
L 321.774943 269.641347 
z
" clip-path="url(#pbbf8990d4f)" style="fill: #66c2a5; fill-opacity: 0.5; stroke: #ffffff; stroke-linejoin: miter"/>
   </g>
   <g id="patch_70">
    <path d="M 336.125852 306.736875 
L 350.476761 306.736875 
L 350.476761 257.333154 
L 336.125852 257.333154 
z
" clip-path="url(#pbbf8990d4f)" style="fill: #66c2a5; fill-opacity: 0.5; stroke: #ffffff; stroke-linejoin: miter"/>
   </g>
   <g id="patch_71">
    <path d="M 350.476761 306.736875 
L 364.82767 306.736875 
L 364.82767 232.460346 
L 350.476761 232.460346 
z
" clip-path="url(#pbbf8990d4f)" style="fill: #66c2a5; fill-opacity: 0.5; stroke: #ffffff; stroke-linejoin: miter"/>
   </g>
   <g id="patch_72">
    <path d="M 364.82767 306.736875 
L 379.17858 306.736875 
L 379.17858 212.8869 
L 364.82767 212.8869 
z
" clip-path="url(#pbbf8990d4f)" style="fill: #66c2a5; fill-opacity: 0.5; stroke: #ffffff; stroke-linejoin: miter"/>
   </g>
   <g id="patch_73">
    <path d="M 379.17858 306.736875 
L 393.529489 306.736875 
L 393.529489 168.697066 
L 379.17858 168.697066 
z
" clip-path="url(#pbbf8990d4f)" style="fill: #66c2a5; fill-opacity: 0.5; stroke: #ffffff; stroke-linejoin: miter"/>
   </g>
   <g id="patch_74">
    <path d="M 393.529489 306.736875 
L 407.880398 306.736875 
L 407.880398 128.011649 
L 393.529489 128.011649 
z
" clip-path="url(#pbbf8990d4f)" style="fill: #66c2a5; fill-opacity: 0.5; stroke: #ffffff; stroke-linejoin: miter"/>
   </g>
   <g id="patch_75">
    <path d="M 407.880398 306.736875 
L 422.231307 306.736875 
L 422.231307 89.035703 
L 407.880398 89.035703 
z
" clip-path="url(#pbbf8990d4f)" style="fill: #66c2a5; fill-opacity: 0.5; stroke: #ffffff; stroke-linejoin: miter"/>
   </g>
   <g id="patch_76">
    <path d="M 422.231307 306.736875 
L 436.582216 306.736875 
L 436.582216 54.675329 
L 422.231307 54.675329 
z
" clip-path="url(#pbbf8990d4f)" style="fill: #66c2a5; fill-opacity: 0.5; stroke: #ffffff; stroke-linejoin: miter"/>
   </g>
   <g id="patch_77">
    <path d="M 436.582216 306.736875 
L 450.933125 306.736875 
L 450.933125 44.931343 
L 436.582216 44.931343 
z
" clip-path="url(#pbbf8990d4f)" style="fill: #66c2a5; fill-opacity: 0.5; stroke: #ffffff; stroke-linejoin: miter"/>
   </g>
   <g id="patch_78">
    <path d="M 450.933125 306.736875 
L 465.284034 306.736875 
L 465.284034 35.358304 
L 450.933125 35.358304 
z
" clip-path="url(#pbbf8990d4f)" style="fill: #66c2a5; fill-opacity: 0.5; stroke: #ffffff; stroke-linejoin: miter"/>
   </g>
   <g id="patch_79">
    <path d="M 465.284034 306.736875 
L 479.634943 306.736875 
L 479.634943 52.53849 
L 465.284034 52.53849 
z
" clip-path="url(#pbbf8990d4f)" style="fill: #66c2a5; fill-opacity: 0.5; stroke: #ffffff; stroke-linejoin: miter"/>
   </g>
   <g id="patch_80">
    <path d="M 479.634943 306.736875 
L 493.985852 306.736875 
L 493.985852 94.591485 
L 479.634943 94.591485 
z
" clip-path="url(#pbbf8990d4f)" style="fill: #66c2a5; fill-opacity: 0.5; stroke: #ffffff; stroke-linejoin: miter"/>
   </g>
   <g id="patch_81">
    <path d="M 493.985852 306.736875 
L 508.336761 306.736875 
L 508.336761 139.721527 
L 493.985852 139.721527 
z
" clip-path="url(#pbbf8990d4f)" style="fill: #66c2a5; fill-opacity: 0.5; stroke: #ffffff; stroke-linejoin: miter"/>
   </g>
   <g id="patch_82">
    <path d="M 508.336761 306.736875 
L 522.68767 306.736875 
L 522.68767 178.099158 
L 508.336761 178.099158 
z
" clip-path="url(#pbbf8990d4f)" style="fill: #66c2a5; fill-opacity: 0.5; stroke: #ffffff; stroke-linejoin: miter"/>
   </g>
   <g id="patch_83">
    <path d="M 522.68767 306.736875 
L 537.03858 306.736875 
L 537.03858 197.330711 
L 522.68767 197.330711 
z
" clip-path="url(#pbbf8990d4f)" style="fill: #66c2a5; fill-opacity: 0.5; stroke: #ffffff; stroke-linejoin: miter"/>
   </g>
   <g id="patch_84">
    <path d="M 537.03858 306.736875 
L 551.389489 306.736875 
L 551.389489 225.36604 
L 537.03858 225.36604 
z
" clip-path="url(#pbbf8990d4f)" style="fill: #66c2a5; fill-opacity: 0.5; stroke: #ffffff; stroke-linejoin: miter"/>
   </g>
   <g id="patch_85">
    <path d="M 551.389489 306.736875 
L 565.740398 306.736875 
L 565.740398 238.272549 
L 551.389489 238.272549 
z
" clip-path="url(#pbbf8990d4f)" style="fill: #66c2a5; fill-opacity: 0.5; stroke: #ffffff; stroke-linejoin: miter"/>
   </g>
   <g id="patch_86">
    <path d="M 565.740398 306.736875 
L 580.091307 306.736875 
L 580.091307 251.520951 
L 565.740398 251.520951 
z
" clip-path="url(#pbbf8990d4f)" style="fill: #66c2a5; fill-opacity: 0.5; stroke: #ffffff; stroke-linejoin: miter"/>
   </g>
   <g id="patch_87">
    <path d="M 580.091307 306.736875 
L 594.442216 306.736875 
L 594.442216 258.615257 
L 580.091307 258.615257 
z
" clip-path="url(#pbbf8990d4f)" style="fill: #66c2a5; fill-opacity: 0.5; stroke: #ffffff; stroke-linejoin: miter"/>
   </g>
   <g id="patch_88">
    <path d="M 594.442216 306.736875 
L 608.793125 306.736875 
L 608.793125 267.162614 
L 594.442216 267.162614 
z
" clip-path="url(#pbbf8990d4f)" style="fill: #66c2a5; fill-opacity: 0.5; stroke: #ffffff; stroke-linejoin: miter"/>
   </g>
   <g id="patch_89">
    <path d="M 608.793125 306.736875 
L 623.144034 306.736875 
L 623.144034 277.504915 
L 608.793125 277.504915 
z
" clip-path="url(#pbbf8990d4f)" style="fill: #66c2a5; fill-opacity: 0.5; stroke: #ffffff; stroke-linejoin: miter"/>
   </g>
   <g id="patch_90">
    <path d="M 623.144034 306.736875 
L 637.494943 306.736875 
L 637.494943 279.04344 
L 623.144034 279.04344 
z
" clip-path="url(#pbbf8990d4f)" style="fill: #66c2a5; fill-opacity: 0.5; stroke: #ffffff; stroke-linejoin: miter"/>
   </g>
   <g id="patch_91">
    <path d="M 637.494943 306.736875 
L 651.845852 306.736875 
L 651.845852 282.718803 
L 637.494943 282.718803 
z
" clip-path="url(#pbbf8990d4f)" style="fill: #66c2a5; fill-opacity: 0.5; stroke: #ffffff; stroke-linejoin: miter"/>
   </g>
   <g id="patch_92">
    <path d="M 651.845852 306.736875 
L 666.196761 306.736875 
L 666.196761 285.197536 
L 651.845852 285.197536 
z
" clip-path="url(#pbbf8990d4f)" style="fill: #66c2a5; fill-opacity: 0.5; stroke: #ffffff; stroke-linejoin: miter"/>
   </g>
   <g id="patch_93">
    <path d="M 666.196761 306.736875 
L 680.54767 306.736875 
L 680.54767 287.077955 
L 666.196761 287.077955 
z
" clip-path="url(#pbbf8990d4f)" style="fill: #66c2a5; fill-opacity: 0.5; stroke: #ffffff; stroke-linejoin: miter"/>
   </g>
   <g id="patch_94">
    <path d="M 680.54767 306.736875 
L 694.89858 306.736875 
L 694.89858 287.761743 
L 680.54767 287.761743 
z
" clip-path="url(#pbbf8990d4f)" style="fill: #66c2a5; fill-opacity: 0.5; stroke: #ffffff; stroke-linejoin: miter"/>
   </g>
   <g id="patch_95">
    <path d="M 694.89858 306.736875 
L 709.249489 306.736875 
L 709.249489 289.984056 
L 694.89858 289.984056 
z
" clip-path="url(#pbbf8990d4f)" style="fill: #66c2a5; fill-opacity: 0.5; stroke: #ffffff; stroke-linejoin: miter"/>
   </g>
   <g id="patch_96">
    <path d="M 709.249489 306.736875 
L 723.600398 306.736875 
L 723.600398 289.385741 
L 709.249489 289.385741 
z
" clip-path="url(#pbbf8990d4f)" style="fill: #66c2a5; fill-opacity: 0.5; stroke: #ffffff; stroke-linejoin: miter"/>
   </g>
   <g id="patch_97">
    <path d="M 723.600398 306.736875 
L 737.951307 306.736875 
L 737.951307 294.856049 
L 723.600398 294.856049 
z
" clip-path="url(#pbbf8990d4f)" style="fill: #66c2a5; fill-opacity: 0.5; stroke: #ffffff; stroke-linejoin: miter"/>
   </g>
   <g id="patch_98">
    <path d="M 737.951307 306.736875 
L 752.302216 306.736875 
L 752.302216 292.548263 
L 737.951307 292.548263 
z
" clip-path="url(#pbbf8990d4f)" style="fill: #66c2a5; fill-opacity: 0.5; stroke: #ffffff; stroke-linejoin: miter"/>
   </g>
   <g id="patch_99">
    <path d="M 752.302216 306.736875 
L 766.653125 306.736875 
L 766.653125 291.949948 
L 752.302216 291.949948 
z
" clip-path="url(#pbbf8990d4f)" style="fill: #66c2a5; fill-opacity: 0.5; stroke: #ffffff; stroke-linejoin: miter"/>
   </g>
   <g id="patch_100">
    <path d="M 766.653125 306.736875 
L 781.004034 306.736875 
L 781.004034 298.189518 
L 766.653125 298.189518 
z
" clip-path="url(#pbbf8990d4f)" style="fill: #66c2a5; fill-opacity: 0.5; stroke: #ffffff; stroke-linejoin: miter"/>
   </g>
   <g id="patch_101">
    <path d="M 781.004034 306.736875 
L 795.354943 306.736875 
L 795.354943 300.839199 
L 781.004034 300.839199 
z
" clip-path="url(#pbbf8990d4f)" style="fill: #66c2a5; fill-opacity: 0.5; stroke: #ffffff; stroke-linejoin: miter"/>
   </g>
   <g id="patch_102">
    <path d="M 795.354943 306.736875 
L 809.705852 306.736875 
L 809.705852 238.699917 
L 795.354943 238.699917 
z
" clip-path="url(#pbbf8990d4f)" style="fill: #66c2a5; fill-opacity: 0.5; stroke: #ffffff; stroke-linejoin: miter"/>
   </g>
   <g id="line2d_1">
    <path d="M 92.160398 306.733435 
L 182.304299 306.537965 
L 225.573372 305.519242 
L 247.207908 304.440928 
L 254.41942 303.744951 
L 268.842444 302.003882 
L 279.659712 300.904226 
L 283.265469 300.362616 
L 286.871225 299.645651 
L 290.476981 298.741362 
L 294.082737 297.662799 
L 297.688493 296.430672 
L 301.294249 295.047422 
L 304.900005 293.469833 
L 308.505761 291.595525 
L 312.111517 289.276502 
L 315.717273 286.355556 
L 319.323029 282.704638 
L 322.928785 278.246605 
L 326.534541 272.959496 
L 330.140297 266.874002 
L 333.746053 260.068602 
L 337.351809 252.65544 
L 340.957565 244.751263 
L 344.563321 236.442452 
L 348.169077 227.765952 
L 351.774834 218.724244 
L 358.986346 199.655485 
L 369.803614 170.404223 
L 373.40937 161.067384 
L 377.015126 152.145304 
L 380.620882 143.777637 
L 384.226638 136.081647 
L 387.832394 129.062168 
L 395.043906 116.214428 
L 398.649662 109.76121 
L 405.861174 96.33405 
L 409.46693 89.963124 
L 413.072686 84.398005 
L 416.678442 79.856462 
L 420.284199 76.218862 
L 423.889955 73.115959 
L 431.101467 67.224404 
L 434.707223 64.429606 
L 438.312979 62.12868 
L 441.918735 60.673982 
L 445.524491 60.28585 
L 449.130247 61.011903 
L 452.736003 62.758492 
L 456.341759 65.352782 
L 459.947515 68.618311 
L 463.553271 72.446993 
L 467.159027 76.828337 
L 470.764783 81.811137 
L 474.370539 87.437726 
L 477.976295 93.727957 
L 481.582051 100.728067 
L 485.187808 108.538272 
L 488.793564 117.234276 
L 492.39932 126.727677 
L 503.216588 156.562153 
L 506.822344 165.896397 
L 510.4281 174.687274 
L 514.033856 182.834554 
L 517.639612 190.188617 
L 521.245368 196.622782 
L 524.851124 202.137514 
L 528.45688 206.893877 
L 532.062636 211.137956 
L 535.668392 215.069475 
L 539.274148 218.752942 
L 542.879904 222.133333 
L 546.48566 225.131932 
L 550.091416 227.737396 
L 553.697173 230.023389 
L 557.302929 232.095598 
L 564.514441 235.843754 
L 571.725953 239.128203 
L 582.543221 243.737872 
L 586.148977 245.513242 
L 589.754733 247.575142 
L 593.360489 249.954588 
L 607.783513 260.30025 
L 614.995025 265.018177 
L 618.600781 267.535027 
L 633.023806 278.09455 
L 640.235318 282.948694 
L 647.44683 287.590375 
L 651.052586 289.750432 
L 654.658342 291.760781 
L 658.264098 293.612667 
L 661.869854 295.298122 
L 665.47561 296.799835 
L 669.081366 298.09948 
L 672.687122 299.193964 
L 676.292878 300.104322 
L 683.50439 301.541666 
L 690.715903 302.721507 
L 697.927415 303.713535 
L 705.138927 304.431677 
L 712.350439 304.830945 
L 719.561951 304.863497 
L 730.379219 304.409554 
L 737.590731 304.192774 
L 744.802243 304.23973 
L 755.619511 304.409302 
L 762.831024 304.101421 
L 770.042536 303.64185 
L 773.648292 303.613599 
L 777.254048 303.819146 
L 788.071316 305.095686 
L 791.677072 305.221412 
L 795.282828 304.992121 
L 798.888584 304.435106 
L 802.49434 303.721133 
L 806.100096 303.122417 
L 809.705852 302.898179 
L 809.705852 302.898179 
" clip-path="url(#pbbf8990d4f)" style="fill: none; stroke: #fc8d62; stroke-width: 1.5; stroke-linecap: round"/>
   </g>
   <g id="line2d_2">
    <path d="M 92.160398 306.674754 
L 153.458251 306.484401 
L 189.515811 305.847089 
L 207.544591 305.451793 
L 218.36186 305.018647 
L 229.179128 304.327866 
L 236.39064 303.675338 
L 243.602152 302.807288 
L 250.813664 301.708722 
L 258.025176 300.411189 
L 265.236688 298.947366 
L 272.4482 297.29687 
L 279.659712 295.37519 
L 283.265469 294.273994 
L 286.871225 293.054508 
L 290.476981 291.698108 
L 294.082737 290.189728 
L 297.688493 288.52044 
L 301.294249 286.687931 
L 304.900005 284.695243 
L 308.505761 282.549466 
L 315.717273 277.84568 
L 322.928785 272.687328 
L 330.140297 267.072525 
L 333.746053 263.994764 
L 337.351809 260.628147 
L 340.957565 256.876629 
L 344.563321 252.66248 
L 348.169077 247.950251 
L 351.774834 242.75427 
L 355.38059 237.121838 
L 358.986346 231.098055 
L 362.592102 224.690871 
L 366.197858 217.856896 
L 369.803614 210.517028 
L 373.40937 202.593723 
L 377.015126 194.050289 
L 380.620882 184.914008 
L 384.226638 175.276107 
L 391.43815 155.064381 
L 398.649662 134.619022 
L 405.861174 114.863588 
L 409.46693 105.414102 
L 413.072686 96.322622 
L 416.678442 87.664861 
L 420.284199 79.541859 
L 423.889955 72.065751 
L 427.495711 65.333142 
L 431.101467 59.402347 
L 434.707223 54.290742 
L 438.312979 49.996806 
L 441.918735 46.53493 
L 445.524491 43.961329 
L 449.130247 42.374436 
L 452.736003 41.889984 
L 456.341759 42.607286 
L 459.947515 44.586715 
L 463.553271 47.847262 
L 467.159027 52.37705 
L 470.764783 58.141657 
L 474.370539 65.080342 
L 477.976295 73.092779 
L 481.582051 82.027873 
L 485.187808 91.685034 
L 492.39932 112.216556 
L 499.610832 132.810632 
L 503.216588 142.645098 
L 506.822344 151.9912 
L 510.4281 160.769876 
L 514.033856 168.947855 
L 517.639612 176.537386 
L 521.245368 183.593086 
L 524.851124 190.201652 
L 528.45688 196.461446 
L 532.062636 202.454926 
L 535.668392 208.224067 
L 539.274148 213.761001 
L 542.879904 219.019942 
L 546.48566 223.945134 
L 550.091416 228.500767 
L 553.697173 232.688216 
L 557.302929 236.543758 
L 560.908685 240.120463 
L 564.514441 243.465169 
L 568.120197 246.602081 
L 571.725953 249.529974 
L 575.331709 252.233115 
L 578.937465 254.700033 
L 582.543221 256.941091 
L 589.754733 260.931976 
L 600.572001 266.680629 
L 611.389269 272.570114 
L 614.995025 274.331537 
L 618.600781 275.895557 
L 622.206538 277.247888 
L 625.812294 278.407415 
L 629.41805 279.411612 
L 636.629562 281.093049 
L 643.841074 282.456283 
L 654.658342 284.131626 
L 669.081366 286.192177 
L 676.292878 287.010028 
L 683.50439 287.617629 
L 697.927415 288.661119 
L 705.138927 289.425776 
L 712.350439 290.485108 
L 723.167707 292.256295 
L 726.773463 292.709423 
L 730.379219 293.024757 
L 733.984975 293.192152 
L 741.196487 293.180371 
L 748.407999 293.064598 
L 752.013755 293.125096 
L 755.619511 293.333196 
L 759.225268 293.716682 
L 762.831024 294.277267 
L 770.042536 295.775472 
L 773.648292 296.532648 
L 777.254048 297.081591 
L 780.859804 297.17518 
L 784.46556 296.509173 
L 788.071316 294.78591 
L 791.677072 291.837768 
L 795.282828 287.78126 
L 798.888584 283.125789 
L 802.49434 278.745138 
L 806.100096 275.666883 
L 809.705852 274.735273 
L 809.705852 274.735273 
" clip-path="url(#pbbf8990d4f)" style="fill: none; stroke: #66c2a5; stroke-width: 1.5; stroke-linecap: round"/>
   </g>
   <g id="patch_103">
    <path d="M 56.283125 306.736875 
L 56.283125 21.789375 
" style="fill: none; stroke: #cccccc; stroke-width: 1.25; stroke-linejoin: miter; stroke-linecap: square"/>
   </g>
   <g id="patch_104">
    <path d="M 845.583125 306.736875 
L 845.583125 21.789375 
" style="fill: none; stroke: #cccccc; stroke-width: 1.25; stroke-linejoin: miter; stroke-linecap: square"/>
   </g>
   <g id="patch_105">
    <path d="M 56.283125 306.736875 
L 845.583125 306.736875 
" style="fill: none; stroke: #cccccc; stroke-width: 1.25; stroke-linejoin: miter; stroke-linecap: square"/>
   </g>
   <g id="patch_106">
    <path d="M 56.283125 21.789375 
L 845.583125 21.789375 
" style="fill: none; stroke: #cccccc; stroke-width: 1.25; stroke-linejoin: miter; stroke-linecap: square"/>
   </g>
   <g id="text_15">
    <!-- Lexical Diversity Distribution in Real vs Fake News -->
    <g style="fill: #262626" transform="translate(316.228438 15.789375) scale(0.12 -0.12)">
     <defs>
      <path id="ArialMT-62" d="M 941 0 
L 419 0 
L 419 4581 
L 981 4581 
L 981 2947 
Q 1338 3394 1891 3394 
Q 2197 3394 2470 3270 
Q 2744 3147 2920 2923 
Q 3097 2700 3197 2384 
Q 3297 2069 3297 1709 
Q 3297 856 2875 390 
Q 2453 -75 1863 -75 
Q 1275 -75 941 416 
L 941 0 
z
M 934 1684 
Q 934 1088 1097 822 
Q 1363 388 1816 388 
Q 2184 388 2453 708 
Q 2722 1028 2722 1663 
Q 2722 2313 2464 2622 
Q 2206 2931 1841 2931 
Q 1472 2931 1203 2611 
Q 934 2291 934 1684 
z
" transform="scale(0.015625)"/>
      <path id="ArialMT-52" d="M 503 0 
L 503 4581 
L 2534 4581 
Q 3147 4581 3465 4457 
Q 3784 4334 3975 4021 
Q 4166 3709 4166 3331 
Q 4166 2844 3850 2509 
Q 3534 2175 2875 2084 
Q 3116 1969 3241 1856 
Q 3506 1613 3744 1247 
L 4541 0 
L 3778 0 
L 3172 953 
Q 2906 1366 2734 1584 
Q 2563 1803 2427 1890 
Q 2291 1978 2150 2013 
Q 2047 2034 1813 2034 
L 1109 2034 
L 1109 0 
L 503 0 
z
M 1109 2559 
L 2413 2559 
Q 2828 2559 3062 2645 
Q 3297 2731 3419 2920 
Q 3541 3109 3541 3331 
Q 3541 3656 3305 3865 
Q 3069 4075 2559 4075 
L 1109 4075 
L 1109 2559 
z
" transform="scale(0.015625)"/>
      <path id="ArialMT-6b" d="M 425 0 
L 425 4581 
L 988 4581 
L 988 1969 
L 2319 3319 
L 3047 3319 
L 1778 2088 
L 3175 0 
L 2481 0 
L 1384 1697 
L 988 1316 
L 988 0 
L 425 0 
z
" transform="scale(0.015625)"/>
      <path id="ArialMT-4e" d="M 488 0 
L 488 4581 
L 1109 4581 
L 3516 984 
L 3516 4581 
L 4097 4581 
L 4097 0 
L 3475 0 
L 1069 3600 
L 1069 0 
L 488 0 
z
" transform="scale(0.015625)"/>
      <path id="ArialMT-77" d="M 1034 0 
L 19 3319 
L 600 3319 
L 1128 1403 
L 1325 691 
Q 1338 744 1497 1375 
L 2025 3319 
L 2603 3319 
L 3100 1394 
L 3266 759 
L 3456 1400 
L 4025 3319 
L 4572 3319 
L 3534 0 
L 2950 0 
L 2422 1988 
L 2294 2553 
L 1622 0 
L 1034 0 
z
" transform="scale(0.015625)"/>
     </defs>
     <use xlink:href="#ArialMT-4c"/>
     <use xlink:href="#ArialMT-65" transform="translate(55.615234 0)"/>
     <use xlink:href="#ArialMT-78" transform="translate(111.230469 0)"/>
     <use xlink:href="#ArialMT-69" transform="translate(161.230469 0)"/>
     <use xlink:href="#ArialMT-63" transform="translate(183.447266 0)"/>
     <use xlink:href="#ArialMT-61" transform="translate(233.447266 0)"/>
     <use xlink:href="#ArialMT-6c" transform="translate(289.0625 0)"/>
     <use xlink:href="#ArialMT-20" transform="translate(311.279297 0)"/>
     <use xlink:href="#ArialMT-44" transform="translate(339.0625 0)"/>
     <use xlink:href="#ArialMT-69" transform="translate(411.279297 0)"/>
     <use xlink:href="#ArialMT-76" transform="translate(433.496094 0)"/>
     <use xlink:href="#ArialMT-65" transform="translate(483.496094 0)"/>
     <use xlink:href="#ArialMT-72" transform="translate(539.111328 0)"/>
     <use xlink:href="#ArialMT-73" transform="translate(572.412109 0)"/>
     <use xlink:href="#ArialMT-69" transform="translate(622.412109 0)"/>
     <use xlink:href="#ArialMT-74" transform="translate(644.628906 0)"/>
     <use xlink:href="#ArialMT-79" transform="translate(672.412109 0)"/>
     <use xlink:href="#ArialMT-20" transform="translate(722.412109 0)"/>
     <use xlink:href="#ArialMT-44" transform="translate(750.195312 0)"/>
     <use xlink:href="#ArialMT-69" transform="translate(822.412109 0)"/>
     <use xlink:href="#ArialMT-73" transform="translate(844.628906 0)"/>
     <use xlink:href="#ArialMT-74" transform="translate(894.628906 0)"/>
     <use xlink:href="#ArialMT-72" transform="translate(922.412109 0)"/>
     <use xlink:href="#ArialMT-69" transform="translate(955.712891 0)"/>
     <use xlink:href="#ArialMT-62" transform="translate(977.929688 0)"/>
     <use xlink:href="#ArialMT-75" transform="translate(1033.544922 0)"/>
     <use xlink:href="#ArialMT-74" transform="translate(1089.160156 0)"/>
     <use xlink:href="#ArialMT-69" transform="translate(1116.943359 0)"/>
     <use xlink:href="#ArialMT-6f" transform="translate(1139.160156 0)"/>
     <use xlink:href="#ArialMT-6e" transform="translate(1194.775391 0)"/>
     <use xlink:href="#ArialMT-20" transform="translate(1250.390625 0)"/>
     <use xlink:href="#ArialMT-69" transform="translate(1278.173828 0)"/>
     <use xlink:href="#ArialMT-6e" transform="translate(1300.390625 0)"/>
     <use xlink:href="#ArialMT-20" transform="translate(1356.005859 0)"/>
     <use xlink:href="#ArialMT-52" transform="translate(1383.789062 0)"/>
     <use xlink:href="#ArialMT-65" transform="translate(1456.005859 0)"/>
     <use xlink:href="#ArialMT-61" transform="translate(1511.621094 0)"/>
     <use xlink:href="#ArialMT-6c" transform="translate(1567.236328 0)"/>
     <use xlink:href="#ArialMT-20" transform="translate(1589.453125 0)"/>
     <use xlink:href="#ArialMT-76" transform="translate(1617.236328 0)"/>
     <use xlink:href="#ArialMT-73" transform="translate(1667.236328 0)"/>
     <use xlink:href="#ArialMT-20" transform="translate(1717.236328 0)"/>
     <use xlink:href="#ArialMT-46" transform="translate(1745.019531 0)"/>
     <use xlink:href="#ArialMT-61" transform="translate(1806.103516 0)"/>
     <use xlink:href="#ArialMT-6b" transform="translate(1861.71875 0)"/>
     <use xlink:href="#ArialMT-65" transform="translate(1911.71875 0)"/>
     <use xlink:href="#ArialMT-20" transform="translate(1967.333984 0)"/>
     <use xlink:href="#ArialMT-4e" transform="translate(1995.117188 0)"/>
     <use xlink:href="#ArialMT-65" transform="translate(2067.333984 0)"/>
     <use xlink:href="#ArialMT-77" transform="translate(2122.949219 0)"/>
     <use xlink:href="#ArialMT-73" transform="translate(2195.166016 0)"/>
    </g>
   </g>
   <g id="legend_1">
    <g id="patch_107">
     <path d="M 728.395313 78.85 
L 837.883125 78.85 
Q 840.083125 78.85 840.083125 76.65 
L 840.083125 29.489375 
Q 840.083125 27.289375 837.883125 27.289375 
L 728.395313 27.289375 
Q 726.195313 27.289375 726.195313 29.489375 
L 726.195313 76.65 
Q 726.195313 78.85 728.395313 78.85 
z
" style="fill: #ffffff; opacity: 0.8; stroke: #cccccc; stroke-linejoin: miter"/>
    </g>
    <g id="text_16">
     <!-- News Type -->
     <g style="fill: #262626" transform="translate(753.566719 40.27875) scale(0.12 -0.12)">
      <defs>
       <path id="ArialMT-70" d="M 422 -1272 
L 422 3319 
L 934 3319 
L 934 2888 
Q 1116 3141 1344 3267 
Q 1572 3394 1897 3394 
Q 2322 3394 2647 3175 
Q 2972 2956 3137 2557 
Q 3303 2159 3303 1684 
Q 3303 1175 3120 767 
Q 2938 359 2589 142 
Q 2241 -75 1856 -75 
Q 1575 -75 1351 44 
Q 1128 163 984 344 
L 984 -1272 
L 422 -1272 
z
M 931 1641 
Q 931 1000 1190 694 
Q 1450 388 1819 388 
Q 2194 388 2461 705 
Q 2728 1022 2728 1688 
Q 2728 2322 2467 2637 
Q 2206 2953 1844 2953 
Q 1484 2953 1207 2617 
Q 931 2281 931 1641 
z
" transform="scale(0.015625)"/>
      </defs>
      <use xlink:href="#ArialMT-4e"/>
      <use xlink:href="#ArialMT-65" transform="translate(72.216797 0)"/>
      <use xlink:href="#ArialMT-77" transform="translate(127.832031 0)"/>
      <use xlink:href="#ArialMT-73" transform="translate(200.048828 0)"/>
      <use xlink:href="#ArialMT-20" transform="translate(250.048828 0)"/>
      <use xlink:href="#ArialMT-54" transform="translate(276.082031 0)"/>
      <use xlink:href="#ArialMT-79" transform="translate(331.666016 0)"/>
      <use xlink:href="#ArialMT-70" transform="translate(381.666016 0)"/>
      <use xlink:href="#ArialMT-65" transform="translate(437.28125 0)"/>
     </g>
    </g>
    <g id="line2d_3">
     <path d="M 730.595313 52.462031 
L 741.595313 52.462031 
L 752.595313 52.462031 
" style="fill: none; stroke: #fc8d62; stroke-width: 1.5; stroke-linecap: round"/>
    </g>
    <g id="text_17">
     <!-- Fake (Label=0) -->
     <g style="fill: #262626" transform="translate(761.395313 56.312031) scale(0.11 -0.11)">
      <defs>
       <path id="ArialMT-3d" d="M 3381 2694 
L 356 2694 
L 356 3219 
L 3381 3219 
L 3381 2694 
z
M 3381 1303 
L 356 1303 
L 356 1828 
L 3381 1828 
L 3381 1303 
z
" transform="scale(0.015625)"/>
      </defs>
      <use xlink:href="#ArialMT-46"/>
      <use xlink:href="#ArialMT-61" transform="translate(61.083984 0)"/>
      <use xlink:href="#ArialMT-6b" transform="translate(116.699219 0)"/>
      <use xlink:href="#ArialMT-65" transform="translate(166.699219 0)"/>
      <use xlink:href="#ArialMT-20" transform="translate(222.314453 0)"/>
      <use xlink:href="#ArialMT-28" transform="translate(250.097656 0)"/>
      <use xlink:href="#ArialMT-4c" transform="translate(283.398438 0)"/>
      <use xlink:href="#ArialMT-61" transform="translate(339.013672 0)"/>
      <use xlink:href="#ArialMT-62" transform="translate(394.628906 0)"/>
      <use xlink:href="#ArialMT-65" transform="translate(450.244141 0)"/>
      <use xlink:href="#ArialMT-6c" transform="translate(505.859375 0)"/>
      <use xlink:href="#ArialMT-3d" transform="translate(528.076172 0)"/>
      <use xlink:href="#ArialMT-30" transform="translate(586.474609 0)"/>
      <use xlink:href="#ArialMT-29" transform="translate(642.089844 0)"/>
     </g>
    </g>
    <g id="line2d_4">
     <path d="M 730.595313 68.284844 
L 741.595313 68.284844 
L 752.595313 68.284844 
" style="fill: none; stroke: #66c2a5; stroke-width: 1.5; stroke-linecap: round"/>
    </g>
    <g id="text_18">
     <!-- Real (Label=1) -->
     <g style="fill: #262626" transform="translate(761.395313 72.134844) scale(0.11 -0.11)">
      <use xlink:href="#ArialMT-52"/>
      <use xlink:href="#ArialMT-65" transform="translate(72.216797 0)"/>
      <use xlink:href="#ArialMT-61" transform="translate(127.832031 0)"/>
      <use xlink:href="#ArialMT-6c" transform="translate(183.447266 0)"/>
      <use xlink:href="#ArialMT-20" transform="translate(205.664062 0)"/>
      <use xlink:href="#ArialMT-28" transform="translate(233.447266 0)"/>
      <use xlink:href="#ArialMT-4c" transform="translate(266.748047 0)"/>
      <use xlink:href="#ArialMT-61" transform="translate(322.363281 0)"/>
      <use xlink:href="#ArialMT-62" transform="translate(377.978516 0)"/>
      <use xlink:href="#ArialMT-65" transform="translate(433.59375 0)"/>
      <use xlink:href="#ArialMT-6c" transform="translate(489.208984 0)"/>
      <use xlink:href="#ArialMT-3d" transform="translate(511.425781 0)"/>
      <use xlink:href="#ArialMT-31" transform="translate(569.824219 0)"/>
      <use xlink:href="#ArialMT-29" transform="translate(625.439453 0)"/>
     </g>
    </g>
   </g>
  </g>
 </g>
 <defs>
  <clipPath id="pbbf8990d4f">
   <rect x="56.283125" y="21.789375" width="789.3" height="284.9475"/>
  </clipPath>
 </defs>
</svg>
