<?xml version="1.0" encoding="utf-8" standalone="no"?>
<!DOCTYPE svg PUBLIC "-//W3C//DTD SVG 1.1//EN"
  "http://www.w3.org/Graphics/SVG/1.1/DTD/svg11.dtd">
<svg xmlns:xlink="http://www.w3.org/1999/xlink" width="996.730156pt" height="348.763594pt" viewBox="0 0 996.730156 348.763594" xmlns="http://www.w3.org/2000/svg" version="1.1">
 <metadata>
  <rdf:RDF xmlns:dc="http://purl.org/dc/elements/1.1/" xmlns:cc="http://creativecommons.org/ns#" xmlns:rdf="http://www.w3.org/1999/02/22-rdf-syntax-ns#">
   <cc:Work>
    <dc:type rdf:resource="http://purl.org/dc/dcmitype/StillImage"/>
    <dc:date>2025-05-17T18:11:40.718940</dc:date>
    <dc:format>image/svg+xml</dc:format>
    <dc:creator>
     <cc:Agent>
      <dc:title>Matplotlib v3.10.1, https://matplotlib.org/</dc:title>
     </cc:Agent>
    </dc:creator>
   </cc:Work>
  </rdf:RDF>
 </metadata>
 <defs>
  <style type="text/css">*{stroke-linejoin: round; stroke-linecap: butt}</style>
 </defs>
 <g id="figure_1">
  <g id="patch_1">
   <path d="M 0 348.763594 
L 996.730156 348.763594 
L 996.730156 0 
L 0 0 
z
" style="fill: #ffffff"/>
  </g>
  <g id="axes_1">
   <g id="patch_2">
    <path d="M 62.400156 306.883125 
L 491.227656 306.883125 
L 491.227656 21.935625 
L 62.400156 21.935625 
z
" style="fill: #ffffff"/>
   </g>
   <g id="matplotlib.axis_1">
    <g id="xtick_1">
     <g id="text_1">
      <!-- 0.00 -->
      <g style="fill: #262626" transform="translate(51.696641 324.256719) scale(0.11 -0.11)">
       <defs>
        <path id="ArialMT-30" d="M 266 2259 
Q 266 3072 433 3567 
Q 600 4063 929 4331 
Q 1259 4600 1759 4600 
Q 2128 4600 2406 4451 
Q 2684 4303 2865 4023 
Q 3047 3744 3150 3342 
Q 3253 2941 3253 2259 
Q 3253 1453 3087 958 
Q 2922 463 2592 192 
Q 2263 -78 1759 -78 
Q 1097 -78 719 397 
Q 266 969 266 2259 
z
M 844 2259 
Q 844 1131 1108 757 
Q 1372 384 1759 384 
Q 2147 384 2411 759 
Q 2675 1134 2675 2259 
Q 2675 3391 2411 3762 
Q 2147 4134 1753 4134 
Q 1366 4134 1134 3806 
Q 844 3388 844 2259 
z
" transform="scale(0.015625)"/>
        <path id="ArialMT-2e" d="M 581 0 
L 581 641 
L 1222 641 
L 1222 0 
L 581 0 
z
" transform="scale(0.015625)"/>
       </defs>
       <use xlink:href="#ArialMT-30"/>
       <use xlink:href="#ArialMT-2e" transform="translate(55.615234 0)"/>
       <use xlink:href="#ArialMT-30" transform="translate(83.398438 0)"/>
       <use xlink:href="#ArialMT-30" transform="translate(139.013672 0)"/>
      </g>
     </g>
    </g>
    <g id="xtick_2">
     <g id="text_2">
      <!-- 0.02 -->
      <g style="fill: #262626" transform="translate(108.873641 324.256719) scale(0.11 -0.11)">
       <defs>
        <path id="ArialMT-32" d="M 3222 541 
L 3222 0 
L 194 0 
Q 188 203 259 391 
Q 375 700 629 1000 
Q 884 1300 1366 1694 
Q 2113 2306 2375 2664 
Q 2638 3022 2638 3341 
Q 2638 3675 2398 3904 
Q 2159 4134 1775 4134 
Q 1369 4134 1125 3890 
Q 881 3647 878 3216 
L 300 3275 
Q 359 3922 746 4261 
Q 1134 4600 1788 4600 
Q 2447 4600 2831 4234 
Q 3216 3869 3216 3328 
Q 3216 3053 3103 2787 
Q 2991 2522 2730 2228 
Q 2469 1934 1863 1422 
Q 1356 997 1212 845 
Q 1069 694 975 541 
L 3222 541 
z
" transform="scale(0.015625)"/>
       </defs>
       <use xlink:href="#ArialMT-30"/>
       <use xlink:href="#ArialMT-2e" transform="translate(55.615234 0)"/>
       <use xlink:href="#ArialMT-30" transform="translate(83.398438 0)"/>
       <use xlink:href="#ArialMT-32" transform="translate(139.013672 0)"/>
      </g>
     </g>
    </g>
    <g id="xtick_3">
     <g id="text_3">
      <!-- 0.04 -->
      <g style="fill: #262626" transform="translate(166.050641 324.256719) scale(0.11 -0.11)">
       <defs>
        <path id="ArialMT-34" d="M 2069 0 
L 2069 1097 
L 81 1097 
L 81 1613 
L 2172 4581 
L 2631 4581 
L 2631 1613 
L 3250 1613 
L 3250 1097 
L 2631 1097 
L 2631 0 
L 2069 0 
z
M 2069 1613 
L 2069 3678 
L 634 1613 
L 2069 1613 
z
" transform="scale(0.015625)"/>
       </defs>
       <use xlink:href="#ArialMT-30"/>
       <use xlink:href="#ArialMT-2e" transform="translate(55.615234 0)"/>
       <use xlink:href="#ArialMT-30" transform="translate(83.398438 0)"/>
       <use xlink:href="#ArialMT-34" transform="translate(139.013672 0)"/>
      </g>
     </g>
    </g>
    <g id="xtick_4">
     <g id="text_4">
      <!-- 0.06 -->
      <g style="fill: #262626" transform="translate(223.227641 324.256719) scale(0.11 -0.11)">
       <defs>
        <path id="ArialMT-36" d="M 3184 3459 
L 2625 3416 
Q 2550 3747 2413 3897 
Q 2184 4138 1850 4138 
Q 1581 4138 1378 3988 
Q 1113 3794 959 3422 
Q 806 3050 800 2363 
Q 1003 2672 1297 2822 
Q 1591 2972 1913 2972 
Q 2475 2972 2870 2558 
Q 3266 2144 3266 1488 
Q 3266 1056 3080 686 
Q 2894 316 2569 119 
Q 2244 -78 1831 -78 
Q 1128 -78 684 439 
Q 241 956 241 2144 
Q 241 3472 731 4075 
Q 1159 4600 1884 4600 
Q 2425 4600 2770 4297 
Q 3116 3994 3184 3459 
z
M 888 1484 
Q 888 1194 1011 928 
Q 1134 663 1356 523 
Q 1578 384 1822 384 
Q 2178 384 2434 671 
Q 2691 959 2691 1453 
Q 2691 1928 2437 2201 
Q 2184 2475 1800 2475 
Q 1419 2475 1153 2201 
Q 888 1928 888 1484 
z
" transform="scale(0.015625)"/>
       </defs>
       <use xlink:href="#ArialMT-30"/>
       <use xlink:href="#ArialMT-2e" transform="translate(55.615234 0)"/>
       <use xlink:href="#ArialMT-30" transform="translate(83.398438 0)"/>
       <use xlink:href="#ArialMT-36" transform="translate(139.013672 0)"/>
      </g>
     </g>
    </g>
    <g id="xtick_5">
     <g id="text_5">
      <!-- 0.08 -->
      <g style="fill: #262626" transform="translate(280.404641 324.256719) scale(0.11 -0.11)">
       <defs>
        <path id="ArialMT-38" d="M 1131 2484 
Q 781 2613 612 2850 
Q 444 3088 444 3419 
Q 444 3919 803 4259 
Q 1163 4600 1759 4600 
Q 2359 4600 2725 4251 
Q 3091 3903 3091 3403 
Q 3091 3084 2923 2848 
Q 2756 2613 2416 2484 
Q 2838 2347 3058 2040 
Q 3278 1734 3278 1309 
Q 3278 722 2862 322 
Q 2447 -78 1769 -78 
Q 1091 -78 675 323 
Q 259 725 259 1325 
Q 259 1772 486 2073 
Q 713 2375 1131 2484 
z
M 1019 3438 
Q 1019 3113 1228 2906 
Q 1438 2700 1772 2700 
Q 2097 2700 2305 2904 
Q 2513 3109 2513 3406 
Q 2513 3716 2298 3927 
Q 2084 4138 1766 4138 
Q 1444 4138 1231 3931 
Q 1019 3725 1019 3438 
z
M 838 1322 
Q 838 1081 952 856 
Q 1066 631 1291 507 
Q 1516 384 1775 384 
Q 2178 384 2440 643 
Q 2703 903 2703 1303 
Q 2703 1709 2433 1975 
Q 2163 2241 1756 2241 
Q 1359 2241 1098 1978 
Q 838 1716 838 1322 
z
" transform="scale(0.015625)"/>
       </defs>
       <use xlink:href="#ArialMT-30"/>
       <use xlink:href="#ArialMT-2e" transform="translate(55.615234 0)"/>
       <use xlink:href="#ArialMT-30" transform="translate(83.398438 0)"/>
       <use xlink:href="#ArialMT-38" transform="translate(139.013672 0)"/>
      </g>
     </g>
    </g>
    <g id="xtick_6">
     <g id="text_6">
      <!-- 0.10 -->
      <g style="fill: #262626" transform="translate(337.581641 324.256719) scale(0.11 -0.11)">
       <defs>
        <path id="ArialMT-31" d="M 2384 0 
L 1822 0 
L 1822 3584 
Q 1619 3391 1289 3197 
Q 959 3003 697 2906 
L 697 3450 
Q 1169 3672 1522 3987 
Q 1875 4303 2022 4600 
L 2384 4600 
L 2384 0 
z
" transform="scale(0.015625)"/>
       </defs>
       <use xlink:href="#ArialMT-30"/>
       <use xlink:href="#ArialMT-2e" transform="translate(55.615234 0)"/>
       <use xlink:href="#ArialMT-31" transform="translate(83.398438 0)"/>
       <use xlink:href="#ArialMT-30" transform="translate(139.013672 0)"/>
      </g>
     </g>
    </g>
    <g id="xtick_7">
     <g id="text_7">
      <!-- 0.12 -->
      <g style="fill: #262626" transform="translate(394.758641 324.256719) scale(0.11 -0.11)">
       <use xlink:href="#ArialMT-30"/>
       <use xlink:href="#ArialMT-2e" transform="translate(55.615234 0)"/>
       <use xlink:href="#ArialMT-31" transform="translate(83.398438 0)"/>
       <use xlink:href="#ArialMT-32" transform="translate(139.013672 0)"/>
      </g>
     </g>
    </g>
    <g id="xtick_8">
     <g id="text_8">
      <!-- 0.14 -->
      <g style="fill: #262626" transform="translate(451.935641 324.256719) scale(0.11 -0.11)">
       <use xlink:href="#ArialMT-30"/>
       <use xlink:href="#ArialMT-2e" transform="translate(55.615234 0)"/>
       <use xlink:href="#ArialMT-31" transform="translate(83.398438 0)"/>
       <use xlink:href="#ArialMT-34" transform="translate(139.013672 0)"/>
      </g>
     </g>
    </g>
    <g id="text_9">
     <!-- Punctuation Ratio -->
     <g style="fill: #262626" transform="translate(229.452344 339.032344) scale(0.12 -0.12)">
      <defs>
       <path id="ArialMT-50" d="M 494 0 
L 494 4581 
L 2222 4581 
Q 2678 4581 2919 4538 
Q 3256 4481 3484 4323 
Q 3713 4166 3852 3881 
Q 3991 3597 3991 3256 
Q 3991 2672 3619 2267 
Q 3247 1863 2275 1863 
L 1100 1863 
L 1100 0 
L 494 0 
z
M 1100 2403 
L 2284 2403 
Q 2872 2403 3119 2622 
Q 3366 2841 3366 3238 
Q 3366 3525 3220 3729 
Q 3075 3934 2838 4000 
Q 2684 4041 2272 4041 
L 1100 4041 
L 1100 2403 
z
" transform="scale(0.015625)"/>
       <path id="ArialMT-75" d="M 2597 0 
L 2597 488 
Q 2209 -75 1544 -75 
Q 1250 -75 995 37 
Q 741 150 617 320 
Q 494 491 444 738 
Q 409 903 409 1263 
L 409 3319 
L 972 3319 
L 972 1478 
Q 972 1038 1006 884 
Q 1059 663 1231 536 
Q 1403 409 1656 409 
Q 1909 409 2131 539 
Q 2353 669 2445 892 
Q 2538 1116 2538 1541 
L 2538 3319 
L 3100 3319 
L 3100 0 
L 2597 0 
z
" transform="scale(0.015625)"/>
       <path id="ArialMT-6e" d="M 422 0 
L 422 3319 
L 928 3319 
L 928 2847 
Q 1294 3394 1984 3394 
Q 2284 3394 2536 3286 
Q 2788 3178 2913 3003 
Q 3038 2828 3088 2588 
Q 3119 2431 3119 2041 
L 3119 0 
L 2556 0 
L 2556 2019 
Q 2556 2363 2490 2533 
Q 2425 2703 2258 2804 
Q 2091 2906 1866 2906 
Q 1506 2906 1245 2678 
Q 984 2450 984 1813 
L 984 0 
L 422 0 
z
" transform="scale(0.015625)"/>
       <path id="ArialMT-63" d="M 2588 1216 
L 3141 1144 
Q 3050 572 2676 248 
Q 2303 -75 1759 -75 
Q 1078 -75 664 370 
Q 250 816 250 1647 
Q 250 2184 428 2587 
Q 606 2991 970 3192 
Q 1334 3394 1763 3394 
Q 2303 3394 2647 3120 
Q 2991 2847 3088 2344 
L 2541 2259 
Q 2463 2594 2264 2762 
Q 2066 2931 1784 2931 
Q 1359 2931 1093 2626 
Q 828 2322 828 1663 
Q 828 994 1084 691 
Q 1341 388 1753 388 
Q 2084 388 2306 591 
Q 2528 794 2588 1216 
z
" transform="scale(0.015625)"/>
       <path id="ArialMT-74" d="M 1650 503 
L 1731 6 
Q 1494 -44 1306 -44 
Q 1000 -44 831 53 
Q 663 150 594 308 
Q 525 466 525 972 
L 525 2881 
L 113 2881 
L 113 3319 
L 525 3319 
L 525 4141 
L 1084 4478 
L 1084 3319 
L 1650 3319 
L 1650 2881 
L 1084 2881 
L 1084 941 
Q 1084 700 1114 631 
Q 1144 563 1211 522 
Q 1278 481 1403 481 
Q 1497 481 1650 503 
z
" transform="scale(0.015625)"/>
       <path id="ArialMT-61" d="M 2588 409 
Q 2275 144 1986 34 
Q 1697 -75 1366 -75 
Q 819 -75 525 192 
Q 231 459 231 875 
Q 231 1119 342 1320 
Q 453 1522 633 1644 
Q 813 1766 1038 1828 
Q 1203 1872 1538 1913 
Q 2219 1994 2541 2106 
Q 2544 2222 2544 2253 
Q 2544 2597 2384 2738 
Q 2169 2928 1744 2928 
Q 1347 2928 1158 2789 
Q 969 2650 878 2297 
L 328 2372 
Q 403 2725 575 2942 
Q 747 3159 1072 3276 
Q 1397 3394 1825 3394 
Q 2250 3394 2515 3294 
Q 2781 3194 2906 3042 
Q 3031 2891 3081 2659 
Q 3109 2516 3109 2141 
L 3109 1391 
Q 3109 606 3145 398 
Q 3181 191 3288 0 
L 2700 0 
Q 2613 175 2588 409 
z
M 2541 1666 
Q 2234 1541 1622 1453 
Q 1275 1403 1131 1340 
Q 988 1278 909 1158 
Q 831 1038 831 891 
Q 831 666 1001 516 
Q 1172 366 1500 366 
Q 1825 366 2078 508 
Q 2331 650 2450 897 
Q 2541 1088 2541 1459 
L 2541 1666 
z
" transform="scale(0.015625)"/>
       <path id="ArialMT-69" d="M 425 3934 
L 425 4581 
L 988 4581 
L 988 3934 
L 425 3934 
z
M 425 0 
L 425 3319 
L 988 3319 
L 988 0 
L 425 0 
z
" transform="scale(0.015625)"/>
       <path id="ArialMT-6f" d="M 213 1659 
Q 213 2581 725 3025 
Q 1153 3394 1769 3394 
Q 2453 3394 2887 2945 
Q 3322 2497 3322 1706 
Q 3322 1066 3130 698 
Q 2938 331 2570 128 
Q 2203 -75 1769 -75 
Q 1072 -75 642 372 
Q 213 819 213 1659 
z
M 791 1659 
Q 791 1022 1069 705 
Q 1347 388 1769 388 
Q 2188 388 2466 706 
Q 2744 1025 2744 1678 
Q 2744 2294 2464 2611 
Q 2184 2928 1769 2928 
Q 1347 2928 1069 2612 
Q 791 2297 791 1659 
z
" transform="scale(0.015625)"/>
       <path id="ArialMT-20" transform="scale(0.015625)"/>
       <path id="ArialMT-52" d="M 503 0 
L 503 4581 
L 2534 4581 
Q 3147 4581 3465 4457 
Q 3784 4334 3975 4021 
Q 4166 3709 4166 3331 
Q 4166 2844 3850 2509 
Q 3534 2175 2875 2084 
Q 3116 1969 3241 1856 
Q 3506 1613 3744 1247 
L 4541 0 
L 3778 0 
L 3172 953 
Q 2906 1366 2734 1584 
Q 2563 1803 2427 1890 
Q 2291 1978 2150 2013 
Q 2047 2034 1813 2034 
L 1109 2034 
L 1109 0 
L 503 0 
z
M 1109 2559 
L 2413 2559 
Q 2828 2559 3062 2645 
Q 3297 2731 3419 2920 
Q 3541 3109 3541 3331 
Q 3541 3656 3305 3865 
Q 3069 4075 2559 4075 
L 1109 4075 
L 1109 2559 
z
" transform="scale(0.015625)"/>
      </defs>
      <use xlink:href="#ArialMT-50"/>
      <use xlink:href="#ArialMT-75" transform="translate(66.699219 0)"/>
      <use xlink:href="#ArialMT-6e" transform="translate(122.314453 0)"/>
      <use xlink:href="#ArialMT-63" transform="translate(177.929688 0)"/>
      <use xlink:href="#ArialMT-74" transform="translate(227.929688 0)"/>
      <use xlink:href="#ArialMT-75" transform="translate(255.712891 0)"/>
      <use xlink:href="#ArialMT-61" transform="translate(311.328125 0)"/>
      <use xlink:href="#ArialMT-74" transform="translate(366.943359 0)"/>
      <use xlink:href="#ArialMT-69" transform="translate(394.726562 0)"/>
      <use xlink:href="#ArialMT-6f" transform="translate(416.943359 0)"/>
      <use xlink:href="#ArialMT-6e" transform="translate(472.558594 0)"/>
      <use xlink:href="#ArialMT-20" transform="translate(528.173828 0)"/>
      <use xlink:href="#ArialMT-52" transform="translate(555.957031 0)"/>
      <use xlink:href="#ArialMT-61" transform="translate(628.173828 0)"/>
      <use xlink:href="#ArialMT-74" transform="translate(683.789062 0)"/>
      <use xlink:href="#ArialMT-69" transform="translate(711.572266 0)"/>
      <use xlink:href="#ArialMT-6f" transform="translate(733.789062 0)"/>
     </g>
    </g>
   </g>
   <g id="matplotlib.axis_2">
    <g id="ytick_1">
     <g id="text_10">
      <!-- 0 -->
      <g style="fill: #262626" transform="translate(46.783125 310.819922) scale(0.11 -0.11)">
       <use xlink:href="#ArialMT-30"/>
      </g>
     </g>
    </g>
    <g id="ytick_2">
     <g id="text_11">
      <!-- 5000 -->
      <g style="fill: #262626" transform="translate(28.432031 267.039852) scale(0.11 -0.11)">
       <defs>
        <path id="ArialMT-35" d="M 266 1200 
L 856 1250 
Q 922 819 1161 601 
Q 1400 384 1738 384 
Q 2144 384 2425 690 
Q 2706 997 2706 1503 
Q 2706 1984 2436 2262 
Q 2166 2541 1728 2541 
Q 1456 2541 1237 2417 
Q 1019 2294 894 2097 
L 366 2166 
L 809 4519 
L 3088 4519 
L 3088 3981 
L 1259 3981 
L 1013 2750 
Q 1425 3038 1878 3038 
Q 2478 3038 2890 2622 
Q 3303 2206 3303 1553 
Q 3303 931 2941 478 
Q 2500 -78 1738 -78 
Q 1113 -78 717 272 
Q 322 622 266 1200 
z
" transform="scale(0.015625)"/>
       </defs>
       <use xlink:href="#ArialMT-35"/>
       <use xlink:href="#ArialMT-30" transform="translate(55.615234 0)"/>
       <use xlink:href="#ArialMT-30" transform="translate(111.230469 0)"/>
       <use xlink:href="#ArialMT-30" transform="translate(166.845703 0)"/>
      </g>
     </g>
    </g>
    <g id="ytick_3">
     <g id="text_12">
      <!-- 10000 -->
      <g style="fill: #262626" transform="translate(22.315 223.259782) scale(0.11 -0.11)">
       <use xlink:href="#ArialMT-31"/>
       <use xlink:href="#ArialMT-30" transform="translate(55.615234 0)"/>
       <use xlink:href="#ArialMT-30" transform="translate(111.230469 0)"/>
       <use xlink:href="#ArialMT-30" transform="translate(166.845703 0)"/>
       <use xlink:href="#ArialMT-30" transform="translate(222.460938 0)"/>
      </g>
     </g>
    </g>
    <g id="ytick_4">
     <g id="text_13">
      <!-- 15000 -->
      <g style="fill: #262626" transform="translate(22.315 179.479711) scale(0.11 -0.11)">
       <use xlink:href="#ArialMT-31"/>
       <use xlink:href="#ArialMT-35" transform="translate(55.615234 0)"/>
       <use xlink:href="#ArialMT-30" transform="translate(111.230469 0)"/>
       <use xlink:href="#ArialMT-30" transform="translate(166.845703 0)"/>
       <use xlink:href="#ArialMT-30" transform="translate(222.460938 0)"/>
      </g>
     </g>
    </g>
    <g id="ytick_5">
     <g id="text_14">
      <!-- 20000 -->
      <g style="fill: #262626" transform="translate(22.315 135.699641) scale(0.11 -0.11)">
       <use xlink:href="#ArialMT-32"/>
       <use xlink:href="#ArialMT-30" transform="translate(55.615234 0)"/>
       <use xlink:href="#ArialMT-30" transform="translate(111.230469 0)"/>
       <use xlink:href="#ArialMT-30" transform="translate(166.845703 0)"/>
       <use xlink:href="#ArialMT-30" transform="translate(222.460938 0)"/>
      </g>
     </g>
    </g>
    <g id="ytick_6">
     <g id="text_15">
      <!-- 25000 -->
      <g style="fill: #262626" transform="translate(22.315 91.919571) scale(0.11 -0.11)">
       <use xlink:href="#ArialMT-32"/>
       <use xlink:href="#ArialMT-35" transform="translate(55.615234 0)"/>
       <use xlink:href="#ArialMT-30" transform="translate(111.230469 0)"/>
       <use xlink:href="#ArialMT-30" transform="translate(166.845703 0)"/>
       <use xlink:href="#ArialMT-30" transform="translate(222.460938 0)"/>
      </g>
     </g>
    </g>
    <g id="ytick_7">
     <g id="text_16">
      <!-- 30000 -->
      <g style="fill: #262626" transform="translate(22.315 48.139501) scale(0.11 -0.11)">
       <defs>
        <path id="ArialMT-33" d="M 269 1209 
L 831 1284 
Q 928 806 1161 595 
Q 1394 384 1728 384 
Q 2125 384 2398 659 
Q 2672 934 2672 1341 
Q 2672 1728 2419 1979 
Q 2166 2231 1775 2231 
Q 1616 2231 1378 2169 
L 1441 2663 
Q 1497 2656 1531 2656 
Q 1891 2656 2178 2843 
Q 2466 3031 2466 3422 
Q 2466 3731 2256 3934 
Q 2047 4138 1716 4138 
Q 1388 4138 1169 3931 
Q 950 3725 888 3313 
L 325 3413 
Q 428 3978 793 4289 
Q 1159 4600 1703 4600 
Q 2078 4600 2393 4439 
Q 2709 4278 2876 4000 
Q 3044 3722 3044 3409 
Q 3044 3113 2884 2869 
Q 2725 2625 2413 2481 
Q 2819 2388 3044 2092 
Q 3269 1797 3269 1353 
Q 3269 753 2831 336 
Q 2394 -81 1725 -81 
Q 1122 -81 723 278 
Q 325 638 269 1209 
z
" transform="scale(0.015625)"/>
       </defs>
       <use xlink:href="#ArialMT-33"/>
       <use xlink:href="#ArialMT-30" transform="translate(55.615234 0)"/>
       <use xlink:href="#ArialMT-30" transform="translate(111.230469 0)"/>
       <use xlink:href="#ArialMT-30" transform="translate(166.845703 0)"/>
       <use xlink:href="#ArialMT-30" transform="translate(222.460938 0)"/>
      </g>
     </g>
    </g>
    <g id="text_17">
     <!-- Frequency -->
     <g style="fill: #262626" transform="translate(15.789375 192.754687) rotate(-90) scale(0.12 -0.12)">
      <defs>
       <path id="ArialMT-46" d="M 525 0 
L 525 4581 
L 3616 4581 
L 3616 4041 
L 1131 4041 
L 1131 2622 
L 3281 2622 
L 3281 2081 
L 1131 2081 
L 1131 0 
L 525 0 
z
" transform="scale(0.015625)"/>
       <path id="ArialMT-72" d="M 416 0 
L 416 3319 
L 922 3319 
L 922 2816 
Q 1116 3169 1280 3281 
Q 1444 3394 1641 3394 
Q 1925 3394 2219 3213 
L 2025 2691 
Q 1819 2813 1613 2813 
Q 1428 2813 1281 2702 
Q 1134 2591 1072 2394 
Q 978 2094 978 1738 
L 978 0 
L 416 0 
z
" transform="scale(0.015625)"/>
       <path id="ArialMT-65" d="M 2694 1069 
L 3275 997 
Q 3138 488 2766 206 
Q 2394 -75 1816 -75 
Q 1088 -75 661 373 
Q 234 822 234 1631 
Q 234 2469 665 2931 
Q 1097 3394 1784 3394 
Q 2450 3394 2872 2941 
Q 3294 2488 3294 1666 
Q 3294 1616 3291 1516 
L 816 1516 
Q 847 969 1125 678 
Q 1403 388 1819 388 
Q 2128 388 2347 550 
Q 2566 713 2694 1069 
z
M 847 1978 
L 2700 1978 
Q 2663 2397 2488 2606 
Q 2219 2931 1791 2931 
Q 1403 2931 1139 2672 
Q 875 2413 847 1978 
z
" transform="scale(0.015625)"/>
       <path id="ArialMT-71" d="M 2538 -1272 
L 2538 353 
Q 2406 169 2170 47 
Q 1934 -75 1669 -75 
Q 1078 -75 651 397 
Q 225 869 225 1691 
Q 225 2191 398 2587 
Q 572 2984 901 3189 
Q 1231 3394 1625 3394 
Q 2241 3394 2594 2875 
L 2594 3319 
L 3100 3319 
L 3100 -1272 
L 2538 -1272 
z
M 803 1669 
Q 803 1028 1072 708 
Q 1341 388 1716 388 
Q 2075 388 2334 692 
Q 2594 997 2594 1619 
Q 2594 2281 2320 2615 
Q 2047 2950 1678 2950 
Q 1313 2950 1058 2639 
Q 803 2328 803 1669 
z
" transform="scale(0.015625)"/>
       <path id="ArialMT-79" d="M 397 -1278 
L 334 -750 
Q 519 -800 656 -800 
Q 844 -800 956 -737 
Q 1069 -675 1141 -563 
Q 1194 -478 1313 -144 
Q 1328 -97 1363 -6 
L 103 3319 
L 709 3319 
L 1400 1397 
Q 1534 1031 1641 628 
Q 1738 1016 1872 1384 
L 2581 3319 
L 3144 3319 
L 1881 -56 
Q 1678 -603 1566 -809 
Q 1416 -1088 1222 -1217 
Q 1028 -1347 759 -1347 
Q 597 -1347 397 -1278 
z
" transform="scale(0.015625)"/>
      </defs>
      <use xlink:href="#ArialMT-46"/>
      <use xlink:href="#ArialMT-72" transform="translate(61.083984 0)"/>
      <use xlink:href="#ArialMT-65" transform="translate(94.384766 0)"/>
      <use xlink:href="#ArialMT-71" transform="translate(150 0)"/>
      <use xlink:href="#ArialMT-75" transform="translate(205.615234 0)"/>
      <use xlink:href="#ArialMT-65" transform="translate(261.230469 0)"/>
      <use xlink:href="#ArialMT-6e" transform="translate(316.845703 0)"/>
      <use xlink:href="#ArialMT-63" transform="translate(372.460938 0)"/>
      <use xlink:href="#ArialMT-79" transform="translate(422.460938 0)"/>
     </g>
    </g>
   </g>
   <g id="patch_3">
    <path d="M 62.400156 306.883125 
L 89.490388 306.883125 
L 89.490388 306.567908 
L 62.400156 306.567908 
z
" clip-path="url(#p707a27a151)" style="fill: #fc8d62; fill-opacity: 0.5; stroke: #ffffff; stroke-linejoin: miter"/>
   </g>
   <g id="patch_4">
    <path d="M 89.490388 306.883125 
L 116.580619 306.883125 
L 116.580619 232.019205 
L 89.490388 232.019205 
z
" clip-path="url(#p707a27a151)" style="fill: #fc8d62; fill-opacity: 0.5; stroke: #ffffff; stroke-linejoin: miter"/>
   </g>
   <g id="patch_5">
    <path d="M 116.580619 306.883125 
L 143.67085 306.883125 
L 143.67085 110.336878 
L 116.580619 110.336878 
z
" clip-path="url(#p707a27a151)" style="fill: #fc8d62; fill-opacity: 0.5; stroke: #ffffff; stroke-linejoin: miter"/>
   </g>
   <g id="patch_6">
    <path d="M 143.67085 306.883125 
L 170.761081 306.883125 
L 170.761081 277.813158 
L 143.67085 277.813158 
z
" clip-path="url(#p707a27a151)" style="fill: #fc8d62; fill-opacity: 0.5; stroke: #ffffff; stroke-linejoin: miter"/>
   </g>
   <g id="patch_7">
    <path d="M 170.761081 306.883125 
L 197.851313 306.883125 
L 197.851313 302.531386 
L 170.761081 302.531386 
z
" clip-path="url(#p707a27a151)" style="fill: #fc8d62; fill-opacity: 0.5; stroke: #ffffff; stroke-linejoin: miter"/>
   </g>
   <g id="patch_8">
    <path d="M 197.851313 306.883125 
L 224.941544 306.883125 
L 224.941544 306.112596 
L 197.851313 306.112596 
z
" clip-path="url(#p707a27a151)" style="fill: #fc8d62; fill-opacity: 0.5; stroke: #ffffff; stroke-linejoin: miter"/>
   </g>
   <g id="patch_9">
    <path d="M 224.941544 306.883125 
L 252.031775 306.883125 
L 252.031775 306.4103 
L 224.941544 306.4103 
z
" clip-path="url(#p707a27a151)" style="fill: #fc8d62; fill-opacity: 0.5; stroke: #ffffff; stroke-linejoin: miter"/>
   </g>
   <g id="patch_10">
    <path d="M 252.031775 306.883125 
L 279.122007 306.883125 
L 279.122007 306.646713 
L 252.031775 306.646713 
z
" clip-path="url(#p707a27a151)" style="fill: #fc8d62; fill-opacity: 0.5; stroke: #ffffff; stroke-linejoin: miter"/>
   </g>
   <g id="patch_11">
    <path d="M 279.122007 306.883125 
L 306.212238 306.883125 
L 306.212238 306.830589 
L 279.122007 306.830589 
z
" clip-path="url(#p707a27a151)" style="fill: #fc8d62; fill-opacity: 0.5; stroke: #ffffff; stroke-linejoin: miter"/>
   </g>
   <g id="patch_12">
    <path d="M 306.212238 306.883125 
L 333.302469 306.883125 
L 333.302469 306.865613 
L 306.212238 306.865613 
z
" clip-path="url(#p707a27a151)" style="fill: #fc8d62; fill-opacity: 0.5; stroke: #ffffff; stroke-linejoin: miter"/>
   </g>
   <g id="patch_13">
    <path d="M 333.302469 306.883125 
L 360.392701 306.883125 
L 360.392701 306.874369 
L 333.302469 306.874369 
z
" clip-path="url(#p707a27a151)" style="fill: #fc8d62; fill-opacity: 0.5; stroke: #ffffff; stroke-linejoin: miter"/>
   </g>
   <g id="patch_14">
    <path d="M 360.392701 306.883125 
L 387.482932 306.883125 
L 387.482932 306.883125 
L 360.392701 306.883125 
z
" clip-path="url(#p707a27a151)" style="fill: #fc8d62; fill-opacity: 0.5; stroke: #ffffff; stroke-linejoin: miter"/>
   </g>
   <g id="patch_15">
    <path d="M 387.482932 306.883125 
L 414.573163 306.883125 
L 414.573163 306.883125 
L 387.482932 306.883125 
z
" clip-path="url(#p707a27a151)" style="fill: #fc8d62; fill-opacity: 0.5; stroke: #ffffff; stroke-linejoin: miter"/>
   </g>
   <g id="patch_16">
    <path d="M 414.573163 306.883125 
L 441.663395 306.883125 
L 441.663395 306.883125 
L 414.573163 306.883125 
z
" clip-path="url(#p707a27a151)" style="fill: #fc8d62; fill-opacity: 0.5; stroke: #ffffff; stroke-linejoin: miter"/>
   </g>
   <g id="patch_17">
    <path d="M 441.663395 306.883125 
L 468.753626 306.883125 
L 468.753626 306.883125 
L 441.663395 306.883125 
z
" clip-path="url(#p707a27a151)" style="fill: #fc8d62; fill-opacity: 0.5; stroke: #ffffff; stroke-linejoin: miter"/>
   </g>
   <g id="patch_18">
    <path d="M 468.753626 306.883125 
L 495.843857 306.883125 
L 495.843857 306.883125 
L 468.753626 306.883125 
z
" clip-path="url(#p707a27a151)" style="fill: #fc8d62; fill-opacity: 0.5; stroke: #ffffff; stroke-linejoin: miter"/>
   </g>
   <g id="patch_19">
    <path d="M 495.843857 306.883125 
L 522.934089 306.883125 
L 522.934089 306.883125 
L 495.843857 306.883125 
z
" clip-path="url(#p707a27a151)" style="fill: #fc8d62; fill-opacity: 0.5; stroke: #ffffff; stroke-linejoin: miter"/>
   </g>
   <g id="patch_20">
    <path d="M 522.934089 306.883125 
L 550.02432 306.883125 
L 550.02432 306.883125 
L 522.934089 306.883125 
z
" clip-path="url(#p707a27a151)" style="fill: #fc8d62; fill-opacity: 0.5; stroke: #ffffff; stroke-linejoin: miter"/>
   </g>
   <g id="patch_21">
    <path d="M 550.02432 306.883125 
L 577.114551 306.883125 
L 577.114551 306.883125 
L 550.02432 306.883125 
z
" clip-path="url(#p707a27a151)" style="fill: #fc8d62; fill-opacity: 0.5; stroke: #ffffff; stroke-linejoin: miter"/>
   </g>
   <g id="patch_22">
    <path d="M 577.114551 306.883125 
L 604.204782 306.883125 
L 604.204782 306.883125 
L 577.114551 306.883125 
z
" clip-path="url(#p707a27a151)" style="fill: #fc8d62; fill-opacity: 0.5; stroke: #ffffff; stroke-linejoin: miter"/>
   </g>
   <g id="patch_23">
    <path d="M 604.204782 306.883125 
L 631.295014 306.883125 
L 631.295014 306.883125 
L 604.204782 306.883125 
z
" clip-path="url(#p707a27a151)" style="fill: #fc8d62; fill-opacity: 0.5; stroke: #ffffff; stroke-linejoin: miter"/>
   </g>
   <g id="patch_24">
    <path d="M 631.295014 306.883125 
L 658.385245 306.883125 
L 658.385245 306.883125 
L 631.295014 306.883125 
z
" clip-path="url(#p707a27a151)" style="fill: #fc8d62; fill-opacity: 0.5; stroke: #ffffff; stroke-linejoin: miter"/>
   </g>
   <g id="patch_25">
    <path d="M 658.385245 306.883125 
L 685.475476 306.883125 
L 685.475476 306.883125 
L 658.385245 306.883125 
z
" clip-path="url(#p707a27a151)" style="fill: #fc8d62; fill-opacity: 0.5; stroke: #ffffff; stroke-linejoin: miter"/>
   </g>
   <g id="patch_26">
    <path d="M 685.475476 306.883125 
L 712.565708 306.883125 
L 712.565708 306.883125 
L 685.475476 306.883125 
z
" clip-path="url(#p707a27a151)" style="fill: #fc8d62; fill-opacity: 0.5; stroke: #ffffff; stroke-linejoin: miter"/>
   </g>
   <g id="patch_27">
    <path d="M 712.565708 306.883125 
L 739.655939 306.883125 
L 739.655939 306.883125 
L 712.565708 306.883125 
z
" clip-path="url(#p707a27a151)" style="fill: #fc8d62; fill-opacity: 0.5; stroke: #ffffff; stroke-linejoin: miter"/>
   </g>
   <g id="patch_28">
    <path d="M 739.655939 306.883125 
L 766.74617 306.883125 
L 766.74617 306.883125 
L 739.655939 306.883125 
z
" clip-path="url(#p707a27a151)" style="fill: #fc8d62; fill-opacity: 0.5; stroke: #ffffff; stroke-linejoin: miter"/>
   </g>
   <g id="patch_29">
    <path d="M 766.74617 306.883125 
L 793.836402 306.883125 
L 793.836402 306.883125 
L 766.74617 306.883125 
z
" clip-path="url(#p707a27a151)" style="fill: #fc8d62; fill-opacity: 0.5; stroke: #ffffff; stroke-linejoin: miter"/>
   </g>
   <g id="patch_30">
    <path d="M 793.836402 306.883125 
L 820.926633 306.883125 
L 820.926633 306.883125 
L 793.836402 306.883125 
z
" clip-path="url(#p707a27a151)" style="fill: #fc8d62; fill-opacity: 0.5; stroke: #ffffff; stroke-linejoin: miter"/>
   </g>
   <g id="patch_31">
    <path d="M 820.926633 306.883125 
L 848.016864 306.883125 
L 848.016864 306.883125 
L 820.926633 306.883125 
z
" clip-path="url(#p707a27a151)" style="fill: #fc8d62; fill-opacity: 0.5; stroke: #ffffff; stroke-linejoin: miter"/>
   </g>
   <g id="patch_32">
    <path d="M 848.016864 306.883125 
L 875.107096 306.883125 
L 875.107096 306.883125 
L 848.016864 306.883125 
z
" clip-path="url(#p707a27a151)" style="fill: #fc8d62; fill-opacity: 0.5; stroke: #ffffff; stroke-linejoin: miter"/>
   </g>
   <g id="patch_33">
    <path d="M 62.400156 306.883125 
L 89.490388 306.883125 
L 89.490388 304.799194 
L 62.400156 304.799194 
z
" clip-path="url(#p707a27a151)" style="fill: #66c2a5; fill-opacity: 0.5; stroke: #ffffff; stroke-linejoin: miter"/>
   </g>
   <g id="patch_34">
    <path d="M 89.490388 306.883125 
L 116.580619 306.883125 
L 116.580619 218.245995 
L 89.490388 218.245995 
z
" clip-path="url(#p707a27a151)" style="fill: #66c2a5; fill-opacity: 0.5; stroke: #ffffff; stroke-linejoin: miter"/>
   </g>
   <g id="patch_35">
    <path d="M 116.580619 306.883125 
L 143.67085 306.883125 
L 143.67085 138.286075 
L 116.580619 138.286075 
z
" clip-path="url(#p707a27a151)" style="fill: #66c2a5; fill-opacity: 0.5; stroke: #ffffff; stroke-linejoin: miter"/>
   </g>
   <g id="patch_36">
    <path d="M 143.67085 306.883125 
L 170.761081 306.883125 
L 170.761081 268.514272 
L 143.67085 268.514272 
z
" clip-path="url(#p707a27a151)" style="fill: #66c2a5; fill-opacity: 0.5; stroke: #ffffff; stroke-linejoin: miter"/>
   </g>
   <g id="patch_37">
    <path d="M 170.761081 306.883125 
L 197.851313 306.883125 
L 197.851313 294.773558 
L 170.761081 294.773558 
z
" clip-path="url(#p707a27a151)" style="fill: #66c2a5; fill-opacity: 0.5; stroke: #ffffff; stroke-linejoin: miter"/>
   </g>
   <g id="patch_38">
    <path d="M 197.851313 306.883125 
L 224.941544 306.883125 
L 224.941544 301.664541 
L 197.851313 301.664541 
z
" clip-path="url(#p707a27a151)" style="fill: #66c2a5; fill-opacity: 0.5; stroke: #ffffff; stroke-linejoin: miter"/>
   </g>
   <g id="patch_39">
    <path d="M 224.941544 306.883125 
L 252.031775 306.883125 
L 252.031775 305.044362 
L 224.941544 305.044362 
z
" clip-path="url(#p707a27a151)" style="fill: #66c2a5; fill-opacity: 0.5; stroke: #ffffff; stroke-linejoin: miter"/>
   </g>
   <g id="patch_40">
    <path d="M 252.031775 306.883125 
L 279.122007 306.883125 
L 279.122007 305.919963 
L 252.031775 305.919963 
z
" clip-path="url(#p707a27a151)" style="fill: #66c2a5; fill-opacity: 0.5; stroke: #ffffff; stroke-linejoin: miter"/>
   </g>
   <g id="patch_41">
    <path d="M 279.122007 306.883125 
L 306.212238 306.883125 
L 306.212238 306.296472 
L 279.122007 306.296472 
z
" clip-path="url(#p707a27a151)" style="fill: #66c2a5; fill-opacity: 0.5; stroke: #ffffff; stroke-linejoin: miter"/>
   </g>
   <g id="patch_42">
    <path d="M 306.212238 306.883125 
L 333.302469 306.883125 
L 333.302469 306.559152 
L 306.212238 306.559152 
z
" clip-path="url(#p707a27a151)" style="fill: #66c2a5; fill-opacity: 0.5; stroke: #ffffff; stroke-linejoin: miter"/>
   </g>
   <g id="patch_43">
    <path d="M 333.302469 306.883125 
L 360.392701 306.883125 
L 360.392701 306.585421 
L 333.302469 306.585421 
z
" clip-path="url(#p707a27a151)" style="fill: #66c2a5; fill-opacity: 0.5; stroke: #ffffff; stroke-linejoin: miter"/>
   </g>
   <g id="patch_44">
    <path d="M 360.392701 306.883125 
L 387.482932 306.883125 
L 387.482932 306.637957 
L 360.392701 306.637957 
z
" clip-path="url(#p707a27a151)" style="fill: #66c2a5; fill-opacity: 0.5; stroke: #ffffff; stroke-linejoin: miter"/>
   </g>
   <g id="patch_45">
    <path d="M 387.482932 306.883125 
L 414.573163 306.883125 
L 414.573163 306.734273 
L 387.482932 306.734273 
z
" clip-path="url(#p707a27a151)" style="fill: #66c2a5; fill-opacity: 0.5; stroke: #ffffff; stroke-linejoin: miter"/>
   </g>
   <g id="patch_46">
    <path d="M 414.573163 306.883125 
L 441.663395 306.883125 
L 441.663395 306.830589 
L 414.573163 306.830589 
z
" clip-path="url(#p707a27a151)" style="fill: #66c2a5; fill-opacity: 0.5; stroke: #ffffff; stroke-linejoin: miter"/>
   </g>
   <g id="patch_47">
    <path d="M 441.663395 306.883125 
L 468.753626 306.883125 
L 468.753626 306.848101 
L 441.663395 306.848101 
z
" clip-path="url(#p707a27a151)" style="fill: #66c2a5; fill-opacity: 0.5; stroke: #ffffff; stroke-linejoin: miter"/>
   </g>
   <g id="patch_48">
    <path d="M 468.753626 306.883125 
L 495.843857 306.883125 
L 495.843857 306.848101 
L 468.753626 306.848101 
z
" clip-path="url(#p707a27a151)" style="fill: #66c2a5; fill-opacity: 0.5; stroke: #ffffff; stroke-linejoin: miter"/>
   </g>
   <g id="patch_49">
    <path d="M 495.843857 306.883125 
L 522.934089 306.883125 
L 522.934089 306.856857 
L 495.843857 306.856857 
z
" clip-path="url(#p707a27a151)" style="fill: #66c2a5; fill-opacity: 0.5; stroke: #ffffff; stroke-linejoin: miter"/>
   </g>
   <g id="patch_50">
    <path d="M 522.934089 306.883125 
L 550.02432 306.883125 
L 550.02432 306.883125 
L 522.934089 306.883125 
z
" clip-path="url(#p707a27a151)" style="fill: #66c2a5; fill-opacity: 0.5; stroke: #ffffff; stroke-linejoin: miter"/>
   </g>
   <g id="patch_51">
    <path d="M 550.02432 306.883125 
L 577.114551 306.883125 
L 577.114551 306.874369 
L 550.02432 306.874369 
z
" clip-path="url(#p707a27a151)" style="fill: #66c2a5; fill-opacity: 0.5; stroke: #ffffff; stroke-linejoin: miter"/>
   </g>
   <g id="patch_52">
    <path d="M 577.114551 306.883125 
L 604.204782 306.883125 
L 604.204782 306.856857 
L 577.114551 306.856857 
z
" clip-path="url(#p707a27a151)" style="fill: #66c2a5; fill-opacity: 0.5; stroke: #ffffff; stroke-linejoin: miter"/>
   </g>
   <g id="patch_53">
    <path d="M 604.204782 306.883125 
L 631.295014 306.883125 
L 631.295014 306.865613 
L 604.204782 306.865613 
z
" clip-path="url(#p707a27a151)" style="fill: #66c2a5; fill-opacity: 0.5; stroke: #ffffff; stroke-linejoin: miter"/>
   </g>
   <g id="patch_54">
    <path d="M 631.295014 306.883125 
L 658.385245 306.883125 
L 658.385245 306.874369 
L 631.295014 306.874369 
z
" clip-path="url(#p707a27a151)" style="fill: #66c2a5; fill-opacity: 0.5; stroke: #ffffff; stroke-linejoin: miter"/>
   </g>
   <g id="patch_55">
    <path d="M 658.385245 306.883125 
L 685.475476 306.883125 
L 685.475476 306.874369 
L 658.385245 306.874369 
z
" clip-path="url(#p707a27a151)" style="fill: #66c2a5; fill-opacity: 0.5; stroke: #ffffff; stroke-linejoin: miter"/>
   </g>
   <g id="patch_56">
    <path d="M 685.475476 306.883125 
L 712.565708 306.883125 
L 712.565708 306.883125 
L 685.475476 306.883125 
z
" clip-path="url(#p707a27a151)" style="fill: #66c2a5; fill-opacity: 0.5; stroke: #ffffff; stroke-linejoin: miter"/>
   </g>
   <g id="patch_57">
    <path d="M 712.565708 306.883125 
L 739.655939 306.883125 
L 739.655939 306.883125 
L 712.565708 306.883125 
z
" clip-path="url(#p707a27a151)" style="fill: #66c2a5; fill-opacity: 0.5; stroke: #ffffff; stroke-linejoin: miter"/>
   </g>
   <g id="patch_58">
    <path d="M 739.655939 306.883125 
L 766.74617 306.883125 
L 766.74617 306.874369 
L 739.655939 306.874369 
z
" clip-path="url(#p707a27a151)" style="fill: #66c2a5; fill-opacity: 0.5; stroke: #ffffff; stroke-linejoin: miter"/>
   </g>
   <g id="patch_59">
    <path d="M 766.74617 306.883125 
L 793.836402 306.883125 
L 793.836402 306.883125 
L 766.74617 306.883125 
z
" clip-path="url(#p707a27a151)" style="fill: #66c2a5; fill-opacity: 0.5; stroke: #ffffff; stroke-linejoin: miter"/>
   </g>
   <g id="patch_60">
    <path d="M 793.836402 306.883125 
L 820.926633 306.883125 
L 820.926633 306.883125 
L 793.836402 306.883125 
z
" clip-path="url(#p707a27a151)" style="fill: #66c2a5; fill-opacity: 0.5; stroke: #ffffff; stroke-linejoin: miter"/>
   </g>
   <g id="patch_61">
    <path d="M 820.926633 306.883125 
L 848.016864 306.883125 
L 848.016864 306.874369 
L 820.926633 306.874369 
z
" clip-path="url(#p707a27a151)" style="fill: #66c2a5; fill-opacity: 0.5; stroke: #ffffff; stroke-linejoin: miter"/>
   </g>
   <g id="patch_62">
    <path d="M 848.016864 306.883125 
L 875.107096 306.883125 
L 875.107096 306.865613 
L 848.016864 306.865613 
z
" clip-path="url(#p707a27a151)" style="fill: #66c2a5; fill-opacity: 0.5; stroke: #ffffff; stroke-linejoin: miter"/>
   </g>
   <g id="line2d_1">
    <path d="M 62.400156 306.417448 
L 66.484111 306.821315 
L 70.568065 306.878739 
L 82.819929 306.522691 
L 90.987838 305.609199 
L 95.071792 301.907049 
L 99.155746 289.519888 
L 103.239701 260.765953 
L 107.323655 208.995582 
L 111.40761 145.711844 
L 115.491564 78.246978 
L 119.575519 35.504554 
L 123.659473 35.819428 
L 127.743428 74.032054 
L 131.827382 120.671628 
L 135.911337 162.231587 
L 139.995291 202.370177 
L 144.079246 237.901939 
L 148.1632 257.126537 
L 152.247155 271.350411 
L 156.331109 281.923225 
L 160.415064 287.797312 
L 164.499018 292.277883 
L 168.582972 294.952689 
L 172.666927 297.960806 
L 176.750881 299.863438 
L 180.834836 302.164327 
L 184.91879 303.506391 
L 189.002745 304.377938 
L 197.170654 305.722722 
L 205.338563 305.900759 
L 209.422517 306.156184 
L 217.590426 306.139584 
L 221.674381 306.404698 
L 242.094153 306.38152 
L 246.178107 306.354021 
L 250.262062 306.479551 
L 254.346016 306.383904 
L 258.429971 306.404549 
L 266.59788 306.746974 
L 282.933698 306.868687 
L 303.35347 306.787077 
L 323.773242 306.88025 
L 336.025106 306.841639 
L 348.276969 306.883125 
L 875.107096 306.883125 
L 875.107096 306.883125 
" clip-path="url(#p707a27a151)" style="fill: none; stroke: #fc8d62; stroke-width: 1.5; stroke-linecap: round"/>
   </g>
   <g id="line2d_2">
    <path d="M 62.400156 304.240982 
L 70.568065 306.391323 
L 74.65202 306.334528 
L 78.735974 305.753659 
L 82.819929 304.675467 
L 86.903883 302.205879 
L 90.987838 296.755373 
L 95.071792 286.077837 
L 99.155746 265.326661 
L 103.239701 229.835241 
L 111.40761 137.870324 
L 115.491564 104.026035 
L 119.575519 88.88836 
L 123.659473 93.516839 
L 127.743428 114.584898 
L 135.911337 176.890052 
L 139.995291 203.99664 
L 144.079246 227.342955 
L 148.1632 245.485579 
L 152.247155 259.663781 
L 156.331109 270.527177 
L 160.415064 277.926541 
L 164.499018 283.213769 
L 168.582972 287.26947 
L 172.666927 289.655711 
L 176.750881 291.748369 
L 180.834836 294.108607 
L 184.91879 295.925982 
L 189.002745 297.101543 
L 193.086699 297.784023 
L 197.170654 298.278508 
L 201.254608 298.493932 
L 205.338563 299.456905 
L 209.422517 301.222376 
L 213.506472 302.755259 
L 217.590426 303.759231 
L 221.674381 304.275406 
L 225.758335 304.319267 
L 229.842289 304.642238 
L 233.926244 305.129388 
L 238.010198 305.211567 
L 242.094153 305.161341 
L 250.262062 305.510015 
L 254.346016 305.77244 
L 258.429971 305.89011 
L 266.59788 305.795092 
L 278.849743 306.14351 
L 287.017652 306.210018 
L 295.185561 306.467196 
L 299.269515 306.501027 
L 303.35347 306.396406 
L 340.10906 306.68793 
L 364.612787 306.498846 
L 372.780696 306.741969 
L 385.032559 306.661252 
L 405.452332 306.800078 
L 413.620241 306.755477 
L 429.956058 306.842888 
L 466.711649 306.865698 
L 478.963512 306.848264 
L 503.467239 306.882923 
L 875.107096 306.832783 
L 875.107096 306.832783 
" clip-path="url(#p707a27a151)" style="fill: none; stroke: #66c2a5; stroke-width: 1.5; stroke-linecap: round"/>
   </g>
   <g id="patch_63">
    <path d="M 62.400156 306.883125 
L 62.400156 21.935625 
" style="fill: none; stroke: #cccccc; stroke-width: 1.25; stroke-linejoin: miter; stroke-linecap: square"/>
   </g>
   <g id="patch_64">
    <path d="M 491.227656 306.883125 
L 491.227656 21.935625 
" style="fill: none; stroke: #cccccc; stroke-width: 1.25; stroke-linejoin: miter; stroke-linecap: square"/>
   </g>
   <g id="patch_65">
    <path d="M 62.400156 306.883125 
L 491.227656 306.883125 
" style="fill: none; stroke: #cccccc; stroke-width: 1.25; stroke-linejoin: miter; stroke-linecap: square"/>
   </g>
   <g id="patch_66">
    <path d="M 62.400156 21.935625 
L 491.227656 21.935625 
" style="fill: none; stroke: #cccccc; stroke-width: 1.25; stroke-linejoin: miter; stroke-linecap: square"/>
   </g>
   <g id="text_18">
    <!-- Punctuation Ratio by News Type -->
    <g style="fill: #262626" transform="translate(190.209531 15.935625) scale(0.12 -0.12)">
     <defs>
      <path id="ArialMT-62" d="M 941 0 
L 419 0 
L 419 4581 
L 981 4581 
L 981 2947 
Q 1338 3394 1891 3394 
Q 2197 3394 2470 3270 
Q 2744 3147 2920 2923 
Q 3097 2700 3197 2384 
Q 3297 2069 3297 1709 
Q 3297 856 2875 390 
Q 2453 -75 1863 -75 
Q 1275 -75 941 416 
L 941 0 
z
M 934 1684 
Q 934 1088 1097 822 
Q 1363 388 1816 388 
Q 2184 388 2453 708 
Q 2722 1028 2722 1663 
Q 2722 2313 2464 2622 
Q 2206 2931 1841 2931 
Q 1472 2931 1203 2611 
Q 934 2291 934 1684 
z
" transform="scale(0.015625)"/>
      <path id="ArialMT-4e" d="M 488 0 
L 488 4581 
L 1109 4581 
L 3516 984 
L 3516 4581 
L 4097 4581 
L 4097 0 
L 3475 0 
L 1069 3600 
L 1069 0 
L 488 0 
z
" transform="scale(0.015625)"/>
      <path id="ArialMT-77" d="M 1034 0 
L 19 3319 
L 600 3319 
L 1128 1403 
L 1325 691 
Q 1338 744 1497 1375 
L 2025 3319 
L 2603 3319 
L 3100 1394 
L 3266 759 
L 3456 1400 
L 4025 3319 
L 4572 3319 
L 3534 0 
L 2950 0 
L 2422 1988 
L 2294 2553 
L 1622 0 
L 1034 0 
z
" transform="scale(0.015625)"/>
      <path id="ArialMT-73" d="M 197 991 
L 753 1078 
Q 800 744 1014 566 
Q 1228 388 1613 388 
Q 2000 388 2187 545 
Q 2375 703 2375 916 
Q 2375 1106 2209 1216 
Q 2094 1291 1634 1406 
Q 1016 1563 777 1677 
Q 538 1791 414 1992 
Q 291 2194 291 2438 
Q 291 2659 392 2848 
Q 494 3038 669 3163 
Q 800 3259 1026 3326 
Q 1253 3394 1513 3394 
Q 1903 3394 2198 3281 
Q 2494 3169 2634 2976 
Q 2775 2784 2828 2463 
L 2278 2388 
Q 2241 2644 2061 2787 
Q 1881 2931 1553 2931 
Q 1166 2931 1000 2803 
Q 834 2675 834 2503 
Q 834 2394 903 2306 
Q 972 2216 1119 2156 
Q 1203 2125 1616 2013 
Q 2213 1853 2448 1751 
Q 2684 1650 2818 1456 
Q 2953 1263 2953 975 
Q 2953 694 2789 445 
Q 2625 197 2315 61 
Q 2006 -75 1616 -75 
Q 969 -75 630 194 
Q 291 463 197 991 
z
" transform="scale(0.015625)"/>
      <path id="ArialMT-54" d="M 1659 0 
L 1659 4041 
L 150 4041 
L 150 4581 
L 3781 4581 
L 3781 4041 
L 2266 4041 
L 2266 0 
L 1659 0 
z
" transform="scale(0.015625)"/>
      <path id="ArialMT-70" d="M 422 -1272 
L 422 3319 
L 934 3319 
L 934 2888 
Q 1116 3141 1344 3267 
Q 1572 3394 1897 3394 
Q 2322 3394 2647 3175 
Q 2972 2956 3137 2557 
Q 3303 2159 3303 1684 
Q 3303 1175 3120 767 
Q 2938 359 2589 142 
Q 2241 -75 1856 -75 
Q 1575 -75 1351 44 
Q 1128 163 984 344 
L 984 -1272 
L 422 -1272 
z
M 931 1641 
Q 931 1000 1190 694 
Q 1450 388 1819 388 
Q 2194 388 2461 705 
Q 2728 1022 2728 1688 
Q 2728 2322 2467 2637 
Q 2206 2953 1844 2953 
Q 1484 2953 1207 2617 
Q 931 2281 931 1641 
z
" transform="scale(0.015625)"/>
     </defs>
     <use xlink:href="#ArialMT-50"/>
     <use xlink:href="#ArialMT-75" transform="translate(66.699219 0)"/>
     <use xlink:href="#ArialMT-6e" transform="translate(122.314453 0)"/>
     <use xlink:href="#ArialMT-63" transform="translate(177.929688 0)"/>
     <use xlink:href="#ArialMT-74" transform="translate(227.929688 0)"/>
     <use xlink:href="#ArialMT-75" transform="translate(255.712891 0)"/>
     <use xlink:href="#ArialMT-61" transform="translate(311.328125 0)"/>
     <use xlink:href="#ArialMT-74" transform="translate(366.943359 0)"/>
     <use xlink:href="#ArialMT-69" transform="translate(394.726562 0)"/>
     <use xlink:href="#ArialMT-6f" transform="translate(416.943359 0)"/>
     <use xlink:href="#ArialMT-6e" transform="translate(472.558594 0)"/>
     <use xlink:href="#ArialMT-20" transform="translate(528.173828 0)"/>
     <use xlink:href="#ArialMT-52" transform="translate(555.957031 0)"/>
     <use xlink:href="#ArialMT-61" transform="translate(628.173828 0)"/>
     <use xlink:href="#ArialMT-74" transform="translate(683.789062 0)"/>
     <use xlink:href="#ArialMT-69" transform="translate(711.572266 0)"/>
     <use xlink:href="#ArialMT-6f" transform="translate(733.789062 0)"/>
     <use xlink:href="#ArialMT-20" transform="translate(789.404297 0)"/>
     <use xlink:href="#ArialMT-62" transform="translate(817.1875 0)"/>
     <use xlink:href="#ArialMT-79" transform="translate(872.802734 0)"/>
     <use xlink:href="#ArialMT-20" transform="translate(922.802734 0)"/>
     <use xlink:href="#ArialMT-4e" transform="translate(950.585938 0)"/>
     <use xlink:href="#ArialMT-65" transform="translate(1022.802734 0)"/>
     <use xlink:href="#ArialMT-77" transform="translate(1078.417969 0)"/>
     <use xlink:href="#ArialMT-73" transform="translate(1150.634766 0)"/>
     <use xlink:href="#ArialMT-20" transform="translate(1200.634766 0)"/>
     <use xlink:href="#ArialMT-54" transform="translate(1226.667969 0)"/>
     <use xlink:href="#ArialMT-79" transform="translate(1282.251953 0)"/>
     <use xlink:href="#ArialMT-70" transform="translate(1332.251953 0)"/>
     <use xlink:href="#ArialMT-65" transform="translate(1387.867188 0)"/>
    </g>
   </g>
   <g id="legend_1">
    <g id="patch_67">
     <path d="M 423.875 78.329687 
L 483.527656 78.329687 
Q 485.727656 78.329687 485.727656 76.129687 
L 485.727656 29.635625 
Q 485.727656 27.435625 483.527656 27.435625 
L 423.875 27.435625 
Q 421.675 27.435625 421.675 29.635625 
L 421.675 76.129687 
Q 421.675 78.329687 423.875 78.329687 
z
" style="fill: #ffffff; opacity: 0.8; stroke: #cccccc; stroke-linejoin: miter"/>
    </g>
    <g id="text_19">
     <!-- Label -->
     <g style="fill: #262626" transform="translate(439.021953 40.425) scale(0.12 -0.12)">
      <defs>
       <path id="ArialMT-4c" d="M 469 0 
L 469 4581 
L 1075 4581 
L 1075 541 
L 3331 541 
L 3331 0 
L 469 0 
z
" transform="scale(0.015625)"/>
       <path id="ArialMT-6c" d="M 409 0 
L 409 4581 
L 972 4581 
L 972 0 
L 409 0 
z
" transform="scale(0.015625)"/>
      </defs>
      <use xlink:href="#ArialMT-4c"/>
      <use xlink:href="#ArialMT-61" transform="translate(55.615234 0)"/>
      <use xlink:href="#ArialMT-62" transform="translate(111.230469 0)"/>
      <use xlink:href="#ArialMT-65" transform="translate(166.845703 0)"/>
      <use xlink:href="#ArialMT-6c" transform="translate(222.460938 0)"/>
     </g>
    </g>
    <g id="line2d_3">
     <path d="M 426.075 52.333594 
L 437.075 52.333594 
L 448.075 52.333594 
" style="fill: none; stroke: #fc8d62; stroke-width: 1.5; stroke-linecap: round"/>
    </g>
    <g id="text_20">
     <!-- Fake -->
     <g style="fill: #262626" transform="translate(456.875 56.183594) scale(0.11 -0.11)">
      <defs>
       <path id="ArialMT-6b" d="M 425 0 
L 425 4581 
L 988 4581 
L 988 1969 
L 2319 3319 
L 3047 3319 
L 1778 2088 
L 3175 0 
L 2481 0 
L 1384 1697 
L 988 1316 
L 988 0 
L 425 0 
z
" transform="scale(0.015625)"/>
      </defs>
      <use xlink:href="#ArialMT-46"/>
      <use xlink:href="#ArialMT-61" transform="translate(61.083984 0)"/>
      <use xlink:href="#ArialMT-6b" transform="translate(116.699219 0)"/>
      <use xlink:href="#ArialMT-65" transform="translate(166.699219 0)"/>
     </g>
    </g>
    <g id="line2d_4">
     <path d="M 426.075 67.893437 
L 437.075 67.893437 
L 448.075 67.893437 
" style="fill: none; stroke: #66c2a5; stroke-width: 1.5; stroke-linecap: round"/>
    </g>
    <g id="text_21">
     <!-- Real -->
     <g style="fill: #262626" transform="translate(456.875 71.743437) scale(0.11 -0.11)">
      <use xlink:href="#ArialMT-52"/>
      <use xlink:href="#ArialMT-65" transform="translate(72.216797 0)"/>
      <use xlink:href="#ArialMT-61" transform="translate(127.832031 0)"/>
      <use xlink:href="#ArialMT-6c" transform="translate(183.447266 0)"/>
     </g>
    </g>
   </g>
  </g>
  <g id="axes_2">
   <g id="patch_68">
    <path d="M 553.057656 306.883125 
L 981.885156 306.883125 
L 981.885156 21.935625 
L 553.057656 21.935625 
z
" style="fill: #ffffff"/>
   </g>
   <g id="matplotlib.axis_3">
    <g id="xtick_9">
     <g id="text_22">
      <!-- 0.0 -->
      <g style="fill: #262626" transform="translate(564.904815 324.256719) scale(0.11 -0.11)">
       <use xlink:href="#ArialMT-30"/>
       <use xlink:href="#ArialMT-2e" transform="translate(55.615234 0)"/>
       <use xlink:href="#ArialMT-30" transform="translate(83.398438 0)"/>
      </g>
     </g>
    </g>
    <g id="xtick_10">
     <g id="text_23">
      <!-- 0.1 -->
      <g style="fill: #262626" transform="translate(623.381293 324.256719) scale(0.11 -0.11)">
       <use xlink:href="#ArialMT-30"/>
       <use xlink:href="#ArialMT-2e" transform="translate(55.615234 0)"/>
       <use xlink:href="#ArialMT-31" transform="translate(83.398438 0)"/>
      </g>
     </g>
    </g>
    <g id="xtick_11">
     <g id="text_24">
      <!-- 0.2 -->
      <g style="fill: #262626" transform="translate(681.85777 324.256719) scale(0.11 -0.11)">
       <use xlink:href="#ArialMT-30"/>
       <use xlink:href="#ArialMT-2e" transform="translate(55.615234 0)"/>
       <use xlink:href="#ArialMT-32" transform="translate(83.398438 0)"/>
      </g>
     </g>
    </g>
    <g id="xtick_12">
     <g id="text_25">
      <!-- 0.3 -->
      <g style="fill: #262626" transform="translate(740.334247 324.256719) scale(0.11 -0.11)">
       <use xlink:href="#ArialMT-30"/>
       <use xlink:href="#ArialMT-2e" transform="translate(55.615234 0)"/>
       <use xlink:href="#ArialMT-33" transform="translate(83.398438 0)"/>
      </g>
     </g>
    </g>
    <g id="xtick_13">
     <g id="text_26">
      <!-- 0.4 -->
      <g style="fill: #262626" transform="translate(798.810724 324.256719) scale(0.11 -0.11)">
       <use xlink:href="#ArialMT-30"/>
       <use xlink:href="#ArialMT-2e" transform="translate(55.615234 0)"/>
       <use xlink:href="#ArialMT-34" transform="translate(83.398438 0)"/>
      </g>
     </g>
    </g>
    <g id="xtick_14">
     <g id="text_27">
      <!-- 0.5 -->
      <g style="fill: #262626" transform="translate(857.287202 324.256719) scale(0.11 -0.11)">
       <use xlink:href="#ArialMT-30"/>
       <use xlink:href="#ArialMT-2e" transform="translate(55.615234 0)"/>
       <use xlink:href="#ArialMT-35" transform="translate(83.398438 0)"/>
      </g>
     </g>
    </g>
    <g id="xtick_15">
     <g id="text_28">
      <!-- 0.6 -->
      <g style="fill: #262626" transform="translate(915.763679 324.256719) scale(0.11 -0.11)">
       <use xlink:href="#ArialMT-30"/>
       <use xlink:href="#ArialMT-2e" transform="translate(55.615234 0)"/>
       <use xlink:href="#ArialMT-36" transform="translate(83.398438 0)"/>
      </g>
     </g>
    </g>
    <g id="xtick_16">
     <g id="text_29">
      <!-- 0.7 -->
      <g style="fill: #262626" transform="translate(974.240156 324.256719) scale(0.11 -0.11)">
       <defs>
        <path id="ArialMT-37" d="M 303 3981 
L 303 4522 
L 3269 4522 
L 3269 4084 
Q 2831 3619 2401 2847 
Q 1972 2075 1738 1259 
Q 1569 684 1522 0 
L 944 0 
Q 953 541 1156 1306 
Q 1359 2072 1739 2783 
Q 2119 3494 2547 3981 
L 303 3981 
z
" transform="scale(0.015625)"/>
       </defs>
       <use xlink:href="#ArialMT-30"/>
       <use xlink:href="#ArialMT-2e" transform="translate(55.615234 0)"/>
       <use xlink:href="#ArialMT-37" transform="translate(83.398438 0)"/>
      </g>
     </g>
    </g>
    <g id="text_30">
     <!-- Stopword Ratio -->
     <g style="fill: #262626" transform="translate(726.452031 339.178594) scale(0.12 -0.12)">
      <defs>
       <path id="ArialMT-53" d="M 288 1472 
L 859 1522 
Q 900 1178 1048 958 
Q 1197 738 1509 602 
Q 1822 466 2213 466 
Q 2559 466 2825 569 
Q 3091 672 3220 851 
Q 3350 1031 3350 1244 
Q 3350 1459 3225 1620 
Q 3100 1781 2813 1891 
Q 2628 1963 1997 2114 
Q 1366 2266 1113 2400 
Q 784 2572 623 2826 
Q 463 3081 463 3397 
Q 463 3744 659 4045 
Q 856 4347 1234 4503 
Q 1613 4659 2075 4659 
Q 2584 4659 2973 4495 
Q 3363 4331 3572 4012 
Q 3781 3694 3797 3291 
L 3216 3247 
Q 3169 3681 2898 3903 
Q 2628 4125 2100 4125 
Q 1550 4125 1298 3923 
Q 1047 3722 1047 3438 
Q 1047 3191 1225 3031 
Q 1400 2872 2139 2705 
Q 2878 2538 3153 2413 
Q 3553 2228 3743 1945 
Q 3934 1663 3934 1294 
Q 3934 928 3725 604 
Q 3516 281 3123 101 
Q 2731 -78 2241 -78 
Q 1619 -78 1198 103 
Q 778 284 539 648 
Q 300 1013 288 1472 
z
" transform="scale(0.015625)"/>
       <path id="ArialMT-64" d="M 2575 0 
L 2575 419 
Q 2259 -75 1647 -75 
Q 1250 -75 917 144 
Q 584 363 401 755 
Q 219 1147 219 1656 
Q 219 2153 384 2558 
Q 550 2963 881 3178 
Q 1213 3394 1622 3394 
Q 1922 3394 2156 3267 
Q 2391 3141 2538 2938 
L 2538 4581 
L 3097 4581 
L 3097 0 
L 2575 0 
z
M 797 1656 
Q 797 1019 1065 703 
Q 1334 388 1700 388 
Q 2069 388 2326 689 
Q 2584 991 2584 1609 
Q 2584 2291 2321 2609 
Q 2059 2928 1675 2928 
Q 1300 2928 1048 2622 
Q 797 2316 797 1656 
z
" transform="scale(0.015625)"/>
      </defs>
      <use xlink:href="#ArialMT-53"/>
      <use xlink:href="#ArialMT-74" transform="translate(66.699219 0)"/>
      <use xlink:href="#ArialMT-6f" transform="translate(94.482422 0)"/>
      <use xlink:href="#ArialMT-70" transform="translate(150.097656 0)"/>
      <use xlink:href="#ArialMT-77" transform="translate(205.712891 0)"/>
      <use xlink:href="#ArialMT-6f" transform="translate(277.929688 0)"/>
      <use xlink:href="#ArialMT-72" transform="translate(333.544922 0)"/>
      <use xlink:href="#ArialMT-64" transform="translate(366.845703 0)"/>
      <use xlink:href="#ArialMT-20" transform="translate(422.460938 0)"/>
      <use xlink:href="#ArialMT-52" transform="translate(450.244141 0)"/>
      <use xlink:href="#ArialMT-61" transform="translate(522.460938 0)"/>
      <use xlink:href="#ArialMT-74" transform="translate(578.076172 0)"/>
      <use xlink:href="#ArialMT-69" transform="translate(605.859375 0)"/>
      <use xlink:href="#ArialMT-6f" transform="translate(628.076172 0)"/>
     </g>
    </g>
   </g>
   <g id="matplotlib.axis_4">
    <g id="ytick_8">
     <g id="text_31">
      <!-- 0 -->
      <g style="fill: #262626" transform="translate(537.440625 310.819922) scale(0.11 -0.11)">
       <use xlink:href="#ArialMT-30"/>
      </g>
     </g>
    </g>
    <g id="ytick_9">
     <g id="text_32">
      <!-- 2000 -->
      <g style="fill: #262626" transform="translate(519.089531 251.131003) scale(0.11 -0.11)">
       <use xlink:href="#ArialMT-32"/>
       <use xlink:href="#ArialMT-30" transform="translate(55.615234 0)"/>
       <use xlink:href="#ArialMT-30" transform="translate(111.230469 0)"/>
       <use xlink:href="#ArialMT-30" transform="translate(166.845703 0)"/>
      </g>
     </g>
    </g>
    <g id="ytick_10">
     <g id="text_33">
      <!-- 4000 -->
      <g style="fill: #262626" transform="translate(519.089531 191.442084) scale(0.11 -0.11)">
       <use xlink:href="#ArialMT-34"/>
       <use xlink:href="#ArialMT-30" transform="translate(55.615234 0)"/>
       <use xlink:href="#ArialMT-30" transform="translate(111.230469 0)"/>
       <use xlink:href="#ArialMT-30" transform="translate(166.845703 0)"/>
      </g>
     </g>
    </g>
    <g id="ytick_11">
     <g id="text_34">
      <!-- 6000 -->
      <g style="fill: #262626" transform="translate(519.089531 131.753166) scale(0.11 -0.11)">
       <use xlink:href="#ArialMT-36"/>
       <use xlink:href="#ArialMT-30" transform="translate(55.615234 0)"/>
       <use xlink:href="#ArialMT-30" transform="translate(111.230469 0)"/>
       <use xlink:href="#ArialMT-30" transform="translate(166.845703 0)"/>
      </g>
     </g>
    </g>
    <g id="ytick_12">
     <g id="text_35">
      <!-- 8000 -->
      <g style="fill: #262626" transform="translate(519.089531 72.064247) scale(0.11 -0.11)">
       <use xlink:href="#ArialMT-38"/>
       <use xlink:href="#ArialMT-30" transform="translate(55.615234 0)"/>
       <use xlink:href="#ArialMT-30" transform="translate(111.230469 0)"/>
       <use xlink:href="#ArialMT-30" transform="translate(166.845703 0)"/>
      </g>
     </g>
    </g>
    <g id="text_36">
     <!-- Frequency -->
     <g style="fill: #262626" transform="translate(512.563906 192.754687) rotate(-90) scale(0.12 -0.12)">
      <use xlink:href="#ArialMT-46"/>
      <use xlink:href="#ArialMT-72" transform="translate(61.083984 0)"/>
      <use xlink:href="#ArialMT-65" transform="translate(94.384766 0)"/>
      <use xlink:href="#ArialMT-71" transform="translate(150 0)"/>
      <use xlink:href="#ArialMT-75" transform="translate(205.615234 0)"/>
      <use xlink:href="#ArialMT-65" transform="translate(261.230469 0)"/>
      <use xlink:href="#ArialMT-6e" transform="translate(316.845703 0)"/>
      <use xlink:href="#ArialMT-63" transform="translate(372.460938 0)"/>
      <use xlink:href="#ArialMT-79" transform="translate(422.460938 0)"/>
     </g>
    </g>
   </g>
   <g id="patch_69">
    <path d="M 572.549815 306.883125 
L 585.544588 306.883125 
L 585.544588 306.793592 
L 572.549815 306.793592 
z
" clip-path="url(#pa8ba179687)" style="fill: #fc8d62; fill-opacity: 0.5; stroke: #ffffff; stroke-linejoin: miter"/>
   </g>
   <g id="patch_70">
    <path d="M 585.544588 306.883125 
L 598.539361 306.883125 
L 598.539361 306.883125 
L 585.544588 306.883125 
z
" clip-path="url(#pa8ba179687)" style="fill: #fc8d62; fill-opacity: 0.5; stroke: #ffffff; stroke-linejoin: miter"/>
   </g>
   <g id="patch_71">
    <path d="M 598.539361 306.883125 
L 611.534134 306.883125 
L 611.534134 306.883125 
L 598.539361 306.883125 
z
" clip-path="url(#pa8ba179687)" style="fill: #fc8d62; fill-opacity: 0.5; stroke: #ffffff; stroke-linejoin: miter"/>
   </g>
   <g id="patch_72">
    <path d="M 611.534134 306.883125 
L 624.528906 306.883125 
L 624.528906 306.823436 
L 611.534134 306.823436 
z
" clip-path="url(#pa8ba179687)" style="fill: #fc8d62; fill-opacity: 0.5; stroke: #ffffff; stroke-linejoin: miter"/>
   </g>
   <g id="patch_73">
    <path d="M 624.528906 306.883125 
L 637.523679 306.883125 
L 637.523679 306.853281 
L 624.528906 306.853281 
z
" clip-path="url(#pa8ba179687)" style="fill: #fc8d62; fill-opacity: 0.5; stroke: #ffffff; stroke-linejoin: miter"/>
   </g>
   <g id="patch_74">
    <path d="M 637.523679 306.883125 
L 650.518452 306.883125 
L 650.518452 306.853281 
L 637.523679 306.853281 
z
" clip-path="url(#pa8ba179687)" style="fill: #fc8d62; fill-opacity: 0.5; stroke: #ffffff; stroke-linejoin: miter"/>
   </g>
   <g id="patch_75">
    <path d="M 650.518452 306.883125 
L 663.513224 306.883125 
L 663.513224 306.674214 
L 650.518452 306.674214 
z
" clip-path="url(#pa8ba179687)" style="fill: #fc8d62; fill-opacity: 0.5; stroke: #ffffff; stroke-linejoin: miter"/>
   </g>
   <g id="patch_76">
    <path d="M 663.513224 306.883125 
L 676.507997 306.883125 
L 676.507997 306.375769 
L 663.513224 306.375769 
z
" clip-path="url(#pa8ba179687)" style="fill: #fc8d62; fill-opacity: 0.5; stroke: #ffffff; stroke-linejoin: miter"/>
   </g>
   <g id="patch_77">
    <path d="M 676.507997 306.883125 
L 689.50277 306.883125 
L 689.50277 306.017636 
L 676.507997 306.017636 
z
" clip-path="url(#pa8ba179687)" style="fill: #fc8d62; fill-opacity: 0.5; stroke: #ffffff; stroke-linejoin: miter"/>
   </g>
   <g id="patch_78">
    <path d="M 689.50277 306.883125 
L 702.497543 306.883125 
L 702.497543 304.704479 
L 689.50277 304.704479 
z
" clip-path="url(#pa8ba179687)" style="fill: #fc8d62; fill-opacity: 0.5; stroke: #ffffff; stroke-linejoin: miter"/>
   </g>
   <g id="patch_79">
    <path d="M 702.497543 306.883125 
L 715.492315 306.883125 
L 715.492315 303.003345 
L 702.497543 303.003345 
z
" clip-path="url(#pa8ba179687)" style="fill: #fc8d62; fill-opacity: 0.5; stroke: #ffffff; stroke-linejoin: miter"/>
   </g>
   <g id="patch_80">
    <path d="M 715.492315 306.883125 
L 728.487088 306.883125 
L 728.487088 298.974343 
L 715.492315 298.974343 
z
" clip-path="url(#pa8ba179687)" style="fill: #fc8d62; fill-opacity: 0.5; stroke: #ffffff; stroke-linejoin: miter"/>
   </g>
   <g id="patch_81">
    <path d="M 728.487088 306.883125 
L 741.481861 306.883125 
L 741.481861 290.647739 
L 728.487088 290.647739 
z
" clip-path="url(#pa8ba179687)" style="fill: #fc8d62; fill-opacity: 0.5; stroke: #ffffff; stroke-linejoin: miter"/>
   </g>
   <g id="patch_82">
    <path d="M 741.481861 306.883125 
L 754.476634 306.883125 
L 754.476634 278.053377 
L 741.481861 278.053377 
z
" clip-path="url(#pa8ba179687)" style="fill: #fc8d62; fill-opacity: 0.5; stroke: #ffffff; stroke-linejoin: miter"/>
   </g>
   <g id="patch_83">
    <path d="M 754.476634 306.883125 
L 767.471406 306.883125 
L 767.471406 255.670033 
L 754.476634 255.670033 
z
" clip-path="url(#pa8ba179687)" style="fill: #fc8d62; fill-opacity: 0.5; stroke: #ffffff; stroke-linejoin: miter"/>
   </g>
   <g id="patch_84">
    <path d="M 767.471406 306.883125 
L 780.466179 306.883125 
L 780.466179 190.579267 
L 767.471406 190.579267 
z
" clip-path="url(#pa8ba179687)" style="fill: #fc8d62; fill-opacity: 0.5; stroke: #ffffff; stroke-linejoin: miter"/>
   </g>
   <g id="patch_85">
    <path d="M 780.466179 306.883125 
L 793.460952 306.883125 
L 793.460952 100.090866 
L 780.466179 100.090866 
z
" clip-path="url(#pa8ba179687)" style="fill: #fc8d62; fill-opacity: 0.5; stroke: #ffffff; stroke-linejoin: miter"/>
   </g>
   <g id="patch_86">
    <path d="M 793.460952 306.883125 
L 806.455724 306.883125 
L 806.455724 39.655836 
L 793.460952 39.655836 
z
" clip-path="url(#pa8ba179687)" style="fill: #fc8d62; fill-opacity: 0.5; stroke: #ffffff; stroke-linejoin: miter"/>
   </g>
   <g id="patch_87">
    <path d="M 806.455724 306.883125 
L 819.450497 306.883125 
L 819.450497 96.061864 
L 806.455724 96.061864 
z
" clip-path="url(#pa8ba179687)" style="fill: #fc8d62; fill-opacity: 0.5; stroke: #ffffff; stroke-linejoin: miter"/>
   </g>
   <g id="patch_88">
    <path d="M 819.450497 306.883125 
L 832.44527 306.883125 
L 832.44527 213.559501 
L 819.450497 213.559501 
z
" clip-path="url(#pa8ba179687)" style="fill: #fc8d62; fill-opacity: 0.5; stroke: #ffffff; stroke-linejoin: miter"/>
   </g>
   <g id="patch_89">
    <path d="M 832.44527 306.883125 
L 845.440043 306.883125 
L 845.440043 277.87431 
L 832.44527 277.87431 
z
" clip-path="url(#pa8ba179687)" style="fill: #fc8d62; fill-opacity: 0.5; stroke: #ffffff; stroke-linejoin: miter"/>
   </g>
   <g id="patch_90">
    <path d="M 845.440043 306.883125 
L 858.434815 306.883125 
L 858.434815 299.362321 
L 845.440043 299.362321 
z
" clip-path="url(#pa8ba179687)" style="fill: #fc8d62; fill-opacity: 0.5; stroke: #ffffff; stroke-linejoin: miter"/>
   </g>
   <g id="patch_91">
    <path d="M 858.434815 306.883125 
L 871.429588 306.883125 
L 871.429588 304.883546 
L 858.434815 304.883546 
z
" clip-path="url(#pa8ba179687)" style="fill: #fc8d62; fill-opacity: 0.5; stroke: #ffffff; stroke-linejoin: miter"/>
   </g>
   <g id="patch_92">
    <path d="M 871.429588 306.883125 
L 884.424361 306.883125 
L 884.424361 306.644369 
L 871.429588 306.644369 
z
" clip-path="url(#pa8ba179687)" style="fill: #fc8d62; fill-opacity: 0.5; stroke: #ffffff; stroke-linejoin: miter"/>
   </g>
   <g id="patch_93">
    <path d="M 884.424361 306.883125 
L 897.419134 306.883125 
L 897.419134 306.763747 
L 884.424361 306.763747 
z
" clip-path="url(#pa8ba179687)" style="fill: #fc8d62; fill-opacity: 0.5; stroke: #ffffff; stroke-linejoin: miter"/>
   </g>
   <g id="patch_94">
    <path d="M 897.419134 306.883125 
L 910.413906 306.883125 
L 910.413906 306.883125 
L 897.419134 306.883125 
z
" clip-path="url(#pa8ba179687)" style="fill: #fc8d62; fill-opacity: 0.5; stroke: #ffffff; stroke-linejoin: miter"/>
   </g>
   <g id="patch_95">
    <path d="M 910.413906 306.883125 
L 923.408679 306.883125 
L 923.408679 306.883125 
L 910.413906 306.883125 
z
" clip-path="url(#pa8ba179687)" style="fill: #fc8d62; fill-opacity: 0.5; stroke: #ffffff; stroke-linejoin: miter"/>
   </g>
   <g id="patch_96">
    <path d="M 923.408679 306.883125 
L 936.403452 306.883125 
L 936.403452 306.883125 
L 923.408679 306.883125 
z
" clip-path="url(#pa8ba179687)" style="fill: #fc8d62; fill-opacity: 0.5; stroke: #ffffff; stroke-linejoin: miter"/>
   </g>
   <g id="patch_97">
    <path d="M 936.403452 306.883125 
L 949.398224 306.883125 
L 949.398224 306.883125 
L 936.403452 306.883125 
z
" clip-path="url(#pa8ba179687)" style="fill: #fc8d62; fill-opacity: 0.5; stroke: #ffffff; stroke-linejoin: miter"/>
   </g>
   <g id="patch_98">
    <path d="M 949.398224 306.883125 
L 962.392997 306.883125 
L 962.392997 306.883125 
L 949.398224 306.883125 
z
" clip-path="url(#pa8ba179687)" style="fill: #fc8d62; fill-opacity: 0.5; stroke: #ffffff; stroke-linejoin: miter"/>
   </g>
   <g id="patch_99">
    <path d="M 572.549815 306.883125 
L 585.544588 306.883125 
L 585.544588 297.989476 
L 572.549815 297.989476 
z
" clip-path="url(#pa8ba179687)" style="fill: #66c2a5; fill-opacity: 0.5; stroke: #ffffff; stroke-linejoin: miter"/>
   </g>
   <g id="patch_100">
    <path d="M 585.544588 306.883125 
L 598.539361 306.883125 
L 598.539361 303.689768 
L 585.544588 303.689768 
z
" clip-path="url(#pa8ba179687)" style="fill: #66c2a5; fill-opacity: 0.5; stroke: #ffffff; stroke-linejoin: miter"/>
   </g>
   <g id="patch_101">
    <path d="M 598.539361 306.883125 
L 611.534134 306.883125 
L 611.534134 304.286657 
L 598.539361 304.286657 
z
" clip-path="url(#pa8ba179687)" style="fill: #66c2a5; fill-opacity: 0.5; stroke: #ffffff; stroke-linejoin: miter"/>
   </g>
   <g id="patch_102">
    <path d="M 611.534134 306.883125 
L 624.528906 306.883125 
L 624.528906 304.764168 
L 611.534134 304.764168 
z
" clip-path="url(#pa8ba179687)" style="fill: #66c2a5; fill-opacity: 0.5; stroke: #ffffff; stroke-linejoin: miter"/>
   </g>
   <g id="patch_103">
    <path d="M 624.528906 306.883125 
L 637.523679 306.883125 
L 637.523679 305.002924 
L 624.528906 305.002924 
z
" clip-path="url(#pa8ba179687)" style="fill: #66c2a5; fill-opacity: 0.5; stroke: #ffffff; stroke-linejoin: miter"/>
   </g>
   <g id="patch_104">
    <path d="M 637.523679 306.883125 
L 650.518452 306.883125 
L 650.518452 304.794013 
L 637.523679 304.794013 
z
" clip-path="url(#pa8ba179687)" style="fill: #66c2a5; fill-opacity: 0.5; stroke: #ffffff; stroke-linejoin: miter"/>
   </g>
   <g id="patch_105">
    <path d="M 650.518452 306.883125 
L 663.513224 306.883125 
L 663.513224 303.391323 
L 650.518452 303.391323 
z
" clip-path="url(#pa8ba179687)" style="fill: #66c2a5; fill-opacity: 0.5; stroke: #ffffff; stroke-linejoin: miter"/>
   </g>
   <g id="patch_106">
    <path d="M 663.513224 306.883125 
L 676.507997 306.883125 
L 676.507997 303.361479 
L 663.513224 303.361479 
z
" clip-path="url(#pa8ba179687)" style="fill: #66c2a5; fill-opacity: 0.5; stroke: #ffffff; stroke-linejoin: miter"/>
   </g>
   <g id="patch_107">
    <path d="M 676.507997 306.883125 
L 689.50277 306.883125 
L 689.50277 304.077746 
L 676.507997 304.077746 
z
" clip-path="url(#pa8ba179687)" style="fill: #66c2a5; fill-opacity: 0.5; stroke: #ffffff; stroke-linejoin: miter"/>
   </g>
   <g id="patch_108">
    <path d="M 689.50277 306.883125 
L 702.497543 306.883125 
L 702.497543 301.779722 
L 689.50277 301.779722 
z
" clip-path="url(#pa8ba179687)" style="fill: #66c2a5; fill-opacity: 0.5; stroke: #ffffff; stroke-linejoin: miter"/>
   </g>
   <g id="patch_109">
    <path d="M 702.497543 306.883125 
L 715.492315 306.883125 
L 715.492315 299.899522 
L 702.497543 299.899522 
z
" clip-path="url(#pa8ba179687)" style="fill: #66c2a5; fill-opacity: 0.5; stroke: #ffffff; stroke-linejoin: miter"/>
   </g>
   <g id="patch_110">
    <path d="M 715.492315 306.883125 
L 728.487088 306.883125 
L 728.487088 298.228232 
L 715.492315 298.228232 
z
" clip-path="url(#pa8ba179687)" style="fill: #66c2a5; fill-opacity: 0.5; stroke: #ffffff; stroke-linejoin: miter"/>
   </g>
   <g id="patch_111">
    <path d="M 728.487088 306.883125 
L 741.481861 306.883125 
L 741.481861 293.06514 
L 728.487088 293.06514 
z
" clip-path="url(#pa8ba179687)" style="fill: #66c2a5; fill-opacity: 0.5; stroke: #ffffff; stroke-linejoin: miter"/>
   </g>
   <g id="patch_112">
    <path d="M 741.481861 306.883125 
L 754.476634 306.883125 
L 754.476634 284.201336 
L 741.481861 284.201336 
z
" clip-path="url(#pa8ba179687)" style="fill: #66c2a5; fill-opacity: 0.5; stroke: #ffffff; stroke-linejoin: miter"/>
   </g>
   <g id="patch_113">
    <path d="M 754.476634 306.883125 
L 767.471406 306.883125 
L 767.471406 277.575866 
L 754.476634 277.575866 
z
" clip-path="url(#pa8ba179687)" style="fill: #66c2a5; fill-opacity: 0.5; stroke: #ffffff; stroke-linejoin: miter"/>
   </g>
   <g id="patch_114">
    <path d="M 767.471406 306.883125 
L 780.466179 306.883125 
L 780.466179 248.686429 
L 767.471406 248.686429 
z
" clip-path="url(#pa8ba179687)" style="fill: #66c2a5; fill-opacity: 0.5; stroke: #ffffff; stroke-linejoin: miter"/>
   </g>
   <g id="patch_115">
    <path d="M 780.466179 306.883125 
L 793.460952 306.883125 
L 793.460952 206.008852 
L 780.466179 206.008852 
z
" clip-path="url(#pa8ba179687)" style="fill: #66c2a5; fill-opacity: 0.5; stroke: #ffffff; stroke-linejoin: miter"/>
   </g>
   <g id="patch_116">
    <path d="M 793.460952 306.883125 
L 806.455724 306.883125 
L 806.455724 159.093362 
L 793.460952 159.093362 
z
" clip-path="url(#pa8ba179687)" style="fill: #66c2a5; fill-opacity: 0.5; stroke: #ffffff; stroke-linejoin: miter"/>
   </g>
   <g id="patch_117">
    <path d="M 806.455724 306.883125 
L 819.450497 306.883125 
L 819.450497 117.221586 
L 806.455724 117.221586 
z
" clip-path="url(#pa8ba179687)" style="fill: #66c2a5; fill-opacity: 0.5; stroke: #ffffff; stroke-linejoin: miter"/>
   </g>
   <g id="patch_118">
    <path d="M 819.450497 306.883125 
L 832.44527 306.883125 
L 832.44527 118.355675 
L 819.450497 118.355675 
z
" clip-path="url(#pa8ba179687)" style="fill: #66c2a5; fill-opacity: 0.5; stroke: #ffffff; stroke-linejoin: miter"/>
   </g>
   <g id="patch_119">
    <path d="M 832.44527 306.883125 
L 845.440043 306.883125 
L 845.440043 154.915138 
L 832.44527 154.915138 
z
" clip-path="url(#pa8ba179687)" style="fill: #66c2a5; fill-opacity: 0.5; stroke: #ffffff; stroke-linejoin: miter"/>
   </g>
   <g id="patch_120">
    <path d="M 845.440043 306.883125 
L 858.434815 306.883125 
L 858.434815 223.438017 
L 845.440043 223.438017 
z
" clip-path="url(#pa8ba179687)" style="fill: #66c2a5; fill-opacity: 0.5; stroke: #ffffff; stroke-linejoin: miter"/>
   </g>
   <g id="patch_121">
    <path d="M 858.434815 306.883125 
L 871.429588 306.883125 
L 871.429588 269.726773 
L 858.434815 269.726773 
z
" clip-path="url(#pa8ba179687)" style="fill: #66c2a5; fill-opacity: 0.5; stroke: #ffffff; stroke-linejoin: miter"/>
   </g>
   <g id="patch_122">
    <path d="M 871.429588 306.883125 
L 884.424361 306.883125 
L 884.424361 296.079431 
L 871.429588 296.079431 
z
" clip-path="url(#pa8ba179687)" style="fill: #66c2a5; fill-opacity: 0.5; stroke: #ffffff; stroke-linejoin: miter"/>
   </g>
   <g id="patch_123">
    <path d="M 884.424361 306.883125 
L 897.419134 306.883125 
L 897.419134 303.659923 
L 884.424361 303.659923 
z
" clip-path="url(#pa8ba179687)" style="fill: #66c2a5; fill-opacity: 0.5; stroke: #ffffff; stroke-linejoin: miter"/>
   </g>
   <g id="patch_124">
    <path d="M 897.419134 306.883125 
L 910.413906 306.883125 
L 910.413906 306.345925 
L 897.419134 306.345925 
z
" clip-path="url(#pa8ba179687)" style="fill: #66c2a5; fill-opacity: 0.5; stroke: #ffffff; stroke-linejoin: miter"/>
   </g>
   <g id="patch_125">
    <path d="M 910.413906 306.883125 
L 923.408679 306.883125 
L 923.408679 306.793592 
L 910.413906 306.793592 
z
" clip-path="url(#pa8ba179687)" style="fill: #66c2a5; fill-opacity: 0.5; stroke: #ffffff; stroke-linejoin: miter"/>
   </g>
   <g id="patch_126">
    <path d="M 923.408679 306.883125 
L 936.403452 306.883125 
L 936.403452 306.823436 
L 923.408679 306.823436 
z
" clip-path="url(#pa8ba179687)" style="fill: #66c2a5; fill-opacity: 0.5; stroke: #ffffff; stroke-linejoin: miter"/>
   </g>
   <g id="patch_127">
    <path d="M 936.403452 306.883125 
L 949.398224 306.883125 
L 949.398224 306.883125 
L 936.403452 306.883125 
z
" clip-path="url(#pa8ba179687)" style="fill: #66c2a5; fill-opacity: 0.5; stroke: #ffffff; stroke-linejoin: miter"/>
   </g>
   <g id="patch_128">
    <path d="M 949.398224 306.883125 
L 962.392997 306.883125 
L 962.392997 306.763747 
L 949.398224 306.763747 
z
" clip-path="url(#pa8ba179687)" style="fill: #66c2a5; fill-opacity: 0.5; stroke: #ffffff; stroke-linejoin: miter"/>
   </g>
   <g id="line2d_5">
    <path d="M 572.549815 306.779639 
L 592.139925 306.880222 
L 615.648057 306.822805 
L 623.4841 306.837757 
L 645.033221 306.816474 
L 654.828276 306.728999 
L 658.746298 306.736395 
L 666.582342 306.430051 
L 670.500364 306.26153 
L 676.377396 306.17408 
L 684.21344 305.927444 
L 688.131462 305.521924 
L 694.008495 305.16411 
L 699.885528 304.36101 
L 703.80355 304.118841 
L 705.762561 303.7624 
L 709.680583 302.661663 
L 715.557616 300.850107 
L 719.475638 299.413493 
L 723.39366 298.470602 
L 725.352671 297.634143 
L 727.311681 296.305999 
L 731.229703 292.899906 
L 733.188714 291.566326 
L 737.106736 289.810676 
L 739.065747 288.402369 
L 742.983769 284.407573 
L 744.94278 282.225998 
L 746.901791 279.595272 
L 754.737835 266.730976 
L 756.696846 262.843452 
L 760.614868 253.764252 
L 762.573879 248.888514 
L 764.53289 242.775601 
L 766.491901 234.839332 
L 768.450912 225.35514 
L 770.409923 214.814272 
L 774.327945 191.650542 
L 778.245967 166.775823 
L 780.204978 153.09933 
L 782.163988 137.977293 
L 786.08201 105.554046 
L 791.959043 62.537717 
L 793.918054 48.955937 
L 795.877065 39.787323 
L 797.836076 35.821076 
L 799.795087 35.504554 
L 801.754098 37.788895 
L 803.713109 42.398788 
L 805.67212 48.884877 
L 807.631131 57.488082 
L 809.590142 69.476871 
L 811.549153 85.294104 
L 819.385197 157.874635 
L 825.26223 210.036313 
L 827.221241 225.123739 
L 829.180252 237.739314 
L 831.139263 248.202694 
L 833.098274 257.066328 
L 835.057285 264.88939 
L 837.016295 272.158441 
L 838.975306 278.76945 
L 840.934317 284.19074 
L 842.893328 288.367673 
L 844.852339 291.791925 
L 846.81135 294.771079 
L 848.770361 297.153063 
L 850.729372 298.827339 
L 854.647394 301.261921 
L 856.606405 302.34577 
L 858.565416 303.209261 
L 860.524427 303.817501 
L 868.360471 305.538314 
L 872.278493 306.157068 
L 878.155526 306.614534 
L 882.073548 306.747364 
L 889.909591 306.736158 
L 897.745635 306.880752 
L 962.392997 306.883125 
L 962.392997 306.883125 
" clip-path="url(#pa8ba179687)" style="fill: none; stroke: #fc8d62; stroke-width: 1.5; stroke-linecap: round"/>
   </g>
   <g id="line2d_6">
    <path d="M 572.549815 299.385311 
L 574.508826 299.504437 
L 576.467837 300.27934 
L 580.385859 302.434689 
L 582.34487 303.212274 
L 584.303881 303.652726 
L 586.262892 303.832012 
L 607.812013 304.18173 
L 613.689046 304.393187 
L 621.525089 304.85302 
L 627.402122 304.932202 
L 648.951243 304.619017 
L 662.66432 303.526896 
L 672.459375 302.94749 
L 676.377396 302.974209 
L 686.172451 303.35695 
L 690.090473 303.074992 
L 695.967506 302.192384 
L 711.639594 299.512902 
L 719.475638 298.029516 
L 723.39366 297.434404 
L 725.352671 297.003495 
L 727.311681 296.41472 
L 731.229703 294.882326 
L 735.147725 293.112333 
L 737.106736 292.087918 
L 739.065747 290.916368 
L 742.983769 288.197945 
L 748.860802 283.971438 
L 754.737835 279.831696 
L 756.696846 278.272979 
L 758.655857 276.491028 
L 760.614868 274.398785 
L 762.573879 271.931827 
L 764.53289 269.064729 
L 766.491901 265.811316 
L 768.450912 262.206496 
L 770.409923 258.279 
L 772.368934 254.029168 
L 774.327945 249.42075 
L 776.286956 244.386927 
L 778.245967 238.845506 
L 780.204978 232.718961 
L 782.163988 225.959784 
L 784.122999 218.582781 
L 788.041021 202.503142 
L 791.959043 186.207867 
L 795.877065 171.06679 
L 799.795087 157.189666 
L 803.713109 144.602324 
L 807.631131 133.346288 
L 809.590142 128.173083 
L 811.549153 123.383484 
L 813.508164 119.156934 
L 815.467175 115.73935 
L 817.426186 113.393206 
L 819.385197 112.343812 
L 821.344208 112.72033 
L 823.303219 114.501941 
L 825.26223 117.505041 
L 827.221241 121.443266 
L 829.180252 126.046377 
L 831.139263 131.174174 
L 833.098274 136.855725 
L 835.057285 143.231875 
L 837.016295 150.443191 
L 838.975306 158.535421 
L 840.934317 167.429901 
L 844.852339 186.880281 
L 850.729372 216.626681 
L 852.688383 225.742815 
L 854.647394 234.188692 
L 856.606405 241.941675 
L 858.565416 249.070068 
L 860.524427 255.686145 
L 862.483438 261.887175 
L 864.442449 267.712899 
L 866.40146 273.137946 
L 868.360471 278.09857 
L 870.319482 282.535377 
L 872.278493 286.426566 
L 874.237504 289.794612 
L 876.196515 292.688318 
L 878.155526 295.158069 
L 880.114537 297.243218 
L 882.073548 298.97715 
L 884.032559 300.399997 
L 885.99157 301.564229 
L 887.950581 302.527184 
L 889.909591 303.337488 
L 893.827613 304.611226 
L 897.745635 305.496049 
L 901.663657 306.04869 
L 905.581679 306.359955 
L 913.417723 306.681692 
L 923.212778 306.819163 
L 962.392997 306.771441 
L 962.392997 306.771441 
" clip-path="url(#pa8ba179687)" style="fill: none; stroke: #66c2a5; stroke-width: 1.5; stroke-linecap: round"/>
   </g>
   <g id="patch_129">
    <path d="M 553.057656 306.883125 
L 553.057656 21.935625 
" style="fill: none; stroke: #cccccc; stroke-width: 1.25; stroke-linejoin: miter; stroke-linecap: square"/>
   </g>
   <g id="patch_130">
    <path d="M 981.885156 306.883125 
L 981.885156 21.935625 
" style="fill: none; stroke: #cccccc; stroke-width: 1.25; stroke-linejoin: miter; stroke-linecap: square"/>
   </g>
   <g id="patch_131">
    <path d="M 553.057656 306.883125 
L 981.885156 306.883125 
" style="fill: none; stroke: #cccccc; stroke-width: 1.25; stroke-linejoin: miter; stroke-linecap: square"/>
   </g>
   <g id="patch_132">
    <path d="M 553.057656 21.935625 
L 981.885156 21.935625 
" style="fill: none; stroke: #cccccc; stroke-width: 1.25; stroke-linejoin: miter; stroke-linecap: square"/>
   </g>
   <g id="text_37">
    <!-- Stopword Ratio by News Type -->
    <g style="fill: #262626" transform="translate(687.209219 15.935625) scale(0.12 -0.12)">
     <use xlink:href="#ArialMT-53"/>
     <use xlink:href="#ArialMT-74" transform="translate(66.699219 0)"/>
     <use xlink:href="#ArialMT-6f" transform="translate(94.482422 0)"/>
     <use xlink:href="#ArialMT-70" transform="translate(150.097656 0)"/>
     <use xlink:href="#ArialMT-77" transform="translate(205.712891 0)"/>
     <use xlink:href="#ArialMT-6f" transform="translate(277.929688 0)"/>
     <use xlink:href="#ArialMT-72" transform="translate(333.544922 0)"/>
     <use xlink:href="#ArialMT-64" transform="translate(366.845703 0)"/>
     <use xlink:href="#ArialMT-20" transform="translate(422.460938 0)"/>
     <use xlink:href="#ArialMT-52" transform="translate(450.244141 0)"/>
     <use xlink:href="#ArialMT-61" transform="translate(522.460938 0)"/>
     <use xlink:href="#ArialMT-74" transform="translate(578.076172 0)"/>
     <use xlink:href="#ArialMT-69" transform="translate(605.859375 0)"/>
     <use xlink:href="#ArialMT-6f" transform="translate(628.076172 0)"/>
     <use xlink:href="#ArialMT-20" transform="translate(683.691406 0)"/>
     <use xlink:href="#ArialMT-62" transform="translate(711.474609 0)"/>
     <use xlink:href="#ArialMT-79" transform="translate(767.089844 0)"/>
     <use xlink:href="#ArialMT-20" transform="translate(817.089844 0)"/>
     <use xlink:href="#ArialMT-4e" transform="translate(844.873047 0)"/>
     <use xlink:href="#ArialMT-65" transform="translate(917.089844 0)"/>
     <use xlink:href="#ArialMT-77" transform="translate(972.705078 0)"/>
     <use xlink:href="#ArialMT-73" transform="translate(1044.921875 0)"/>
     <use xlink:href="#ArialMT-20" transform="translate(1094.921875 0)"/>
     <use xlink:href="#ArialMT-54" transform="translate(1120.955078 0)"/>
     <use xlink:href="#ArialMT-79" transform="translate(1176.539062 0)"/>
     <use xlink:href="#ArialMT-70" transform="translate(1226.539062 0)"/>
     <use xlink:href="#ArialMT-65" transform="translate(1282.154297 0)"/>
    </g>
   </g>
   <g id="legend_2">
    <g id="patch_133">
     <path d="M 914.5325 78.329687 
L 974.185156 78.329687 
Q 976.385156 78.329687 976.385156 76.129687 
L 976.385156 29.635625 
Q 976.385156 27.435625 974.185156 27.435625 
L 914.5325 27.435625 
Q 912.3325 27.435625 912.3325 29.635625 
L 912.3325 76.129687 
Q 912.3325 78.329687 914.5325 78.329687 
z
" style="fill: #ffffff; opacity: 0.8; stroke: #cccccc; stroke-linejoin: miter"/>
    </g>
    <g id="text_38">
     <!-- Label -->
     <g style="fill: #262626" transform="translate(929.679453 40.425) scale(0.12 -0.12)">
      <use xlink:href="#ArialMT-4c"/>
      <use xlink:href="#ArialMT-61" transform="translate(55.615234 0)"/>
      <use xlink:href="#ArialMT-62" transform="translate(111.230469 0)"/>
      <use xlink:href="#ArialMT-65" transform="translate(166.845703 0)"/>
      <use xlink:href="#ArialMT-6c" transform="translate(222.460938 0)"/>
     </g>
    </g>
    <g id="line2d_7">
     <path d="M 916.7325 52.333594 
L 927.7325 52.333594 
L 938.7325 52.333594 
" style="fill: none; stroke: #fc8d62; stroke-width: 1.5; stroke-linecap: round"/>
    </g>
    <g id="text_39">
     <!-- Fake -->
     <g style="fill: #262626" transform="translate(947.5325 56.183594) scale(0.11 -0.11)">
      <use xlink:href="#ArialMT-46"/>
      <use xlink:href="#ArialMT-61" transform="translate(61.083984 0)"/>
      <use xlink:href="#ArialMT-6b" transform="translate(116.699219 0)"/>
      <use xlink:href="#ArialMT-65" transform="translate(166.699219 0)"/>
     </g>
    </g>
    <g id="line2d_8">
     <path d="M 916.7325 67.893437 
L 927.7325 67.893437 
L 938.7325 67.893437 
" style="fill: none; stroke: #66c2a5; stroke-width: 1.5; stroke-linecap: round"/>
    </g>
    <g id="text_40">
     <!-- Real -->
     <g style="fill: #262626" transform="translate(947.5325 71.743437) scale(0.11 -0.11)">
      <use xlink:href="#ArialMT-52"/>
      <use xlink:href="#ArialMT-65" transform="translate(72.216797 0)"/>
      <use xlink:href="#ArialMT-61" transform="translate(127.832031 0)"/>
      <use xlink:href="#ArialMT-6c" transform="translate(183.447266 0)"/>
     </g>
    </g>
   </g>
  </g>
 </g>
 <defs>
  <clipPath id="p707a27a151">
   <rect x="62.400156" y="21.935625" width="428.8275" height="284.9475"/>
  </clipPath>
  <clipPath id="pa8ba179687">
   <rect x="553.057656" y="21.935625" width="428.8275" height="284.9475"/>
  </clipPath>
 </defs>
</svg>
