<?xml version="1.0" encoding="utf-8" standalone="no"?>
<!DOCTYPE svg PUBLIC "-//W3C//DTD SVG 1.1//EN"
  "http://www.w3.org/Graphics/SVG/1.1/DTD/svg11.dtd">
<svg xmlns:xlink="http://www.w3.org/1999/xlink" width="852.281562pt" height="564.520781pt" viewBox="0 0 852.281562 564.520781" xmlns="http://www.w3.org/2000/svg" version="1.1">
 <metadata>
  <rdf:RDF xmlns:dc="http://purl.org/dc/elements/1.1/" xmlns:cc="http://creativecommons.org/ns#" xmlns:rdf="http://www.w3.org/1999/02/22-rdf-syntax-ns#">
   <cc:Work>
    <dc:type rdf:resource="http://purl.org/dc/dcmitype/StillImage"/>
    <dc:date>2025-05-17T18:14:27.913535</dc:date>
    <dc:format>image/svg+xml</dc:format>
    <dc:creator>
     <cc:Agent>
      <dc:title>Matplotlib v3.10.1, https://matplotlib.org/</dc:title>
     </cc:Agent>
    </dc:creator>
   </cc:Work>
  </rdf:RDF>
 </metadata>
 <defs>
  <style type="text/css">*{stroke-linejoin: round; stroke-linecap: butt}</style>
 </defs>
 <g id="figure_1">
  <g id="patch_1">
   <path d="M 0 564.520781 
L 852.281562 564.520781 
L 852.281562 0 
L 0 0 
z
" style="fill: #ffffff"/>
  </g>
  <g id="axes_1">
   <g id="patch_2">
    <path d="M 52.451563 517.299375 
L 845.081562 517.299375 
L 845.081562 27.759375 
L 52.451563 27.759375 
z
" style="fill: #ffffff"/>
   </g>
   <g id="matplotlib.axis_1">
    <g id="xtick_1">
     <g id="text_1">
      <!-- 0.0 -->
      <g style="fill: #262626" transform="translate(80.835199 534.672969) scale(0.11 -0.11)">
       <defs>
        <path id="ArialMT-30" d="M 266 2259 
Q 266 3072 433 3567 
Q 600 4063 929 4331 
Q 1259 4600 1759 4600 
Q 2128 4600 2406 4451 
Q 2684 4303 2865 4023 
Q 3047 3744 3150 3342 
Q 3253 2941 3253 2259 
Q 3253 1453 3087 958 
Q 2922 463 2592 192 
Q 2263 -78 1759 -78 
Q 1097 -78 719 397 
Q 266 969 266 2259 
z
M 844 2259 
Q 844 1131 1108 757 
Q 1372 384 1759 384 
Q 2147 384 2411 759 
Q 2675 1134 2675 2259 
Q 2675 3391 2411 3762 
Q 2147 4134 1753 4134 
Q 1366 4134 1134 3806 
Q 844 3388 844 2259 
z
" transform="scale(0.015625)"/>
        <path id="ArialMT-2e" d="M 581 0 
L 581 641 
L 1222 641 
L 1222 0 
L 581 0 
z
" transform="scale(0.015625)"/>
       </defs>
       <use xlink:href="#ArialMT-30"/>
       <use xlink:href="#ArialMT-2e" transform="translate(55.615234 0)"/>
       <use xlink:href="#ArialMT-30" transform="translate(83.398438 0)"/>
      </g>
     </g>
    </g>
    <g id="xtick_2">
     <g id="text_2">
      <!-- 0.2 -->
      <g style="fill: #262626" transform="translate(224.949744 534.672969) scale(0.11 -0.11)">
       <defs>
        <path id="ArialMT-32" d="M 3222 541 
L 3222 0 
L 194 0 
Q 188 203 259 391 
Q 375 700 629 1000 
Q 884 1300 1366 1694 
Q 2113 2306 2375 2664 
Q 2638 3022 2638 3341 
Q 2638 3675 2398 3904 
Q 2159 4134 1775 4134 
Q 1369 4134 1125 3890 
Q 881 3647 878 3216 
L 300 3275 
Q 359 3922 746 4261 
Q 1134 4600 1788 4600 
Q 2447 4600 2831 4234 
Q 3216 3869 3216 3328 
Q 3216 3053 3103 2787 
Q 2991 2522 2730 2228 
Q 2469 1934 1863 1422 
Q 1356 997 1212 845 
Q 1069 694 975 541 
L 3222 541 
z
" transform="scale(0.015625)"/>
       </defs>
       <use xlink:href="#ArialMT-30"/>
       <use xlink:href="#ArialMT-2e" transform="translate(55.615234 0)"/>
       <use xlink:href="#ArialMT-32" transform="translate(83.398438 0)"/>
      </g>
     </g>
    </g>
    <g id="xtick_3">
     <g id="text_3">
      <!-- 0.4 -->
      <g style="fill: #262626" transform="translate(369.06429 534.672969) scale(0.11 -0.11)">
       <defs>
        <path id="ArialMT-34" d="M 2069 0 
L 2069 1097 
L 81 1097 
L 81 1613 
L 2172 4581 
L 2631 4581 
L 2631 1613 
L 3250 1613 
L 3250 1097 
L 2631 1097 
L 2631 0 
L 2069 0 
z
M 2069 1613 
L 2069 3678 
L 634 1613 
L 2069 1613 
z
" transform="scale(0.015625)"/>
       </defs>
       <use xlink:href="#ArialMT-30"/>
       <use xlink:href="#ArialMT-2e" transform="translate(55.615234 0)"/>
       <use xlink:href="#ArialMT-34" transform="translate(83.398438 0)"/>
      </g>
     </g>
    </g>
    <g id="xtick_4">
     <g id="text_4">
      <!-- 0.6 -->
      <g style="fill: #262626" transform="translate(513.178835 534.672969) scale(0.11 -0.11)">
       <defs>
        <path id="ArialMT-36" d="M 3184 3459 
L 2625 3416 
Q 2550 3747 2413 3897 
Q 2184 4138 1850 4138 
Q 1581 4138 1378 3988 
Q 1113 3794 959 3422 
Q 806 3050 800 2363 
Q 1003 2672 1297 2822 
Q 1591 2972 1913 2972 
Q 2475 2972 2870 2558 
Q 3266 2144 3266 1488 
Q 3266 1056 3080 686 
Q 2894 316 2569 119 
Q 2244 -78 1831 -78 
Q 1128 -78 684 439 
Q 241 956 241 2144 
Q 241 3472 731 4075 
Q 1159 4600 1884 4600 
Q 2425 4600 2770 4297 
Q 3116 3994 3184 3459 
z
M 888 1484 
Q 888 1194 1011 928 
Q 1134 663 1356 523 
Q 1578 384 1822 384 
Q 2178 384 2434 671 
Q 2691 959 2691 1453 
Q 2691 1928 2437 2201 
Q 2184 2475 1800 2475 
Q 1419 2475 1153 2201 
Q 888 1928 888 1484 
z
" transform="scale(0.015625)"/>
       </defs>
       <use xlink:href="#ArialMT-30"/>
       <use xlink:href="#ArialMT-2e" transform="translate(55.615234 0)"/>
       <use xlink:href="#ArialMT-36" transform="translate(83.398438 0)"/>
      </g>
     </g>
    </g>
    <g id="xtick_5">
     <g id="text_5">
      <!-- 0.8 -->
      <g style="fill: #262626" transform="translate(657.293381 534.672969) scale(0.11 -0.11)">
       <defs>
        <path id="ArialMT-38" d="M 1131 2484 
Q 781 2613 612 2850 
Q 444 3088 444 3419 
Q 444 3919 803 4259 
Q 1163 4600 1759 4600 
Q 2359 4600 2725 4251 
Q 3091 3903 3091 3403 
Q 3091 3084 2923 2848 
Q 2756 2613 2416 2484 
Q 2838 2347 3058 2040 
Q 3278 1734 3278 1309 
Q 3278 722 2862 322 
Q 2447 -78 1769 -78 
Q 1091 -78 675 323 
Q 259 725 259 1325 
Q 259 1772 486 2073 
Q 713 2375 1131 2484 
z
M 1019 3438 
Q 1019 3113 1228 2906 
Q 1438 2700 1772 2700 
Q 2097 2700 2305 2904 
Q 2513 3109 2513 3406 
Q 2513 3716 2298 3927 
Q 2084 4138 1766 4138 
Q 1444 4138 1231 3931 
Q 1019 3725 1019 3438 
z
M 838 1322 
Q 838 1081 952 856 
Q 1066 631 1291 507 
Q 1516 384 1775 384 
Q 2178 384 2440 643 
Q 2703 903 2703 1303 
Q 2703 1709 2433 1975 
Q 2163 2241 1756 2241 
Q 1359 2241 1098 1978 
Q 838 1716 838 1322 
z
" transform="scale(0.015625)"/>
       </defs>
       <use xlink:href="#ArialMT-30"/>
       <use xlink:href="#ArialMT-2e" transform="translate(55.615234 0)"/>
       <use xlink:href="#ArialMT-38" transform="translate(83.398438 0)"/>
      </g>
     </g>
    </g>
    <g id="xtick_6">
     <g id="text_6">
      <!-- 1.0 -->
      <g style="fill: #262626" transform="translate(801.407926 534.672969) scale(0.11 -0.11)">
       <defs>
        <path id="ArialMT-31" d="M 2384 0 
L 1822 0 
L 1822 3584 
Q 1619 3391 1289 3197 
Q 959 3003 697 2906 
L 697 3450 
Q 1169 3672 1522 3987 
Q 1875 4303 2022 4600 
L 2384 4600 
L 2384 0 
z
" transform="scale(0.015625)"/>
       </defs>
       <use xlink:href="#ArialMT-31"/>
       <use xlink:href="#ArialMT-2e" transform="translate(55.615234 0)"/>
       <use xlink:href="#ArialMT-30" transform="translate(83.398438 0)"/>
      </g>
     </g>
    </g>
    <g id="text_7">
     <!-- False Positive Rate -->
     <g style="fill: #262626" transform="translate(371.237187 553.743281) scale(0.18 -0.18)">
      <defs>
       <path id="ArialMT-46" d="M 525 0 
L 525 4581 
L 3616 4581 
L 3616 4041 
L 1131 4041 
L 1131 2622 
L 3281 2622 
L 3281 2081 
L 1131 2081 
L 1131 0 
L 525 0 
z
" transform="scale(0.015625)"/>
       <path id="ArialMT-61" d="M 2588 409 
Q 2275 144 1986 34 
Q 1697 -75 1366 -75 
Q 819 -75 525 192 
Q 231 459 231 875 
Q 231 1119 342 1320 
Q 453 1522 633 1644 
Q 813 1766 1038 1828 
Q 1203 1872 1538 1913 
Q 2219 1994 2541 2106 
Q 2544 2222 2544 2253 
Q 2544 2597 2384 2738 
Q 2169 2928 1744 2928 
Q 1347 2928 1158 2789 
Q 969 2650 878 2297 
L 328 2372 
Q 403 2725 575 2942 
Q 747 3159 1072 3276 
Q 1397 3394 1825 3394 
Q 2250 3394 2515 3294 
Q 2781 3194 2906 3042 
Q 3031 2891 3081 2659 
Q 3109 2516 3109 2141 
L 3109 1391 
Q 3109 606 3145 398 
Q 3181 191 3288 0 
L 2700 0 
Q 2613 175 2588 409 
z
M 2541 1666 
Q 2234 1541 1622 1453 
Q 1275 1403 1131 1340 
Q 988 1278 909 1158 
Q 831 1038 831 891 
Q 831 666 1001 516 
Q 1172 366 1500 366 
Q 1825 366 2078 508 
Q 2331 650 2450 897 
Q 2541 1088 2541 1459 
L 2541 1666 
z
" transform="scale(0.015625)"/>
       <path id="ArialMT-6c" d="M 409 0 
L 409 4581 
L 972 4581 
L 972 0 
L 409 0 
z
" transform="scale(0.015625)"/>
       <path id="ArialMT-73" d="M 197 991 
L 753 1078 
Q 800 744 1014 566 
Q 1228 388 1613 388 
Q 2000 388 2187 545 
Q 2375 703 2375 916 
Q 2375 1106 2209 1216 
Q 2094 1291 1634 1406 
Q 1016 1563 777 1677 
Q 538 1791 414 1992 
Q 291 2194 291 2438 
Q 291 2659 392 2848 
Q 494 3038 669 3163 
Q 800 3259 1026 3326 
Q 1253 3394 1513 3394 
Q 1903 3394 2198 3281 
Q 2494 3169 2634 2976 
Q 2775 2784 2828 2463 
L 2278 2388 
Q 2241 2644 2061 2787 
Q 1881 2931 1553 2931 
Q 1166 2931 1000 2803 
Q 834 2675 834 2503 
Q 834 2394 903 2306 
Q 972 2216 1119 2156 
Q 1203 2125 1616 2013 
Q 2213 1853 2448 1751 
Q 2684 1650 2818 1456 
Q 2953 1263 2953 975 
Q 2953 694 2789 445 
Q 2625 197 2315 61 
Q 2006 -75 1616 -75 
Q 969 -75 630 194 
Q 291 463 197 991 
z
" transform="scale(0.015625)"/>
       <path id="ArialMT-65" d="M 2694 1069 
L 3275 997 
Q 3138 488 2766 206 
Q 2394 -75 1816 -75 
Q 1088 -75 661 373 
Q 234 822 234 1631 
Q 234 2469 665 2931 
Q 1097 3394 1784 3394 
Q 2450 3394 2872 2941 
Q 3294 2488 3294 1666 
Q 3294 1616 3291 1516 
L 816 1516 
Q 847 969 1125 678 
Q 1403 388 1819 388 
Q 2128 388 2347 550 
Q 2566 713 2694 1069 
z
M 847 1978 
L 2700 1978 
Q 2663 2397 2488 2606 
Q 2219 2931 1791 2931 
Q 1403 2931 1139 2672 
Q 875 2413 847 1978 
z
" transform="scale(0.015625)"/>
       <path id="ArialMT-20" transform="scale(0.015625)"/>
       <path id="ArialMT-50" d="M 494 0 
L 494 4581 
L 2222 4581 
Q 2678 4581 2919 4538 
Q 3256 4481 3484 4323 
Q 3713 4166 3852 3881 
Q 3991 3597 3991 3256 
Q 3991 2672 3619 2267 
Q 3247 1863 2275 1863 
L 1100 1863 
L 1100 0 
L 494 0 
z
M 1100 2403 
L 2284 2403 
Q 2872 2403 3119 2622 
Q 3366 2841 3366 3238 
Q 3366 3525 3220 3729 
Q 3075 3934 2838 4000 
Q 2684 4041 2272 4041 
L 1100 4041 
L 1100 2403 
z
" transform="scale(0.015625)"/>
       <path id="ArialMT-6f" d="M 213 1659 
Q 213 2581 725 3025 
Q 1153 3394 1769 3394 
Q 2453 3394 2887 2945 
Q 3322 2497 3322 1706 
Q 3322 1066 3130 698 
Q 2938 331 2570 128 
Q 2203 -75 1769 -75 
Q 1072 -75 642 372 
Q 213 819 213 1659 
z
M 791 1659 
Q 791 1022 1069 705 
Q 1347 388 1769 388 
Q 2188 388 2466 706 
Q 2744 1025 2744 1678 
Q 2744 2294 2464 2611 
Q 2184 2928 1769 2928 
Q 1347 2928 1069 2612 
Q 791 2297 791 1659 
z
" transform="scale(0.015625)"/>
       <path id="ArialMT-69" d="M 425 3934 
L 425 4581 
L 988 4581 
L 988 3934 
L 425 3934 
z
M 425 0 
L 425 3319 
L 988 3319 
L 988 0 
L 425 0 
z
" transform="scale(0.015625)"/>
       <path id="ArialMT-74" d="M 1650 503 
L 1731 6 
Q 1494 -44 1306 -44 
Q 1000 -44 831 53 
Q 663 150 594 308 
Q 525 466 525 972 
L 525 2881 
L 113 2881 
L 113 3319 
L 525 3319 
L 525 4141 
L 1084 4478 
L 1084 3319 
L 1650 3319 
L 1650 2881 
L 1084 2881 
L 1084 941 
Q 1084 700 1114 631 
Q 1144 563 1211 522 
Q 1278 481 1403 481 
Q 1497 481 1650 503 
z
" transform="scale(0.015625)"/>
       <path id="ArialMT-76" d="M 1344 0 
L 81 3319 
L 675 3319 
L 1388 1331 
Q 1503 1009 1600 663 
Q 1675 925 1809 1294 
L 2547 3319 
L 3125 3319 
L 1869 0 
L 1344 0 
z
" transform="scale(0.015625)"/>
       <path id="ArialMT-52" d="M 503 0 
L 503 4581 
L 2534 4581 
Q 3147 4581 3465 4457 
Q 3784 4334 3975 4021 
Q 4166 3709 4166 3331 
Q 4166 2844 3850 2509 
Q 3534 2175 2875 2084 
Q 3116 1969 3241 1856 
Q 3506 1613 3744 1247 
L 4541 0 
L 3778 0 
L 3172 953 
Q 2906 1366 2734 1584 
Q 2563 1803 2427 1890 
Q 2291 1978 2150 2013 
Q 2047 2034 1813 2034 
L 1109 2034 
L 1109 0 
L 503 0 
z
M 1109 2559 
L 2413 2559 
Q 2828 2559 3062 2645 
Q 3297 2731 3419 2920 
Q 3541 3109 3541 3331 
Q 3541 3656 3305 3865 
Q 3069 4075 2559 4075 
L 1109 4075 
L 1109 2559 
z
" transform="scale(0.015625)"/>
      </defs>
      <use xlink:href="#ArialMT-46"/>
      <use xlink:href="#ArialMT-61" transform="translate(61.083984 0)"/>
      <use xlink:href="#ArialMT-6c" transform="translate(116.699219 0)"/>
      <use xlink:href="#ArialMT-73" transform="translate(138.916016 0)"/>
      <use xlink:href="#ArialMT-65" transform="translate(188.916016 0)"/>
      <use xlink:href="#ArialMT-20" transform="translate(244.53125 0)"/>
      <use xlink:href="#ArialMT-50" transform="translate(272.314453 0)"/>
      <use xlink:href="#ArialMT-6f" transform="translate(339.013672 0)"/>
      <use xlink:href="#ArialMT-73" transform="translate(394.628906 0)"/>
      <use xlink:href="#ArialMT-69" transform="translate(444.628906 0)"/>
      <use xlink:href="#ArialMT-74" transform="translate(466.845703 0)"/>
      <use xlink:href="#ArialMT-69" transform="translate(494.628906 0)"/>
      <use xlink:href="#ArialMT-76" transform="translate(516.845703 0)"/>
      <use xlink:href="#ArialMT-65" transform="translate(566.845703 0)"/>
      <use xlink:href="#ArialMT-20" transform="translate(622.460938 0)"/>
      <use xlink:href="#ArialMT-52" transform="translate(650.244141 0)"/>
      <use xlink:href="#ArialMT-61" transform="translate(722.460938 0)"/>
      <use xlink:href="#ArialMT-74" transform="translate(778.076172 0)"/>
      <use xlink:href="#ArialMT-65" transform="translate(805.859375 0)"/>
     </g>
    </g>
   </g>
   <g id="matplotlib.axis_2">
    <g id="ytick_1">
     <g id="text_8">
      <!-- 0.0 -->
      <g style="fill: #262626" transform="translate(27.661563 498.984354) scale(0.11 -0.11)">
       <use xlink:href="#ArialMT-30"/>
       <use xlink:href="#ArialMT-2e" transform="translate(55.615234 0)"/>
       <use xlink:href="#ArialMT-30" transform="translate(83.398438 0)"/>
      </g>
     </g>
    </g>
    <g id="ytick_2">
     <g id="text_9">
      <!-- 0.2 -->
      <g style="fill: #262626" transform="translate(27.661563 409.977081) scale(0.11 -0.11)">
       <use xlink:href="#ArialMT-30"/>
       <use xlink:href="#ArialMT-2e" transform="translate(55.615234 0)"/>
       <use xlink:href="#ArialMT-32" transform="translate(83.398438 0)"/>
      </g>
     </g>
    </g>
    <g id="ytick_3">
     <g id="text_10">
      <!-- 0.4 -->
      <g style="fill: #262626" transform="translate(27.661563 320.969808) scale(0.11 -0.11)">
       <use xlink:href="#ArialMT-30"/>
       <use xlink:href="#ArialMT-2e" transform="translate(55.615234 0)"/>
       <use xlink:href="#ArialMT-34" transform="translate(83.398438 0)"/>
      </g>
     </g>
    </g>
    <g id="ytick_4">
     <g id="text_11">
      <!-- 0.6 -->
      <g style="fill: #262626" transform="translate(27.661563 231.962536) scale(0.11 -0.11)">
       <use xlink:href="#ArialMT-30"/>
       <use xlink:href="#ArialMT-2e" transform="translate(55.615234 0)"/>
       <use xlink:href="#ArialMT-36" transform="translate(83.398438 0)"/>
      </g>
     </g>
    </g>
    <g id="ytick_5">
     <g id="text_12">
      <!-- 0.8 -->
      <g style="fill: #262626" transform="translate(27.661563 142.955263) scale(0.11 -0.11)">
       <use xlink:href="#ArialMT-30"/>
       <use xlink:href="#ArialMT-2e" transform="translate(55.615234 0)"/>
       <use xlink:href="#ArialMT-38" transform="translate(83.398438 0)"/>
      </g>
     </g>
    </g>
    <g id="ytick_6">
     <g id="text_13">
      <!-- 1.0 -->
      <g style="fill: #262626" transform="translate(27.661563 53.94799) scale(0.11 -0.11)">
       <use xlink:href="#ArialMT-31"/>
       <use xlink:href="#ArialMT-2e" transform="translate(55.615234 0)"/>
       <use xlink:href="#ArialMT-30" transform="translate(83.398438 0)"/>
      </g>
     </g>
    </g>
    <g id="text_14">
     <!-- True Positive Rate -->
     <g style="fill: #262626" transform="translate(20.084062 346.218281) rotate(-90) scale(0.18 -0.18)">
      <defs>
       <path id="ArialMT-54" d="M 1659 0 
L 1659 4041 
L 150 4041 
L 150 4581 
L 3781 4581 
L 3781 4041 
L 2266 4041 
L 2266 0 
L 1659 0 
z
" transform="scale(0.015625)"/>
       <path id="ArialMT-72" d="M 416 0 
L 416 3319 
L 922 3319 
L 922 2816 
Q 1116 3169 1280 3281 
Q 1444 3394 1641 3394 
Q 1925 3394 2219 3213 
L 2025 2691 
Q 1819 2813 1613 2813 
Q 1428 2813 1281 2702 
Q 1134 2591 1072 2394 
Q 978 2094 978 1738 
L 978 0 
L 416 0 
z
" transform="scale(0.015625)"/>
       <path id="ArialMT-75" d="M 2597 0 
L 2597 488 
Q 2209 -75 1544 -75 
Q 1250 -75 995 37 
Q 741 150 617 320 
Q 494 491 444 738 
Q 409 903 409 1263 
L 409 3319 
L 972 3319 
L 972 1478 
Q 972 1038 1006 884 
Q 1059 663 1231 536 
Q 1403 409 1656 409 
Q 1909 409 2131 539 
Q 2353 669 2445 892 
Q 2538 1116 2538 1541 
L 2538 3319 
L 3100 3319 
L 3100 0 
L 2597 0 
z
" transform="scale(0.015625)"/>
      </defs>
      <use xlink:href="#ArialMT-54"/>
      <use xlink:href="#ArialMT-72" transform="translate(57.333984 0)"/>
      <use xlink:href="#ArialMT-75" transform="translate(90.634766 0)"/>
      <use xlink:href="#ArialMT-65" transform="translate(146.25 0)"/>
      <use xlink:href="#ArialMT-20" transform="translate(201.865234 0)"/>
      <use xlink:href="#ArialMT-50" transform="translate(229.648438 0)"/>
      <use xlink:href="#ArialMT-6f" transform="translate(296.347656 0)"/>
      <use xlink:href="#ArialMT-73" transform="translate(351.962891 0)"/>
      <use xlink:href="#ArialMT-69" transform="translate(401.962891 0)"/>
      <use xlink:href="#ArialMT-74" transform="translate(424.179688 0)"/>
      <use xlink:href="#ArialMT-69" transform="translate(451.962891 0)"/>
      <use xlink:href="#ArialMT-76" transform="translate(474.179688 0)"/>
      <use xlink:href="#ArialMT-65" transform="translate(524.179688 0)"/>
      <use xlink:href="#ArialMT-20" transform="translate(579.794922 0)"/>
      <use xlink:href="#ArialMT-52" transform="translate(607.578125 0)"/>
      <use xlink:href="#ArialMT-61" transform="translate(679.794922 0)"/>
      <use xlink:href="#ArialMT-74" transform="translate(735.410156 0)"/>
      <use xlink:href="#ArialMT-65" transform="translate(763.193359 0)"/>
     </g>
    </g>
   </g>
   <g id="line2d_1">
    <path d="M 88.480199 495.047557 
L 88.579905 483.734671 
L 88.67961 483.734671 
L 88.779316 442.756884 
L 88.978727 442.756884 
L 89.078433 429.684216 
L 89.178138 429.684216 
L 89.277844 415.668807 
L 89.37755 415.668807 
L 89.477255 389.272073 
L 89.576961 389.272073 
L 89.676667 372.051347 
L 89.776372 372.051347 
L 89.876078 367.903289 
L 90.075489 367.903289 
L 90.175195 358.538733 
L 90.274901 358.538733 
L 90.374606 334.593124 
L 90.474312 334.593124 
L 90.574017 311.150311 
L 90.673723 311.150311 
L 90.673723 307.127951 
L 90.873134 307.127951 
L 90.97284 299.208931 
L 91.271957 299.146082 
L 91.371663 285.947715 
L 91.471368 285.947715 
L 91.571074 276.960255 
L 91.67078 276.960255 
L 91.770485 265.898767 
L 91.870191 265.898767 
L 91.969897 253.517442 
L 92.069602 253.517442 
L 92.169308 248.175246 
L 92.269014 248.175246 
L 92.368719 244.78138 
L 92.468425 244.78138 
L 92.56813 239.250635 
L 92.667836 239.250635 
L 92.767542 237.113757 
L 92.867247 237.113757 
L 92.966953 235.353975 
L 93.066659 235.353975 
L 93.166364 231.771561 
L 93.26607 231.771561 
L 93.365776 229.131887 
L 93.465481 229.131887 
L 93.565187 227.497804 
L 93.764598 227.497804 
L 93.864304 224.732432 
L 93.96401 224.732432 
L 94.063715 223.286896 
L 94.163421 223.286896 
L 94.263127 219.453085 
L 94.362832 219.453085 
L 94.462538 217.504755 
L 94.562243 217.504755 
L 94.661949 210.717023 
L 94.761655 210.717023 
L 94.86136 207.825952 
L 94.961066 207.825952 
L 95.060772 206.506116 
L 95.160477 206.506116 
L 95.260183 200.661124 
L 95.359889 200.661124 
L 95.459594 194.753284 
L 95.5593 194.753284 
L 95.659006 193.056351 
L 95.758711 193.056351 
L 95.758711 192.930652 
L 95.958123 192.930652 
L 96.057828 191.987912 
L 96.157534 191.987912 
L 96.25724 187.022812 
L 96.356945 187.022812 
L 96.456651 185.891523 
L 96.556356 185.891523 
L 96.656062 182.497658 
L 96.755768 182.497658 
L 96.855473 181.554917 
L 96.955179 181.554917 
L 97.054885 177.972503 
L 97.15459 177.972503 
L 97.254296 175.081432 
L 97.354002 175.081432 
L 97.453707 174.012993 
L 97.752824 173.950144 
L 97.85253 173.32165 
L 97.952236 173.32165 
L 98.051941 172.567458 
L 98.151647 172.567458 
L 98.151647 172.504608 
L 98.151647 171.813265 
L 98.450764 171.750416 
L 98.450764 171.499018 
L 98.650175 171.499018 
L 98.749881 168.042303 
L 98.849586 168.042303 
L 98.949292 167.036713 
L 99.048998 167.036713 
L 99.148703 166.219672 
L 99.248409 166.219672 
L 99.348115 165.214082 
L 99.44782 165.214082 
L 99.547526 164.648438 
L 99.647232 164.648438 
L 99.746937 163.642848 
L 99.846643 163.642848 
L 99.946349 161.505969 
L 100.046054 161.505969 
L 100.14576 160.123283 
L 100.245465 160.123283 
L 100.245465 159.871886 
L 100.544582 159.809036 
L 100.644288 159.43194 
L 100.843699 159.43194 
L 100.943405 157.609308 
L 101.142816 157.609308 
L 101.242522 156.792267 
L 101.441933 156.792267 
L 101.541639 153.46125 
L 101.641345 153.46125 
L 101.641345 152.45566 
L 101.840756 152.45566 
L 101.940462 152.141414 
L 102.040167 152.141414 
L 102.139873 150.255933 
L 102.239578 150.255933 
L 102.339284 149.50174 
L 102.43899 149.50174 
L 102.538695 148.873247 
L 102.638401 148.873247 
L 102.638401 148.621849 
L 102.738107 148.621849 
L 102.937518 148.621849 
L 103.037224 147.993355 
L 103.136929 147.993355 
L 103.136929 147.867657 
L 103.336341 147.867657 
L 103.436046 147.050615 
L 103.535752 147.050615 
L 103.635458 146.673519 
L 103.735163 146.673519 
L 103.834869 145.102285 
L 103.934575 145.102285 
L 104.03428 144.662339 
L 104.133986 144.662339 
L 104.133986 144.410942 
L 104.333397 144.410942 
L 104.433103 144.033845 
L 104.632514 144.033845 
L 104.73222 143.405352 
L 104.831925 143.405352 
L 104.931631 141.896967 
L 105.031337 141.896967 
L 105.131042 141.268473 
L 105.230748 141.268473 
L 105.330454 140.074335 
L 105.529865 140.011486 
L 105.629571 137.371813 
L 105.729276 137.371813 
L 105.828982 136.869018 
L 106.028393 136.806168 
L 106.128099 136.680469 
L 106.32751 136.61762 
L 106.32751 136.429072 
L 106.526921 136.429072 
L 106.626627 135.989126 
L 106.826038 135.989126 
L 106.925744 134.60644 
L 107.224861 134.60644 
L 107.324567 133.160905 
L 107.424272 133.160905 
L 107.523978 132.343863 
L 107.623684 132.343863 
L 107.623684 131.903918 
L 107.9228 131.903918 
L 107.9228 129.829889 
L 108.122212 129.829889 
L 108.122212 129.70419 
L 108.321623 129.70419 
L 108.421329 129.389943 
L 108.521034 129.389943 
L 108.62074 128.887148 
L 108.720446 128.887148 
L 108.820151 128.635751 
L 109.019563 128.635751 
L 109.119268 128.132956 
L 109.218974 128.132956 
L 109.31868 127.630161 
L 109.418385 127.630161 
L 109.418385 127.441613 
L 109.617797 127.441613 
L 109.617797 127.190215 
L 109.717502 127.190215 
L 109.916913 127.190215 
L 110.016619 126.498872 
L 110.116325 126.498872 
L 110.21603 125.74468 
L 110.315736 125.74468 
L 110.415442 123.984897 
L 110.515147 123.984897 
L 110.614853 123.7335 
L 110.91397 123.7335 
L 111.013676 123.419253 
L 111.213087 123.356404 
L 111.312793 122.916458 
L 111.611909 122.853609 
L 111.711615 122.287965 
L 111.811321 122.287965 
L 111.911026 121.533772 
L 112.010732 121.533772 
L 112.010732 121.030977 
L 112.309849 120.968128 
L 112.409555 120.339634 
L 112.50926 120.339634 
L 112.50926 119.899689 
L 112.708672 119.899689 
L 112.808377 119.459743 
L 112.908083 119.459743 
L 112.908083 119.271195 
L 113.107494 119.271195 
L 113.2072 118.642701 
L 113.306906 118.642701 
L 113.406611 118.202756 
L 113.506317 118.202756 
L 113.506317 117.951358 
L 113.705728 117.951358 
L 113.705728 117.385714 
L 114.004845 117.385714 
L 114.104551 116.75722 
L 114.204256 116.75722 
L 114.204256 116.254425 
L 114.503373 116.191576 
L 114.603079 116.003028 
L 114.702785 116.003028 
L 114.80249 115.563082 
L 115.001902 115.500233 
L 115.101607 114.620342 
L 115.201313 114.620342 
L 115.301019 113.8033 
L 115.400724 113.8033 
L 115.50043 113.614752 
L 115.699841 113.551903 
L 115.699841 113.237656 
L 115.998958 113.237656 
L 116.098664 112.86056 
L 116.298075 112.79771 
L 116.298075 112.672012 
L 116.397781 112.672012 
L 116.597192 112.672012 
L 116.696898 112.420614 
L 116.896309 112.420614 
L 116.896309 112.169217 
L 117.09572 112.169217 
L 117.195426 110.912229 
L 117.295132 110.912229 
L 117.394837 110.597982 
L 117.494543 110.597982 
L 117.494543 110.283736 
L 117.79366 110.283736 
L 117.893365 110.095187 
L 117.993071 110.095187 
L 117.993071 109.906639 
L 118.292188 109.84379 
L 118.292188 109.215296 
L 118.491599 109.215296 
L 118.591305 108.775351 
L 118.790716 108.775351 
L 118.890422 108.586803 
L 118.990128 108.586803 
L 119.089833 108.021158 
L 119.38895 107.958309 
L 119.488656 107.329815 
L 119.688067 107.266966 
L 119.688067 107.141267 
L 119.987184 107.078418 
L 120.08689 106.575623 
L 120.784829 106.512774 
L 120.884535 106.198527 
L 120.984241 106.198527 
L 121.083946 105.758581 
L 121.383063 105.695732 
L 121.482769 104.627293 
L 121.68218 104.627293 
L 121.68218 104.501594 
L 122.180708 104.438745 
L 122.180708 104.313046 
L 122.579531 104.250196 
L 122.679237 103.8731 
L 122.878648 103.8731 
L 122.878648 103.621703 
L 123.078059 103.621703 
L 123.177765 103.433155 
L 123.875704 103.370305 
L 123.97541 103.118908 
L 124.075116 103.118908 
L 124.174821 101.799071 
L 124.473938 101.799071 
L 124.473938 101.610523 
L 124.67335 101.610523 
L 124.67335 101.296276 
L 125.171878 101.296276 
L 125.171878 100.982029 
L 125.371289 100.982029 
L 125.371289 100.856331 
L 125.670406 100.793481 
L 125.770112 100.542084 
L 125.869817 100.542084 
L 125.969523 99.976439 
L 126.168934 99.91359 
L 126.168934 99.725042 
L 126.368346 99.725042 
L 126.468051 99.285096 
L 126.567757 99.285096 
L 126.567757 99.096548 
L 126.866874 99.033699 
L 126.866874 98.530904 
L 127.165991 98.468055 
L 127.165991 98.405205 
L 127.365402 98.405205 
L 127.465108 98.153808 
L 127.664519 98.153808 
L 127.764225 97.776712 
L 127.86393 97.776712 
L 127.86393 97.336766 
L 128.163047 97.336766 
L 128.262753 97.085369 
L 128.462164 97.022519 
L 128.56187 96.833971 
L 128.761281 96.771122 
L 128.860987 96.519724 
L 129.359515 96.456875 
L 129.459221 96.016929 
L 129.758338 95.95408 
L 129.858043 95.639833 
L 130.057455 95.639833 
L 130.057455 95.451285 
L 130.456277 95.451285 
L 130.456277 95.262737 
L 130.655689 95.262737 
L 130.655689 95.074189 
L 130.954805 95.01134 
L 130.954805 94.885641 
L 131.253922 94.822791 
L 131.253922 94.759942 
L 132.051568 94.697093 
L 132.051568 94.382846 
L 132.250979 94.382846 
L 132.350685 94.00575 
L 132.649801 93.9429 
L 132.649801 93.880051 
L 132.849213 93.880051 
L 132.849213 93.754352 
L 133.048624 93.754352 
L 133.14833 93.502955 
L 133.547152 93.440105 
L 133.547152 93.377256 
L 133.646858 93.377256 
L 134.245092 93.377256 
L 134.245092 93.251557 
L 134.444503 93.251557 
L 134.444503 93.125859 
L 134.74362 93.125859 
L 134.843326 92.811612 
L 134.943031 92.811612 
L 135.042737 92.497365 
L 135.142443 92.497365 
L 135.142443 92.120269 
L 135.541265 92.120269 
L 135.640971 91.868871 
L 135.940088 91.806022 
L 136.039794 91.491775 
L 136.239205 91.428926 
L 136.338911 91.114679 
L 136.438616 91.114679 
L 136.538322 90.926131 
L 136.737733 90.863281 
L 136.837439 90.674733 
L 137.03685 90.611884 
L 137.03685 90.297637 
L 137.635084 90.234788 
L 137.635084 89.920541 
L 137.934201 89.920541 
L 138.033907 89.417746 
L 138.333023 89.354897 
L 138.432729 89.166348 
L 138.532435 89.166348 
L 138.63214 88.789252 
L 138.931257 88.789252 
L 139.030963 88.537855 
L 139.33008 88.537855 
L 139.429786 88.349307 
L 140.02802 88.349307 
L 140.127725 88.160759 
L 140.626253 88.097909 
L 140.626253 88.03506 
L 141.124782 87.972211 
L 141.224487 87.846512 
L 141.324193 87.846512 
L 141.324193 87.720813 
L 141.822721 87.657964 
L 141.922427 87.343717 
L 142.221544 87.280867 
L 142.321249 87.092319 
L 142.819778 87.02947 
L 142.819778 86.903771 
L 143.019189 86.903771 
L 143.118895 86.715223 
L 143.318306 86.652374 
L 143.318306 86.589524 
L 143.617423 86.526675 
L 143.717129 86.400976 
L 144.016246 86.338127 
L 144.016246 86.275278 
L 144.315362 86.275278 
L 144.415068 86.08673 
L 144.714185 86.08673 
L 144.714185 85.835332 
L 145.013302 85.772483 
L 145.013302 85.521085 
L 145.212713 85.521085 
L 145.312419 85.206838 
L 145.51183 85.143989 
L 145.51183 85.01829 
L 145.711242 85.01829 
L 145.711242 84.766893 
L 145.910653 84.766893 
L 145.910653 84.641194 
L 146.110064 84.641194 
L 146.20977 84.201249 
L 146.708298 84.138399 
L 146.708298 83.949851 
L 147.206826 83.887002 
L 147.306532 83.698454 
L 147.80506 83.698454 
L 147.904766 83.447056 
L 148.004471 83.447056 
L 148.004471 83.258508 
L 148.503 83.195659 
L 148.602705 82.755713 
L 148.802117 82.692864 
L 148.901822 82.441466 
L 149.300645 82.378617 
L 149.400351 82.190069 
L 149.500056 82.190069 
L 149.599762 81.812973 
L 149.699468 81.812973 
L 149.699468 81.624424 
L 149.998584 81.561575 
L 149.998584 81.435876 
L 150.397407 81.373027 
L 150.397407 81.310178 
L 150.596818 81.310178 
L 150.596818 81.184479 
L 150.895935 81.184479 
L 150.995641 80.807383 
L 151.793286 80.744533 
L 151.793286 80.555985 
L 152.092403 80.493136 
L 152.092403 80.367437 
L 152.291814 80.367437 
L 152.291814 80.241738 
L 152.491226 80.241738 
L 152.590931 79.990341 
L 152.790343 79.927492 
L 152.890048 79.424697 
L 153.388577 79.361847 
L 153.388577 79.236149 
L 153.587988 79.236149 
L 153.587988 79.11045 
L 154.186222 79.0476 
L 154.186222 78.984751 
L 154.485339 78.984751 
L 154.585044 78.733354 
L 154.884161 78.733354 
L 154.983867 78.481956 
L 155.083573 78.481956 
L 155.083573 78.356257 
L 155.681806 78.356257 
L 155.681806 78.230559 
L 155.881218 78.230559 
L 155.881218 78.10486 
L 156.379746 78.042011 
L 156.479452 77.853463 
L 156.778569 77.790613 
L 156.878274 77.664914 
L 157.277097 77.602065 
L 157.376803 77.350668 
L 158.174448 77.350668 
L 158.174448 77.162119 
L 158.57327 77.162119 
L 158.672976 76.973571 
L 158.872387 76.910722 
L 158.872387 76.847873 
L 159.27121 76.847873 
L 159.27121 76.722174 
L 159.769738 76.659325 
L 159.769738 76.596475 
L 160.068855 76.533626 
L 160.068855 76.470776 
L 160.367972 76.407927 
L 160.467678 76.15653 
L 161.065912 76.09368 
L 161.065912 76.030831 
L 161.464734 76.030831 
L 161.464734 75.905132 
L 162.262379 75.842283 
L 162.262379 75.779433 
L 162.362085 75.779433 
L 162.760908 75.716584 
L 162.760908 75.653735 
L 162.860613 75.653735 
L 163.558553 75.590885 
L 163.558553 75.528036 
L 164.156787 75.465187 
L 164.156787 75.402337 
L 164.555609 75.339488 
L 164.555609 75.213789 
L 165.054138 75.213789 
L 165.054138 75.08809 
L 165.951488 75.025241 
L 165.951488 74.962392 
L 166.649428 74.962392 
L 166.649428 74.836693 
L 167.147956 74.773844 
L 167.247662 74.585295 
L 167.845896 74.585295 
L 167.845896 74.396747 
L 168.244718 74.333898 
L 168.244718 74.271049 
L 169.34148 74.208199 
L 169.34148 74.14535 
L 169.640597 74.082501 
L 169.740303 73.831103 
L 169.840009 73.831103 
L 169.939714 73.516856 
L 170.03942 73.516856 
L 170.03942 73.328308 
L 170.438243 73.265459 
L 170.438243 73.202609 
L 170.537948 73.202609 
L 172.033533 73.202609 
L 172.033533 73.014061 
L 172.33265 73.014061 
L 172.432356 72.825513 
L 172.731472 72.762664 
L 172.831178 72.574116 
L 173.329706 72.511266 
L 173.429412 72.322718 
L 173.92794 72.322718 
L 174.027646 72.13417 
L 174.127352 72.13417 
L 174.227057 71.757074 
L 174.426469 71.757074 
L 174.426469 71.631375 
L 175.622936 71.568526 
L 175.622936 71.505676 
L 176.021759 71.505676 
L 176.021759 71.317128 
L 176.420582 71.317128 
L 176.420582 71.12858 
L 177.716755 71.065731 
L 177.716755 71.002882 
L 178.314989 70.940032 
L 178.314989 70.877183 
L 178.913223 70.877183 
L 178.913223 70.751484 
L 179.112634 70.751484 
L 179.112634 70.625785 
L 179.312045 70.625785 
L 179.312045 70.437237 
L 180.707924 70.374388 
L 180.80763 70.18584 
L 181.206453 70.18584 
L 181.206453 70.060141 
L 182.303215 69.997292 
L 182.303215 69.871593 
L 183.10086 69.808744 
L 183.10086 69.745894 
L 183.998211 69.683045 
L 183.998211 69.620196 
L 184.197622 69.620196 
L 184.197622 69.494497 
L 184.397033 69.494497 
L 184.397033 69.368798 
L 184.895562 69.368798 
L 184.895562 69.243099 
L 185.493796 69.243099 
L 185.493796 69.117401 
L 186.391146 69.054551 
L 186.391146 68.991702 
L 186.889675 68.928852 
L 186.889675 68.803154 
L 187.787026 68.740304 
L 187.787026 68.551756 
L 188.285554 68.488907 
L 188.285554 68.426058 
L 188.883788 68.363208 
L 188.883788 68.300359 
L 188.983493 68.300359 
L 189.581727 68.237509 
L 189.581727 68.111811 
L 190.179961 68.111811 
L 190.179961 67.923263 
L 190.479078 67.860413 
L 190.479078 67.797564 
L 191.675546 67.734715 
L 191.675546 67.420468 
L 192.174074 67.420468 
L 192.174074 67.294769 
L 192.872014 67.23192 
L 192.971719 67.106221 
L 193.370542 67.043371 
L 193.370542 66.980522 
L 193.470248 66.980522 
L 194.666715 66.917673 
L 194.666715 66.791974 
L 195.065538 66.729125 
L 195.065538 66.603426 
L 196.361711 66.540577 
L 196.461417 66.414878 
L 197.259062 66.352028 
L 197.259062 66.289179 
L 197.458474 66.289179 
L 197.558179 66.100631 
L 197.75759 66.100631 
L 197.75759 65.974932 
L 198.954058 65.912083 
L 198.954058 65.786384 
L 199.552292 65.723535 
L 199.552292 65.660685 
L 200.05082 65.597836 
L 200.150526 65.409288 
L 200.349937 65.346439 
L 200.349937 65.283589 
L 201.346994 65.22074 
L 201.446699 65.095041 
L 202.543462 65.032192 
L 202.643167 64.906493 
L 203.241401 64.843644 
L 203.241401 64.780794 
L 204.437869 64.717945 
L 204.537575 64.466547 
L 205.833748 64.403698 
L 205.933454 64.277999 
L 207.528744 64.277999 
L 207.528744 64.089451 
L 208.625506 64.026602 
L 208.625506 63.963753 
L 208.924623 63.900903 
L 208.924623 63.838054 
L 210.220797 63.775204 
L 210.320502 63.586656 
L 211.217853 63.523807 
L 211.217853 63.460958 
L 211.816087 63.398108 
L 211.816087 63.335259 
L 212.813144 63.272409 
L 212.813144 63.20956 
L 213.11226 63.20956 
L 213.211966 63.021012 
L 214.607845 62.958163 
L 214.607845 62.895313 
L 215.604902 62.832464 
L 215.604902 62.706765 
L 216.003724 62.706765 
L 216.003724 62.581066 
L 216.601958 62.581066 
L 216.601958 62.455368 
L 218.496366 62.392518 
L 218.496366 62.329669 
L 219.294011 62.26682 
L 219.294011 62.20397 
L 219.593128 62.20397 
L 219.692833 62.015422 
L 221.088712 61.952573 
L 221.088712 61.889723 
L 221.188418 61.889723 
L 222.28518 61.826874 
L 222.28518 61.764025 
L 223.381942 61.701175 
L 223.381942 61.638326 
L 224.279293 61.575477 
L 224.279293 61.512627 
L 224.678116 61.449778 
L 224.678116 61.386929 
L 227.071051 61.324079 
L 227.071051 61.26123 
L 229.16487 61.19838 
L 229.16487 61.135531 
L 230.959572 61.072682 
L 230.959572 61.009832 
L 231.358394 60.946983 
L 231.358394 60.884134 
L 233.352507 60.821284 
L 233.352507 60.758435 
L 234.349564 60.695585 
L 234.349564 60.632736 
L 234.548975 60.632736 
L 234.548975 60.507037 
L 234.648681 60.507037 
L 237.540145 60.444188 
L 237.540145 60.318489 
L 238.238084 60.25564 
L 238.238084 60.192791 
L 238.33779 60.192791 
L 239.235141 60.129941 
L 239.334846 60.004242 
L 240.63102 59.941393 
L 240.63102 59.878544 
L 242.92425 59.815694 
L 242.92425 59.627146 
L 244.718951 59.564297 
L 244.718951 59.501448 
L 245.416891 59.501448 
L 245.416891 59.375749 
L 245.815713 59.375749 
L 245.815713 59.187201 
L 247.111887 59.124351 
L 247.111887 59.061502 
L 249.504822 58.998653 
L 249.504822 58.935803 
L 249.903645 58.872954 
L 249.903645 58.810104 
L 252.196875 58.747255 
L 252.196875 58.684406 
L 252.894815 58.621556 
L 252.894815 58.558707 
L 253.293637 58.558707 
L 253.293637 58.370159 
L 254.490105 58.30731 
L 254.490105 58.24446 
L 255.487161 58.181611 
L 255.487161 58.055912 
L 257.58098 57.993063 
L 257.58098 57.930213 
L 259.774504 57.867364 
L 259.774504 57.804515 
L 260.671855 57.741665 
L 260.671855 57.678816 
L 264.46067 57.615967 
L 264.46067 57.553117 
L 264.759787 57.490268 
L 264.759787 57.427418 
L 265.258315 57.364569 
L 265.258315 57.30172 
L 267.152722 57.23887 
L 267.152722 57.176021 
L 270.343303 57.113172 
L 270.343303 57.050322 
L 271.240654 56.987473 
L 271.240654 56.924623 
L 272.337416 56.861774 
L 272.437122 56.736075 
L 275.527997 56.673226 
L 275.527997 56.610377 
L 279.1174 56.547527 
L 279.1174 56.484678 
L 287.891497 56.421829 
L 287.891497 56.358979 
L 291.381195 56.29613 
L 291.480901 56.170431 
L 292.17884 56.107582 
L 292.17884 56.044732 
L 293.873836 55.981883 
L 293.973542 55.856184 
L 296.865006 55.793335 
L 296.964711 55.667636 
L 300.055587 55.604787 
L 300.055587 55.541937 
L 300.753526 55.479088 
L 300.753526 55.416239 
L 304.143518 55.353389 
L 304.143518 55.29054 
L 309.427918 55.227691 
L 309.427918 55.164841 
L 312.020265 55.101992 
L 312.020265 55.039142 
L 314.512906 54.976293 
L 314.512906 54.913444 
L 318.899954 54.850594 
L 318.899954 54.787745 
L 335.650503 54.724896 
L 335.750209 54.536348 
L 341.23402 54.473498 
L 341.23402 54.410649 
L 348.612238 54.347799 
L 348.612238 54.28495 
L 353.198698 54.222101 
L 353.198698 54.159251 
L 366.160432 54.096402 
L 366.160432 54.033553 
L 374.23659 53.970703 
L 374.23659 53.907854 
L 378.623638 53.845005 
L 378.723344 53.719306 
L 380.318634 53.656456 
L 380.318634 53.593607 
L 382.312747 53.530758 
L 382.312747 53.467908 
L 385.204211 53.405059 
L 385.204211 53.34221 
L 400.259764 53.27936 
L 400.259764 53.216511 
L 403.450345 53.153662 
L 403.450345 53.090812 
L 415.415023 53.027963 
L 415.415023 52.965113 
L 421.995596 52.902264 
L 421.995596 52.839415 
L 426.582056 52.776565 
L 426.582056 52.713716 
L 431.866455 52.650867 
L 431.866455 52.588017 
L 432.165572 52.588017 
L 432.165572 52.462318 
L 442.933782 52.399469 
L 442.933782 52.33662 
L 449.414649 52.27377 
L 449.414649 52.210921 
L 452.306113 52.148072 
L 452.306113 52.085222 
L 452.405819 52.085222 
L 456.693162 52.022373 
L 456.693162 51.959524 
L 460.781093 51.896674 
L 460.781093 51.833825 
L 466.962843 51.770975 
L 466.962843 51.708126 
L 469.854307 51.645277 
L 469.854307 51.582427 
L 481.519868 51.519578 
L 481.519868 51.456729 
L 513.126559 51.393879 
L 513.126559 51.33103 
L 535.959153 51.268181 
L 535.959153 51.205331 
L 541.343258 51.142482 
L 541.343258 51.079632 
L 551.513234 51.016783 
L 551.513234 50.953934 
L 570.457307 50.891084 
L 570.457307 50.828235 
L 602.063998 50.765386 
L 602.063998 50.702536 
L 625.295415 50.639687 
L 625.295415 50.576837 
L 638.257149 50.513988 
L 638.257149 50.451139 
L 667.271493 50.451139 
L 667.271493 50.32544 
L 678.039703 50.262591 
L 678.039703 50.199741 
L 696.684659 50.136892 
L 696.684659 50.074043 
L 809.052926 50.011193 
L 809.052926 50.011193 
" clip-path="url(#p1f73642092)" style="fill: none; stroke: #4c72b0; stroke-width: 1.5; stroke-linecap: round"/>
   </g>
   <g id="line2d_2">
    <path d="M 88.480199 495.047557 
L 88.480199 491.402294 
L 88.480199 483.671821 
L 88.480199 472.358936 
L 88.480199 458.469226 
L 88.480199 445.962202 
L 88.480199 428.867174 
L 88.480199 411.39505 
L 88.480199 394.174324 
L 88.480199 376.010857 
L 88.480199 360.487063 
L 88.480199 344.774722 
L 88.67961 329.502326 
L 88.67961 315.549766 
L 88.879021 300.654466 
L 88.978727 285.947715 
L 89.277844 273.880636 
L 89.576961 262.442052 
L 89.676667 249.935028 
L 89.975784 239.502033 
L 90.374606 229.760381 
L 90.673723 219.453085 
L 90.673723 208.328747 
L 91.172251 198.838493 
L 91.271957 190.22813 
L 91.471368 182.497658 
L 92.169308 174.075842 
L 92.867247 167.35096 
L 93.166364 160.311831 
L 94.163421 152.832757 
L 94.661949 146.987766 
L 95.260183 141.457021 
L 95.758711 135.989126 
L 96.656062 131.212575 
L 97.054885 126.624571 
L 97.952236 122.72791 
L 98.749881 118.077057 
L 99.746937 114.054698 
L 100.644288 110.346585 
L 101.940462 106.512774 
L 102.738107 102.741812 
L 103.735163 99.347946 
L 104.632514 96.833971 
L 106.227804 93.817202 
L 107.02545 92.057419 
L 108.720446 88.9778 
L 109.717502 86.463826 
L 111.113381 84.0127 
L 113.905139 81.435876 
L 116.397781 78.984751 
L 119.089833 77.539216 
L 121.383063 76.030831 
L 122.878648 74.899542 
L 124.67335 72.951212 
L 126.866874 70.688635 
L 129.359515 69.305949 
L 131.951862 67.923263 
L 135.042737 65.912083 
L 137.934201 64.780794 
L 141.723016 63.712355 
L 145.412125 62.392518 
L 149.799173 61.638326 
L 154.186222 60.507037 
L 158.174448 59.564297 
L 164.256492 58.495858 
L 167.546779 57.490268 
L 171.834122 56.798925 
L 177.417638 56.044732 
L 183.300271 55.604787 
L 188.883788 55.29054 
L 194.965832 54.724896 
L 202.144639 54.159251 
L 209.423151 53.593607 
L 219.194305 52.965113 
L 226.273406 52.650867 
L 235.047503 52.27377 
L 244.619246 51.896674 
L 252.296581 51.645277 
L 264.46067 51.268181 
L 276.724465 51.142482 
L 286.894441 50.953934 
L 300.055587 50.828235 
L 314.213789 50.639687 
L 329.568459 50.639687 
L 348.811649 50.388289 
L 367.556311 50.388289 
L 389.990082 50.388289 
L 413.42091 50.32544 
L 438.84585 50.32544 
L 463.871968 50.32544 
L 491.889256 50.262591 
L 518.809781 50.262591 
L 547.425302 50.262591 
L 576.339941 50.136892 
L 605.952519 50.136892 
L 636.263036 50.074043 
L 667.57061 50.074043 
L 696.884071 50.011193 
L 730.185758 50.011193 
L 758.601868 50.011193 
L 785.023865 50.011193 
L 809.052926 50.011193 
" clip-path="url(#p1f73642092)" style="fill: none; stroke: #dd8452; stroke-width: 1.5; stroke-linecap: round"/>
   </g>
   <g id="line2d_3">
    <path d="M 88.480199 495.047557 
L 88.480199 382.295793 
L 88.67961 382.295793 
L 88.67961 382.232944 
L 88.779316 321.017661 
L 88.879021 321.017661 
L 88.879021 292.672597 
L 89.078433 292.672597 
L 89.178138 244.027187 
L 89.277844 244.027187 
L 89.37755 234.85118 
L 89.477255 234.85118 
L 89.576961 224.041089 
L 89.676667 224.041089 
L 89.776372 219.830181 
L 89.876078 219.830181 
L 89.975784 215.744972 
L 90.175195 215.744972 
L 90.274901 198.335698 
L 90.374606 198.335698 
L 90.474312 184.006042 
L 90.574017 184.006042 
L 90.673723 175.395679 
L 90.773429 175.395679 
L 90.873134 170.179182 
L 91.072546 170.179182 
L 91.072546 161.631668 
L 91.271957 161.631668 
L 91.371663 149.313192 
L 91.471368 149.313192 
L 91.571074 144.788038 
L 91.67078 144.788038 
L 91.770485 143.970996 
L 91.969897 143.908147 
L 92.069602 134.794988 
L 92.169308 134.794988 
L 92.269014 131.463972 
L 92.368719 131.463972 
L 92.468425 129.515642 
L 92.56813 129.515642 
L 92.56813 129.075696 
L 92.767542 129.075696 
L 92.867247 127.69301 
L 92.966953 127.69301 
L 93.066659 126.875968 
L 93.166364 126.875968 
L 93.26607 124.67624 
L 93.365776 124.67624 
L 93.465481 122.916458 
L 93.565187 122.916458 
L 93.664893 120.465333 
L 94.063715 120.402484 
L 94.063715 119.585442 
L 94.263127 119.585442 
L 94.362832 118.139906 
L 94.462538 118.139906 
L 94.562243 116.82007 
L 94.661949 116.82007 
L 94.761655 114.934589 
L 94.86136 114.934589 
L 94.961066 114.368944 
L 95.060772 114.368944 
L 95.160477 113.426204 
L 95.260183 113.426204 
L 95.359889 110.220886 
L 95.459594 110.220886 
L 95.459594 109.403844 
L 95.659006 109.403844 
L 95.758711 108.209706 
L 95.858417 108.209706 
L 95.958123 107.769761 
L 96.057828 107.769761 
L 96.157534 105.695732 
L 96.25724 105.695732 
L 96.25724 104.187347 
L 96.356945 104.187347 
L 96.556356 104.187347 
L 96.656062 102.741812 
L 96.755768 102.741812 
L 96.855473 99.787891 
L 96.955179 99.787891 
L 97.054885 99.347946 
L 97.15459 99.347946 
L 97.254296 98.153808 
L 97.354002 98.153808 
L 97.453707 96.582574 
L 97.653119 96.582574 
L 97.653119 96.016929 
L 97.85253 96.016929 
L 97.952236 95.576984 
L 98.151647 95.514134 
L 98.251352 94.759942 
L 98.450764 94.759942 
L 98.550469 93.880051 
L 98.849586 93.817202 
L 98.949292 93.251557 
L 99.148703 93.251557 
L 99.248409 89.857691 
L 99.348115 89.857691 
L 99.44782 89.480595 
L 99.547526 89.480595 
L 99.647232 88.600704 
L 99.846643 88.600704 
L 99.946349 87.343717 
L 100.14576 87.343717 
L 100.245465 86.715223 
L 100.345171 86.715223 
L 100.444877 86.02388 
L 100.544582 86.02388 
L 100.644288 85.583935 
L 101.043111 85.583935 
L 101.142816 85.395386 
L 101.342228 85.395386 
L 101.441933 85.143989 
L 101.541639 85.143989 
L 101.641345 84.578345 
L 101.74105 84.578345 
L 101.840756 84.138399 
L 101.940462 84.138399 
L 102.040167 83.824152 
L 102.239578 83.824152 
L 102.239578 83.698454 
L 102.43899 83.698454 
L 102.538695 83.007111 
L 102.638401 83.007111 
L 102.738107 82.504316 
L 102.837812 82.504316 
L 102.937518 81.812973 
L 103.037224 81.812973 
L 103.136929 81.05878 
L 103.236635 81.05878 
L 103.236635 80.807383 
L 103.535752 80.744533 
L 103.635458 80.430287 
L 103.735163 80.430287 
L 103.735163 80.304588 
L 103.934575 80.304588 
L 103.934575 80.178889 
L 104.133986 80.178889 
L 104.233691 79.676094 
L 104.532808 79.676094 
L 104.632514 79.424697 
L 104.73222 79.424697 
L 104.831925 78.796203 
L 105.430159 78.733354 
L 105.529865 78.419107 
L 105.629571 78.419107 
L 105.729276 77.539216 
L 106.028393 77.476366 
L 106.128099 77.224969 
L 106.626627 77.162119 
L 106.726333 76.910722 
L 107.02545 76.910722 
L 107.02545 76.785023 
L 107.224861 76.785023 
L 107.324567 76.470776 
L 107.424272 76.470776 
L 107.424272 76.09368 
L 107.723389 76.09368 
L 107.823095 75.213789 
L 107.9228 75.213789 
L 108.022506 74.962392 
L 108.820151 74.899542 
L 108.919857 74.271049 
L 109.119268 74.271049 
L 109.218974 73.768254 
L 109.31868 73.768254 
L 109.31868 73.328308 
L 109.418385 73.328308 
L 109.717502 73.328308 
L 109.817208 72.951212 
L 110.116325 72.951212 
L 110.21603 72.071321 
L 110.614853 72.008471 
L 110.614853 71.945622 
L 110.814264 71.945622 
L 110.91397 71.379978 
L 111.013676 71.379978 
L 111.113381 71.12858 
L 111.512204 71.065731 
L 111.611909 70.625785 
L 111.711615 70.625785 
L 111.711615 70.500087 
L 112.110438 70.437237 
L 112.210143 69.808744 
L 112.608966 69.745894 
L 112.708672 69.368798 
L 112.908083 69.368798 
L 113.007789 69.18025 
L 113.306906 69.18025 
L 113.306906 69.054551 
L 113.606022 69.054551 
L 113.705728 68.551756 
L 114.004845 68.488907 
L 114.104551 68.237509 
L 114.204256 68.237509 
L 114.303962 67.797564 
L 114.603079 67.797564 
L 114.702785 67.546166 
L 115.301019 67.483317 
L 115.400724 67.23192 
L 115.600135 67.23192 
L 115.699841 66.854823 
L 115.799547 66.854823 
L 115.799547 66.729125 
L 116.298075 66.666275 
L 116.298075 66.603426 
L 117.09572 66.603426 
L 117.195426 66.352028 
L 117.79366 66.289179 
L 117.79366 66.22633 
L 118.292188 66.22633 
L 118.391894 65.974932 
L 119.38895 65.912083 
L 119.38895 65.849234 
L 119.787773 65.786384 
L 119.787773 65.472137 
L 120.08689 65.409288 
L 120.08689 65.346439 
L 120.286301 65.346439 
L 120.386007 65.15789 
L 121.283357 65.095041 
L 121.383063 64.906493 
L 121.482769 64.906493 
L 121.582474 64.655096 
L 121.881591 64.655096 
L 121.881591 64.529397 
L 123.177765 64.466547 
L 123.177765 64.403698 
L 123.377176 64.403698 
L 123.377176 64.152301 
L 124.075116 64.152301 
L 124.174821 63.963753 
L 124.274527 63.963753 
L 124.274527 63.838054 
L 124.473938 63.838054 
L 124.573644 63.586656 
L 124.872761 63.523807 
L 124.872761 63.398108 
L 126.168934 63.335259 
L 126.168934 63.272409 
L 127.165991 63.272409 
L 127.165991 63.083861 
L 128.362459 63.021012 
L 128.362459 62.895313 
L 128.960692 62.895313 
L 129.060398 62.643916 
L 129.459221 62.643916 
L 129.459221 62.518217 
L 130.456277 62.455368 
L 130.555983 62.141121 
L 130.755394 62.141121 
L 130.755394 62.015422 
L 131.154217 61.952573 
L 131.154217 61.764025 
L 131.453334 61.764025 
L 131.453334 61.638326 
L 131.951862 61.638326 
L 131.951862 61.449778 
L 133.048624 61.386929 
L 133.14833 61.19838 
L 133.248035 61.19838 
L 133.248035 61.072682 
L 134.843326 61.009832 
L 134.943031 60.884134 
L 135.242148 60.821284 
L 135.242148 60.758435 
L 136.139499 60.695585 
L 136.139499 60.569887 
L 137.236261 60.507037 
L 137.236261 60.444188 
L 137.834495 60.444188 
L 137.834495 60.318489 
L 138.831552 60.25564 
L 138.831552 60.192791 
L 139.230374 60.129941 
L 139.230374 60.004242 
L 140.725959 59.941393 
L 140.725959 59.878544 
L 141.324193 59.815694 
L 141.324193 59.752845 
L 142.819778 59.689996 
L 142.819778 59.627146 
L 143.019189 59.627146 
L 143.118895 59.438598 
L 143.318306 59.375749 
L 143.318306 59.312899 
L 143.717129 59.25005 
L 143.816834 58.935803 
L 146.010358 58.872954 
L 146.010358 58.810104 
L 147.107121 58.747255 
L 147.206826 58.621556 
L 148.004471 58.558707 
L 148.004471 58.495858 
L 149.001528 58.433008 
L 149.001528 58.370159 
L 149.400351 58.370159 
L 149.500056 58.181611 
L 150.696524 58.118761 
L 150.79623 57.993063 
L 153.08946 57.930213 
L 153.08946 57.867364 
L 153.687693 57.804515 
L 153.687693 57.678816 
L 156.180335 57.615967 
L 156.180335 57.490268 
L 157.077686 57.427418 
L 157.077686 57.364569 
L 158.373859 57.30172 
L 158.373859 57.23887 
L 158.672976 57.176021 
L 158.672976 56.987473 
L 160.068855 56.924623 
L 160.068855 56.861774 
L 160.8665 56.798925 
L 160.8665 56.736075 
L 162.362085 56.673226 
L 162.362085 56.610377 
L 163.458847 56.547527 
L 163.458847 56.421829 
L 163.757964 56.358979 
L 163.757964 56.29613 
L 166.450017 56.23328 
L 166.549722 56.044732 
L 169.042363 55.981883 
L 169.042363 55.919034 
L 170.238831 55.856184 
L 170.238831 55.793335 
L 171.235888 55.730486 
L 171.235888 55.667636 
L 173.130295 55.604787 
L 173.130295 55.541937 
L 173.230001 55.541937 
L 173.728529 55.541937 
L 173.728529 55.416239 
L 177.317932 55.353389 
L 177.317932 55.29054 
L 178.813517 55.227691 
L 178.913223 55.101992 
L 181.704981 55.039142 
L 181.704981 54.976293 
L 182.103804 54.976293 
L 182.103804 54.850594 
L 186.889675 54.787745 
L 186.889675 54.724896 
L 190.379372 54.662046 
L 190.379372 54.599197 
L 192.872014 54.536348 
L 192.872014 54.473498 
L 195.165244 54.410649 
L 195.165244 54.347799 
L 200.549349 54.28495 
L 200.549349 54.222101 
L 202.144639 54.159251 
L 202.144639 54.096402 
L 204.338163 54.033553 
L 204.338163 53.970703 
L 205.933454 53.907854 
L 205.933454 53.845005 
L 206.731099 53.782155 
L 206.731099 53.719306 
L 207.827861 53.656456 
L 207.927567 53.530758 
L 219.194305 53.467908 
L 219.194305 53.405059 
L 221.387829 53.34221 
L 221.387829 53.27936 
L 233.05339 53.216511 
L 233.05339 53.153662 
L 234.947798 53.090812 
L 234.947798 53.027963 
L 238.138378 52.965113 
L 238.138378 52.902264 
L 241.727782 52.839415 
L 241.727782 52.776565 
L 244.021012 52.713716 
L 244.021012 52.650867 
L 248.906589 52.588017 
L 248.906589 52.525168 
L 254.190988 52.462318 
L 254.190988 52.399469 
L 258.677742 52.33662 
L 258.677742 52.27377 
L 258.777448 52.27377 
L 267.252428 52.210921 
L 267.252428 52.148072 
L 271.34036 52.085222 
L 271.34036 52.022373 
L 286.196501 51.959524 
L 286.196501 51.896674 
L 292.577663 51.833825 
L 292.577663 51.770975 
L 294.671482 51.708126 
L 294.671482 51.645277 
L 306.735865 51.582427 
L 306.835571 51.456729 
L 317.40437 51.393879 
L 317.40437 51.33103 
L 325.281116 51.268181 
L 325.281116 51.205331 
L 334.454036 51.142482 
L 334.454036 51.079632 
L 347.116653 51.016783 
L 347.116653 50.953934 
L 369.251307 50.891084 
L 369.251307 50.828235 
L 407.338865 50.765386 
L 407.338865 50.702536 
L 421.596773 50.639687 
L 421.596773 50.576837 
L 426.781467 50.513988 
L 426.781467 50.451139 
L 439.444084 50.388289 
L 439.444084 50.32544 
L 439.54379 50.32544 
L 446.024657 50.262591 
L 446.024657 50.199741 
L 498.868651 50.136892 
L 498.868651 50.074043 
L 809.052926 50.011193 
L 809.052926 50.011193 
" clip-path="url(#p1f73642092)" style="fill: none; stroke: #55a868; stroke-width: 1.5; stroke-linecap: round"/>
   </g>
   <g id="line2d_4">
    <path d="M 88.480199 495.047557 
L 809.052926 50.011193 
" clip-path="url(#p1f73642092)" style="fill: none; stroke-dasharray: 5.55,2.4; stroke-dashoffset: 0; stroke: #1a1a1a; stroke-width: 1.5"/>
   </g>
   <g id="patch_3">
    <path d="M 52.451563 517.299375 
L 52.451563 27.759375 
" style="fill: none; stroke: #262626; stroke-width: 1.25; stroke-linejoin: miter; stroke-linecap: square"/>
   </g>
   <g id="patch_4">
    <path d="M 845.081562 517.299375 
L 845.081562 27.759375 
" style="fill: none; stroke: #262626; stroke-width: 1.25; stroke-linejoin: miter; stroke-linecap: square"/>
   </g>
   <g id="patch_5">
    <path d="M 52.451563 517.299375 
L 845.081562 517.299375 
" style="fill: none; stroke: #262626; stroke-width: 1.25; stroke-linejoin: miter; stroke-linecap: square"/>
   </g>
   <g id="patch_6">
    <path d="M 52.451563 27.759375 
L 845.081562 27.759375 
" style="fill: none; stroke: #262626; stroke-width: 1.25; stroke-linejoin: miter; stroke-linecap: square"/>
   </g>
   <g id="text_15">
    <!-- ROC Curve - model comparison -->
    <g style="fill: #262626" transform="translate(297.635312 21.759375) scale(0.2 -0.2)">
     <defs>
      <path id="Arial-BoldMT-52" d="M 469 0 
L 469 4581 
L 2416 4581 
Q 3150 4581 3483 4457 
Q 3816 4334 4016 4018 
Q 4216 3703 4216 3297 
Q 4216 2781 3912 2445 
Q 3609 2109 3006 2022 
Q 3306 1847 3501 1637 
Q 3697 1428 4028 894 
L 4588 0 
L 3481 0 
L 2813 997 
Q 2456 1531 2325 1670 
Q 2194 1809 2047 1861 
Q 1900 1913 1581 1913 
L 1394 1913 
L 1394 0 
L 469 0 
z
M 1394 2644 
L 2078 2644 
Q 2744 2644 2909 2700 
Q 3075 2756 3169 2893 
Q 3263 3031 3263 3238 
Q 3263 3469 3139 3611 
Q 3016 3753 2791 3791 
Q 2678 3806 2116 3806 
L 1394 3806 
L 1394 2644 
z
" transform="scale(0.015625)"/>
      <path id="Arial-BoldMT-4f" d="M 278 2263 
Q 278 2963 488 3438 
Q 644 3788 914 4066 
Q 1184 4344 1506 4478 
Q 1934 4659 2494 4659 
Q 3506 4659 4114 4031 
Q 4722 3403 4722 2284 
Q 4722 1175 4119 548 
Q 3516 -78 2506 -78 
Q 1484 -78 881 545 
Q 278 1169 278 2263 
z
M 1231 2294 
Q 1231 1516 1590 1114 
Q 1950 713 2503 713 
Q 3056 713 3411 1111 
Q 3766 1509 3766 2306 
Q 3766 3094 3420 3481 
Q 3075 3869 2503 3869 
Q 1931 3869 1581 3476 
Q 1231 3084 1231 2294 
z
" transform="scale(0.015625)"/>
      <path id="Arial-BoldMT-43" d="M 3397 1684 
L 4294 1400 
Q 4088 650 3608 286 
Q 3128 -78 2391 -78 
Q 1478 -78 890 545 
Q 303 1169 303 2250 
Q 303 3394 893 4026 
Q 1484 4659 2447 4659 
Q 3288 4659 3813 4163 
Q 4125 3869 4281 3319 
L 3366 3100 
Q 3284 3456 3026 3662 
Q 2769 3869 2400 3869 
Q 1891 3869 1573 3503 
Q 1256 3138 1256 2319 
Q 1256 1450 1568 1081 
Q 1881 713 2381 713 
Q 2750 713 3015 947 
Q 3281 1181 3397 1684 
z
" transform="scale(0.015625)"/>
      <path id="Arial-BoldMT-20" transform="scale(0.015625)"/>
      <path id="Arial-BoldMT-75" d="M 2644 0 
L 2644 497 
Q 2463 231 2167 78 
Q 1872 -75 1544 -75 
Q 1209 -75 943 72 
Q 678 219 559 484 
Q 441 750 441 1219 
L 441 3319 
L 1319 3319 
L 1319 1794 
Q 1319 1094 1367 936 
Q 1416 778 1544 686 
Q 1672 594 1869 594 
Q 2094 594 2272 717 
Q 2450 841 2515 1023 
Q 2581 1206 2581 1919 
L 2581 3319 
L 3459 3319 
L 3459 0 
L 2644 0 
z
" transform="scale(0.015625)"/>
      <path id="Arial-BoldMT-72" d="M 1300 0 
L 422 0 
L 422 3319 
L 1238 3319 
L 1238 2847 
Q 1447 3181 1614 3287 
Q 1781 3394 1994 3394 
Q 2294 3394 2572 3228 
L 2300 2463 
Q 2078 2606 1888 2606 
Q 1703 2606 1575 2504 
Q 1447 2403 1373 2137 
Q 1300 1872 1300 1025 
L 1300 0 
z
" transform="scale(0.015625)"/>
      <path id="Arial-BoldMT-76" d="M 1372 0 
L 34 3319 
L 956 3319 
L 1581 1625 
L 1763 1059 
Q 1834 1275 1853 1344 
Q 1897 1484 1947 1625 
L 2578 3319 
L 3481 3319 
L 2163 0 
L 1372 0 
z
" transform="scale(0.015625)"/>
      <path id="Arial-BoldMT-65" d="M 2381 1056 
L 3256 909 
Q 3088 428 2723 176 
Q 2359 -75 1813 -75 
Q 947 -75 531 491 
Q 203 944 203 1634 
Q 203 2459 634 2926 
Q 1066 3394 1725 3394 
Q 2466 3394 2894 2905 
Q 3322 2416 3303 1406 
L 1103 1406 
Q 1113 1016 1316 798 
Q 1519 581 1822 581 
Q 2028 581 2168 693 
Q 2309 806 2381 1056 
z
M 2431 1944 
Q 2422 2325 2234 2523 
Q 2047 2722 1778 2722 
Q 1491 2722 1303 2513 
Q 1116 2303 1119 1944 
L 2431 1944 
z
" transform="scale(0.015625)"/>
      <path id="Arial-BoldMT-2d" d="M 359 1222 
L 359 2100 
L 2084 2100 
L 2084 1222 
L 359 1222 
z
" transform="scale(0.015625)"/>
      <path id="Arial-BoldMT-6d" d="M 394 3319 
L 1203 3319 
L 1203 2866 
Q 1638 3394 2238 3394 
Q 2556 3394 2790 3262 
Q 3025 3131 3175 2866 
Q 3394 3131 3647 3262 
Q 3900 3394 4188 3394 
Q 4553 3394 4806 3245 
Q 5059 3097 5184 2809 
Q 5275 2597 5275 2122 
L 5275 0 
L 4397 0 
L 4397 1897 
Q 4397 2391 4306 2534 
Q 4184 2722 3931 2722 
Q 3747 2722 3584 2609 
Q 3422 2497 3350 2280 
Q 3278 2063 3278 1594 
L 3278 0 
L 2400 0 
L 2400 1819 
Q 2400 2303 2353 2443 
Q 2306 2584 2207 2653 
Q 2109 2722 1941 2722 
Q 1738 2722 1575 2612 
Q 1413 2503 1342 2297 
Q 1272 2091 1272 1613 
L 1272 0 
L 394 0 
L 394 3319 
z
" transform="scale(0.015625)"/>
      <path id="Arial-BoldMT-6f" d="M 256 1706 
Q 256 2144 472 2553 
Q 688 2963 1083 3178 
Q 1478 3394 1966 3394 
Q 2719 3394 3200 2905 
Q 3681 2416 3681 1669 
Q 3681 916 3195 420 
Q 2709 -75 1972 -75 
Q 1516 -75 1102 131 
Q 688 338 472 736 
Q 256 1134 256 1706 
z
M 1156 1659 
Q 1156 1166 1390 903 
Q 1625 641 1969 641 
Q 2313 641 2545 903 
Q 2778 1166 2778 1666 
Q 2778 2153 2545 2415 
Q 2313 2678 1969 2678 
Q 1625 2678 1390 2415 
Q 1156 2153 1156 1659 
z
" transform="scale(0.015625)"/>
      <path id="Arial-BoldMT-64" d="M 3503 0 
L 2688 0 
L 2688 488 
Q 2484 203 2207 64 
Q 1931 -75 1650 -75 
Q 1078 -75 670 386 
Q 263 847 263 1672 
Q 263 2516 659 2955 
Q 1056 3394 1663 3394 
Q 2219 3394 2625 2931 
L 2625 4581 
L 3503 4581 
L 3503 0 
z
M 1159 1731 
Q 1159 1200 1306 963 
Q 1519 619 1900 619 
Q 2203 619 2415 876 
Q 2628 1134 2628 1647 
Q 2628 2219 2422 2470 
Q 2216 2722 1894 2722 
Q 1581 2722 1370 2473 
Q 1159 2225 1159 1731 
z
" transform="scale(0.015625)"/>
      <path id="Arial-BoldMT-6c" d="M 459 0 
L 459 4581 
L 1338 4581 
L 1338 0 
L 459 0 
z
" transform="scale(0.015625)"/>
      <path id="Arial-BoldMT-63" d="M 3353 2338 
L 2488 2181 
Q 2444 2441 2289 2572 
Q 2134 2703 1888 2703 
Q 1559 2703 1364 2476 
Q 1169 2250 1169 1719 
Q 1169 1128 1367 884 
Q 1566 641 1900 641 
Q 2150 641 2309 783 
Q 2469 925 2534 1272 
L 3397 1125 
Q 3263 531 2881 228 
Q 2500 -75 1859 -75 
Q 1131 -75 698 384 
Q 266 844 266 1656 
Q 266 2478 700 2936 
Q 1134 3394 1875 3394 
Q 2481 3394 2839 3133 
Q 3197 2872 3353 2338 
z
" transform="scale(0.015625)"/>
      <path id="Arial-BoldMT-70" d="M 434 3319 
L 1253 3319 
L 1253 2831 
Q 1413 3081 1684 3237 
Q 1956 3394 2288 3394 
Q 2866 3394 3269 2941 
Q 3672 2488 3672 1678 
Q 3672 847 3265 386 
Q 2859 -75 2281 -75 
Q 2006 -75 1782 34 
Q 1559 144 1313 409 
L 1313 -1263 
L 434 -1263 
L 434 3319 
z
M 1303 1716 
Q 1303 1156 1525 889 
Q 1747 622 2066 622 
Q 2372 622 2575 867 
Q 2778 1113 2778 1672 
Q 2778 2194 2568 2447 
Q 2359 2700 2050 2700 
Q 1728 2700 1515 2451 
Q 1303 2203 1303 1716 
z
" transform="scale(0.015625)"/>
      <path id="Arial-BoldMT-61" d="M 1116 2306 
L 319 2450 
Q 453 2931 781 3162 
Q 1109 3394 1756 3394 
Q 2344 3394 2631 3255 
Q 2919 3116 3036 2902 
Q 3153 2688 3153 2116 
L 3144 1091 
Q 3144 653 3186 445 
Q 3228 238 3344 0 
L 2475 0 
Q 2441 88 2391 259 
Q 2369 338 2359 363 
Q 2134 144 1878 34 
Q 1622 -75 1331 -75 
Q 819 -75 523 203 
Q 228 481 228 906 
Q 228 1188 362 1408 
Q 497 1628 739 1745 
Q 981 1863 1438 1950 
Q 2053 2066 2291 2166 
L 2291 2253 
Q 2291 2506 2166 2614 
Q 2041 2722 1694 2722 
Q 1459 2722 1328 2630 
Q 1197 2538 1116 2306 
z
M 2291 1594 
Q 2122 1538 1756 1459 
Q 1391 1381 1278 1306 
Q 1106 1184 1106 997 
Q 1106 813 1243 678 
Q 1381 544 1594 544 
Q 1831 544 2047 700 
Q 2206 819 2256 991 
Q 2291 1103 2291 1419 
L 2291 1594 
z
" transform="scale(0.015625)"/>
      <path id="Arial-BoldMT-69" d="M 459 3769 
L 459 4581 
L 1338 4581 
L 1338 3769 
L 459 3769 
z
M 459 0 
L 459 3319 
L 1338 3319 
L 1338 0 
L 459 0 
z
" transform="scale(0.015625)"/>
      <path id="Arial-BoldMT-73" d="M 150 947 
L 1031 1081 
Q 1088 825 1259 692 
Q 1431 559 1741 559 
Q 2081 559 2253 684 
Q 2369 772 2369 919 
Q 2369 1019 2306 1084 
Q 2241 1147 2013 1200 
Q 950 1434 666 1628 
Q 272 1897 272 2375 
Q 272 2806 612 3100 
Q 953 3394 1669 3394 
Q 2350 3394 2681 3172 
Q 3013 2950 3138 2516 
L 2309 2363 
Q 2256 2556 2107 2659 
Q 1959 2763 1684 2763 
Q 1338 2763 1188 2666 
Q 1088 2597 1088 2488 
Q 1088 2394 1175 2328 
Q 1294 2241 1995 2081 
Q 2697 1922 2975 1691 
Q 3250 1456 3250 1038 
Q 3250 581 2869 253 
Q 2488 -75 1741 -75 
Q 1063 -75 667 200 
Q 272 475 150 947 
z
" transform="scale(0.015625)"/>
      <path id="Arial-BoldMT-6e" d="M 3478 0 
L 2600 0 
L 2600 1694 
Q 2600 2231 2544 2389 
Q 2488 2547 2361 2634 
Q 2234 2722 2056 2722 
Q 1828 2722 1647 2597 
Q 1466 2472 1398 2265 
Q 1331 2059 1331 1503 
L 1331 0 
L 453 0 
L 453 3319 
L 1269 3319 
L 1269 2831 
Q 1703 3394 2363 3394 
Q 2653 3394 2893 3289 
Q 3134 3184 3257 3021 
Q 3381 2859 3429 2653 
Q 3478 2447 3478 2063 
L 3478 0 
z
" transform="scale(0.015625)"/>
     </defs>
     <use xlink:href="#Arial-BoldMT-52"/>
     <use xlink:href="#Arial-BoldMT-4f" transform="translate(72.216797 0)"/>
     <use xlink:href="#Arial-BoldMT-43" transform="translate(150 0)"/>
     <use xlink:href="#Arial-BoldMT-20" transform="translate(222.216797 0)"/>
     <use xlink:href="#Arial-BoldMT-43" transform="translate(250 0)"/>
     <use xlink:href="#Arial-BoldMT-75" transform="translate(322.216797 0)"/>
     <use xlink:href="#Arial-BoldMT-72" transform="translate(383.300781 0)"/>
     <use xlink:href="#Arial-BoldMT-76" transform="translate(422.216797 0)"/>
     <use xlink:href="#Arial-BoldMT-65" transform="translate(477.832031 0)"/>
     <use xlink:href="#Arial-BoldMT-20" transform="translate(533.447266 0)"/>
     <use xlink:href="#Arial-BoldMT-2d" transform="translate(561.230469 0)"/>
     <use xlink:href="#Arial-BoldMT-20" transform="translate(594.53125 0)"/>
     <use xlink:href="#Arial-BoldMT-6d" transform="translate(622.314453 0)"/>
     <use xlink:href="#Arial-BoldMT-6f" transform="translate(711.230469 0)"/>
     <use xlink:href="#Arial-BoldMT-64" transform="translate(772.314453 0)"/>
     <use xlink:href="#Arial-BoldMT-65" transform="translate(833.398438 0)"/>
     <use xlink:href="#Arial-BoldMT-6c" transform="translate(889.013672 0)"/>
     <use xlink:href="#Arial-BoldMT-20" transform="translate(916.796875 0)"/>
     <use xlink:href="#Arial-BoldMT-63" transform="translate(944.580078 0)"/>
     <use xlink:href="#Arial-BoldMT-6f" transform="translate(1000.195312 0)"/>
     <use xlink:href="#Arial-BoldMT-6d" transform="translate(1061.279297 0)"/>
     <use xlink:href="#Arial-BoldMT-70" transform="translate(1150.195312 0)"/>
     <use xlink:href="#Arial-BoldMT-61" transform="translate(1211.279297 0)"/>
     <use xlink:href="#Arial-BoldMT-72" transform="translate(1266.894531 0)"/>
     <use xlink:href="#Arial-BoldMT-69" transform="translate(1305.810547 0)"/>
     <use xlink:href="#Arial-BoldMT-73" transform="translate(1333.59375 0)"/>
     <use xlink:href="#Arial-BoldMT-6f" transform="translate(1389.208984 0)"/>
     <use xlink:href="#Arial-BoldMT-6e" transform="translate(1450.292969 0)"/>
    </g>
   </g>
   <g id="legend_1">
    <g id="patch_7">
     <path d="M 638.644219 511.799375 
L 837.381562 511.799375 
Q 839.581562 511.799375 839.581562 509.599375 
L 839.581562 447.671094 
Q 839.581562 445.471094 837.381562 445.471094 
L 638.644219 445.471094 
Q 636.444219 445.471094 636.444219 447.671094 
L 636.444219 509.599375 
Q 636.444219 511.799375 638.644219 511.799375 
z
" style="fill: #ffffff; opacity: 0.8; stroke: #cccccc; stroke-linejoin: miter"/>
    </g>
    <g id="line2d_5">
     <path d="M 640.844219 454.02875 
L 651.844219 454.02875 
L 662.844219 454.02875 
" style="fill: none; stroke: #4c72b0; stroke-width: 1.5; stroke-linecap: round"/>
    </g>
    <g id="text_16">
     <!-- Logistic Regression (AUC = 0.98) -->
     <g style="fill: #262626" transform="translate(671.644219 457.87875) scale(0.11 -0.11)">
      <defs>
       <path id="ArialMT-4c" d="M 469 0 
L 469 4581 
L 1075 4581 
L 1075 541 
L 3331 541 
L 3331 0 
L 469 0 
z
" transform="scale(0.015625)"/>
       <path id="ArialMT-67" d="M 319 -275 
L 866 -356 
Q 900 -609 1056 -725 
Q 1266 -881 1628 -881 
Q 2019 -881 2231 -725 
Q 2444 -569 2519 -288 
Q 2563 -116 2559 434 
Q 2191 0 1641 0 
Q 956 0 581 494 
Q 206 988 206 1678 
Q 206 2153 378 2554 
Q 550 2956 876 3175 
Q 1203 3394 1644 3394 
Q 2231 3394 2613 2919 
L 2613 3319 
L 3131 3319 
L 3131 450 
Q 3131 -325 2973 -648 
Q 2816 -972 2473 -1159 
Q 2131 -1347 1631 -1347 
Q 1038 -1347 672 -1080 
Q 306 -813 319 -275 
z
M 784 1719 
Q 784 1066 1043 766 
Q 1303 466 1694 466 
Q 2081 466 2343 764 
Q 2606 1063 2606 1700 
Q 2606 2309 2336 2618 
Q 2066 2928 1684 2928 
Q 1309 2928 1046 2623 
Q 784 2319 784 1719 
z
" transform="scale(0.015625)"/>
       <path id="ArialMT-63" d="M 2588 1216 
L 3141 1144 
Q 3050 572 2676 248 
Q 2303 -75 1759 -75 
Q 1078 -75 664 370 
Q 250 816 250 1647 
Q 250 2184 428 2587 
Q 606 2991 970 3192 
Q 1334 3394 1763 3394 
Q 2303 3394 2647 3120 
Q 2991 2847 3088 2344 
L 2541 2259 
Q 2463 2594 2264 2762 
Q 2066 2931 1784 2931 
Q 1359 2931 1093 2626 
Q 828 2322 828 1663 
Q 828 994 1084 691 
Q 1341 388 1753 388 
Q 2084 388 2306 591 
Q 2528 794 2588 1216 
z
" transform="scale(0.015625)"/>
       <path id="ArialMT-6e" d="M 422 0 
L 422 3319 
L 928 3319 
L 928 2847 
Q 1294 3394 1984 3394 
Q 2284 3394 2536 3286 
Q 2788 3178 2913 3003 
Q 3038 2828 3088 2588 
Q 3119 2431 3119 2041 
L 3119 0 
L 2556 0 
L 2556 2019 
Q 2556 2363 2490 2533 
Q 2425 2703 2258 2804 
Q 2091 2906 1866 2906 
Q 1506 2906 1245 2678 
Q 984 2450 984 1813 
L 984 0 
L 422 0 
z
" transform="scale(0.015625)"/>
       <path id="ArialMT-28" d="M 1497 -1347 
Q 1031 -759 709 28 
Q 388 816 388 1659 
Q 388 2403 628 3084 
Q 909 3875 1497 4659 
L 1900 4659 
Q 1522 4009 1400 3731 
Q 1209 3300 1100 2831 
Q 966 2247 966 1656 
Q 966 153 1900 -1347 
L 1497 -1347 
z
" transform="scale(0.015625)"/>
       <path id="ArialMT-41" d="M -9 0 
L 1750 4581 
L 2403 4581 
L 4278 0 
L 3588 0 
L 3053 1388 
L 1138 1388 
L 634 0 
L -9 0 
z
M 1313 1881 
L 2866 1881 
L 2388 3150 
Q 2169 3728 2063 4100 
Q 1975 3659 1816 3225 
L 1313 1881 
z
" transform="scale(0.015625)"/>
       <path id="ArialMT-55" d="M 3500 4581 
L 4106 4581 
L 4106 1934 
Q 4106 1244 3950 837 
Q 3794 431 3386 176 
Q 2978 -78 2316 -78 
Q 1672 -78 1262 144 
Q 853 366 678 786 
Q 503 1206 503 1934 
L 503 4581 
L 1109 4581 
L 1109 1938 
Q 1109 1341 1220 1058 
Q 1331 775 1601 622 
Q 1872 469 2263 469 
Q 2931 469 3215 772 
Q 3500 1075 3500 1938 
L 3500 4581 
z
" transform="scale(0.015625)"/>
       <path id="ArialMT-43" d="M 3763 1606 
L 4369 1453 
Q 4178 706 3683 314 
Q 3188 -78 2472 -78 
Q 1731 -78 1267 223 
Q 803 525 561 1097 
Q 319 1669 319 2325 
Q 319 3041 592 3573 
Q 866 4106 1370 4382 
Q 1875 4659 2481 4659 
Q 3169 4659 3637 4309 
Q 4106 3959 4291 3325 
L 3694 3184 
Q 3534 3684 3231 3912 
Q 2928 4141 2469 4141 
Q 1941 4141 1586 3887 
Q 1231 3634 1087 3207 
Q 944 2781 944 2328 
Q 944 1744 1114 1308 
Q 1284 872 1643 656 
Q 2003 441 2422 441 
Q 2931 441 3284 734 
Q 3638 1028 3763 1606 
z
" transform="scale(0.015625)"/>
       <path id="ArialMT-3d" d="M 3381 2694 
L 356 2694 
L 356 3219 
L 3381 3219 
L 3381 2694 
z
M 3381 1303 
L 356 1303 
L 356 1828 
L 3381 1828 
L 3381 1303 
z
" transform="scale(0.015625)"/>
       <path id="ArialMT-39" d="M 350 1059 
L 891 1109 
Q 959 728 1153 556 
Q 1347 384 1650 384 
Q 1909 384 2104 503 
Q 2300 622 2425 820 
Q 2550 1019 2634 1356 
Q 2719 1694 2719 2044 
Q 2719 2081 2716 2156 
Q 2547 1888 2255 1720 
Q 1963 1553 1622 1553 
Q 1053 1553 659 1965 
Q 266 2378 266 3053 
Q 266 3750 677 4175 
Q 1088 4600 1706 4600 
Q 2153 4600 2523 4359 
Q 2894 4119 3086 3673 
Q 3278 3228 3278 2384 
Q 3278 1506 3087 986 
Q 2897 466 2520 194 
Q 2144 -78 1638 -78 
Q 1100 -78 759 220 
Q 419 519 350 1059 
z
M 2653 3081 
Q 2653 3566 2395 3850 
Q 2138 4134 1775 4134 
Q 1400 4134 1122 3828 
Q 844 3522 844 3034 
Q 844 2597 1108 2323 
Q 1372 2050 1759 2050 
Q 2150 2050 2401 2323 
Q 2653 2597 2653 3081 
z
" transform="scale(0.015625)"/>
       <path id="ArialMT-29" d="M 791 -1347 
L 388 -1347 
Q 1322 153 1322 1656 
Q 1322 2244 1188 2822 
Q 1081 3291 891 3722 
Q 769 4003 388 4659 
L 791 4659 
Q 1378 3875 1659 3084 
Q 1900 2403 1900 1659 
Q 1900 816 1576 28 
Q 1253 -759 791 -1347 
z
" transform="scale(0.015625)"/>
      </defs>
      <use xlink:href="#ArialMT-4c"/>
      <use xlink:href="#ArialMT-6f" transform="translate(55.615234 0)"/>
      <use xlink:href="#ArialMT-67" transform="translate(111.230469 0)"/>
      <use xlink:href="#ArialMT-69" transform="translate(166.845703 0)"/>
      <use xlink:href="#ArialMT-73" transform="translate(189.0625 0)"/>
      <use xlink:href="#ArialMT-74" transform="translate(239.0625 0)"/>
      <use xlink:href="#ArialMT-69" transform="translate(266.845703 0)"/>
      <use xlink:href="#ArialMT-63" transform="translate(289.0625 0)"/>
      <use xlink:href="#ArialMT-20" transform="translate(339.0625 0)"/>
      <use xlink:href="#ArialMT-52" transform="translate(366.845703 0)"/>
      <use xlink:href="#ArialMT-65" transform="translate(439.0625 0)"/>
      <use xlink:href="#ArialMT-67" transform="translate(494.677734 0)"/>
      <use xlink:href="#ArialMT-72" transform="translate(550.292969 0)"/>
      <use xlink:href="#ArialMT-65" transform="translate(583.59375 0)"/>
      <use xlink:href="#ArialMT-73" transform="translate(639.208984 0)"/>
      <use xlink:href="#ArialMT-73" transform="translate(689.208984 0)"/>
      <use xlink:href="#ArialMT-69" transform="translate(739.208984 0)"/>
      <use xlink:href="#ArialMT-6f" transform="translate(761.425781 0)"/>
      <use xlink:href="#ArialMT-6e" transform="translate(817.041016 0)"/>
      <use xlink:href="#ArialMT-20" transform="translate(872.65625 0)"/>
      <use xlink:href="#ArialMT-28" transform="translate(900.439453 0)"/>
      <use xlink:href="#ArialMT-41" transform="translate(933.740234 0)"/>
      <use xlink:href="#ArialMT-55" transform="translate(1000.439453 0)"/>
      <use xlink:href="#ArialMT-43" transform="translate(1072.65625 0)"/>
      <use xlink:href="#ArialMT-20" transform="translate(1144.873047 0)"/>
      <use xlink:href="#ArialMT-3d" transform="translate(1172.65625 0)"/>
      <use xlink:href="#ArialMT-20" transform="translate(1231.054688 0)"/>
      <use xlink:href="#ArialMT-30" transform="translate(1258.837891 0)"/>
      <use xlink:href="#ArialMT-2e" transform="translate(1314.453125 0)"/>
      <use xlink:href="#ArialMT-39" transform="translate(1342.236328 0)"/>
      <use xlink:href="#ArialMT-38" transform="translate(1397.851562 0)"/>
      <use xlink:href="#ArialMT-29" transform="translate(1453.466797 0)"/>
     </g>
    </g>
    <g id="line2d_6">
     <path d="M 640.844219 469.851563 
L 651.844219 469.851563 
L 662.844219 469.851563 
" style="fill: none; stroke: #dd8452; stroke-width: 1.5; stroke-linecap: round"/>
    </g>
    <g id="text_17">
     <!-- Random Forest (AUC = 0.99) -->
     <g style="fill: #262626" transform="translate(671.644219 473.701563) scale(0.11 -0.11)">
      <defs>
       <path id="ArialMT-64" d="M 2575 0 
L 2575 419 
Q 2259 -75 1647 -75 
Q 1250 -75 917 144 
Q 584 363 401 755 
Q 219 1147 219 1656 
Q 219 2153 384 2558 
Q 550 2963 881 3178 
Q 1213 3394 1622 3394 
Q 1922 3394 2156 3267 
Q 2391 3141 2538 2938 
L 2538 4581 
L 3097 4581 
L 3097 0 
L 2575 0 
z
M 797 1656 
Q 797 1019 1065 703 
Q 1334 388 1700 388 
Q 2069 388 2326 689 
Q 2584 991 2584 1609 
Q 2584 2291 2321 2609 
Q 2059 2928 1675 2928 
Q 1300 2928 1048 2622 
Q 797 2316 797 1656 
z
" transform="scale(0.015625)"/>
       <path id="ArialMT-6d" d="M 422 0 
L 422 3319 
L 925 3319 
L 925 2853 
Q 1081 3097 1340 3245 
Q 1600 3394 1931 3394 
Q 2300 3394 2536 3241 
Q 2772 3088 2869 2813 
Q 3263 3394 3894 3394 
Q 4388 3394 4653 3120 
Q 4919 2847 4919 2278 
L 4919 0 
L 4359 0 
L 4359 2091 
Q 4359 2428 4304 2576 
Q 4250 2725 4106 2815 
Q 3963 2906 3769 2906 
Q 3419 2906 3187 2673 
Q 2956 2441 2956 1928 
L 2956 0 
L 2394 0 
L 2394 2156 
Q 2394 2531 2256 2718 
Q 2119 2906 1806 2906 
Q 1569 2906 1367 2781 
Q 1166 2656 1075 2415 
Q 984 2175 984 1722 
L 984 0 
L 422 0 
z
" transform="scale(0.015625)"/>
      </defs>
      <use xlink:href="#ArialMT-52"/>
      <use xlink:href="#ArialMT-61" transform="translate(72.216797 0)"/>
      <use xlink:href="#ArialMT-6e" transform="translate(127.832031 0)"/>
      <use xlink:href="#ArialMT-64" transform="translate(183.447266 0)"/>
      <use xlink:href="#ArialMT-6f" transform="translate(239.0625 0)"/>
      <use xlink:href="#ArialMT-6d" transform="translate(294.677734 0)"/>
      <use xlink:href="#ArialMT-20" transform="translate(377.978516 0)"/>
      <use xlink:href="#ArialMT-46" transform="translate(405.761719 0)"/>
      <use xlink:href="#ArialMT-6f" transform="translate(466.845703 0)"/>
      <use xlink:href="#ArialMT-72" transform="translate(522.460938 0)"/>
      <use xlink:href="#ArialMT-65" transform="translate(555.761719 0)"/>
      <use xlink:href="#ArialMT-73" transform="translate(611.376953 0)"/>
      <use xlink:href="#ArialMT-74" transform="translate(661.376953 0)"/>
      <use xlink:href="#ArialMT-20" transform="translate(689.160156 0)"/>
      <use xlink:href="#ArialMT-28" transform="translate(716.943359 0)"/>
      <use xlink:href="#ArialMT-41" transform="translate(750.244141 0)"/>
      <use xlink:href="#ArialMT-55" transform="translate(816.943359 0)"/>
      <use xlink:href="#ArialMT-43" transform="translate(889.160156 0)"/>
      <use xlink:href="#ArialMT-20" transform="translate(961.376953 0)"/>
      <use xlink:href="#ArialMT-3d" transform="translate(989.160156 0)"/>
      <use xlink:href="#ArialMT-20" transform="translate(1047.558594 0)"/>
      <use xlink:href="#ArialMT-30" transform="translate(1075.341797 0)"/>
      <use xlink:href="#ArialMT-2e" transform="translate(1130.957031 0)"/>
      <use xlink:href="#ArialMT-39" transform="translate(1158.740234 0)"/>
      <use xlink:href="#ArialMT-39" transform="translate(1214.355469 0)"/>
      <use xlink:href="#ArialMT-29" transform="translate(1269.970703 0)"/>
     </g>
    </g>
    <g id="line2d_7">
     <path d="M 640.844219 485.674375 
L 651.844219 485.674375 
L 662.844219 485.674375 
" style="fill: none; stroke: #55a868; stroke-width: 1.5; stroke-linecap: round"/>
    </g>
    <g id="text_18">
     <!-- XGBoost (AUC = 0.99) -->
     <g style="fill: #262626" transform="translate(671.644219 489.524375) scale(0.11 -0.11)">
      <defs>
       <path id="ArialMT-58" d="M 28 0 
L 1800 2388 
L 238 4581 
L 959 4581 
L 1791 3406 
Q 2050 3041 2159 2844 
Q 2313 3094 2522 3366 
L 3444 4581 
L 4103 4581 
L 2494 2422 
L 4228 0 
L 3478 0 
L 2325 1634 
Q 2228 1775 2125 1941 
Q 1972 1691 1906 1597 
L 756 0 
L 28 0 
z
" transform="scale(0.015625)"/>
       <path id="ArialMT-47" d="M 2638 1797 
L 2638 2334 
L 4578 2338 
L 4578 638 
Q 4131 281 3656 101 
Q 3181 -78 2681 -78 
Q 2006 -78 1454 211 
Q 903 500 622 1047 
Q 341 1594 341 2269 
Q 341 2938 620 3517 
Q 900 4097 1425 4378 
Q 1950 4659 2634 4659 
Q 3131 4659 3532 4498 
Q 3934 4338 4162 4050 
Q 4391 3763 4509 3300 
L 3963 3150 
Q 3859 3500 3706 3700 
Q 3553 3900 3268 4020 
Q 2984 4141 2638 4141 
Q 2222 4141 1919 4014 
Q 1616 3888 1430 3681 
Q 1244 3475 1141 3228 
Q 966 2803 966 2306 
Q 966 1694 1177 1281 
Q 1388 869 1791 669 
Q 2194 469 2647 469 
Q 3041 469 3416 620 
Q 3791 772 3984 944 
L 3984 1797 
L 2638 1797 
z
" transform="scale(0.015625)"/>
       <path id="ArialMT-42" d="M 469 0 
L 469 4581 
L 2188 4581 
Q 2713 4581 3030 4442 
Q 3347 4303 3526 4014 
Q 3706 3725 3706 3409 
Q 3706 3116 3547 2856 
Q 3388 2597 3066 2438 
Q 3481 2316 3704 2022 
Q 3928 1728 3928 1328 
Q 3928 1006 3792 729 
Q 3656 453 3456 303 
Q 3256 153 2954 76 
Q 2653 0 2216 0 
L 469 0 
z
M 1075 2656 
L 2066 2656 
Q 2469 2656 2644 2709 
Q 2875 2778 2992 2937 
Q 3109 3097 3109 3338 
Q 3109 3566 3000 3739 
Q 2891 3913 2687 3977 
Q 2484 4041 1991 4041 
L 1075 4041 
L 1075 2656 
z
M 1075 541 
L 2216 541 
Q 2509 541 2628 563 
Q 2838 600 2978 687 
Q 3119 775 3209 942 
Q 3300 1109 3300 1328 
Q 3300 1584 3169 1773 
Q 3038 1963 2805 2039 
Q 2572 2116 2134 2116 
L 1075 2116 
L 1075 541 
z
" transform="scale(0.015625)"/>
      </defs>
      <use xlink:href="#ArialMT-58"/>
      <use xlink:href="#ArialMT-47" transform="translate(66.699219 0)"/>
      <use xlink:href="#ArialMT-42" transform="translate(144.482422 0)"/>
      <use xlink:href="#ArialMT-6f" transform="translate(211.181641 0)"/>
      <use xlink:href="#ArialMT-6f" transform="translate(266.796875 0)"/>
      <use xlink:href="#ArialMT-73" transform="translate(322.412109 0)"/>
      <use xlink:href="#ArialMT-74" transform="translate(372.412109 0)"/>
      <use xlink:href="#ArialMT-20" transform="translate(400.195312 0)"/>
      <use xlink:href="#ArialMT-28" transform="translate(427.978516 0)"/>
      <use xlink:href="#ArialMT-41" transform="translate(461.279297 0)"/>
      <use xlink:href="#ArialMT-55" transform="translate(527.978516 0)"/>
      <use xlink:href="#ArialMT-43" transform="translate(600.195312 0)"/>
      <use xlink:href="#ArialMT-20" transform="translate(672.412109 0)"/>
      <use xlink:href="#ArialMT-3d" transform="translate(700.195312 0)"/>
      <use xlink:href="#ArialMT-20" transform="translate(758.59375 0)"/>
      <use xlink:href="#ArialMT-30" transform="translate(786.376953 0)"/>
      <use xlink:href="#ArialMT-2e" transform="translate(841.992188 0)"/>
      <use xlink:href="#ArialMT-39" transform="translate(869.775391 0)"/>
      <use xlink:href="#ArialMT-39" transform="translate(925.390625 0)"/>
      <use xlink:href="#ArialMT-29" transform="translate(981.005859 0)"/>
     </g>
    </g>
    <g id="line2d_8">
     <path d="M 640.844219 501.363125 
L 651.844219 501.363125 
L 662.844219 501.363125 
" style="fill: none; stroke-dasharray: 5.55,2.4; stroke-dashoffset: 0; stroke: #1a1a1a; stroke-width: 1.5"/>
    </g>
    <g id="text_19">
     <!-- Random Chance -->
     <g style="fill: #262626" transform="translate(671.644219 505.213125) scale(0.11 -0.11)">
      <defs>
       <path id="ArialMT-68" d="M 422 0 
L 422 4581 
L 984 4581 
L 984 2938 
Q 1378 3394 1978 3394 
Q 2347 3394 2619 3248 
Q 2891 3103 3008 2847 
Q 3125 2591 3125 2103 
L 3125 0 
L 2563 0 
L 2563 2103 
Q 2563 2525 2380 2717 
Q 2197 2909 1863 2909 
Q 1613 2909 1392 2779 
Q 1172 2650 1078 2428 
Q 984 2206 984 1816 
L 984 0 
L 422 0 
z
" transform="scale(0.015625)"/>
      </defs>
      <use xlink:href="#ArialMT-52"/>
      <use xlink:href="#ArialMT-61" transform="translate(72.216797 0)"/>
      <use xlink:href="#ArialMT-6e" transform="translate(127.832031 0)"/>
      <use xlink:href="#ArialMT-64" transform="translate(183.447266 0)"/>
      <use xlink:href="#ArialMT-6f" transform="translate(239.0625 0)"/>
      <use xlink:href="#ArialMT-6d" transform="translate(294.677734 0)"/>
      <use xlink:href="#ArialMT-20" transform="translate(377.978516 0)"/>
      <use xlink:href="#ArialMT-43" transform="translate(405.761719 0)"/>
      <use xlink:href="#ArialMT-68" transform="translate(477.978516 0)"/>
      <use xlink:href="#ArialMT-61" transform="translate(533.59375 0)"/>
      <use xlink:href="#ArialMT-6e" transform="translate(589.208984 0)"/>
      <use xlink:href="#ArialMT-63" transform="translate(644.824219 0)"/>
      <use xlink:href="#ArialMT-65" transform="translate(694.824219 0)"/>
     </g>
    </g>
   </g>
  </g>
 </g>
 <defs>
  <clipPath id="p1f73642092">
   <rect x="52.451563" y="27.759375" width="792.63" height="489.54"/>
  </clipPath>
 </defs>
</svg>
