<?xml version="1.0" encoding="utf-8" standalone="no"?>
<!DOCTYPE svg PUBLIC "-//W3C//DTD SVG 1.1//EN"
  "http://www.w3.org/Graphics/SVG/1.1/DTD/svg11.dtd">
<svg xmlns:xlink="http://www.w3.org/1999/xlink" width="708.645781pt" height="348.757969pt" viewBox="0 0 708.645781 348.757969" xmlns="http://www.w3.org/2000/svg" version="1.1">
 <metadata>
  <rdf:RDF xmlns:dc="http://purl.org/dc/elements/1.1/" xmlns:cc="http://creativecommons.org/ns#" xmlns:rdf="http://www.w3.org/1999/02/22-rdf-syntax-ns#">
   <cc:Work>
    <dc:type rdf:resource="http://purl.org/dc/dcmitype/StillImage"/>
    <dc:date>2025-05-17T18:11:26.814284</dc:date>
    <dc:format>image/svg+xml</dc:format>
    <dc:creator>
     <cc:Agent>
      <dc:title>Matplotlib v3.10.1, https://matplotlib.org/</dc:title>
     </cc:Agent>
    </dc:creator>
   </cc:Work>
  </rdf:RDF>
 </metadata>
 <defs>
  <style type="text/css">*{stroke-linejoin: round; stroke-linecap: butt}</style>
 </defs>
 <g id="figure_1">
  <g id="patch_1">
   <path d="M 0 348.757969 
L 708.645781 348.757969 
L 708.645781 0 
L 0 0 
z
" style="fill: #ffffff"/>
  </g>
  <g id="axes_1">
   <g id="patch_2">
    <path d="M 37.932031 306.883125 
L 701.445781 306.883125 
L 701.445781 21.935625 
L 37.932031 21.935625 
z
" style="fill: #ffffff"/>
   </g>
   <g id="matplotlib.axis_1">
    <g id="xtick_1">
     <g id="text_1">
      <!-- −1.0 -->
      <g style="fill: #262626" transform="translate(87.066965 324.256719) scale(0.11 -0.11)">
       <defs>
        <path id="ArialMT-2212" d="M 3381 1997 
L 356 1997 
L 356 2522 
L 3381 2522 
L 3381 1997 
z
" transform="scale(0.015625)"/>
        <path id="ArialMT-31" d="M 2384 0 
L 1822 0 
L 1822 3584 
Q 1619 3391 1289 3197 
Q 959 3003 697 2906 
L 697 3450 
Q 1169 3672 1522 3987 
Q 1875 4303 2022 4600 
L 2384 4600 
L 2384 0 
z
" transform="scale(0.015625)"/>
        <path id="ArialMT-2e" d="M 581 0 
L 581 641 
L 1222 641 
L 1222 0 
L 581 0 
z
" transform="scale(0.015625)"/>
        <path id="ArialMT-30" d="M 266 2259 
Q 266 3072 433 3567 
Q 600 4063 929 4331 
Q 1259 4600 1759 4600 
Q 2128 4600 2406 4451 
Q 2684 4303 2865 4023 
Q 3047 3744 3150 3342 
Q 3253 2941 3253 2259 
Q 3253 1453 3087 958 
Q 2922 463 2592 192 
Q 2263 -78 1759 -78 
Q 1097 -78 719 397 
Q 266 969 266 2259 
z
M 844 2259 
Q 844 1131 1108 757 
Q 1372 384 1759 384 
Q 2147 384 2411 759 
Q 2675 1134 2675 2259 
Q 2675 3391 2411 3762 
Q 2147 4134 1753 4134 
Q 1366 4134 1134 3806 
Q 844 3388 844 2259 
z
" transform="scale(0.015625)"/>
       </defs>
       <use xlink:href="#ArialMT-2212"/>
       <use xlink:href="#ArialMT-31" transform="translate(58.398438 0)"/>
       <use xlink:href="#ArialMT-2e" transform="translate(114.013672 0)"/>
       <use xlink:href="#ArialMT-30" transform="translate(141.796875 0)"/>
      </g>
     </g>
    </g>
    <g id="xtick_2">
     <g id="text_2">
      <!-- −0.5 -->
      <g style="fill: #262626" transform="translate(222.949264 324.256719) scale(0.11 -0.11)">
       <defs>
        <path id="ArialMT-35" d="M 266 1200 
L 856 1250 
Q 922 819 1161 601 
Q 1400 384 1738 384 
Q 2144 384 2425 690 
Q 2706 997 2706 1503 
Q 2706 1984 2436 2262 
Q 2166 2541 1728 2541 
Q 1456 2541 1237 2417 
Q 1019 2294 894 2097 
L 366 2166 
L 809 4519 
L 3088 4519 
L 3088 3981 
L 1259 3981 
L 1013 2750 
Q 1425 3038 1878 3038 
Q 2478 3038 2890 2622 
Q 3303 2206 3303 1553 
Q 3303 931 2941 478 
Q 2500 -78 1738 -78 
Q 1113 -78 717 272 
Q 322 622 266 1200 
z
" transform="scale(0.015625)"/>
       </defs>
       <use xlink:href="#ArialMT-2212"/>
       <use xlink:href="#ArialMT-30" transform="translate(58.398438 0)"/>
       <use xlink:href="#ArialMT-2e" transform="translate(114.013672 0)"/>
       <use xlink:href="#ArialMT-35" transform="translate(141.796875 0)"/>
      </g>
     </g>
    </g>
    <g id="xtick_3">
     <g id="text_3">
      <!-- 0.0 -->
      <g style="fill: #262626" transform="translate(362.043906 324.256719) scale(0.11 -0.11)">
       <use xlink:href="#ArialMT-30"/>
       <use xlink:href="#ArialMT-2e" transform="translate(55.615234 0)"/>
       <use xlink:href="#ArialMT-30" transform="translate(83.398438 0)"/>
      </g>
     </g>
    </g>
    <g id="xtick_4">
     <g id="text_4">
      <!-- 0.5 -->
      <g style="fill: #262626" transform="translate(497.926205 324.256719) scale(0.11 -0.11)">
       <use xlink:href="#ArialMT-30"/>
       <use xlink:href="#ArialMT-2e" transform="translate(55.615234 0)"/>
       <use xlink:href="#ArialMT-35" transform="translate(83.398438 0)"/>
      </g>
     </g>
    </g>
    <g id="xtick_5">
     <g id="text_5">
      <!-- 1.0 -->
      <g style="fill: #262626" transform="translate(633.808504 324.256719) scale(0.11 -0.11)">
       <use xlink:href="#ArialMT-31"/>
       <use xlink:href="#ArialMT-2e" transform="translate(55.615234 0)"/>
       <use xlink:href="#ArialMT-30" transform="translate(83.398438 0)"/>
      </g>
     </g>
    </g>
    <g id="text_6">
     <!-- Polarity -->
     <g style="fill: #262626" transform="translate(349.682656 339.032344) scale(0.12 -0.12)">
      <defs>
       <path id="ArialMT-50" d="M 494 0 
L 494 4581 
L 2222 4581 
Q 2678 4581 2919 4538 
Q 3256 4481 3484 4323 
Q 3713 4166 3852 3881 
Q 3991 3597 3991 3256 
Q 3991 2672 3619 2267 
Q 3247 1863 2275 1863 
L 1100 1863 
L 1100 0 
L 494 0 
z
M 1100 2403 
L 2284 2403 
Q 2872 2403 3119 2622 
Q 3366 2841 3366 3238 
Q 3366 3525 3220 3729 
Q 3075 3934 2838 4000 
Q 2684 4041 2272 4041 
L 1100 4041 
L 1100 2403 
z
" transform="scale(0.015625)"/>
       <path id="ArialMT-6f" d="M 213 1659 
Q 213 2581 725 3025 
Q 1153 3394 1769 3394 
Q 2453 3394 2887 2945 
Q 3322 2497 3322 1706 
Q 3322 1066 3130 698 
Q 2938 331 2570 128 
Q 2203 -75 1769 -75 
Q 1072 -75 642 372 
Q 213 819 213 1659 
z
M 791 1659 
Q 791 1022 1069 705 
Q 1347 388 1769 388 
Q 2188 388 2466 706 
Q 2744 1025 2744 1678 
Q 2744 2294 2464 2611 
Q 2184 2928 1769 2928 
Q 1347 2928 1069 2612 
Q 791 2297 791 1659 
z
" transform="scale(0.015625)"/>
       <path id="ArialMT-6c" d="M 409 0 
L 409 4581 
L 972 4581 
L 972 0 
L 409 0 
z
" transform="scale(0.015625)"/>
       <path id="ArialMT-61" d="M 2588 409 
Q 2275 144 1986 34 
Q 1697 -75 1366 -75 
Q 819 -75 525 192 
Q 231 459 231 875 
Q 231 1119 342 1320 
Q 453 1522 633 1644 
Q 813 1766 1038 1828 
Q 1203 1872 1538 1913 
Q 2219 1994 2541 2106 
Q 2544 2222 2544 2253 
Q 2544 2597 2384 2738 
Q 2169 2928 1744 2928 
Q 1347 2928 1158 2789 
Q 969 2650 878 2297 
L 328 2372 
Q 403 2725 575 2942 
Q 747 3159 1072 3276 
Q 1397 3394 1825 3394 
Q 2250 3394 2515 3294 
Q 2781 3194 2906 3042 
Q 3031 2891 3081 2659 
Q 3109 2516 3109 2141 
L 3109 1391 
Q 3109 606 3145 398 
Q 3181 191 3288 0 
L 2700 0 
Q 2613 175 2588 409 
z
M 2541 1666 
Q 2234 1541 1622 1453 
Q 1275 1403 1131 1340 
Q 988 1278 909 1158 
Q 831 1038 831 891 
Q 831 666 1001 516 
Q 1172 366 1500 366 
Q 1825 366 2078 508 
Q 2331 650 2450 897 
Q 2541 1088 2541 1459 
L 2541 1666 
z
" transform="scale(0.015625)"/>
       <path id="ArialMT-72" d="M 416 0 
L 416 3319 
L 922 3319 
L 922 2816 
Q 1116 3169 1280 3281 
Q 1444 3394 1641 3394 
Q 1925 3394 2219 3213 
L 2025 2691 
Q 1819 2813 1613 2813 
Q 1428 2813 1281 2702 
Q 1134 2591 1072 2394 
Q 978 2094 978 1738 
L 978 0 
L 416 0 
z
" transform="scale(0.015625)"/>
       <path id="ArialMT-69" d="M 425 3934 
L 425 4581 
L 988 4581 
L 988 3934 
L 425 3934 
z
M 425 0 
L 425 3319 
L 988 3319 
L 988 0 
L 425 0 
z
" transform="scale(0.015625)"/>
       <path id="ArialMT-74" d="M 1650 503 
L 1731 6 
Q 1494 -44 1306 -44 
Q 1000 -44 831 53 
Q 663 150 594 308 
Q 525 466 525 972 
L 525 2881 
L 113 2881 
L 113 3319 
L 525 3319 
L 525 4141 
L 1084 4478 
L 1084 3319 
L 1650 3319 
L 1650 2881 
L 1084 2881 
L 1084 941 
Q 1084 700 1114 631 
Q 1144 563 1211 522 
Q 1278 481 1403 481 
Q 1497 481 1650 503 
z
" transform="scale(0.015625)"/>
       <path id="ArialMT-79" d="M 397 -1278 
L 334 -750 
Q 519 -800 656 -800 
Q 844 -800 956 -737 
Q 1069 -675 1141 -563 
Q 1194 -478 1313 -144 
Q 1328 -97 1363 -6 
L 103 3319 
L 709 3319 
L 1400 1397 
Q 1534 1031 1641 628 
Q 1738 1016 1872 1384 
L 2581 3319 
L 3144 3319 
L 1881 -56 
Q 1678 -603 1566 -809 
Q 1416 -1088 1222 -1217 
Q 1028 -1347 759 -1347 
Q 597 -1347 397 -1278 
z
" transform="scale(0.015625)"/>
      </defs>
      <use xlink:href="#ArialMT-50"/>
      <use xlink:href="#ArialMT-6f" transform="translate(66.699219 0)"/>
      <use xlink:href="#ArialMT-6c" transform="translate(122.314453 0)"/>
      <use xlink:href="#ArialMT-61" transform="translate(144.53125 0)"/>
      <use xlink:href="#ArialMT-72" transform="translate(200.146484 0)"/>
      <use xlink:href="#ArialMT-69" transform="translate(233.447266 0)"/>
      <use xlink:href="#ArialMT-74" transform="translate(255.664062 0)"/>
      <use xlink:href="#ArialMT-79" transform="translate(283.447266 0)"/>
     </g>
    </g>
   </g>
   <g id="matplotlib.axis_2">
    <g id="ytick_1">
     <g id="text_7">
      <!-- 0 -->
      <g style="fill: #262626" transform="translate(22.315 310.819922) scale(0.11 -0.11)">
       <use xlink:href="#ArialMT-30"/>
      </g>
     </g>
    </g>
    <g id="ytick_2">
     <g id="text_8">
      <!-- 2 -->
      <g style="fill: #262626" transform="translate(22.315 250.065952) scale(0.11 -0.11)">
       <defs>
        <path id="ArialMT-32" d="M 3222 541 
L 3222 0 
L 194 0 
Q 188 203 259 391 
Q 375 700 629 1000 
Q 884 1300 1366 1694 
Q 2113 2306 2375 2664 
Q 2638 3022 2638 3341 
Q 2638 3675 2398 3904 
Q 2159 4134 1775 4134 
Q 1369 4134 1125 3890 
Q 881 3647 878 3216 
L 300 3275 
Q 359 3922 746 4261 
Q 1134 4600 1788 4600 
Q 2447 4600 2831 4234 
Q 3216 3869 3216 3328 
Q 3216 3053 3103 2787 
Q 2991 2522 2730 2228 
Q 2469 1934 1863 1422 
Q 1356 997 1212 845 
Q 1069 694 975 541 
L 3222 541 
z
" transform="scale(0.015625)"/>
       </defs>
       <use xlink:href="#ArialMT-32"/>
      </g>
     </g>
    </g>
    <g id="ytick_3">
     <g id="text_9">
      <!-- 4 -->
      <g style="fill: #262626" transform="translate(22.315 189.311983) scale(0.11 -0.11)">
       <defs>
        <path id="ArialMT-34" d="M 2069 0 
L 2069 1097 
L 81 1097 
L 81 1613 
L 2172 4581 
L 2631 4581 
L 2631 1613 
L 3250 1613 
L 3250 1097 
L 2631 1097 
L 2631 0 
L 2069 0 
z
M 2069 1613 
L 2069 3678 
L 634 1613 
L 2069 1613 
z
" transform="scale(0.015625)"/>
       </defs>
       <use xlink:href="#ArialMT-34"/>
      </g>
     </g>
    </g>
    <g id="ytick_4">
     <g id="text_10">
      <!-- 6 -->
      <g style="fill: #262626" transform="translate(22.315 128.558014) scale(0.11 -0.11)">
       <defs>
        <path id="ArialMT-36" d="M 3184 3459 
L 2625 3416 
Q 2550 3747 2413 3897 
Q 2184 4138 1850 4138 
Q 1581 4138 1378 3988 
Q 1113 3794 959 3422 
Q 806 3050 800 2363 
Q 1003 2672 1297 2822 
Q 1591 2972 1913 2972 
Q 2475 2972 2870 2558 
Q 3266 2144 3266 1488 
Q 3266 1056 3080 686 
Q 2894 316 2569 119 
Q 2244 -78 1831 -78 
Q 1128 -78 684 439 
Q 241 956 241 2144 
Q 241 3472 731 4075 
Q 1159 4600 1884 4600 
Q 2425 4600 2770 4297 
Q 3116 3994 3184 3459 
z
M 888 1484 
Q 888 1194 1011 928 
Q 1134 663 1356 523 
Q 1578 384 1822 384 
Q 2178 384 2434 671 
Q 2691 959 2691 1453 
Q 2691 1928 2437 2201 
Q 2184 2475 1800 2475 
Q 1419 2475 1153 2201 
Q 888 1928 888 1484 
z
" transform="scale(0.015625)"/>
       </defs>
       <use xlink:href="#ArialMT-36"/>
      </g>
     </g>
    </g>
    <g id="ytick_5">
     <g id="text_11">
      <!-- 8 -->
      <g style="fill: #262626" transform="translate(22.315 67.804044) scale(0.11 -0.11)">
       <defs>
        <path id="ArialMT-38" d="M 1131 2484 
Q 781 2613 612 2850 
Q 444 3088 444 3419 
Q 444 3919 803 4259 
Q 1163 4600 1759 4600 
Q 2359 4600 2725 4251 
Q 3091 3903 3091 3403 
Q 3091 3084 2923 2848 
Q 2756 2613 2416 2484 
Q 2838 2347 3058 2040 
Q 3278 1734 3278 1309 
Q 3278 722 2862 322 
Q 2447 -78 1769 -78 
Q 1091 -78 675 323 
Q 259 725 259 1325 
Q 259 1772 486 2073 
Q 713 2375 1131 2484 
z
M 1019 3438 
Q 1019 3113 1228 2906 
Q 1438 2700 1772 2700 
Q 2097 2700 2305 2904 
Q 2513 3109 2513 3406 
Q 2513 3716 2298 3927 
Q 2084 4138 1766 4138 
Q 1444 4138 1231 3931 
Q 1019 3725 1019 3438 
z
M 838 1322 
Q 838 1081 952 856 
Q 1066 631 1291 507 
Q 1516 384 1775 384 
Q 2178 384 2440 643 
Q 2703 903 2703 1303 
Q 2703 1709 2433 1975 
Q 2163 2241 1756 2241 
Q 1359 2241 1098 1978 
Q 838 1716 838 1322 
z
" transform="scale(0.015625)"/>
       </defs>
       <use xlink:href="#ArialMT-38"/>
      </g>
     </g>
    </g>
    <g id="text_12">
     <!-- Density -->
     <g style="fill: #262626" transform="translate(15.789375 184.415625) rotate(-90) scale(0.12 -0.12)">
      <defs>
       <path id="ArialMT-44" d="M 494 0 
L 494 4581 
L 2072 4581 
Q 2606 4581 2888 4516 
Q 3281 4425 3559 4188 
Q 3922 3881 4101 3404 
Q 4281 2928 4281 2316 
Q 4281 1794 4159 1391 
Q 4038 988 3847 723 
Q 3656 459 3429 307 
Q 3203 156 2883 78 
Q 2563 0 2147 0 
L 494 0 
z
M 1100 541 
L 2078 541 
Q 2531 541 2789 625 
Q 3047 709 3200 863 
Q 3416 1078 3536 1442 
Q 3656 1806 3656 2325 
Q 3656 3044 3420 3430 
Q 3184 3816 2847 3947 
Q 2603 4041 2063 4041 
L 1100 4041 
L 1100 541 
z
" transform="scale(0.015625)"/>
       <path id="ArialMT-65" d="M 2694 1069 
L 3275 997 
Q 3138 488 2766 206 
Q 2394 -75 1816 -75 
Q 1088 -75 661 373 
Q 234 822 234 1631 
Q 234 2469 665 2931 
Q 1097 3394 1784 3394 
Q 2450 3394 2872 2941 
Q 3294 2488 3294 1666 
Q 3294 1616 3291 1516 
L 816 1516 
Q 847 969 1125 678 
Q 1403 388 1819 388 
Q 2128 388 2347 550 
Q 2566 713 2694 1069 
z
M 847 1978 
L 2700 1978 
Q 2663 2397 2488 2606 
Q 2219 2931 1791 2931 
Q 1403 2931 1139 2672 
Q 875 2413 847 1978 
z
" transform="scale(0.015625)"/>
       <path id="ArialMT-6e" d="M 422 0 
L 422 3319 
L 928 3319 
L 928 2847 
Q 1294 3394 1984 3394 
Q 2284 3394 2536 3286 
Q 2788 3178 2913 3003 
Q 3038 2828 3088 2588 
Q 3119 2431 3119 2041 
L 3119 0 
L 2556 0 
L 2556 2019 
Q 2556 2363 2490 2533 
Q 2425 2703 2258 2804 
Q 2091 2906 1866 2906 
Q 1506 2906 1245 2678 
Q 984 2450 984 1813 
L 984 0 
L 422 0 
z
" transform="scale(0.015625)"/>
       <path id="ArialMT-73" d="M 197 991 
L 753 1078 
Q 800 744 1014 566 
Q 1228 388 1613 388 
Q 2000 388 2187 545 
Q 2375 703 2375 916 
Q 2375 1106 2209 1216 
Q 2094 1291 1634 1406 
Q 1016 1563 777 1677 
Q 538 1791 414 1992 
Q 291 2194 291 2438 
Q 291 2659 392 2848 
Q 494 3038 669 3163 
Q 800 3259 1026 3326 
Q 1253 3394 1513 3394 
Q 1903 3394 2198 3281 
Q 2494 3169 2634 2976 
Q 2775 2784 2828 2463 
L 2278 2388 
Q 2241 2644 2061 2787 
Q 1881 2931 1553 2931 
Q 1166 2931 1000 2803 
Q 834 2675 834 2503 
Q 834 2394 903 2306 
Q 972 2216 1119 2156 
Q 1203 2125 1616 2013 
Q 2213 1853 2448 1751 
Q 2684 1650 2818 1456 
Q 2953 1263 2953 975 
Q 2953 694 2789 445 
Q 2625 197 2315 61 
Q 2006 -75 1616 -75 
Q 969 -75 630 194 
Q 291 463 197 991 
z
" transform="scale(0.015625)"/>
      </defs>
      <use xlink:href="#ArialMT-44"/>
      <use xlink:href="#ArialMT-65" transform="translate(72.216797 0)"/>
      <use xlink:href="#ArialMT-6e" transform="translate(127.832031 0)"/>
      <use xlink:href="#ArialMT-73" transform="translate(183.447266 0)"/>
      <use xlink:href="#ArialMT-69" transform="translate(233.447266 0)"/>
      <use xlink:href="#ArialMT-74" transform="translate(255.664062 0)"/>
      <use xlink:href="#ArialMT-79" transform="translate(283.447266 0)"/>
     </g>
    </g>
   </g>
   <g id="FillBetweenPolyCollection_1">
    <defs>
     <path id="m9c8aad6e77" d="M 78.850627 -41.883719 
L 78.850627 -41.874844 
L 81.773625 -41.874844 
L 84.696623 -41.874844 
L 87.619621 -41.874844 
L 90.542618 -41.874844 
L 93.465616 -41.874844 
L 96.388614 -41.874844 
L 99.311612 -41.874844 
L 102.23461 -41.874844 
L 105.157607 -41.874844 
L 108.080605 -41.874844 
L 111.003603 -41.874844 
L 113.926601 -41.874844 
L 116.849598 -41.874844 
L 119.772596 -41.874844 
L 122.695594 -41.874844 
L 125.618592 -41.874844 
L 128.54159 -41.874844 
L 131.464587 -41.874844 
L 134.387585 -41.874844 
L 137.310583 -41.874844 
L 140.233581 -41.874844 
L 143.156578 -41.874844 
L 146.079576 -41.874844 
L 149.002574 -41.874844 
L 151.925572 -41.874844 
L 154.84857 -41.874844 
L 157.771567 -41.874844 
L 160.694565 -41.874844 
L 163.617563 -41.874844 
L 166.540561 -41.874844 
L 169.463558 -41.874844 
L 172.386556 -41.874844 
L 175.309554 -41.874844 
L 178.232552 -41.874844 
L 181.15555 -41.874844 
L 184.078547 -41.874844 
L 187.001545 -41.874844 
L 189.924543 -41.874844 
L 192.847541 -41.874844 
L 195.770538 -41.874844 
L 198.693536 -41.874844 
L 201.616534 -41.874844 
L 204.539532 -41.874844 
L 207.46253 -41.874844 
L 210.385527 -41.874844 
L 213.308525 -41.874844 
L 216.231523 -41.874844 
L 219.154521 -41.874844 
L 222.077518 -41.874844 
L 225.000516 -41.874844 
L 227.923514 -41.874844 
L 230.846512 -41.874844 
L 233.76951 -41.874844 
L 236.692507 -41.874844 
L 239.615505 -41.874844 
L 242.538503 -41.874844 
L 245.461501 -41.874844 
L 248.384498 -41.874844 
L 251.307496 -41.874844 
L 254.230494 -41.874844 
L 257.153492 -41.874844 
L 260.07649 -41.874844 
L 262.999487 -41.874844 
L 265.922485 -41.874844 
L 268.845483 -41.874844 
L 271.768481 -41.874844 
L 274.691478 -41.874844 
L 277.614476 -41.874844 
L 280.537474 -41.874844 
L 283.460472 -41.874844 
L 286.38347 -41.874844 
L 289.306467 -41.874844 
L 292.229465 -41.874844 
L 295.152463 -41.874844 
L 298.075461 -41.874844 
L 300.998458 -41.874844 
L 303.921456 -41.874844 
L 306.844454 -41.874844 
L 309.767452 -41.874844 
L 312.69045 -41.874844 
L 315.613447 -41.874844 
L 318.536445 -41.874844 
L 321.459443 -41.874844 
L 324.382441 -41.874844 
L 327.305438 -41.874844 
L 330.228436 -41.874844 
L 333.151434 -41.874844 
L 336.074432 -41.874844 
L 338.99743 -41.874844 
L 341.920427 -41.874844 
L 344.843425 -41.874844 
L 347.766423 -41.874844 
L 350.689421 -41.874844 
L 353.612418 -41.874844 
L 356.535416 -41.874844 
L 359.458414 -41.874844 
L 362.381412 -41.874844 
L 365.30441 -41.874844 
L 368.227407 -41.874844 
L 371.150405 -41.874844 
L 374.073403 -41.874844 
L 376.996401 -41.874844 
L 379.919398 -41.874844 
L 382.842396 -41.874844 
L 385.765394 -41.874844 
L 388.688392 -41.874844 
L 391.61139 -41.874844 
L 394.534387 -41.874844 
L 397.457385 -41.874844 
L 400.380383 -41.874844 
L 403.303381 -41.874844 
L 406.226378 -41.874844 
L 409.149376 -41.874844 
L 412.072374 -41.874844 
L 414.995372 -41.874844 
L 417.91837 -41.874844 
L 420.841367 -41.874844 
L 423.764365 -41.874844 
L 426.687363 -41.874844 
L 429.610361 -41.874844 
L 432.533358 -41.874844 
L 435.456356 -41.874844 
L 438.379354 -41.874844 
L 441.302352 -41.874844 
L 444.22535 -41.874844 
L 447.148347 -41.874844 
L 450.071345 -41.874844 
L 452.994343 -41.874844 
L 455.917341 -41.874844 
L 458.840338 -41.874844 
L 461.763336 -41.874844 
L 464.686334 -41.874844 
L 467.609332 -41.874844 
L 470.53233 -41.874844 
L 473.455327 -41.874844 
L 476.378325 -41.874844 
L 479.301323 -41.874844 
L 482.224321 -41.874844 
L 485.147318 -41.874844 
L 488.070316 -41.874844 
L 490.993314 -41.874844 
L 493.916312 -41.874844 
L 496.83931 -41.874844 
L 499.762307 -41.874844 
L 502.685305 -41.874844 
L 505.608303 -41.874844 
L 508.531301 -41.874844 
L 511.454298 -41.874844 
L 514.377296 -41.874844 
L 517.300294 -41.874844 
L 520.223292 -41.874844 
L 523.14629 -41.874844 
L 526.069287 -41.874844 
L 528.992285 -41.874844 
L 531.915283 -41.874844 
L 534.838281 -41.874844 
L 537.761278 -41.874844 
L 540.684276 -41.874844 
L 543.607274 -41.874844 
L 546.530272 -41.874844 
L 549.45327 -41.874844 
L 552.376267 -41.874844 
L 555.299265 -41.874844 
L 558.222263 -41.874844 
L 561.145261 -41.874844 
L 564.068258 -41.874844 
L 566.991256 -41.874844 
L 569.914254 -41.874844 
L 572.837252 -41.874844 
L 575.76025 -41.874844 
L 578.683247 -41.874844 
L 581.606245 -41.874844 
L 584.529243 -41.874844 
L 587.452241 -41.874844 
L 590.375238 -41.874844 
L 593.298236 -41.874844 
L 596.221234 -41.874844 
L 599.144232 -41.874844 
L 602.06723 -41.874844 
L 604.990227 -41.874844 
L 607.913225 -41.874844 
L 610.836223 -41.874844 
L 613.759221 -41.874844 
L 616.682218 -41.874844 
L 619.605216 -41.874844 
L 622.528214 -41.874844 
L 625.451212 -41.874844 
L 628.37421 -41.874844 
L 631.297207 -41.874844 
L 634.220205 -41.874844 
L 637.143203 -41.874844 
L 640.066201 -41.874844 
L 642.989198 -41.874844 
L 645.912196 -41.874844 
L 648.835194 -41.874844 
L 651.758192 -41.874844 
L 654.68119 -41.874844 
L 657.604187 -41.874844 
L 660.527185 -41.874844 
L 660.527185 -41.880265 
L 660.527185 -41.880265 
L 657.604187 -41.894217 
L 654.68119 -41.930884 
L 651.758192 -42.006067 
L 648.835194 -42.12357 
L 645.912196 -42.256474 
L 642.989198 -42.348849 
L 640.066201 -42.351504 
L 637.143203 -42.263289 
L 634.220205 -42.132864 
L 631.297207 -42.019443 
L 628.37421 -41.956155 
L 625.451212 -41.94487 
L 622.528214 -41.969551 
L 619.605216 -42.006776 
L 616.682218 -42.032218 
L 613.759221 -42.03043 
L 610.836223 -42.004138 
L 607.913225 -41.974314 
L 604.990227 -41.975328 
L 602.06723 -42.058124 
L 599.144232 -42.294559 
L 596.221234 -42.745759 
L 593.298236 -43.3761 
L 590.375238 -43.985883 
L 587.452241 -44.287824 
L 584.529243 -44.12007 
L 581.606245 -43.588367 
L 578.683247 -42.974243 
L 575.76025 -42.52027 
L 572.837252 -42.31918 
L 569.914254 -42.353657 
L 566.991256 -42.558774 
L 564.068258 -42.828748 
L 561.145261 -43.025163 
L 558.222263 -43.046714 
L 555.299265 -42.903252 
L 552.376267 -42.698419 
L 549.45327 -42.538976 
L 546.530272 -42.479672 
L 543.607274 -42.542441 
L 540.684276 -42.737502 
L 537.761278 -43.032827 
L 534.838281 -43.32787 
L 531.915283 -43.507574 
L 528.992285 -43.539117 
L 526.069287 -43.506206 
L 523.14629 -43.580288 
L 520.223292 -44.030679 
L 517.300294 -45.252294 
L 514.377296 -47.583167 
L 511.454298 -50.819743 
L 508.531301 -53.88309 
L 505.608303 -55.300535 
L 502.685305 -54.345282 
L 499.762307 -51.679348 
L 496.83931 -48.766456 
L 493.916312 -46.756202 
L 490.993314 -45.962244 
L 488.070316 -46.105314 
L 485.147318 -46.731156 
L 482.224321 -47.420515 
L 479.301323 -47.876304 
L 476.378325 -48.02087 
L 473.455327 -48.01424 
L 470.53233 -48.097743 
L 467.609332 -48.408165 
L 464.686334 -48.953247 
L 461.763336 -49.682777 
L 458.840338 -50.482624 
L 455.917341 -51.144343 
L 452.994343 -51.492565 
L 450.071345 -51.61462 
L 447.148347 -51.883389 
L 444.22535 -52.620687 
L 441.302352 -53.71312 
L 438.379354 -54.68975 
L 435.456356 -55.275188 
L 432.533358 -55.734841 
L 429.610361 -56.51134 
L 426.687363 -57.697476 
L 423.764365 -59.299705 
L 420.841367 -62.197049 
L 417.91837 -68.425157 
L 414.995372 -79.603884 
L 412.072374 -94.260052 
L 409.149376 -106.93567 
L 406.226378 -111.353126 
L 403.303381 -105.505841 
L 400.380383 -93.359303 
L 397.457385 -81.300889 
L 394.534387 -73.444124 
L 391.61139 -70.287983 
L 388.688392 -71.004183 
L 385.765394 -77.08525 
L 382.842396 -94.804965 
L 379.919398 -133.139162 
L 376.996401 -194.722607 
L 374.073403 -264.970746 
L 371.150405 -313.253415 
L 368.227407 -312.935244 
L 365.30441 -263.752125 
L 362.381412 -191.885187 
L 359.458414 -127.82041 
L 356.535416 -86.595831 
L 353.612418 -66.549327 
L 350.689421 -59.385243 
L 347.766423 -58.066769 
L 344.843425 -58.57935 
L 341.920427 -58.944954 
L 338.99743 -58.407863 
L 336.074432 -57.066504 
L 333.151434 -55.460276 
L 330.228436 -54.131601 
L 327.305438 -53.396263 
L 324.382441 -53.303274 
L 321.459443 -53.615423 
L 318.536445 -53.82059 
L 315.613447 -53.375783 
L 312.69045 -52.142991 
L 309.767452 -50.546766 
L 306.844454 -49.173536 
L 303.921456 -48.255874 
L 300.998458 -47.645076 
L 298.075461 -47.183836 
L 295.152463 -46.897343 
L 292.229465 -46.805038 
L 289.306467 -46.736042 
L 286.38347 -46.454478 
L 283.460472 -45.901757 
L 280.537474 -45.233852 
L 277.614476 -44.668765 
L 274.691478 -44.372122 
L 271.768481 -44.442134 
L 268.845483 -44.873913 
L 265.922485 -45.475855 
L 262.999487 -45.88926 
L 260.07649 -45.805335 
L 257.153492 -45.207656 
L 254.230494 -44.379001 
L 251.307496 -43.683205 
L 248.384498 -43.388795 
L 245.461501 -43.665416 
L 242.538503 -44.585487 
L 239.615505 -45.973431 
L 236.692507 -47.278152 
L 233.76951 -47.798306 
L 230.846512 -47.202641 
L 227.923514 -45.812183 
L 225.000516 -44.311425 
L 222.077518 -43.22832 
L 219.154521 -42.709853 
L 216.231523 -42.652107 
L 213.308525 -42.878398 
L 210.385527 -43.190413 
L 207.46253 -43.383357 
L 204.539532 -43.328484 
L 201.616534 -43.055137 
L 198.693536 -42.715014 
L 195.770538 -42.456441 
L 192.847541 -42.34181 
L 189.924543 -42.361846 
L 187.001545 -42.479599 
L 184.078547 -42.639249 
L 181.15555 -42.761303 
L 178.232552 -42.77566 
L 175.309554 -42.6762 
L 172.386556 -42.52697 
L 169.463558 -42.406218 
L 166.540561 -42.357858 
L 163.617563 -42.397732 
L 160.694565 -42.532222 
L 157.771567 -42.735332 
L 154.84857 -42.917254 
L 151.925572 -42.961134 
L 149.002574 -42.818099 
L 146.079576 -42.554221 
L 143.156578 -42.291907 
L 140.233581 -42.115925 
L 137.310583 -42.037874 
L 134.387585 -42.0249 
L 131.464587 -42.03884 
L 128.54159 -42.052864 
L 125.618592 -42.051542 
L 122.695594 -42.029663 
L 119.772596 -41.993516 
L 116.849598 -41.959931 
L 113.926601 -41.952288 
L 111.003603 -41.997028 
L 108.080605 -42.116714 
L 105.157607 -42.309458 
L 102.23461 -42.523592 
L 99.311612 -42.665013 
L 96.388614 -42.656737 
L 93.465616 -42.502415 
L 90.542618 -42.283082 
L 87.619621 -42.08997 
L 84.696623 -41.96665 
L 81.773625 -41.906567 
L 78.850627 -41.883719 
z
" style="stroke: #fc8d62"/>
    </defs>
    <g clip-path="url(#pe6ce9bf80f)">
     <use xlink:href="#m9c8aad6e77" x="0" y="348.757969" style="fill: #fc8d62; fill-opacity: 0.5; stroke: #fc8d62"/>
    </g>
   </g>
   <g id="FillBetweenPolyCollection_2">
    <defs>
     <path id="m6023428bb9" d="M 68.091747 -41.921314 
L 68.091747 -41.874844 
L 71.122874 -41.874844 
L 74.154002 -41.874844 
L 77.185129 -41.874844 
L 80.216256 -41.874844 
L 83.247383 -41.874844 
L 86.278511 -41.874844 
L 89.309638 -41.874844 
L 92.340765 -41.874844 
L 95.371892 -41.874844 
L 98.403019 -41.874844 
L 101.434147 -41.874844 
L 104.465274 -41.874844 
L 107.496401 -41.874844 
L 110.527528 -41.874844 
L 113.558656 -41.874844 
L 116.589783 -41.874844 
L 119.62091 -41.874844 
L 122.652037 -41.874844 
L 125.683164 -41.874844 
L 128.714292 -41.874844 
L 131.745419 -41.874844 
L 134.776546 -41.874844 
L 137.807673 -41.874844 
L 140.838801 -41.874844 
L 143.869928 -41.874844 
L 146.901055 -41.874844 
L 149.932182 -41.874844 
L 152.96331 -41.874844 
L 155.994437 -41.874844 
L 159.025564 -41.874844 
L 162.056691 -41.874844 
L 165.087818 -41.874844 
L 168.118946 -41.874844 
L 171.150073 -41.874844 
L 174.1812 -41.874844 
L 177.212327 -41.874844 
L 180.243455 -41.874844 
L 183.274582 -41.874844 
L 186.305709 -41.874844 
L 189.336836 -41.874844 
L 192.367963 -41.874844 
L 195.399091 -41.874844 
L 198.430218 -41.874844 
L 201.461345 -41.874844 
L 204.492472 -41.874844 
L 207.5236 -41.874844 
L 210.554727 -41.874844 
L 213.585854 -41.874844 
L 216.616981 -41.874844 
L 219.648109 -41.874844 
L 222.679236 -41.874844 
L 225.710363 -41.874844 
L 228.74149 -41.874844 
L 231.772617 -41.874844 
L 234.803745 -41.874844 
L 237.834872 -41.874844 
L 240.865999 -41.874844 
L 243.897126 -41.874844 
L 246.928254 -41.874844 
L 249.959381 -41.874844 
L 252.990508 -41.874844 
L 256.021635 -41.874844 
L 259.052762 -41.874844 
L 262.08389 -41.874844 
L 265.115017 -41.874844 
L 268.146144 -41.874844 
L 271.177271 -41.874844 
L 274.208399 -41.874844 
L 277.239526 -41.874844 
L 280.270653 -41.874844 
L 283.30178 -41.874844 
L 286.332908 -41.874844 
L 289.364035 -41.874844 
L 292.395162 -41.874844 
L 295.426289 -41.874844 
L 298.457416 -41.874844 
L 301.488544 -41.874844 
L 304.519671 -41.874844 
L 307.550798 -41.874844 
L 310.581925 -41.874844 
L 313.613053 -41.874844 
L 316.64418 -41.874844 
L 319.675307 -41.874844 
L 322.706434 -41.874844 
L 325.737561 -41.874844 
L 328.768689 -41.874844 
L 331.799816 -41.874844 
L 334.830943 -41.874844 
L 337.86207 -41.874844 
L 340.893198 -41.874844 
L 343.924325 -41.874844 
L 346.955452 -41.874844 
L 349.986579 -41.874844 
L 353.017707 -41.874844 
L 356.048834 -41.874844 
L 359.079961 -41.874844 
L 362.111088 -41.874844 
L 365.142215 -41.874844 
L 368.173343 -41.874844 
L 371.20447 -41.874844 
L 374.235597 -41.874844 
L 377.266724 -41.874844 
L 380.297852 -41.874844 
L 383.328979 -41.874844 
L 386.360106 -41.874844 
L 389.391233 -41.874844 
L 392.42236 -41.874844 
L 395.453488 -41.874844 
L 398.484615 -41.874844 
L 401.515742 -41.874844 
L 404.546869 -41.874844 
L 407.577997 -41.874844 
L 410.609124 -41.874844 
L 413.640251 -41.874844 
L 416.671378 -41.874844 
L 419.702505 -41.874844 
L 422.733633 -41.874844 
L 425.76476 -41.874844 
L 428.795887 -41.874844 
L 431.827014 -41.874844 
L 434.858142 -41.874844 
L 437.889269 -41.874844 
L 440.920396 -41.874844 
L 443.951523 -41.874844 
L 446.982651 -41.874844 
L 450.013778 -41.874844 
L 453.044905 -41.874844 
L 456.076032 -41.874844 
L 459.107159 -41.874844 
L 462.138287 -41.874844 
L 465.169414 -41.874844 
L 468.200541 -41.874844 
L 471.231668 -41.874844 
L 474.262796 -41.874844 
L 477.293923 -41.874844 
L 480.32505 -41.874844 
L 483.356177 -41.874844 
L 486.387304 -41.874844 
L 489.418432 -41.874844 
L 492.449559 -41.874844 
L 495.480686 -41.874844 
L 498.511813 -41.874844 
L 501.542941 -41.874844 
L 504.574068 -41.874844 
L 507.605195 -41.874844 
L 510.636322 -41.874844 
L 513.66745 -41.874844 
L 516.698577 -41.874844 
L 519.729704 -41.874844 
L 522.760831 -41.874844 
L 525.791958 -41.874844 
L 528.823086 -41.874844 
L 531.854213 -41.874844 
L 534.88534 -41.874844 
L 537.916467 -41.874844 
L 540.947595 -41.874844 
L 543.978722 -41.874844 
L 547.009849 -41.874844 
L 550.040976 -41.874844 
L 553.072103 -41.874844 
L 556.103231 -41.874844 
L 559.134358 -41.874844 
L 562.165485 -41.874844 
L 565.196612 -41.874844 
L 568.22774 -41.874844 
L 571.258867 -41.874844 
L 574.289994 -41.874844 
L 577.321121 -41.874844 
L 580.352249 -41.874844 
L 583.383376 -41.874844 
L 586.414503 -41.874844 
L 589.44563 -41.874844 
L 592.476757 -41.874844 
L 595.507885 -41.874844 
L 598.539012 -41.874844 
L 601.570139 -41.874844 
L 604.601266 -41.874844 
L 607.632394 -41.874844 
L 610.663521 -41.874844 
L 613.694648 -41.874844 
L 616.725775 -41.874844 
L 619.756902 -41.874844 
L 622.78803 -41.874844 
L 625.819157 -41.874844 
L 628.850284 -41.874844 
L 631.881411 -41.874844 
L 634.912539 -41.874844 
L 637.943666 -41.874844 
L 640.974793 -41.874844 
L 644.00592 -41.874844 
L 647.037048 -41.874844 
L 650.068175 -41.874844 
L 653.099302 -41.874844 
L 656.130429 -41.874844 
L 659.161556 -41.874844 
L 662.192684 -41.874844 
L 665.223811 -41.874844 
L 668.254938 -41.874844 
L 671.286065 -41.874844 
L 671.286065 -41.91576 
L 671.286065 -41.91576 
L 668.254938 -41.972314 
L 665.223811 -42.086436 
L 662.192684 -42.293435 
L 659.161556 -42.6295 
L 656.130429 -43.114767 
L 653.099302 -43.731613 
L 650.068175 -44.409398 
L 647.037048 -45.029517 
L 644.00592 -45.457338 
L 640.974793 -45.591651 
L 637.943666 -45.407863 
L 634.912539 -44.970632 
L 631.881411 -44.407682 
L 628.850284 -43.858702 
L 625.819157 -43.42593 
L 622.78803 -43.148741 
L 619.756902 -43.008779 
L 616.725775 -42.9567 
L 613.694648 -42.944353 
L 610.663521 -42.947982 
L 607.632394 -42.974811 
L 604.601266 -43.052989 
L 601.570139 -43.21087 
L 598.539012 -43.455107 
L 595.507885 -43.757588 
L 592.476757 -44.058445 
L 589.44563 -44.285697 
L 586.414503 -44.38349 
L 583.383376 -44.335133 
L 580.352249 -44.168939 
L 577.321121 -43.944295 
L 574.289994 -43.726261 
L 571.258867 -43.56203 
L 568.22774 -43.469491 
L 565.196612 -43.44066 
L 562.165485 -43.455815 
L 559.134358 -43.500475 
L 556.103231 -43.576945 
L 553.072103 -43.704635 
L 550.040976 -43.908496 
L 547.009849 -44.200945 
L 543.978722 -44.566906 
L 540.947595 -44.961586 
L 537.916467 -45.325899 
L 534.88534 -45.616431 
L 531.854213 -45.838577 
L 528.823086 -46.06658 
L 525.791958 -46.435488 
L 522.760831 -47.098478 
L 519.729704 -48.157347 
L 516.698577 -49.590888 
L 513.66745 -51.217854 
L 510.636322 -52.726922 
L 507.605195 -53.778356 
L 504.574068 -54.139766 
L 501.542941 -53.788923 
L 498.511813 -52.926302 
L 495.480686 -51.888606 
L 492.449559 -51.009908 
L 489.418432 -50.501429 
L 486.387304 -50.401724 
L 483.356177 -50.605618 
L 480.32505 -50.942324 
L 477.293923 -51.258913 
L 474.262796 -51.474022 
L 471.231668 -51.588268 
L 468.200541 -51.65967 
L 465.169414 -51.765119 
L 462.138287 -51.968686 
L 459.107159 -52.30754 
L 456.076032 -52.79405 
L 453.044905 -53.424753 
L 450.013778 -54.186302 
L 446.982651 -55.054524 
L 443.951523 -55.990818 
L 440.920396 -56.943761 
L 437.889269 -57.859044 
L 434.858142 -58.692454 
L 431.827014 -59.418286 
L 428.795887 -60.032098 
L 425.76476 -60.552897 
L 422.733633 -61.025815 
L 419.702505 -61.516181 
L 416.671378 -62.085378 
L 413.640251 -62.754666 
L 410.609124 -63.482434 
L 407.577997 -64.183424 
L 404.546869 -64.80181 
L 401.515742 -65.428429 
L 398.484615 -66.438783 
L 395.453488 -68.615408 
L 392.42236 -73.187742 
L 389.391233 -81.679679 
L 386.360106 -95.452957 
L 383.328979 -114.949281 
L 380.297852 -138.878959 
L 377.266724 -163.844013 
L 374.235597 -184.87302 
L 371.20447 -196.932984 
L 368.173343 -196.842437 
L 365.142215 -184.604976 
L 362.111088 -163.4027 
L 359.079961 -138.252181 
L 356.048834 -114.088756 
L 353.017707 -94.2642 
L 349.986579 -80.034471 
L 346.955452 -70.966162 
L 343.924325 -65.769724 
L 340.893198 -63.053059 
L 337.86207 -61.737439 
L 334.830943 -61.143099 
L 331.799816 -60.888698 
L 328.768689 -60.752526 
L 325.737561 -60.579858 
L 322.706434 -60.253364 
L 319.675307 -59.703161 
L 316.64418 -58.923182 
L 313.613053 -57.970615 
L 310.581925 -56.942788 
L 307.550798 -55.9413 
L 304.519671 -55.040184 
L 301.488544 -54.270687 
L 298.457416 -53.624104 
L 295.426289 -53.065279 
L 292.395162 -52.549098 
L 289.364035 -52.03745 
L 286.332908 -51.516211 
L 283.30178 -51.007596 
L 280.270653 -50.568695 
L 277.239526 -50.269782 
L 274.208399 -50.157085 
L 271.177271 -50.217087 
L 268.146144 -50.364192 
L 265.115017 -50.46561 
L 262.08389 -50.398365 
L 259.052762 -50.113238 
L 256.021635 -49.671633 
L 252.990508 -49.231499 
L 249.959381 -48.982842 
L 246.928254 -49.058876 
L 243.897126 -49.462766 
L 240.865999 -50.046413 
L 237.834872 -50.557467 
L 234.803745 -50.739549 
L 231.772617 -50.441525 
L 228.74149 -49.682383 
L 225.710363 -48.639083 
L 222.679236 -47.565709 
L 219.648109 -46.687524 
L 216.616981 -46.12124 
L 213.585854 -45.852248 
L 210.554727 -45.767966 
L 207.5236 -45.722771 
L 204.492472 -45.602411 
L 201.461345 -45.3626 
L 198.430218 -45.031431 
L 195.399091 -44.681535 
L 192.367963 -44.389137 
L 189.336836 -44.199488 
L 186.305709 -44.112112 
L 183.274582 -44.089012 
L 180.243455 -44.079025 
L 177.212327 -44.045461 
L 174.1812 -43.983801 
L 171.150073 -43.9216 
L 168.118946 -43.901377 
L 165.087818 -43.955116 
L 162.056691 -44.082813 
L 159.025564 -44.245962 
L 155.994437 -44.380467 
L 152.96331 -44.424127 
L 149.932182 -44.345336 
L 146.901055 -44.15754 
L 143.869928 -43.911178 
L 140.838801 -43.667898 
L 137.807673 -43.472157 
L 134.776546 -43.335789 
L 131.745419 -43.24222 
L 128.714292 -43.165589 
L 125.683164 -43.093408 
L 122.652037 -43.041774 
L 119.62091 -43.056757 
L 116.589783 -43.200566 
L 113.558656 -43.525244 
L 110.527528 -44.041115 
L 107.496401 -44.692499 
L 104.465274 -45.355838 
L 101.434147 -45.869452 
L 98.403019 -46.088491 
L 95.371892 -45.941244 
L 92.340765 -45.457569 
L 89.309638 -44.753916 
L 86.278511 -43.984125 
L 83.247383 -43.283377 
L 80.216256 -42.732088 
L 77.185129 -42.350315 
L 74.154002 -42.115177 
L 71.122874 -41.985548 
L 68.091747 -41.921314 
z
" style="stroke: #66c2a5"/>
    </defs>
    <g clip-path="url(#pe6ce9bf80f)">
     <use xlink:href="#m6023428bb9" x="0" y="348.757969" style="fill: #66c2a5; fill-opacity: 0.5; stroke: #66c2a5"/>
    </g>
   </g>
   <g id="patch_3">
    <path d="M 37.932031 306.883125 
L 37.932031 21.935625 
" style="fill: none; stroke: #cccccc; stroke-width: 1.25; stroke-linejoin: miter; stroke-linecap: square"/>
   </g>
   <g id="patch_4">
    <path d="M 701.445781 306.883125 
L 701.445781 21.935625 
" style="fill: none; stroke: #cccccc; stroke-width: 1.25; stroke-linejoin: miter; stroke-linecap: square"/>
   </g>
   <g id="patch_5">
    <path d="M 37.932031 306.883125 
L 701.445781 306.883125 
" style="fill: none; stroke: #cccccc; stroke-width: 1.25; stroke-linejoin: miter; stroke-linecap: square"/>
   </g>
   <g id="patch_6">
    <path d="M 37.932031 21.935625 
L 701.445781 21.935625 
" style="fill: none; stroke: #cccccc; stroke-width: 1.25; stroke-linejoin: miter; stroke-linecap: square"/>
   </g>
   <g id="text_13">
    <!-- Sentiment Polarity Distribution (Title) -->
    <g style="fill: #262626" transform="translate(272.553594 15.935625) scale(0.12 -0.12)">
     <defs>
      <path id="ArialMT-53" d="M 288 1472 
L 859 1522 
Q 900 1178 1048 958 
Q 1197 738 1509 602 
Q 1822 466 2213 466 
Q 2559 466 2825 569 
Q 3091 672 3220 851 
Q 3350 1031 3350 1244 
Q 3350 1459 3225 1620 
Q 3100 1781 2813 1891 
Q 2628 1963 1997 2114 
Q 1366 2266 1113 2400 
Q 784 2572 623 2826 
Q 463 3081 463 3397 
Q 463 3744 659 4045 
Q 856 4347 1234 4503 
Q 1613 4659 2075 4659 
Q 2584 4659 2973 4495 
Q 3363 4331 3572 4012 
Q 3781 3694 3797 3291 
L 3216 3247 
Q 3169 3681 2898 3903 
Q 2628 4125 2100 4125 
Q 1550 4125 1298 3923 
Q 1047 3722 1047 3438 
Q 1047 3191 1225 3031 
Q 1400 2872 2139 2705 
Q 2878 2538 3153 2413 
Q 3553 2228 3743 1945 
Q 3934 1663 3934 1294 
Q 3934 928 3725 604 
Q 3516 281 3123 101 
Q 2731 -78 2241 -78 
Q 1619 -78 1198 103 
Q 778 284 539 648 
Q 300 1013 288 1472 
z
" transform="scale(0.015625)"/>
      <path id="ArialMT-6d" d="M 422 0 
L 422 3319 
L 925 3319 
L 925 2853 
Q 1081 3097 1340 3245 
Q 1600 3394 1931 3394 
Q 2300 3394 2536 3241 
Q 2772 3088 2869 2813 
Q 3263 3394 3894 3394 
Q 4388 3394 4653 3120 
Q 4919 2847 4919 2278 
L 4919 0 
L 4359 0 
L 4359 2091 
Q 4359 2428 4304 2576 
Q 4250 2725 4106 2815 
Q 3963 2906 3769 2906 
Q 3419 2906 3187 2673 
Q 2956 2441 2956 1928 
L 2956 0 
L 2394 0 
L 2394 2156 
Q 2394 2531 2256 2718 
Q 2119 2906 1806 2906 
Q 1569 2906 1367 2781 
Q 1166 2656 1075 2415 
Q 984 2175 984 1722 
L 984 0 
L 422 0 
z
" transform="scale(0.015625)"/>
      <path id="ArialMT-20" transform="scale(0.015625)"/>
      <path id="ArialMT-62" d="M 941 0 
L 419 0 
L 419 4581 
L 981 4581 
L 981 2947 
Q 1338 3394 1891 3394 
Q 2197 3394 2470 3270 
Q 2744 3147 2920 2923 
Q 3097 2700 3197 2384 
Q 3297 2069 3297 1709 
Q 3297 856 2875 390 
Q 2453 -75 1863 -75 
Q 1275 -75 941 416 
L 941 0 
z
M 934 1684 
Q 934 1088 1097 822 
Q 1363 388 1816 388 
Q 2184 388 2453 708 
Q 2722 1028 2722 1663 
Q 2722 2313 2464 2622 
Q 2206 2931 1841 2931 
Q 1472 2931 1203 2611 
Q 934 2291 934 1684 
z
" transform="scale(0.015625)"/>
      <path id="ArialMT-75" d="M 2597 0 
L 2597 488 
Q 2209 -75 1544 -75 
Q 1250 -75 995 37 
Q 741 150 617 320 
Q 494 491 444 738 
Q 409 903 409 1263 
L 409 3319 
L 972 3319 
L 972 1478 
Q 972 1038 1006 884 
Q 1059 663 1231 536 
Q 1403 409 1656 409 
Q 1909 409 2131 539 
Q 2353 669 2445 892 
Q 2538 1116 2538 1541 
L 2538 3319 
L 3100 3319 
L 3100 0 
L 2597 0 
z
" transform="scale(0.015625)"/>
      <path id="ArialMT-28" d="M 1497 -1347 
Q 1031 -759 709 28 
Q 388 816 388 1659 
Q 388 2403 628 3084 
Q 909 3875 1497 4659 
L 1900 4659 
Q 1522 4009 1400 3731 
Q 1209 3300 1100 2831 
Q 966 2247 966 1656 
Q 966 153 1900 -1347 
L 1497 -1347 
z
" transform="scale(0.015625)"/>
      <path id="ArialMT-54" d="M 1659 0 
L 1659 4041 
L 150 4041 
L 150 4581 
L 3781 4581 
L 3781 4041 
L 2266 4041 
L 2266 0 
L 1659 0 
z
" transform="scale(0.015625)"/>
      <path id="ArialMT-29" d="M 791 -1347 
L 388 -1347 
Q 1322 153 1322 1656 
Q 1322 2244 1188 2822 
Q 1081 3291 891 3722 
Q 769 4003 388 4659 
L 791 4659 
Q 1378 3875 1659 3084 
Q 1900 2403 1900 1659 
Q 1900 816 1576 28 
Q 1253 -759 791 -1347 
z
" transform="scale(0.015625)"/>
     </defs>
     <use xlink:href="#ArialMT-53"/>
     <use xlink:href="#ArialMT-65" transform="translate(66.699219 0)"/>
     <use xlink:href="#ArialMT-6e" transform="translate(122.314453 0)"/>
     <use xlink:href="#ArialMT-74" transform="translate(177.929688 0)"/>
     <use xlink:href="#ArialMT-69" transform="translate(205.712891 0)"/>
     <use xlink:href="#ArialMT-6d" transform="translate(227.929688 0)"/>
     <use xlink:href="#ArialMT-65" transform="translate(311.230469 0)"/>
     <use xlink:href="#ArialMT-6e" transform="translate(366.845703 0)"/>
     <use xlink:href="#ArialMT-74" transform="translate(422.460938 0)"/>
     <use xlink:href="#ArialMT-20" transform="translate(450.244141 0)"/>
     <use xlink:href="#ArialMT-50" transform="translate(478.027344 0)"/>
     <use xlink:href="#ArialMT-6f" transform="translate(544.726562 0)"/>
     <use xlink:href="#ArialMT-6c" transform="translate(600.341797 0)"/>
     <use xlink:href="#ArialMT-61" transform="translate(622.558594 0)"/>
     <use xlink:href="#ArialMT-72" transform="translate(678.173828 0)"/>
     <use xlink:href="#ArialMT-69" transform="translate(711.474609 0)"/>
     <use xlink:href="#ArialMT-74" transform="translate(733.691406 0)"/>
     <use xlink:href="#ArialMT-79" transform="translate(761.474609 0)"/>
     <use xlink:href="#ArialMT-20" transform="translate(811.474609 0)"/>
     <use xlink:href="#ArialMT-44" transform="translate(839.257812 0)"/>
     <use xlink:href="#ArialMT-69" transform="translate(911.474609 0)"/>
     <use xlink:href="#ArialMT-73" transform="translate(933.691406 0)"/>
     <use xlink:href="#ArialMT-74" transform="translate(983.691406 0)"/>
     <use xlink:href="#ArialMT-72" transform="translate(1011.474609 0)"/>
     <use xlink:href="#ArialMT-69" transform="translate(1044.775391 0)"/>
     <use xlink:href="#ArialMT-62" transform="translate(1066.992188 0)"/>
     <use xlink:href="#ArialMT-75" transform="translate(1122.607422 0)"/>
     <use xlink:href="#ArialMT-74" transform="translate(1178.222656 0)"/>
     <use xlink:href="#ArialMT-69" transform="translate(1206.005859 0)"/>
     <use xlink:href="#ArialMT-6f" transform="translate(1228.222656 0)"/>
     <use xlink:href="#ArialMT-6e" transform="translate(1283.837891 0)"/>
     <use xlink:href="#ArialMT-20" transform="translate(1339.453125 0)"/>
     <use xlink:href="#ArialMT-28" transform="translate(1367.236328 0)"/>
     <use xlink:href="#ArialMT-54" transform="translate(1400.537109 0)"/>
     <use xlink:href="#ArialMT-69" transform="translate(1457.871094 0)"/>
     <use xlink:href="#ArialMT-74" transform="translate(1480.087891 0)"/>
     <use xlink:href="#ArialMT-6c" transform="translate(1507.871094 0)"/>
     <use xlink:href="#ArialMT-65" transform="translate(1530.087891 0)"/>
     <use xlink:href="#ArialMT-29" transform="translate(1585.703125 0)"/>
    </g>
   </g>
   <g id="legend_1">
    <g id="patch_7">
     <path d="M 617.594844 62.38125 
L 693.745781 62.38125 
Q 695.945781 62.38125 695.945781 60.18125 
L 695.945781 29.635625 
Q 695.945781 27.435625 693.745781 27.435625 
L 617.594844 27.435625 
Q 615.394844 27.435625 615.394844 29.635625 
L 615.394844 60.18125 
Q 615.394844 62.38125 617.594844 62.38125 
z
" style="fill: #ffffff; opacity: 0.8; stroke: #cccccc; stroke-linejoin: miter"/>
    </g>
    <g id="patch_8">
     <path d="M 619.794844 39.843281 
L 641.794844 39.843281 
L 641.794844 32.143281 
L 619.794844 32.143281 
z
" style="fill: #fc8d62; fill-opacity: 0.5; stroke: #fc8d62; stroke-linejoin: miter"/>
    </g>
    <g id="text_14">
     <!-- Fake (0) -->
     <g style="fill: #262626" transform="translate(650.594844 39.843281) scale(0.11 -0.11)">
      <defs>
       <path id="ArialMT-46" d="M 525 0 
L 525 4581 
L 3616 4581 
L 3616 4041 
L 1131 4041 
L 1131 2622 
L 3281 2622 
L 3281 2081 
L 1131 2081 
L 1131 0 
L 525 0 
z
" transform="scale(0.015625)"/>
       <path id="ArialMT-6b" d="M 425 0 
L 425 4581 
L 988 4581 
L 988 1969 
L 2319 3319 
L 3047 3319 
L 1778 2088 
L 3175 0 
L 2481 0 
L 1384 1697 
L 988 1316 
L 988 0 
L 425 0 
z
" transform="scale(0.015625)"/>
      </defs>
      <use xlink:href="#ArialMT-46"/>
      <use xlink:href="#ArialMT-61" transform="translate(61.083984 0)"/>
      <use xlink:href="#ArialMT-6b" transform="translate(116.699219 0)"/>
      <use xlink:href="#ArialMT-65" transform="translate(166.699219 0)"/>
      <use xlink:href="#ArialMT-20" transform="translate(222.314453 0)"/>
      <use xlink:href="#ArialMT-28" transform="translate(250.097656 0)"/>
      <use xlink:href="#ArialMT-30" transform="translate(283.398438 0)"/>
      <use xlink:href="#ArialMT-29" transform="translate(339.013672 0)"/>
     </g>
    </g>
    <g id="patch_9">
     <path d="M 619.794844 55.666094 
L 641.794844 55.666094 
L 641.794844 47.966094 
L 619.794844 47.966094 
z
" style="fill: #66c2a5; fill-opacity: 0.5; stroke: #66c2a5; stroke-linejoin: miter"/>
    </g>
    <g id="text_15">
     <!-- Real (1) -->
     <g style="fill: #262626" transform="translate(650.594844 55.666094) scale(0.11 -0.11)">
      <defs>
       <path id="ArialMT-52" d="M 503 0 
L 503 4581 
L 2534 4581 
Q 3147 4581 3465 4457 
Q 3784 4334 3975 4021 
Q 4166 3709 4166 3331 
Q 4166 2844 3850 2509 
Q 3534 2175 2875 2084 
Q 3116 1969 3241 1856 
Q 3506 1613 3744 1247 
L 4541 0 
L 3778 0 
L 3172 953 
Q 2906 1366 2734 1584 
Q 2563 1803 2427 1890 
Q 2291 1978 2150 2013 
Q 2047 2034 1813 2034 
L 1109 2034 
L 1109 0 
L 503 0 
z
M 1109 2559 
L 2413 2559 
Q 2828 2559 3062 2645 
Q 3297 2731 3419 2920 
Q 3541 3109 3541 3331 
Q 3541 3656 3305 3865 
Q 3069 4075 2559 4075 
L 1109 4075 
L 1109 2559 
z
" transform="scale(0.015625)"/>
      </defs>
      <use xlink:href="#ArialMT-52"/>
      <use xlink:href="#ArialMT-65" transform="translate(72.216797 0)"/>
      <use xlink:href="#ArialMT-61" transform="translate(127.832031 0)"/>
      <use xlink:href="#ArialMT-6c" transform="translate(183.447266 0)"/>
      <use xlink:href="#ArialMT-20" transform="translate(205.664062 0)"/>
      <use xlink:href="#ArialMT-28" transform="translate(233.447266 0)"/>
      <use xlink:href="#ArialMT-31" transform="translate(266.748047 0)"/>
      <use xlink:href="#ArialMT-29" transform="translate(322.363281 0)"/>
     </g>
    </g>
   </g>
  </g>
 </g>
 <defs>
  <clipPath id="pe6ce9bf80f">
   <rect x="37.932031" y="21.935625" width="663.51375" height="284.9475"/>
  </clipPath>
 </defs>
</svg>
