<?xml version="1.0" encoding="utf-8" standalone="no"?>
<!DOCTYPE svg PUBLIC "-//W3C//DTD SVG 1.1//EN"
  "http://www.w3.org/Graphics/SVG/1.1/DTD/svg11.dtd">
<svg xmlns:xlink="http://www.w3.org/1999/xlink" width="708.735781pt" height="348.757969pt" viewBox="0 0 708.735781 348.757969" xmlns="http://www.w3.org/2000/svg" version="1.1">
 <metadata>
  <rdf:RDF xmlns:dc="http://purl.org/dc/elements/1.1/" xmlns:cc="http://creativecommons.org/ns#" xmlns:rdf="http://www.w3.org/1999/02/22-rdf-syntax-ns#">
   <cc:Work>
    <dc:type rdf:resource="http://purl.org/dc/dcmitype/StillImage"/>
    <dc:date>2025-05-17T18:11:27.256082</dc:date>
    <dc:format>image/svg+xml</dc:format>
    <dc:creator>
     <cc:Agent>
      <dc:title>Matplotlib v3.10.1, https://matplotlib.org/</dc:title>
     </cc:Agent>
    </dc:creator>
   </cc:Work>
  </rdf:RDF>
 </metadata>
 <defs>
  <style type="text/css">*{stroke-linejoin: round; stroke-linecap: butt}</style>
 </defs>
 <g id="figure_1">
  <g id="patch_1">
   <path d="M 0 348.757969 
L 708.735781 348.757969 
L 708.735781 0 
L 0 0 
z
" style="fill: #ffffff"/>
  </g>
  <g id="axes_1">
   <g id="patch_2">
    <path d="M 37.932031 306.883125 
L 701.535781 306.883125 
L 701.535781 21.935625 
L 37.932031 21.935625 
z
" style="fill: #ffffff"/>
   </g>
   <g id="matplotlib.axis_1">
    <g id="xtick_1">
     <g id="text_1">
      <!-- −1.0 -->
      <g style="fill: #262626" transform="translate(69.615217 324.256719) scale(0.11 -0.11)">
       <defs>
        <path id="ArialMT-2212" d="M 3381 1997 
L 356 1997 
L 356 2522 
L 3381 2522 
L 3381 1997 
z
" transform="scale(0.015625)"/>
        <path id="ArialMT-31" d="M 2384 0 
L 1822 0 
L 1822 3584 
Q 1619 3391 1289 3197 
Q 959 3003 697 2906 
L 697 3450 
Q 1169 3672 1522 3987 
Q 1875 4303 2022 4600 
L 2384 4600 
L 2384 0 
z
" transform="scale(0.015625)"/>
        <path id="ArialMT-2e" d="M 581 0 
L 581 641 
L 1222 641 
L 1222 0 
L 581 0 
z
" transform="scale(0.015625)"/>
        <path id="ArialMT-30" d="M 266 2259 
Q 266 3072 433 3567 
Q 600 4063 929 4331 
Q 1259 4600 1759 4600 
Q 2128 4600 2406 4451 
Q 2684 4303 2865 4023 
Q 3047 3744 3150 3342 
Q 3253 2941 3253 2259 
Q 3253 1453 3087 958 
Q 2922 463 2592 192 
Q 2263 -78 1759 -78 
Q 1097 -78 719 397 
Q 266 969 266 2259 
z
M 844 2259 
Q 844 1131 1108 757 
Q 1372 384 1759 384 
Q 2147 384 2411 759 
Q 2675 1134 2675 2259 
Q 2675 3391 2411 3762 
Q 2147 4134 1753 4134 
Q 1366 4134 1134 3806 
Q 844 3388 844 2259 
z
" transform="scale(0.015625)"/>
       </defs>
       <use xlink:href="#ArialMT-2212"/>
       <use xlink:href="#ArialMT-31" transform="translate(58.398438 0)"/>
       <use xlink:href="#ArialMT-2e" transform="translate(114.013672 0)"/>
       <use xlink:href="#ArialMT-30" transform="translate(141.796875 0)"/>
      </g>
     </g>
    </g>
    <g id="xtick_2">
     <g id="text_2">
      <!-- −0.5 -->
      <g style="fill: #262626" transform="translate(214.24589 324.256719) scale(0.11 -0.11)">
       <defs>
        <path id="ArialMT-35" d="M 266 1200 
L 856 1250 
Q 922 819 1161 601 
Q 1400 384 1738 384 
Q 2144 384 2425 690 
Q 2706 997 2706 1503 
Q 2706 1984 2436 2262 
Q 2166 2541 1728 2541 
Q 1456 2541 1237 2417 
Q 1019 2294 894 2097 
L 366 2166 
L 809 4519 
L 3088 4519 
L 3088 3981 
L 1259 3981 
L 1013 2750 
Q 1425 3038 1878 3038 
Q 2478 3038 2890 2622 
Q 3303 2206 3303 1553 
Q 3303 931 2941 478 
Q 2500 -78 1738 -78 
Q 1113 -78 717 272 
Q 322 622 266 1200 
z
" transform="scale(0.015625)"/>
       </defs>
       <use xlink:href="#ArialMT-2212"/>
       <use xlink:href="#ArialMT-30" transform="translate(58.398438 0)"/>
       <use xlink:href="#ArialMT-2e" transform="translate(114.013672 0)"/>
       <use xlink:href="#ArialMT-35" transform="translate(141.796875 0)"/>
      </g>
     </g>
    </g>
    <g id="xtick_3">
     <g id="text_3">
      <!-- 0.0 -->
      <g style="fill: #262626" transform="translate(362.088906 324.256719) scale(0.11 -0.11)">
       <use xlink:href="#ArialMT-30"/>
       <use xlink:href="#ArialMT-2e" transform="translate(55.615234 0)"/>
       <use xlink:href="#ArialMT-30" transform="translate(83.398438 0)"/>
      </g>
     </g>
    </g>
    <g id="xtick_4">
     <g id="text_4">
      <!-- 0.5 -->
      <g style="fill: #262626" transform="translate(506.719579 324.256719) scale(0.11 -0.11)">
       <use xlink:href="#ArialMT-30"/>
       <use xlink:href="#ArialMT-2e" transform="translate(55.615234 0)"/>
       <use xlink:href="#ArialMT-35" transform="translate(83.398438 0)"/>
      </g>
     </g>
    </g>
    <g id="xtick_5">
     <g id="text_5">
      <!-- 1.0 -->
      <g style="fill: #262626" transform="translate(651.350252 324.256719) scale(0.11 -0.11)">
       <use xlink:href="#ArialMT-31"/>
       <use xlink:href="#ArialMT-2e" transform="translate(55.615234 0)"/>
       <use xlink:href="#ArialMT-30" transform="translate(83.398438 0)"/>
      </g>
     </g>
    </g>
    <g id="text_6">
     <!-- Polarity -->
     <g style="fill: #262626" transform="translate(349.727656 339.032344) scale(0.12 -0.12)">
      <defs>
       <path id="ArialMT-50" d="M 494 0 
L 494 4581 
L 2222 4581 
Q 2678 4581 2919 4538 
Q 3256 4481 3484 4323 
Q 3713 4166 3852 3881 
Q 3991 3597 3991 3256 
Q 3991 2672 3619 2267 
Q 3247 1863 2275 1863 
L 1100 1863 
L 1100 0 
L 494 0 
z
M 1100 2403 
L 2284 2403 
Q 2872 2403 3119 2622 
Q 3366 2841 3366 3238 
Q 3366 3525 3220 3729 
Q 3075 3934 2838 4000 
Q 2684 4041 2272 4041 
L 1100 4041 
L 1100 2403 
z
" transform="scale(0.015625)"/>
       <path id="ArialMT-6f" d="M 213 1659 
Q 213 2581 725 3025 
Q 1153 3394 1769 3394 
Q 2453 3394 2887 2945 
Q 3322 2497 3322 1706 
Q 3322 1066 3130 698 
Q 2938 331 2570 128 
Q 2203 -75 1769 -75 
Q 1072 -75 642 372 
Q 213 819 213 1659 
z
M 791 1659 
Q 791 1022 1069 705 
Q 1347 388 1769 388 
Q 2188 388 2466 706 
Q 2744 1025 2744 1678 
Q 2744 2294 2464 2611 
Q 2184 2928 1769 2928 
Q 1347 2928 1069 2612 
Q 791 2297 791 1659 
z
" transform="scale(0.015625)"/>
       <path id="ArialMT-6c" d="M 409 0 
L 409 4581 
L 972 4581 
L 972 0 
L 409 0 
z
" transform="scale(0.015625)"/>
       <path id="ArialMT-61" d="M 2588 409 
Q 2275 144 1986 34 
Q 1697 -75 1366 -75 
Q 819 -75 525 192 
Q 231 459 231 875 
Q 231 1119 342 1320 
Q 453 1522 633 1644 
Q 813 1766 1038 1828 
Q 1203 1872 1538 1913 
Q 2219 1994 2541 2106 
Q 2544 2222 2544 2253 
Q 2544 2597 2384 2738 
Q 2169 2928 1744 2928 
Q 1347 2928 1158 2789 
Q 969 2650 878 2297 
L 328 2372 
Q 403 2725 575 2942 
Q 747 3159 1072 3276 
Q 1397 3394 1825 3394 
Q 2250 3394 2515 3294 
Q 2781 3194 2906 3042 
Q 3031 2891 3081 2659 
Q 3109 2516 3109 2141 
L 3109 1391 
Q 3109 606 3145 398 
Q 3181 191 3288 0 
L 2700 0 
Q 2613 175 2588 409 
z
M 2541 1666 
Q 2234 1541 1622 1453 
Q 1275 1403 1131 1340 
Q 988 1278 909 1158 
Q 831 1038 831 891 
Q 831 666 1001 516 
Q 1172 366 1500 366 
Q 1825 366 2078 508 
Q 2331 650 2450 897 
Q 2541 1088 2541 1459 
L 2541 1666 
z
" transform="scale(0.015625)"/>
       <path id="ArialMT-72" d="M 416 0 
L 416 3319 
L 922 3319 
L 922 2816 
Q 1116 3169 1280 3281 
Q 1444 3394 1641 3394 
Q 1925 3394 2219 3213 
L 2025 2691 
Q 1819 2813 1613 2813 
Q 1428 2813 1281 2702 
Q 1134 2591 1072 2394 
Q 978 2094 978 1738 
L 978 0 
L 416 0 
z
" transform="scale(0.015625)"/>
       <path id="ArialMT-69" d="M 425 3934 
L 425 4581 
L 988 4581 
L 988 3934 
L 425 3934 
z
M 425 0 
L 425 3319 
L 988 3319 
L 988 0 
L 425 0 
z
" transform="scale(0.015625)"/>
       <path id="ArialMT-74" d="M 1650 503 
L 1731 6 
Q 1494 -44 1306 -44 
Q 1000 -44 831 53 
Q 663 150 594 308 
Q 525 466 525 972 
L 525 2881 
L 113 2881 
L 113 3319 
L 525 3319 
L 525 4141 
L 1084 4478 
L 1084 3319 
L 1650 3319 
L 1650 2881 
L 1084 2881 
L 1084 941 
Q 1084 700 1114 631 
Q 1144 563 1211 522 
Q 1278 481 1403 481 
Q 1497 481 1650 503 
z
" transform="scale(0.015625)"/>
       <path id="ArialMT-79" d="M 397 -1278 
L 334 -750 
Q 519 -800 656 -800 
Q 844 -800 956 -737 
Q 1069 -675 1141 -563 
Q 1194 -478 1313 -144 
Q 1328 -97 1363 -6 
L 103 3319 
L 709 3319 
L 1400 1397 
Q 1534 1031 1641 628 
Q 1738 1016 1872 1384 
L 2581 3319 
L 3144 3319 
L 1881 -56 
Q 1678 -603 1566 -809 
Q 1416 -1088 1222 -1217 
Q 1028 -1347 759 -1347 
Q 597 -1347 397 -1278 
z
" transform="scale(0.015625)"/>
      </defs>
      <use xlink:href="#ArialMT-50"/>
      <use xlink:href="#ArialMT-6f" transform="translate(66.699219 0)"/>
      <use xlink:href="#ArialMT-6c" transform="translate(122.314453 0)"/>
      <use xlink:href="#ArialMT-61" transform="translate(144.53125 0)"/>
      <use xlink:href="#ArialMT-72" transform="translate(200.146484 0)"/>
      <use xlink:href="#ArialMT-69" transform="translate(233.447266 0)"/>
      <use xlink:href="#ArialMT-74" transform="translate(255.664062 0)"/>
      <use xlink:href="#ArialMT-79" transform="translate(283.447266 0)"/>
     </g>
    </g>
   </g>
   <g id="matplotlib.axis_2">
    <g id="ytick_1">
     <g id="text_7">
      <!-- 0 -->
      <g style="fill: #262626" transform="translate(22.315 310.819922) scale(0.11 -0.11)">
       <use xlink:href="#ArialMT-30"/>
      </g>
     </g>
    </g>
    <g id="ytick_2">
     <g id="text_8">
      <!-- 1 -->
      <g style="fill: #262626" transform="translate(22.315 263.125177) scale(0.11 -0.11)">
       <use xlink:href="#ArialMT-31"/>
      </g>
     </g>
    </g>
    <g id="ytick_3">
     <g id="text_9">
      <!-- 2 -->
      <g style="fill: #262626" transform="translate(22.315 215.430432) scale(0.11 -0.11)">
       <defs>
        <path id="ArialMT-32" d="M 3222 541 
L 3222 0 
L 194 0 
Q 188 203 259 391 
Q 375 700 629 1000 
Q 884 1300 1366 1694 
Q 2113 2306 2375 2664 
Q 2638 3022 2638 3341 
Q 2638 3675 2398 3904 
Q 2159 4134 1775 4134 
Q 1369 4134 1125 3890 
Q 881 3647 878 3216 
L 300 3275 
Q 359 3922 746 4261 
Q 1134 4600 1788 4600 
Q 2447 4600 2831 4234 
Q 3216 3869 3216 3328 
Q 3216 3053 3103 2787 
Q 2991 2522 2730 2228 
Q 2469 1934 1863 1422 
Q 1356 997 1212 845 
Q 1069 694 975 541 
L 3222 541 
z
" transform="scale(0.015625)"/>
       </defs>
       <use xlink:href="#ArialMT-32"/>
      </g>
     </g>
    </g>
    <g id="ytick_4">
     <g id="text_10">
      <!-- 3 -->
      <g style="fill: #262626" transform="translate(22.315 167.735688) scale(0.11 -0.11)">
       <defs>
        <path id="ArialMT-33" d="M 269 1209 
L 831 1284 
Q 928 806 1161 595 
Q 1394 384 1728 384 
Q 2125 384 2398 659 
Q 2672 934 2672 1341 
Q 2672 1728 2419 1979 
Q 2166 2231 1775 2231 
Q 1616 2231 1378 2169 
L 1441 2663 
Q 1497 2656 1531 2656 
Q 1891 2656 2178 2843 
Q 2466 3031 2466 3422 
Q 2466 3731 2256 3934 
Q 2047 4138 1716 4138 
Q 1388 4138 1169 3931 
Q 950 3725 888 3313 
L 325 3413 
Q 428 3978 793 4289 
Q 1159 4600 1703 4600 
Q 2078 4600 2393 4439 
Q 2709 4278 2876 4000 
Q 3044 3722 3044 3409 
Q 3044 3113 2884 2869 
Q 2725 2625 2413 2481 
Q 2819 2388 3044 2092 
Q 3269 1797 3269 1353 
Q 3269 753 2831 336 
Q 2394 -81 1725 -81 
Q 1122 -81 723 278 
Q 325 638 269 1209 
z
" transform="scale(0.015625)"/>
       </defs>
       <use xlink:href="#ArialMT-33"/>
      </g>
     </g>
    </g>
    <g id="ytick_5">
     <g id="text_11">
      <!-- 4 -->
      <g style="fill: #262626" transform="translate(22.315 120.040943) scale(0.11 -0.11)">
       <defs>
        <path id="ArialMT-34" d="M 2069 0 
L 2069 1097 
L 81 1097 
L 81 1613 
L 2172 4581 
L 2631 4581 
L 2631 1613 
L 3250 1613 
L 3250 1097 
L 2631 1097 
L 2631 0 
L 2069 0 
z
M 2069 1613 
L 2069 3678 
L 634 1613 
L 2069 1613 
z
" transform="scale(0.015625)"/>
       </defs>
       <use xlink:href="#ArialMT-34"/>
      </g>
     </g>
    </g>
    <g id="ytick_6">
     <g id="text_12">
      <!-- 5 -->
      <g style="fill: #262626" transform="translate(22.315 72.346198) scale(0.11 -0.11)">
       <use xlink:href="#ArialMT-35"/>
      </g>
     </g>
    </g>
    <g id="text_13">
     <!-- Density -->
     <g style="fill: #262626" transform="translate(15.789375 184.415625) rotate(-90) scale(0.12 -0.12)">
      <defs>
       <path id="ArialMT-44" d="M 494 0 
L 494 4581 
L 2072 4581 
Q 2606 4581 2888 4516 
Q 3281 4425 3559 4188 
Q 3922 3881 4101 3404 
Q 4281 2928 4281 2316 
Q 4281 1794 4159 1391 
Q 4038 988 3847 723 
Q 3656 459 3429 307 
Q 3203 156 2883 78 
Q 2563 0 2147 0 
L 494 0 
z
M 1100 541 
L 2078 541 
Q 2531 541 2789 625 
Q 3047 709 3200 863 
Q 3416 1078 3536 1442 
Q 3656 1806 3656 2325 
Q 3656 3044 3420 3430 
Q 3184 3816 2847 3947 
Q 2603 4041 2063 4041 
L 1100 4041 
L 1100 541 
z
" transform="scale(0.015625)"/>
       <path id="ArialMT-65" d="M 2694 1069 
L 3275 997 
Q 3138 488 2766 206 
Q 2394 -75 1816 -75 
Q 1088 -75 661 373 
Q 234 822 234 1631 
Q 234 2469 665 2931 
Q 1097 3394 1784 3394 
Q 2450 3394 2872 2941 
Q 3294 2488 3294 1666 
Q 3294 1616 3291 1516 
L 816 1516 
Q 847 969 1125 678 
Q 1403 388 1819 388 
Q 2128 388 2347 550 
Q 2566 713 2694 1069 
z
M 847 1978 
L 2700 1978 
Q 2663 2397 2488 2606 
Q 2219 2931 1791 2931 
Q 1403 2931 1139 2672 
Q 875 2413 847 1978 
z
" transform="scale(0.015625)"/>
       <path id="ArialMT-6e" d="M 422 0 
L 422 3319 
L 928 3319 
L 928 2847 
Q 1294 3394 1984 3394 
Q 2284 3394 2536 3286 
Q 2788 3178 2913 3003 
Q 3038 2828 3088 2588 
Q 3119 2431 3119 2041 
L 3119 0 
L 2556 0 
L 2556 2019 
Q 2556 2363 2490 2533 
Q 2425 2703 2258 2804 
Q 2091 2906 1866 2906 
Q 1506 2906 1245 2678 
Q 984 2450 984 1813 
L 984 0 
L 422 0 
z
" transform="scale(0.015625)"/>
       <path id="ArialMT-73" d="M 197 991 
L 753 1078 
Q 800 744 1014 566 
Q 1228 388 1613 388 
Q 2000 388 2187 545 
Q 2375 703 2375 916 
Q 2375 1106 2209 1216 
Q 2094 1291 1634 1406 
Q 1016 1563 777 1677 
Q 538 1791 414 1992 
Q 291 2194 291 2438 
Q 291 2659 392 2848 
Q 494 3038 669 3163 
Q 800 3259 1026 3326 
Q 1253 3394 1513 3394 
Q 1903 3394 2198 3281 
Q 2494 3169 2634 2976 
Q 2775 2784 2828 2463 
L 2278 2388 
Q 2241 2644 2061 2787 
Q 1881 2931 1553 2931 
Q 1166 2931 1000 2803 
Q 834 2675 834 2503 
Q 834 2394 903 2306 
Q 972 2216 1119 2156 
Q 1203 2125 1616 2013 
Q 2213 1853 2448 1751 
Q 2684 1650 2818 1456 
Q 2953 1263 2953 975 
Q 2953 694 2789 445 
Q 2625 197 2315 61 
Q 2006 -75 1616 -75 
Q 969 -75 630 194 
Q 291 463 197 991 
z
" transform="scale(0.015625)"/>
      </defs>
      <use xlink:href="#ArialMT-44"/>
      <use xlink:href="#ArialMT-65" transform="translate(72.216797 0)"/>
      <use xlink:href="#ArialMT-6e" transform="translate(127.832031 0)"/>
      <use xlink:href="#ArialMT-73" transform="translate(183.447266 0)"/>
      <use xlink:href="#ArialMT-69" transform="translate(233.447266 0)"/>
      <use xlink:href="#ArialMT-74" transform="translate(255.664062 0)"/>
      <use xlink:href="#ArialMT-79" transform="translate(283.447266 0)"/>
     </g>
    </g>
   </g>
   <g id="FillBetweenPolyCollection_1">
    <defs>
     <path id="m66858bf62f" d="M 100.087136 -41.875406 
L 100.087136 -41.874844 
L 102.851663 -41.874844 
L 105.61619 -41.874844 
L 108.380717 -41.874844 
L 111.145243 -41.874844 
L 113.90977 -41.874844 
L 116.674297 -41.874844 
L 119.438824 -41.874844 
L 122.203351 -41.874844 
L 124.967878 -41.874844 
L 127.732405 -41.874844 
L 130.496931 -41.874844 
L 133.261458 -41.874844 
L 136.025985 -41.874844 
L 138.790512 -41.874844 
L 141.555039 -41.874844 
L 144.319566 -41.874844 
L 147.084092 -41.874844 
L 149.848619 -41.874844 
L 152.613146 -41.874844 
L 155.377673 -41.874844 
L 158.1422 -41.874844 
L 160.906727 -41.874844 
L 163.671253 -41.874844 
L 166.43578 -41.874844 
L 169.200307 -41.874844 
L 171.964834 -41.874844 
L 174.729361 -41.874844 
L 177.493888 -41.874844 
L 180.258414 -41.874844 
L 183.022941 -41.874844 
L 185.787468 -41.874844 
L 188.551995 -41.874844 
L 191.316522 -41.874844 
L 194.081049 -41.874844 
L 196.845575 -41.874844 
L 199.610102 -41.874844 
L 202.374629 -41.874844 
L 205.139156 -41.874844 
L 207.903683 -41.874844 
L 210.66821 -41.874844 
L 213.432736 -41.874844 
L 216.197263 -41.874844 
L 218.96179 -41.874844 
L 221.726317 -41.874844 
L 224.490844 -41.874844 
L 227.255371 -41.874844 
L 230.019898 -41.874844 
L 232.784424 -41.874844 
L 235.548951 -41.874844 
L 238.313478 -41.874844 
L 241.078005 -41.874844 
L 243.842532 -41.874844 
L 246.607059 -41.874844 
L 249.371585 -41.874844 
L 252.136112 -41.874844 
L 254.900639 -41.874844 
L 257.665166 -41.874844 
L 260.429693 -41.874844 
L 263.19422 -41.874844 
L 265.958746 -41.874844 
L 268.723273 -41.874844 
L 271.4878 -41.874844 
L 274.252327 -41.874844 
L 277.016854 -41.874844 
L 279.781381 -41.874844 
L 282.545907 -41.874844 
L 285.310434 -41.874844 
L 288.074961 -41.874844 
L 290.839488 -41.874844 
L 293.604015 -41.874844 
L 296.368542 -41.874844 
L 299.133068 -41.874844 
L 301.897595 -41.874844 
L 304.662122 -41.874844 
L 307.426649 -41.874844 
L 310.191176 -41.874844 
L 312.955703 -41.874844 
L 315.720229 -41.874844 
L 318.484756 -41.874844 
L 321.249283 -41.874844 
L 324.01381 -41.874844 
L 326.778337 -41.874844 
L 329.542864 -41.874844 
L 332.307391 -41.874844 
L 335.071917 -41.874844 
L 337.836444 -41.874844 
L 340.600971 -41.874844 
L 343.365498 -41.874844 
L 346.130025 -41.874844 
L 348.894552 -41.874844 
L 351.659078 -41.874844 
L 354.423605 -41.874844 
L 357.188132 -41.874844 
L 359.952659 -41.874844 
L 362.717186 -41.874844 
L 365.481713 -41.874844 
L 368.246239 -41.874844 
L 371.010766 -41.874844 
L 373.775293 -41.874844 
L 376.53982 -41.874844 
L 379.304347 -41.874844 
L 382.068874 -41.874844 
L 384.8334 -41.874844 
L 387.597927 -41.874844 
L 390.362454 -41.874844 
L 393.126981 -41.874844 
L 395.891508 -41.874844 
L 398.656035 -41.874844 
L 401.420561 -41.874844 
L 404.185088 -41.874844 
L 406.949615 -41.874844 
L 409.714142 -41.874844 
L 412.478669 -41.874844 
L 415.243196 -41.874844 
L 418.007722 -41.874844 
L 420.772249 -41.874844 
L 423.536776 -41.874844 
L 426.301303 -41.874844 
L 429.06583 -41.874844 
L 431.830357 -41.874844 
L 434.594883 -41.874844 
L 437.35941 -41.874844 
L 440.123937 -41.874844 
L 442.888464 -41.874844 
L 445.652991 -41.874844 
L 448.417518 -41.874844 
L 451.182045 -41.874844 
L 453.946571 -41.874844 
L 456.711098 -41.874844 
L 459.475625 -41.874844 
L 462.240152 -41.874844 
L 465.004679 -41.874844 
L 467.769206 -41.874844 
L 470.533732 -41.874844 
L 473.298259 -41.874844 
L 476.062786 -41.874844 
L 478.827313 -41.874844 
L 481.59184 -41.874844 
L 484.356367 -41.874844 
L 487.120893 -41.874844 
L 489.88542 -41.874844 
L 492.649947 -41.874844 
L 495.414474 -41.874844 
L 498.179001 -41.874844 
L 500.943528 -41.874844 
L 503.708054 -41.874844 
L 506.472581 -41.874844 
L 509.237108 -41.874844 
L 512.001635 -41.874844 
L 514.766162 -41.874844 
L 517.530689 -41.874844 
L 520.295215 -41.874844 
L 523.059742 -41.874844 
L 525.824269 -41.874844 
L 528.588796 -41.874844 
L 531.353323 -41.874844 
L 534.11785 -41.874844 
L 536.882376 -41.874844 
L 539.646903 -41.874844 
L 542.41143 -41.874844 
L 545.175957 -41.874844 
L 547.940484 -41.874844 
L 550.705011 -41.874844 
L 553.469538 -41.874844 
L 556.234064 -41.874844 
L 558.998591 -41.874844 
L 561.763118 -41.874844 
L 564.527645 -41.874844 
L 567.292172 -41.874844 
L 570.056699 -41.874844 
L 572.821225 -41.874844 
L 575.585752 -41.874844 
L 578.350279 -41.874844 
L 581.114806 -41.874844 
L 583.879333 -41.874844 
L 586.64386 -41.874844 
L 589.408386 -41.874844 
L 592.172913 -41.874844 
L 594.93744 -41.874844 
L 597.701967 -41.874844 
L 600.466494 -41.874844 
L 603.231021 -41.874844 
L 605.995547 -41.874844 
L 608.760074 -41.874844 
L 611.524601 -41.874844 
L 614.289128 -41.874844 
L 617.053655 -41.874844 
L 619.818182 -41.874844 
L 622.582708 -41.874844 
L 625.347235 -41.874844 
L 628.111762 -41.874844 
L 630.876289 -41.874844 
L 633.640816 -41.874844 
L 636.405343 -41.874844 
L 639.169869 -41.874844 
L 641.934396 -41.874844 
L 644.698923 -41.874844 
L 647.46345 -41.874844 
L 650.227977 -41.874844 
L 650.227977 -41.875406 
L 650.227977 -41.875406 
L 647.46345 -41.880317 
L 644.698923 -41.898935 
L 641.934396 -41.922817 
L 639.169869 -41.918055 
L 636.405343 -41.89245 
L 633.640816 -41.878089 
L 630.876289 -41.875114 
L 628.111762 -41.874854 
L 625.347235 -41.874844 
L 622.582708 -41.874844 
L 619.818182 -41.874844 
L 617.053655 -41.874844 
L 614.289128 -41.874857 
L 611.524601 -41.875221 
L 608.760074 -41.879828 
L 605.995547 -41.904672 
L 603.231021 -41.955588 
L 600.466494 -41.97372 
L 597.701967 -41.929793 
L 594.93744 -41.891506 
L 592.172913 -41.897548 
L 589.408386 -41.943723 
L 586.64386 -41.976087 
L 583.879333 -41.942278 
L 581.114806 -41.895967 
L 578.350279 -41.884793 
L 575.585752 -41.903103 
L 572.821225 -41.924522 
L 570.056699 -41.914599 
L 567.292172 -41.889673 
L 564.527645 -41.881886 
L 561.763118 -41.897297 
L 558.998591 -41.925633 
L 556.234064 -41.945364 
L 553.469538 -41.969886 
L 550.705011 -41.99561 
L 547.940484 -42.037572 
L 545.175957 -42.161204 
L 542.41143 -42.233067 
L 539.646903 -42.159064 
L 536.882376 -42.068961 
L 534.11785 -42.01419 
L 531.353323 -42.001858 
L 528.588796 -42.058202 
L 525.824269 -42.14464 
L 523.059742 -42.253321 
L 520.295215 -42.544884 
L 517.530689 -43.203274 
L 514.766162 -43.730135 
L 512.001635 -43.321263 
L 509.237108 -42.583461 
L 506.472581 -42.309614 
L 503.708054 -42.439124 
L 500.943528 -42.683497 
L 498.179001 -42.754151 
L 495.414474 -42.680879 
L 492.649947 -42.696212 
L 489.88542 -42.928819 
L 487.120893 -43.387692 
L 484.356367 -43.609234 
L 481.59184 -43.556425 
L 478.827313 -43.796437 
L 476.062786 -44.195831 
L 473.298259 -44.466762 
L 470.533732 -44.789921 
L 467.769206 -45.362331 
L 465.004679 -45.873323 
L 462.240152 -46.16309 
L 459.475625 -46.917568 
L 456.711098 -48.154672 
L 453.946571 -49.183143 
L 451.182045 -50.231977 
L 448.417518 -51.740887 
L 445.652991 -53.956939 
L 442.888464 -56.615202 
L 440.123937 -58.810221 
L 437.35941 -60.783129 
L 434.594883 -63.702123 
L 431.830357 -68.340732 
L 429.06583 -74.580376 
L 426.301303 -81.721102 
L 423.536776 -91.199127 
L 420.772249 -104.763524 
L 418.007722 -120.492015 
L 415.243196 -136.352808 
L 412.478669 -153.781352 
L 409.714142 -175.674354 
L 406.949615 -201.233422 
L 404.185088 -227.821612 
L 401.420561 -253.697156 
L 398.656035 -276.170264 
L 395.891508 -292.675002 
L 393.126981 -305.032669 
L 390.362454 -313.253415 
L 387.597927 -313.079349 
L 384.8334 -304.570858 
L 382.068874 -291.429734 
L 379.304347 -277.255202 
L 376.53982 -262.383388 
L 373.775293 -250.140321 
L 371.010766 -240.444594 
L 368.246239 -215.558285 
L 365.481713 -179.006337 
L 362.717186 -151.103673 
L 359.952659 -132.396701 
L 357.188132 -118.181674 
L 354.423605 -106.360134 
L 351.659078 -95.382935 
L 348.894552 -84.989092 
L 346.130025 -76.774494 
L 343.365498 -71.579369 
L 340.600971 -67.899789 
L 337.836444 -63.774643 
L 335.071917 -59.749106 
L 332.307391 -56.018695 
L 329.542864 -52.514025 
L 326.778337 -50.195839 
L 324.01381 -49.043328 
L 321.249283 -48.364835 
L 318.484756 -47.740596 
L 315.720229 -47.331297 
L 312.955703 -46.906723 
L 310.191176 -45.986782 
L 307.426649 -45.008044 
L 304.662122 -44.588268 
L 301.897595 -44.413812 
L 299.133068 -44.291028 
L 296.368542 -44.151047 
L 293.604015 -43.911004 
L 290.839488 -43.669606 
L 288.074961 -43.37047 
L 285.310434 -43.120821 
L 282.545907 -42.944832 
L 279.781381 -42.693488 
L 277.016854 -42.496077 
L 274.252327 -42.453798 
L 271.4878 -42.372318 
L 268.723273 -42.240776 
L 265.958746 -42.203908 
L 263.19422 -42.186996 
L 260.429693 -42.128484 
L 257.665166 -42.182012 
L 254.900639 -42.367698 
L 252.136112 -42.394407 
L 249.371585 -42.24175 
L 246.607059 -42.093644 
L 243.842532 -42.026078 
L 241.078005 -42.048205 
L 238.313478 -42.065874 
L 235.548951 -42.024694 
L 232.784424 -42.015562 
L 230.019898 -42.091755 
L 227.255371 -42.206322 
L 224.490844 -42.228308 
L 221.726317 -42.114045 
L 218.96179 -42.024531 
L 216.197263 -41.993665 
L 213.432736 -41.964839 
L 210.66821 -41.936288 
L 207.903683 -41.903735 
L 205.139156 -41.881846 
L 202.374629 -41.875635 
L 199.610102 -41.874884 
L 196.845575 -41.874845 
L 194.081049 -41.874844 
L 191.316522 -41.874844 
L 188.551995 -41.874844 
L 185.787468 -41.874844 
L 183.022941 -41.874844 
L 180.258414 -41.874844 
L 177.493888 -41.874844 
L 174.729361 -41.874844 
L 171.964834 -41.874844 
L 169.200307 -41.874844 
L 166.43578 -41.874844 
L 163.671253 -41.874844 
L 160.906727 -41.874844 
L 158.1422 -41.874844 
L 155.377673 -41.874844 
L 152.613146 -41.874845 
L 149.848619 -41.874895 
L 147.084092 -41.875788 
L 144.319566 -41.882684 
L 141.555039 -41.904299 
L 138.790512 -41.924901 
L 136.025985 -41.913324 
L 133.261458 -41.888225 
L 130.496931 -41.876948 
L 127.732405 -41.874994 
L 124.967878 -41.874849 
L 122.203351 -41.874854 
L 119.438824 -41.875114 
L 116.674297 -41.878089 
L 113.90977 -41.89245 
L 111.145243 -41.918055 
L 108.380717 -41.922817 
L 105.61619 -41.898935 
L 102.851663 -41.880317 
L 100.087136 -41.875406 
z
" style="stroke: #fc8d62"/>
    </defs>
    <g clip-path="url(#p7f66eec2cb)">
     <use xlink:href="#m66858bf62f" x="0" y="348.757969" style="fill: #fc8d62; fill-opacity: 0.5; stroke: #fc8d62"/>
    </g>
   </g>
   <g id="FillBetweenPolyCollection_2">
    <defs>
     <path id="m5d9312945f" d="M 68.095838 -41.880528 
L 68.095838 -41.874844 
L 71.127376 -41.874844 
L 74.158915 -41.874844 
L 77.190453 -41.874844 
L 80.221992 -41.874844 
L 83.25353 -41.874844 
L 86.285068 -41.874844 
L 89.316607 -41.874844 
L 92.348145 -41.874844 
L 95.379683 -41.874844 
L 98.411222 -41.874844 
L 101.44276 -41.874844 
L 104.474299 -41.874844 
L 107.505837 -41.874844 
L 110.537375 -41.874844 
L 113.568914 -41.874844 
L 116.600452 -41.874844 
L 119.63199 -41.874844 
L 122.663529 -41.874844 
L 125.695067 -41.874844 
L 128.726606 -41.874844 
L 131.758144 -41.874844 
L 134.789682 -41.874844 
L 137.821221 -41.874844 
L 140.852759 -41.874844 
L 143.884297 -41.874844 
L 146.915836 -41.874844 
L 149.947374 -41.874844 
L 152.978913 -41.874844 
L 156.010451 -41.874844 
L 159.041989 -41.874844 
L 162.073528 -41.874844 
L 165.105066 -41.874844 
L 168.136604 -41.874844 
L 171.168143 -41.874844 
L 174.199681 -41.874844 
L 177.23122 -41.874844 
L 180.262758 -41.874844 
L 183.294296 -41.874844 
L 186.325835 -41.874844 
L 189.357373 -41.874844 
L 192.388911 -41.874844 
L 195.42045 -41.874844 
L 198.451988 -41.874844 
L 201.483527 -41.874844 
L 204.515065 -41.874844 
L 207.546603 -41.874844 
L 210.578142 -41.874844 
L 213.60968 -41.874844 
L 216.641218 -41.874844 
L 219.672757 -41.874844 
L 222.704295 -41.874844 
L 225.735833 -41.874844 
L 228.767372 -41.874844 
L 231.79891 -41.874844 
L 234.830449 -41.874844 
L 237.861987 -41.874844 
L 240.893525 -41.874844 
L 243.925064 -41.874844 
L 246.956602 -41.874844 
L 249.98814 -41.874844 
L 253.019679 -41.874844 
L 256.051217 -41.874844 
L 259.082756 -41.874844 
L 262.114294 -41.874844 
L 265.145832 -41.874844 
L 268.177371 -41.874844 
L 271.208909 -41.874844 
L 274.240447 -41.874844 
L 277.271986 -41.874844 
L 280.303524 -41.874844 
L 283.335063 -41.874844 
L 286.366601 -41.874844 
L 289.398139 -41.874844 
L 292.429678 -41.874844 
L 295.461216 -41.874844 
L 298.492754 -41.874844 
L 301.524293 -41.874844 
L 304.555831 -41.874844 
L 307.58737 -41.874844 
L 310.618908 -41.874844 
L 313.650446 -41.874844 
L 316.681985 -41.874844 
L 319.713523 -41.874844 
L 322.745061 -41.874844 
L 325.7766 -41.874844 
L 328.808138 -41.874844 
L 331.839677 -41.874844 
L 334.871215 -41.874844 
L 337.902753 -41.874844 
L 340.934292 -41.874844 
L 343.96583 -41.874844 
L 346.997368 -41.874844 
L 350.028907 -41.874844 
L 353.060445 -41.874844 
L 356.091984 -41.874844 
L 359.123522 -41.874844 
L 362.15506 -41.874844 
L 365.186599 -41.874844 
L 368.218137 -41.874844 
L 371.249675 -41.874844 
L 374.281214 -41.874844 
L 377.312752 -41.874844 
L 380.344291 -41.874844 
L 383.375829 -41.874844 
L 386.407367 -41.874844 
L 389.438906 -41.874844 
L 392.470444 -41.874844 
L 395.501982 -41.874844 
L 398.533521 -41.874844 
L 401.565059 -41.874844 
L 404.596598 -41.874844 
L 407.628136 -41.874844 
L 410.659674 -41.874844 
L 413.691213 -41.874844 
L 416.722751 -41.874844 
L 419.754289 -41.874844 
L 422.785828 -41.874844 
L 425.817366 -41.874844 
L 428.848905 -41.874844 
L 431.880443 -41.874844 
L 434.911981 -41.874844 
L 437.94352 -41.874844 
L 440.975058 -41.874844 
L 444.006596 -41.874844 
L 447.038135 -41.874844 
L 450.069673 -41.874844 
L 453.101212 -41.874844 
L 456.13275 -41.874844 
L 459.164288 -41.874844 
L 462.195827 -41.874844 
L 465.227365 -41.874844 
L 468.258903 -41.874844 
L 471.290442 -41.874844 
L 474.32198 -41.874844 
L 477.353519 -41.874844 
L 480.385057 -41.874844 
L 483.416595 -41.874844 
L 486.448134 -41.874844 
L 489.479672 -41.874844 
L 492.51121 -41.874844 
L 495.542749 -41.874844 
L 498.574287 -41.874844 
L 501.605826 -41.874844 
L 504.637364 -41.874844 
L 507.668902 -41.874844 
L 510.700441 -41.874844 
L 513.731979 -41.874844 
L 516.763517 -41.874844 
L 519.795056 -41.874844 
L 522.826594 -41.874844 
L 525.858132 -41.874844 
L 528.889671 -41.874844 
L 531.921209 -41.874844 
L 534.952748 -41.874844 
L 537.984286 -41.874844 
L 541.015824 -41.874844 
L 544.047363 -41.874844 
L 547.078901 -41.874844 
L 550.110439 -41.874844 
L 553.141978 -41.874844 
L 556.173516 -41.874844 
L 559.205055 -41.874844 
L 562.236593 -41.874844 
L 565.268131 -41.874844 
L 568.29967 -41.874844 
L 571.331208 -41.874844 
L 574.362746 -41.874844 
L 577.394285 -41.874844 
L 580.425823 -41.874844 
L 583.457362 -41.874844 
L 586.4889 -41.874844 
L 589.520438 -41.874844 
L 592.551977 -41.874844 
L 595.583515 -41.874844 
L 598.615053 -41.874844 
L 601.646592 -41.874844 
L 604.67813 -41.874844 
L 607.709669 -41.874844 
L 610.741207 -41.874844 
L 613.772745 -41.874844 
L 616.804284 -41.874844 
L 619.835822 -41.874844 
L 622.86736 -41.874844 
L 625.898899 -41.874844 
L 628.930437 -41.874844 
L 631.961976 -41.874844 
L 634.993514 -41.874844 
L 638.025052 -41.874844 
L 641.056591 -41.874844 
L 644.088129 -41.874844 
L 647.119667 -41.874844 
L 650.151206 -41.874844 
L 653.182744 -41.874844 
L 656.214283 -41.874844 
L 659.245821 -41.874844 
L 662.277359 -41.874844 
L 665.308898 -41.874844 
L 668.340436 -41.874844 
L 671.371974 -41.874844 
L 671.371974 -41.885804 
L 671.371974 -41.885804 
L 668.340436 -41.950694 
L 665.308898 -42.180749 
L 662.277359 -42.593832 
L 659.245821 -42.859774 
L 656.214283 -42.662302 
L 653.182744 -42.249001 
L 650.151206 -42.005864 
L 647.119667 -41.965123 
L 644.088129 -41.99069 
L 641.056591 -41.996528 
L 638.025052 -41.968924 
L 634.993514 -41.936916 
L 631.961976 -41.928762 
L 628.930437 -41.945778 
L 625.898899 -41.982905 
L 622.86736 -42.017762 
L 619.835822 -42.008263 
L 616.804284 -41.962796 
L 613.772745 -41.933796 
L 610.741207 -41.948802 
L 607.709669 -42.037753 
L 604.67813 -42.2209 
L 601.646592 -42.369634 
L 598.615053 -42.325601 
L 595.583515 -42.193771 
L 592.551977 -42.204619 
L 589.520438 -42.384484 
L 586.4889 -42.492618 
L 583.457362 -42.361708 
L 580.425823 -42.173148 
L 577.394285 -42.134195 
L 574.362746 -42.192107 
L 571.331208 -42.19197 
L 568.29967 -42.107293 
L 565.268131 -42.042577 
L 562.236593 -42.084532 
L 559.205055 -42.223938 
L 556.173516 -42.394663 
L 553.141978 -42.541378 
L 550.110439 -42.627939 
L 547.078901 -42.678864 
L 544.047363 -42.701996 
L 541.015824 -42.607219 
L 537.984286 -42.464723 
L 534.952748 -42.4331 
L 531.921209 -42.467289 
L 528.889671 -42.480183 
L 525.858132 -42.572911 
L 522.826594 -43.054055 
L 519.795056 -44.270649 
L 516.763517 -45.867316 
L 513.731979 -46.462352 
L 510.700441 -45.530325 
L 507.668902 -44.284938 
L 504.637364 -43.579739 
L 501.605826 -43.265758 
L 498.574287 -43.215172 
L 495.542749 -43.485083 
L 492.51121 -44.084757 
L 489.479672 -44.907183 
L 486.448134 -45.598645 
L 483.416595 -45.795154 
L 480.385057 -45.714499 
L 477.353519 -45.837377 
L 474.32198 -46.238258 
L 471.290442 -46.792975 
L 468.258903 -47.507436 
L 465.227365 -48.42885 
L 462.195827 -49.532627 
L 459.164288 -50.707497 
L 456.13275 -51.837885 
L 453.101212 -53.193598 
L 450.069673 -55.562389 
L 447.038135 -59.567048 
L 444.006596 -64.749231 
L 440.975058 -69.874492 
L 437.94352 -74.596515 
L 434.911981 -79.460465 
L 431.880443 -84.980379 
L 428.848905 -91.626591 
L 425.817366 -99.382357 
L 422.785828 -108.520786 
L 419.754289 -119.660027 
L 416.722751 -132.362916 
L 413.691213 -146.450009 
L 410.659674 -162.77339 
L 407.628136 -181.119115 
L 404.596598 -199.699081 
L 401.565059 -217.389416 
L 398.533521 -234.206695 
L 395.501982 -249.216429 
L 392.470444 -259.978243 
L 389.438906 -264.800558 
L 386.407367 -264.155616 
L 383.375829 -258.926511 
L 380.344291 -251.068003 
L 377.312752 -246.963509 
L 374.281214 -253.548262 
L 371.249675 -260.082298 
L 368.218137 -240.424032 
L 365.186599 -195.732785 
L 362.15506 -154.728327 
L 359.123522 -130.449858 
L 356.091984 -116.951397 
L 353.060445 -107.383296 
L 350.028907 -98.852416 
L 346.997368 -90.699905 
L 343.96583 -82.842803 
L 340.934292 -75.486237 
L 337.902753 -69.167106 
L 334.871215 -64.080823 
L 331.839677 -60.114858 
L 328.808138 -57.364954 
L 325.7766 -55.433414 
L 322.745061 -53.586467 
L 319.713523 -51.818864 
L 316.681985 -50.486496 
L 313.650446 -49.505434 
L 310.618908 -48.471571 
L 307.58737 -47.284018 
L 304.555831 -46.206822 
L 301.524293 -45.44175 
L 298.492754 -44.983508 
L 295.461216 -44.635322 
L 292.429678 -44.210011 
L 289.398139 -43.755873 
L 286.366601 -43.480076 
L 283.335063 -43.43525 
L 280.303524 -43.452995 
L 277.271986 -43.437059 
L 274.240447 -43.368822 
L 271.208909 -43.216205 
L 268.177371 -43.018176 
L 265.145832 -42.856269 
L 262.114294 -42.785615 
L 259.082756 -42.782322 
L 256.051217 -42.76781 
L 253.019679 -42.666093 
L 249.98814 -42.472391 
L 246.956602 -42.262467 
L 243.925064 -42.107801 
L 240.893525 -42.030445 
L 237.861987 -42.022834 
L 234.830449 -42.109437 
L 231.79891 -42.379062 
L 228.767372 -42.854917 
L 225.735833 -43.19741 
L 222.704295 -43.000997 
L 219.672757 -42.504248 
L 216.641218 -42.21253 
L 213.60968 -42.196065 
L 210.578142 -42.240718 
L 207.546603 -42.233967 
L 204.515065 -42.243773 
L 201.483527 -42.313698 
L 198.451988 -42.360645 
L 195.42045 -42.312104 
L 192.388911 -42.200928 
L 189.357373 -42.109063 
L 186.325835 -42.065172 
L 183.294296 -42.037055 
L 180.262758 -41.992802 
L 177.23122 -41.937721 
L 174.199681 -41.897418 
L 171.168143 -41.880056 
L 168.136604 -41.875771 
L 165.105066 -41.877028 
L 162.073528 -41.889361 
L 159.041989 -41.932791 
L 156.010451 -42.009976 
L 152.978913 -42.060746 
L 149.947374 -42.034958 
L 146.915836 -41.993488 
L 143.884297 -42.017597 
L 140.852759 -42.087912 
L 137.821221 -42.105738 
L 134.789682 -42.030201 
L 131.758144 -41.937284 
L 128.726606 -41.891029 
L 125.695067 -41.886772 
L 122.663529 -41.913552 
L 119.63199 -41.964131 
L 116.600452 -42.001304 
L 113.568914 -41.990171 
L 110.537375 -41.947311 
L 107.505837 -41.907402 
L 104.474299 -41.88498 
L 101.44276 -41.877078 
L 98.411222 -41.877019 
L 95.379683 -41.886107 
L 92.348145 -41.917046 
L 89.316607 -41.990732 
L 86.285068 -42.135564 
L 83.25353 -42.328146 
L 80.221992 -42.402593 
L 77.190453 -42.251383 
L 74.158915 -42.033936 
L 71.127376 -41.914209 
L 68.095838 -41.880528 
z
" style="stroke: #66c2a5"/>
    </defs>
    <g clip-path="url(#p7f66eec2cb)">
     <use xlink:href="#m5d9312945f" x="0" y="348.757969" style="fill: #66c2a5; fill-opacity: 0.5; stroke: #66c2a5"/>
    </g>
   </g>
   <g id="patch_3">
    <path d="M 37.932031 306.883125 
L 37.932031 21.935625 
" style="fill: none; stroke: #cccccc; stroke-width: 1.25; stroke-linejoin: miter; stroke-linecap: square"/>
   </g>
   <g id="patch_4">
    <path d="M 701.535781 306.883125 
L 701.535781 21.935625 
" style="fill: none; stroke: #cccccc; stroke-width: 1.25; stroke-linejoin: miter; stroke-linecap: square"/>
   </g>
   <g id="patch_5">
    <path d="M 37.932031 306.883125 
L 701.535781 306.883125 
" style="fill: none; stroke: #cccccc; stroke-width: 1.25; stroke-linejoin: miter; stroke-linecap: square"/>
   </g>
   <g id="patch_6">
    <path d="M 37.932031 21.935625 
L 701.535781 21.935625 
" style="fill: none; stroke: #cccccc; stroke-width: 1.25; stroke-linejoin: miter; stroke-linecap: square"/>
   </g>
   <g id="text_14">
    <!-- Sentiment Polarity Distribution (Text) -->
    <g style="fill: #262626" transform="translate(272.707344 15.935625) scale(0.12 -0.12)">
     <defs>
      <path id="ArialMT-53" d="M 288 1472 
L 859 1522 
Q 900 1178 1048 958 
Q 1197 738 1509 602 
Q 1822 466 2213 466 
Q 2559 466 2825 569 
Q 3091 672 3220 851 
Q 3350 1031 3350 1244 
Q 3350 1459 3225 1620 
Q 3100 1781 2813 1891 
Q 2628 1963 1997 2114 
Q 1366 2266 1113 2400 
Q 784 2572 623 2826 
Q 463 3081 463 3397 
Q 463 3744 659 4045 
Q 856 4347 1234 4503 
Q 1613 4659 2075 4659 
Q 2584 4659 2973 4495 
Q 3363 4331 3572 4012 
Q 3781 3694 3797 3291 
L 3216 3247 
Q 3169 3681 2898 3903 
Q 2628 4125 2100 4125 
Q 1550 4125 1298 3923 
Q 1047 3722 1047 3438 
Q 1047 3191 1225 3031 
Q 1400 2872 2139 2705 
Q 2878 2538 3153 2413 
Q 3553 2228 3743 1945 
Q 3934 1663 3934 1294 
Q 3934 928 3725 604 
Q 3516 281 3123 101 
Q 2731 -78 2241 -78 
Q 1619 -78 1198 103 
Q 778 284 539 648 
Q 300 1013 288 1472 
z
" transform="scale(0.015625)"/>
      <path id="ArialMT-6d" d="M 422 0 
L 422 3319 
L 925 3319 
L 925 2853 
Q 1081 3097 1340 3245 
Q 1600 3394 1931 3394 
Q 2300 3394 2536 3241 
Q 2772 3088 2869 2813 
Q 3263 3394 3894 3394 
Q 4388 3394 4653 3120 
Q 4919 2847 4919 2278 
L 4919 0 
L 4359 0 
L 4359 2091 
Q 4359 2428 4304 2576 
Q 4250 2725 4106 2815 
Q 3963 2906 3769 2906 
Q 3419 2906 3187 2673 
Q 2956 2441 2956 1928 
L 2956 0 
L 2394 0 
L 2394 2156 
Q 2394 2531 2256 2718 
Q 2119 2906 1806 2906 
Q 1569 2906 1367 2781 
Q 1166 2656 1075 2415 
Q 984 2175 984 1722 
L 984 0 
L 422 0 
z
" transform="scale(0.015625)"/>
      <path id="ArialMT-20" transform="scale(0.015625)"/>
      <path id="ArialMT-62" d="M 941 0 
L 419 0 
L 419 4581 
L 981 4581 
L 981 2947 
Q 1338 3394 1891 3394 
Q 2197 3394 2470 3270 
Q 2744 3147 2920 2923 
Q 3097 2700 3197 2384 
Q 3297 2069 3297 1709 
Q 3297 856 2875 390 
Q 2453 -75 1863 -75 
Q 1275 -75 941 416 
L 941 0 
z
M 934 1684 
Q 934 1088 1097 822 
Q 1363 388 1816 388 
Q 2184 388 2453 708 
Q 2722 1028 2722 1663 
Q 2722 2313 2464 2622 
Q 2206 2931 1841 2931 
Q 1472 2931 1203 2611 
Q 934 2291 934 1684 
z
" transform="scale(0.015625)"/>
      <path id="ArialMT-75" d="M 2597 0 
L 2597 488 
Q 2209 -75 1544 -75 
Q 1250 -75 995 37 
Q 741 150 617 320 
Q 494 491 444 738 
Q 409 903 409 1263 
L 409 3319 
L 972 3319 
L 972 1478 
Q 972 1038 1006 884 
Q 1059 663 1231 536 
Q 1403 409 1656 409 
Q 1909 409 2131 539 
Q 2353 669 2445 892 
Q 2538 1116 2538 1541 
L 2538 3319 
L 3100 3319 
L 3100 0 
L 2597 0 
z
" transform="scale(0.015625)"/>
      <path id="ArialMT-28" d="M 1497 -1347 
Q 1031 -759 709 28 
Q 388 816 388 1659 
Q 388 2403 628 3084 
Q 909 3875 1497 4659 
L 1900 4659 
Q 1522 4009 1400 3731 
Q 1209 3300 1100 2831 
Q 966 2247 966 1656 
Q 966 153 1900 -1347 
L 1497 -1347 
z
" transform="scale(0.015625)"/>
      <path id="ArialMT-54" d="M 1659 0 
L 1659 4041 
L 150 4041 
L 150 4581 
L 3781 4581 
L 3781 4041 
L 2266 4041 
L 2266 0 
L 1659 0 
z
" transform="scale(0.015625)"/>
      <path id="ArialMT-78" d="M 47 0 
L 1259 1725 
L 138 3319 
L 841 3319 
L 1350 2541 
Q 1494 2319 1581 2169 
Q 1719 2375 1834 2534 
L 2394 3319 
L 3066 3319 
L 1919 1756 
L 3153 0 
L 2463 0 
L 1781 1031 
L 1600 1309 
L 728 0 
L 47 0 
z
" transform="scale(0.015625)"/>
      <path id="ArialMT-29" d="M 791 -1347 
L 388 -1347 
Q 1322 153 1322 1656 
Q 1322 2244 1188 2822 
Q 1081 3291 891 3722 
Q 769 4003 388 4659 
L 791 4659 
Q 1378 3875 1659 3084 
Q 1900 2403 1900 1659 
Q 1900 816 1576 28 
Q 1253 -759 791 -1347 
z
" transform="scale(0.015625)"/>
     </defs>
     <use xlink:href="#ArialMT-53"/>
     <use xlink:href="#ArialMT-65" transform="translate(66.699219 0)"/>
     <use xlink:href="#ArialMT-6e" transform="translate(122.314453 0)"/>
     <use xlink:href="#ArialMT-74" transform="translate(177.929688 0)"/>
     <use xlink:href="#ArialMT-69" transform="translate(205.712891 0)"/>
     <use xlink:href="#ArialMT-6d" transform="translate(227.929688 0)"/>
     <use xlink:href="#ArialMT-65" transform="translate(311.230469 0)"/>
     <use xlink:href="#ArialMT-6e" transform="translate(366.845703 0)"/>
     <use xlink:href="#ArialMT-74" transform="translate(422.460938 0)"/>
     <use xlink:href="#ArialMT-20" transform="translate(450.244141 0)"/>
     <use xlink:href="#ArialMT-50" transform="translate(478.027344 0)"/>
     <use xlink:href="#ArialMT-6f" transform="translate(544.726562 0)"/>
     <use xlink:href="#ArialMT-6c" transform="translate(600.341797 0)"/>
     <use xlink:href="#ArialMT-61" transform="translate(622.558594 0)"/>
     <use xlink:href="#ArialMT-72" transform="translate(678.173828 0)"/>
     <use xlink:href="#ArialMT-69" transform="translate(711.474609 0)"/>
     <use xlink:href="#ArialMT-74" transform="translate(733.691406 0)"/>
     <use xlink:href="#ArialMT-79" transform="translate(761.474609 0)"/>
     <use xlink:href="#ArialMT-20" transform="translate(811.474609 0)"/>
     <use xlink:href="#ArialMT-44" transform="translate(839.257812 0)"/>
     <use xlink:href="#ArialMT-69" transform="translate(911.474609 0)"/>
     <use xlink:href="#ArialMT-73" transform="translate(933.691406 0)"/>
     <use xlink:href="#ArialMT-74" transform="translate(983.691406 0)"/>
     <use xlink:href="#ArialMT-72" transform="translate(1011.474609 0)"/>
     <use xlink:href="#ArialMT-69" transform="translate(1044.775391 0)"/>
     <use xlink:href="#ArialMT-62" transform="translate(1066.992188 0)"/>
     <use xlink:href="#ArialMT-75" transform="translate(1122.607422 0)"/>
     <use xlink:href="#ArialMT-74" transform="translate(1178.222656 0)"/>
     <use xlink:href="#ArialMT-69" transform="translate(1206.005859 0)"/>
     <use xlink:href="#ArialMT-6f" transform="translate(1228.222656 0)"/>
     <use xlink:href="#ArialMT-6e" transform="translate(1283.837891 0)"/>
     <use xlink:href="#ArialMT-20" transform="translate(1339.453125 0)"/>
     <use xlink:href="#ArialMT-28" transform="translate(1367.236328 0)"/>
     <use xlink:href="#ArialMT-54" transform="translate(1400.537109 0)"/>
     <use xlink:href="#ArialMT-65" transform="translate(1450.496094 0)"/>
     <use xlink:href="#ArialMT-78" transform="translate(1506.111328 0)"/>
     <use xlink:href="#ArialMT-74" transform="translate(1556.111328 0)"/>
     <use xlink:href="#ArialMT-29" transform="translate(1583.894531 0)"/>
    </g>
   </g>
   <g id="legend_1">
    <g id="patch_7">
     <path d="M 617.684844 62.38125 
L 693.835781 62.38125 
Q 696.035781 62.38125 696.035781 60.18125 
L 696.035781 29.635625 
Q 696.035781 27.435625 693.835781 27.435625 
L 617.684844 27.435625 
Q 615.484844 27.435625 615.484844 29.635625 
L 615.484844 60.18125 
Q 615.484844 62.38125 617.684844 62.38125 
z
" style="fill: #ffffff; opacity: 0.8; stroke: #cccccc; stroke-linejoin: miter"/>
    </g>
    <g id="patch_8">
     <path d="M 619.884844 39.843281 
L 641.884844 39.843281 
L 641.884844 32.143281 
L 619.884844 32.143281 
z
" style="fill: #fc8d62; fill-opacity: 0.5; stroke: #fc8d62; stroke-linejoin: miter"/>
    </g>
    <g id="text_15">
     <!-- Fake (0) -->
     <g style="fill: #262626" transform="translate(650.684844 39.843281) scale(0.11 -0.11)">
      <defs>
       <path id="ArialMT-46" d="M 525 0 
L 525 4581 
L 3616 4581 
L 3616 4041 
L 1131 4041 
L 1131 2622 
L 3281 2622 
L 3281 2081 
L 1131 2081 
L 1131 0 
L 525 0 
z
" transform="scale(0.015625)"/>
       <path id="ArialMT-6b" d="M 425 0 
L 425 4581 
L 988 4581 
L 988 1969 
L 2319 3319 
L 3047 3319 
L 1778 2088 
L 3175 0 
L 2481 0 
L 1384 1697 
L 988 1316 
L 988 0 
L 425 0 
z
" transform="scale(0.015625)"/>
      </defs>
      <use xlink:href="#ArialMT-46"/>
      <use xlink:href="#ArialMT-61" transform="translate(61.083984 0)"/>
      <use xlink:href="#ArialMT-6b" transform="translate(116.699219 0)"/>
      <use xlink:href="#ArialMT-65" transform="translate(166.699219 0)"/>
      <use xlink:href="#ArialMT-20" transform="translate(222.314453 0)"/>
      <use xlink:href="#ArialMT-28" transform="translate(250.097656 0)"/>
      <use xlink:href="#ArialMT-30" transform="translate(283.398438 0)"/>
      <use xlink:href="#ArialMT-29" transform="translate(339.013672 0)"/>
     </g>
    </g>
    <g id="patch_9">
     <path d="M 619.884844 55.666094 
L 641.884844 55.666094 
L 641.884844 47.966094 
L 619.884844 47.966094 
z
" style="fill: #66c2a5; fill-opacity: 0.5; stroke: #66c2a5; stroke-linejoin: miter"/>
    </g>
    <g id="text_16">
     <!-- Real (1) -->
     <g style="fill: #262626" transform="translate(650.684844 55.666094) scale(0.11 -0.11)">
      <defs>
       <path id="ArialMT-52" d="M 503 0 
L 503 4581 
L 2534 4581 
Q 3147 4581 3465 4457 
Q 3784 4334 3975 4021 
Q 4166 3709 4166 3331 
Q 4166 2844 3850 2509 
Q 3534 2175 2875 2084 
Q 3116 1969 3241 1856 
Q 3506 1613 3744 1247 
L 4541 0 
L 3778 0 
L 3172 953 
Q 2906 1366 2734 1584 
Q 2563 1803 2427 1890 
Q 2291 1978 2150 2013 
Q 2047 2034 1813 2034 
L 1109 2034 
L 1109 0 
L 503 0 
z
M 1109 2559 
L 2413 2559 
Q 2828 2559 3062 2645 
Q 3297 2731 3419 2920 
Q 3541 3109 3541 3331 
Q 3541 3656 3305 3865 
Q 3069 4075 2559 4075 
L 1109 4075 
L 1109 2559 
z
" transform="scale(0.015625)"/>
      </defs>
      <use xlink:href="#ArialMT-52"/>
      <use xlink:href="#ArialMT-65" transform="translate(72.216797 0)"/>
      <use xlink:href="#ArialMT-61" transform="translate(127.832031 0)"/>
      <use xlink:href="#ArialMT-6c" transform="translate(183.447266 0)"/>
      <use xlink:href="#ArialMT-20" transform="translate(205.664062 0)"/>
      <use xlink:href="#ArialMT-28" transform="translate(233.447266 0)"/>
      <use xlink:href="#ArialMT-31" transform="translate(266.748047 0)"/>
      <use xlink:href="#ArialMT-29" transform="translate(322.363281 0)"/>
     </g>
    </g>
   </g>
  </g>
 </g>
 <defs>
  <clipPath id="p7f66eec2cb">
   <rect x="37.932031" y="21.935625" width="663.60375" height="284.9475"/>
  </clipPath>
 </defs>
</svg>
