<?xml version="1.0" encoding="utf-8" standalone="no"?>
<!DOCTYPE svg PUBLIC "-//W3C//DTD SVG 1.1//EN"
  "http://www.w3.org/Graphics/SVG/1.1/DTD/svg11.dtd">
<svg xmlns:xlink="http://www.w3.org/1999/xlink" width="708.735781pt" height="348.904219pt" viewBox="0 0 708.735781 348.904219" xmlns="http://www.w3.org/2000/svg" version="1.1">
 <metadata>
  <rdf:RDF xmlns:dc="http://purl.org/dc/elements/1.1/" xmlns:cc="http://creativecommons.org/ns#" xmlns:rdf="http://www.w3.org/1999/02/22-rdf-syntax-ns#">
   <cc:Work>
    <dc:type rdf:resource="http://purl.org/dc/dcmitype/StillImage"/>
    <dc:date>2025-05-17T18:11:27.443541</dc:date>
    <dc:format>image/svg+xml</dc:format>
    <dc:creator>
     <cc:Agent>
      <dc:title>Matplotlib v3.10.1, https://matplotlib.org/</dc:title>
     </cc:Agent>
    </dc:creator>
   </cc:Work>
  </rdf:RDF>
 </metadata>
 <defs>
  <style type="text/css">*{stroke-linejoin: round; stroke-linecap: butt}</style>
 </defs>
 <g id="figure_1">
  <g id="patch_1">
   <path d="M 0 348.904219 
L 708.735781 348.904219 
L 708.735781 0 
L 0 0 
z
" style="fill: #ffffff"/>
  </g>
  <g id="axes_1">
   <g id="patch_2">
    <path d="M 37.932031 306.883125 
L 701.535781 306.883125 
L 701.535781 21.935625 
L 37.932031 21.935625 
z
" style="fill: #ffffff"/>
   </g>
   <g id="matplotlib.axis_1">
    <g id="xtick_1">
     <g id="text_1">
      <!-- 0.0 -->
      <g style="fill: #262626" transform="translate(120.739209 324.256719) scale(0.11 -0.11)">
       <defs>
        <path id="ArialMT-30" d="M 266 2259 
Q 266 3072 433 3567 
Q 600 4063 929 4331 
Q 1259 4600 1759 4600 
Q 2128 4600 2406 4451 
Q 2684 4303 2865 4023 
Q 3047 3744 3150 3342 
Q 3253 2941 3253 2259 
Q 3253 1453 3087 958 
Q 2922 463 2592 192 
Q 2263 -78 1759 -78 
Q 1097 -78 719 397 
Q 266 969 266 2259 
z
M 844 2259 
Q 844 1131 1108 757 
Q 1372 384 1759 384 
Q 2147 384 2411 759 
Q 2675 1134 2675 2259 
Q 2675 3391 2411 3762 
Q 2147 4134 1753 4134 
Q 1366 4134 1134 3806 
Q 844 3388 844 2259 
z
" transform="scale(0.015625)"/>
        <path id="ArialMT-2e" d="M 581 0 
L 581 641 
L 1222 641 
L 1222 0 
L 581 0 
z
" transform="scale(0.015625)"/>
       </defs>
       <use xlink:href="#ArialMT-30"/>
       <use xlink:href="#ArialMT-2e" transform="translate(55.615234 0)"/>
       <use xlink:href="#ArialMT-30" transform="translate(83.398438 0)"/>
      </g>
     </g>
    </g>
    <g id="xtick_2">
     <g id="text_2">
      <!-- 0.2 -->
      <g style="fill: #262626" transform="translate(217.279088 324.256719) scale(0.11 -0.11)">
       <defs>
        <path id="ArialMT-32" d="M 3222 541 
L 3222 0 
L 194 0 
Q 188 203 259 391 
Q 375 700 629 1000 
Q 884 1300 1366 1694 
Q 2113 2306 2375 2664 
Q 2638 3022 2638 3341 
Q 2638 3675 2398 3904 
Q 2159 4134 1775 4134 
Q 1369 4134 1125 3890 
Q 881 3647 878 3216 
L 300 3275 
Q 359 3922 746 4261 
Q 1134 4600 1788 4600 
Q 2447 4600 2831 4234 
Q 3216 3869 3216 3328 
Q 3216 3053 3103 2787 
Q 2991 2522 2730 2228 
Q 2469 1934 1863 1422 
Q 1356 997 1212 845 
Q 1069 694 975 541 
L 3222 541 
z
" transform="scale(0.015625)"/>
       </defs>
       <use xlink:href="#ArialMT-30"/>
       <use xlink:href="#ArialMT-2e" transform="translate(55.615234 0)"/>
       <use xlink:href="#ArialMT-32" transform="translate(83.398438 0)"/>
      </g>
     </g>
    </g>
    <g id="xtick_3">
     <g id="text_3">
      <!-- 0.4 -->
      <g style="fill: #262626" transform="translate(313.818967 324.256719) scale(0.11 -0.11)">
       <defs>
        <path id="ArialMT-34" d="M 2069 0 
L 2069 1097 
L 81 1097 
L 81 1613 
L 2172 4581 
L 2631 4581 
L 2631 1613 
L 3250 1613 
L 3250 1097 
L 2631 1097 
L 2631 0 
L 2069 0 
z
M 2069 1613 
L 2069 3678 
L 634 1613 
L 2069 1613 
z
" transform="scale(0.015625)"/>
       </defs>
       <use xlink:href="#ArialMT-30"/>
       <use xlink:href="#ArialMT-2e" transform="translate(55.615234 0)"/>
       <use xlink:href="#ArialMT-34" transform="translate(83.398438 0)"/>
      </g>
     </g>
    </g>
    <g id="xtick_4">
     <g id="text_4">
      <!-- 0.6 -->
      <g style="fill: #262626" transform="translate(410.358846 324.256719) scale(0.11 -0.11)">
       <defs>
        <path id="ArialMT-36" d="M 3184 3459 
L 2625 3416 
Q 2550 3747 2413 3897 
Q 2184 4138 1850 4138 
Q 1581 4138 1378 3988 
Q 1113 3794 959 3422 
Q 806 3050 800 2363 
Q 1003 2672 1297 2822 
Q 1591 2972 1913 2972 
Q 2475 2972 2870 2558 
Q 3266 2144 3266 1488 
Q 3266 1056 3080 686 
Q 2894 316 2569 119 
Q 2244 -78 1831 -78 
Q 1128 -78 684 439 
Q 241 956 241 2144 
Q 241 3472 731 4075 
Q 1159 4600 1884 4600 
Q 2425 4600 2770 4297 
Q 3116 3994 3184 3459 
z
M 888 1484 
Q 888 1194 1011 928 
Q 1134 663 1356 523 
Q 1578 384 1822 384 
Q 2178 384 2434 671 
Q 2691 959 2691 1453 
Q 2691 1928 2437 2201 
Q 2184 2475 1800 2475 
Q 1419 2475 1153 2201 
Q 888 1928 888 1484 
z
" transform="scale(0.015625)"/>
       </defs>
       <use xlink:href="#ArialMT-30"/>
       <use xlink:href="#ArialMT-2e" transform="translate(55.615234 0)"/>
       <use xlink:href="#ArialMT-36" transform="translate(83.398438 0)"/>
      </g>
     </g>
    </g>
    <g id="xtick_5">
     <g id="text_5">
      <!-- 0.8 -->
      <g style="fill: #262626" transform="translate(506.898724 324.256719) scale(0.11 -0.11)">
       <defs>
        <path id="ArialMT-38" d="M 1131 2484 
Q 781 2613 612 2850 
Q 444 3088 444 3419 
Q 444 3919 803 4259 
Q 1163 4600 1759 4600 
Q 2359 4600 2725 4251 
Q 3091 3903 3091 3403 
Q 3091 3084 2923 2848 
Q 2756 2613 2416 2484 
Q 2838 2347 3058 2040 
Q 3278 1734 3278 1309 
Q 3278 722 2862 322 
Q 2447 -78 1769 -78 
Q 1091 -78 675 323 
Q 259 725 259 1325 
Q 259 1772 486 2073 
Q 713 2375 1131 2484 
z
M 1019 3438 
Q 1019 3113 1228 2906 
Q 1438 2700 1772 2700 
Q 2097 2700 2305 2904 
Q 2513 3109 2513 3406 
Q 2513 3716 2298 3927 
Q 2084 4138 1766 4138 
Q 1444 4138 1231 3931 
Q 1019 3725 1019 3438 
z
M 838 1322 
Q 838 1081 952 856 
Q 1066 631 1291 507 
Q 1516 384 1775 384 
Q 2178 384 2440 643 
Q 2703 903 2703 1303 
Q 2703 1709 2433 1975 
Q 2163 2241 1756 2241 
Q 1359 2241 1098 1978 
Q 838 1716 838 1322 
z
" transform="scale(0.015625)"/>
       </defs>
       <use xlink:href="#ArialMT-30"/>
       <use xlink:href="#ArialMT-2e" transform="translate(55.615234 0)"/>
       <use xlink:href="#ArialMT-38" transform="translate(83.398438 0)"/>
      </g>
     </g>
    </g>
    <g id="xtick_6">
     <g id="text_6">
      <!-- 1.0 -->
      <g style="fill: #262626" transform="translate(603.438603 324.256719) scale(0.11 -0.11)">
       <defs>
        <path id="ArialMT-31" d="M 2384 0 
L 1822 0 
L 1822 3584 
Q 1619 3391 1289 3197 
Q 959 3003 697 2906 
L 697 3450 
Q 1169 3672 1522 3987 
Q 1875 4303 2022 4600 
L 2384 4600 
L 2384 0 
z
" transform="scale(0.015625)"/>
       </defs>
       <use xlink:href="#ArialMT-31"/>
       <use xlink:href="#ArialMT-2e" transform="translate(55.615234 0)"/>
       <use xlink:href="#ArialMT-30" transform="translate(83.398438 0)"/>
      </g>
     </g>
    </g>
    <g id="text_7">
     <!-- Subjectivity -->
     <g style="fill: #262626" transform="translate(339.388906 339.178594) scale(0.12 -0.12)">
      <defs>
       <path id="ArialMT-53" d="M 288 1472 
L 859 1522 
Q 900 1178 1048 958 
Q 1197 738 1509 602 
Q 1822 466 2213 466 
Q 2559 466 2825 569 
Q 3091 672 3220 851 
Q 3350 1031 3350 1244 
Q 3350 1459 3225 1620 
Q 3100 1781 2813 1891 
Q 2628 1963 1997 2114 
Q 1366 2266 1113 2400 
Q 784 2572 623 2826 
Q 463 3081 463 3397 
Q 463 3744 659 4045 
Q 856 4347 1234 4503 
Q 1613 4659 2075 4659 
Q 2584 4659 2973 4495 
Q 3363 4331 3572 4012 
Q 3781 3694 3797 3291 
L 3216 3247 
Q 3169 3681 2898 3903 
Q 2628 4125 2100 4125 
Q 1550 4125 1298 3923 
Q 1047 3722 1047 3438 
Q 1047 3191 1225 3031 
Q 1400 2872 2139 2705 
Q 2878 2538 3153 2413 
Q 3553 2228 3743 1945 
Q 3934 1663 3934 1294 
Q 3934 928 3725 604 
Q 3516 281 3123 101 
Q 2731 -78 2241 -78 
Q 1619 -78 1198 103 
Q 778 284 539 648 
Q 300 1013 288 1472 
z
" transform="scale(0.015625)"/>
       <path id="ArialMT-75" d="M 2597 0 
L 2597 488 
Q 2209 -75 1544 -75 
Q 1250 -75 995 37 
Q 741 150 617 320 
Q 494 491 444 738 
Q 409 903 409 1263 
L 409 3319 
L 972 3319 
L 972 1478 
Q 972 1038 1006 884 
Q 1059 663 1231 536 
Q 1403 409 1656 409 
Q 1909 409 2131 539 
Q 2353 669 2445 892 
Q 2538 1116 2538 1541 
L 2538 3319 
L 3100 3319 
L 3100 0 
L 2597 0 
z
" transform="scale(0.015625)"/>
       <path id="ArialMT-62" d="M 941 0 
L 419 0 
L 419 4581 
L 981 4581 
L 981 2947 
Q 1338 3394 1891 3394 
Q 2197 3394 2470 3270 
Q 2744 3147 2920 2923 
Q 3097 2700 3197 2384 
Q 3297 2069 3297 1709 
Q 3297 856 2875 390 
Q 2453 -75 1863 -75 
Q 1275 -75 941 416 
L 941 0 
z
M 934 1684 
Q 934 1088 1097 822 
Q 1363 388 1816 388 
Q 2184 388 2453 708 
Q 2722 1028 2722 1663 
Q 2722 2313 2464 2622 
Q 2206 2931 1841 2931 
Q 1472 2931 1203 2611 
Q 934 2291 934 1684 
z
" transform="scale(0.015625)"/>
       <path id="ArialMT-6a" d="M 419 3928 
L 419 4581 
L 981 4581 
L 981 3928 
L 419 3928 
z
M -294 -1288 
L -188 -809 
Q -19 -853 78 -853 
Q 250 -853 334 -739 
Q 419 -625 419 -169 
L 419 3319 
L 981 3319 
L 981 -181 
Q 981 -794 822 -1034 
Q 619 -1347 147 -1347 
Q -81 -1347 -294 -1288 
z
" transform="scale(0.015625)"/>
       <path id="ArialMT-65" d="M 2694 1069 
L 3275 997 
Q 3138 488 2766 206 
Q 2394 -75 1816 -75 
Q 1088 -75 661 373 
Q 234 822 234 1631 
Q 234 2469 665 2931 
Q 1097 3394 1784 3394 
Q 2450 3394 2872 2941 
Q 3294 2488 3294 1666 
Q 3294 1616 3291 1516 
L 816 1516 
Q 847 969 1125 678 
Q 1403 388 1819 388 
Q 2128 388 2347 550 
Q 2566 713 2694 1069 
z
M 847 1978 
L 2700 1978 
Q 2663 2397 2488 2606 
Q 2219 2931 1791 2931 
Q 1403 2931 1139 2672 
Q 875 2413 847 1978 
z
" transform="scale(0.015625)"/>
       <path id="ArialMT-63" d="M 2588 1216 
L 3141 1144 
Q 3050 572 2676 248 
Q 2303 -75 1759 -75 
Q 1078 -75 664 370 
Q 250 816 250 1647 
Q 250 2184 428 2587 
Q 606 2991 970 3192 
Q 1334 3394 1763 3394 
Q 2303 3394 2647 3120 
Q 2991 2847 3088 2344 
L 2541 2259 
Q 2463 2594 2264 2762 
Q 2066 2931 1784 2931 
Q 1359 2931 1093 2626 
Q 828 2322 828 1663 
Q 828 994 1084 691 
Q 1341 388 1753 388 
Q 2084 388 2306 591 
Q 2528 794 2588 1216 
z
" transform="scale(0.015625)"/>
       <path id="ArialMT-74" d="M 1650 503 
L 1731 6 
Q 1494 -44 1306 -44 
Q 1000 -44 831 53 
Q 663 150 594 308 
Q 525 466 525 972 
L 525 2881 
L 113 2881 
L 113 3319 
L 525 3319 
L 525 4141 
L 1084 4478 
L 1084 3319 
L 1650 3319 
L 1650 2881 
L 1084 2881 
L 1084 941 
Q 1084 700 1114 631 
Q 1144 563 1211 522 
Q 1278 481 1403 481 
Q 1497 481 1650 503 
z
" transform="scale(0.015625)"/>
       <path id="ArialMT-69" d="M 425 3934 
L 425 4581 
L 988 4581 
L 988 3934 
L 425 3934 
z
M 425 0 
L 425 3319 
L 988 3319 
L 988 0 
L 425 0 
z
" transform="scale(0.015625)"/>
       <path id="ArialMT-76" d="M 1344 0 
L 81 3319 
L 675 3319 
L 1388 1331 
Q 1503 1009 1600 663 
Q 1675 925 1809 1294 
L 2547 3319 
L 3125 3319 
L 1869 0 
L 1344 0 
z
" transform="scale(0.015625)"/>
       <path id="ArialMT-79" d="M 397 -1278 
L 334 -750 
Q 519 -800 656 -800 
Q 844 -800 956 -737 
Q 1069 -675 1141 -563 
Q 1194 -478 1313 -144 
Q 1328 -97 1363 -6 
L 103 3319 
L 709 3319 
L 1400 1397 
Q 1534 1031 1641 628 
Q 1738 1016 1872 1384 
L 2581 3319 
L 3144 3319 
L 1881 -56 
Q 1678 -603 1566 -809 
Q 1416 -1088 1222 -1217 
Q 1028 -1347 759 -1347 
Q 597 -1347 397 -1278 
z
" transform="scale(0.015625)"/>
      </defs>
      <use xlink:href="#ArialMT-53"/>
      <use xlink:href="#ArialMT-75" transform="translate(66.699219 0)"/>
      <use xlink:href="#ArialMT-62" transform="translate(122.314453 0)"/>
      <use xlink:href="#ArialMT-6a" transform="translate(177.929688 0)"/>
      <use xlink:href="#ArialMT-65" transform="translate(200.146484 0)"/>
      <use xlink:href="#ArialMT-63" transform="translate(255.761719 0)"/>
      <use xlink:href="#ArialMT-74" transform="translate(305.761719 0)"/>
      <use xlink:href="#ArialMT-69" transform="translate(333.544922 0)"/>
      <use xlink:href="#ArialMT-76" transform="translate(355.761719 0)"/>
      <use xlink:href="#ArialMT-69" transform="translate(405.761719 0)"/>
      <use xlink:href="#ArialMT-74" transform="translate(427.978516 0)"/>
      <use xlink:href="#ArialMT-79" transform="translate(455.761719 0)"/>
     </g>
    </g>
   </g>
   <g id="matplotlib.axis_2">
    <g id="ytick_1">
     <g id="text_8">
      <!-- 0 -->
      <g style="fill: #262626" transform="translate(22.315 310.819922) scale(0.11 -0.11)">
       <use xlink:href="#ArialMT-30"/>
      </g>
     </g>
    </g>
    <g id="ytick_2">
     <g id="text_9">
      <!-- 1 -->
      <g style="fill: #262626" transform="translate(22.315 262.449181) scale(0.11 -0.11)">
       <use xlink:href="#ArialMT-31"/>
      </g>
     </g>
    </g>
    <g id="ytick_3">
     <g id="text_10">
      <!-- 2 -->
      <g style="fill: #262626" transform="translate(22.315 214.07844) scale(0.11 -0.11)">
       <use xlink:href="#ArialMT-32"/>
      </g>
     </g>
    </g>
    <g id="ytick_4">
     <g id="text_11">
      <!-- 3 -->
      <g style="fill: #262626" transform="translate(22.315 165.7077) scale(0.11 -0.11)">
       <defs>
        <path id="ArialMT-33" d="M 269 1209 
L 831 1284 
Q 928 806 1161 595 
Q 1394 384 1728 384 
Q 2125 384 2398 659 
Q 2672 934 2672 1341 
Q 2672 1728 2419 1979 
Q 2166 2231 1775 2231 
Q 1616 2231 1378 2169 
L 1441 2663 
Q 1497 2656 1531 2656 
Q 1891 2656 2178 2843 
Q 2466 3031 2466 3422 
Q 2466 3731 2256 3934 
Q 2047 4138 1716 4138 
Q 1388 4138 1169 3931 
Q 950 3725 888 3313 
L 325 3413 
Q 428 3978 793 4289 
Q 1159 4600 1703 4600 
Q 2078 4600 2393 4439 
Q 2709 4278 2876 4000 
Q 3044 3722 3044 3409 
Q 3044 3113 2884 2869 
Q 2725 2625 2413 2481 
Q 2819 2388 3044 2092 
Q 3269 1797 3269 1353 
Q 3269 753 2831 336 
Q 2394 -81 1725 -81 
Q 1122 -81 723 278 
Q 325 638 269 1209 
z
" transform="scale(0.015625)"/>
       </defs>
       <use xlink:href="#ArialMT-33"/>
      </g>
     </g>
    </g>
    <g id="ytick_5">
     <g id="text_12">
      <!-- 4 -->
      <g style="fill: #262626" transform="translate(22.315 117.336959) scale(0.11 -0.11)">
       <use xlink:href="#ArialMT-34"/>
      </g>
     </g>
    </g>
    <g id="ytick_6">
     <g id="text_13">
      <!-- 5 -->
      <g style="fill: #262626" transform="translate(22.315 68.966218) scale(0.11 -0.11)">
       <defs>
        <path id="ArialMT-35" d="M 266 1200 
L 856 1250 
Q 922 819 1161 601 
Q 1400 384 1738 384 
Q 2144 384 2425 690 
Q 2706 997 2706 1503 
Q 2706 1984 2436 2262 
Q 2166 2541 1728 2541 
Q 1456 2541 1237 2417 
Q 1019 2294 894 2097 
L 366 2166 
L 809 4519 
L 3088 4519 
L 3088 3981 
L 1259 3981 
L 1013 2750 
Q 1425 3038 1878 3038 
Q 2478 3038 2890 2622 
Q 3303 2206 3303 1553 
Q 3303 931 2941 478 
Q 2500 -78 1738 -78 
Q 1113 -78 717 272 
Q 322 622 266 1200 
z
" transform="scale(0.015625)"/>
       </defs>
       <use xlink:href="#ArialMT-35"/>
      </g>
     </g>
    </g>
    <g id="text_14">
     <!-- Density -->
     <g style="fill: #262626" transform="translate(15.789375 184.415625) rotate(-90) scale(0.12 -0.12)">
      <defs>
       <path id="ArialMT-44" d="M 494 0 
L 494 4581 
L 2072 4581 
Q 2606 4581 2888 4516 
Q 3281 4425 3559 4188 
Q 3922 3881 4101 3404 
Q 4281 2928 4281 2316 
Q 4281 1794 4159 1391 
Q 4038 988 3847 723 
Q 3656 459 3429 307 
Q 3203 156 2883 78 
Q 2563 0 2147 0 
L 494 0 
z
M 1100 541 
L 2078 541 
Q 2531 541 2789 625 
Q 3047 709 3200 863 
Q 3416 1078 3536 1442 
Q 3656 1806 3656 2325 
Q 3656 3044 3420 3430 
Q 3184 3816 2847 3947 
Q 2603 4041 2063 4041 
L 1100 4041 
L 1100 541 
z
" transform="scale(0.015625)"/>
       <path id="ArialMT-6e" d="M 422 0 
L 422 3319 
L 928 3319 
L 928 2847 
Q 1294 3394 1984 3394 
Q 2284 3394 2536 3286 
Q 2788 3178 2913 3003 
Q 3038 2828 3088 2588 
Q 3119 2431 3119 2041 
L 3119 0 
L 2556 0 
L 2556 2019 
Q 2556 2363 2490 2533 
Q 2425 2703 2258 2804 
Q 2091 2906 1866 2906 
Q 1506 2906 1245 2678 
Q 984 2450 984 1813 
L 984 0 
L 422 0 
z
" transform="scale(0.015625)"/>
       <path id="ArialMT-73" d="M 197 991 
L 753 1078 
Q 800 744 1014 566 
Q 1228 388 1613 388 
Q 2000 388 2187 545 
Q 2375 703 2375 916 
Q 2375 1106 2209 1216 
Q 2094 1291 1634 1406 
Q 1016 1563 777 1677 
Q 538 1791 414 1992 
Q 291 2194 291 2438 
Q 291 2659 392 2848 
Q 494 3038 669 3163 
Q 800 3259 1026 3326 
Q 1253 3394 1513 3394 
Q 1903 3394 2198 3281 
Q 2494 3169 2634 2976 
Q 2775 2784 2828 2463 
L 2278 2388 
Q 2241 2644 2061 2787 
Q 1881 2931 1553 2931 
Q 1166 2931 1000 2803 
Q 834 2675 834 2503 
Q 834 2394 903 2306 
Q 972 2216 1119 2156 
Q 1203 2125 1616 2013 
Q 2213 1853 2448 1751 
Q 2684 1650 2818 1456 
Q 2953 1263 2953 975 
Q 2953 694 2789 445 
Q 2625 197 2315 61 
Q 2006 -75 1616 -75 
Q 969 -75 630 194 
Q 291 463 197 991 
z
" transform="scale(0.015625)"/>
      </defs>
      <use xlink:href="#ArialMT-44"/>
      <use xlink:href="#ArialMT-65" transform="translate(72.216797 0)"/>
      <use xlink:href="#ArialMT-6e" transform="translate(127.832031 0)"/>
      <use xlink:href="#ArialMT-73" transform="translate(183.447266 0)"/>
      <use xlink:href="#ArialMT-69" transform="translate(233.447266 0)"/>
      <use xlink:href="#ArialMT-74" transform="translate(255.664062 0)"/>
      <use xlink:href="#ArialMT-79" transform="translate(283.447266 0)"/>
     </g>
    </g>
   </g>
   <g id="FillBetweenPolyCollection_1">
    <defs>
     <path id="m76f5ec8fb3" d="M 78.86716 -45.00343 
L 78.86716 -42.021094 
L 81.790444 -42.021094 
L 84.713727 -42.021094 
L 87.637011 -42.021094 
L 90.560295 -42.021094 
L 93.483579 -42.021094 
L 96.406863 -42.021094 
L 99.330147 -42.021094 
L 102.253431 -42.021094 
L 105.176715 -42.021094 
L 108.099999 -42.021094 
L 111.023282 -42.021094 
L 113.946566 -42.021094 
L 116.86985 -42.021094 
L 119.793134 -42.021094 
L 122.716418 -42.021094 
L 125.639702 -42.021094 
L 128.562986 -42.021094 
L 131.48627 -42.021094 
L 134.409554 -42.021094 
L 137.332837 -42.021094 
L 140.256121 -42.021094 
L 143.179405 -42.021094 
L 146.102689 -42.021094 
L 149.025973 -42.021094 
L 151.949257 -42.021094 
L 154.872541 -42.021094 
L 157.795825 -42.021094 
L 160.719108 -42.021094 
L 163.642392 -42.021094 
L 166.565676 -42.021094 
L 169.48896 -42.021094 
L 172.412244 -42.021094 
L 175.335528 -42.021094 
L 178.258812 -42.021094 
L 181.182096 -42.021094 
L 184.10538 -42.021094 
L 187.028663 -42.021094 
L 189.951947 -42.021094 
L 192.875231 -42.021094 
L 195.798515 -42.021094 
L 198.721799 -42.021094 
L 201.645083 -42.021094 
L 204.568367 -42.021094 
L 207.491651 -42.021094 
L 210.414935 -42.021094 
L 213.338218 -42.021094 
L 216.261502 -42.021094 
L 219.184786 -42.021094 
L 222.10807 -42.021094 
L 225.031354 -42.021094 
L 227.954638 -42.021094 
L 230.877922 -42.021094 
L 233.801206 -42.021094 
L 236.724489 -42.021094 
L 239.647773 -42.021094 
L 242.571057 -42.021094 
L 245.494341 -42.021094 
L 248.417625 -42.021094 
L 251.340909 -42.021094 
L 254.264193 -42.021094 
L 257.187477 -42.021094 
L 260.110761 -42.021094 
L 263.034044 -42.021094 
L 265.957328 -42.021094 
L 268.880612 -42.021094 
L 271.803896 -42.021094 
L 274.72718 -42.021094 
L 277.650464 -42.021094 
L 280.573748 -42.021094 
L 283.497032 -42.021094 
L 286.420316 -42.021094 
L 289.343599 -42.021094 
L 292.266883 -42.021094 
L 295.190167 -42.021094 
L 298.113451 -42.021094 
L 301.036735 -42.021094 
L 303.960019 -42.021094 
L 306.883303 -42.021094 
L 309.806587 -42.021094 
L 312.72987 -42.021094 
L 315.653154 -42.021094 
L 318.576438 -42.021094 
L 321.499722 -42.021094 
L 324.423006 -42.021094 
L 327.34629 -42.021094 
L 330.269574 -42.021094 
L 333.192858 -42.021094 
L 336.116142 -42.021094 
L 339.039425 -42.021094 
L 341.962709 -42.021094 
L 344.885993 -42.021094 
L 347.809277 -42.021094 
L 350.732561 -42.021094 
L 353.655845 -42.021094 
L 356.579129 -42.021094 
L 359.502413 -42.021094 
L 362.425697 -42.021094 
L 365.34898 -42.021094 
L 368.272264 -42.021094 
L 371.195548 -42.021094 
L 374.118832 -42.021094 
L 377.042116 -42.021094 
L 379.9654 -42.021094 
L 382.888684 -42.021094 
L 385.811968 -42.021094 
L 388.735252 -42.021094 
L 391.658535 -42.021094 
L 394.581819 -42.021094 
L 397.505103 -42.021094 
L 400.428387 -42.021094 
L 403.351671 -42.021094 
L 406.274955 -42.021094 
L 409.198239 -42.021094 
L 412.121523 -42.021094 
L 415.044806 -42.021094 
L 417.96809 -42.021094 
L 420.891374 -42.021094 
L 423.814658 -42.021094 
L 426.737942 -42.021094 
L 429.661226 -42.021094 
L 432.58451 -42.021094 
L 435.507794 -42.021094 
L 438.431078 -42.021094 
L 441.354361 -42.021094 
L 444.277645 -42.021094 
L 447.200929 -42.021094 
L 450.124213 -42.021094 
L 453.047497 -42.021094 
L 455.970781 -42.021094 
L 458.894065 -42.021094 
L 461.817349 -42.021094 
L 464.740633 -42.021094 
L 467.663916 -42.021094 
L 470.5872 -42.021094 
L 473.510484 -42.021094 
L 476.433768 -42.021094 
L 479.357052 -42.021094 
L 482.280336 -42.021094 
L 485.20362 -42.021094 
L 488.126904 -42.021094 
L 491.050187 -42.021094 
L 493.973471 -42.021094 
L 496.896755 -42.021094 
L 499.820039 -42.021094 
L 502.743323 -42.021094 
L 505.666607 -42.021094 
L 508.589891 -42.021094 
L 511.513175 -42.021094 
L 514.436459 -42.021094 
L 517.359742 -42.021094 
L 520.283026 -42.021094 
L 523.20631 -42.021094 
L 526.129594 -42.021094 
L 529.052878 -42.021094 
L 531.976162 -42.021094 
L 534.899446 -42.021094 
L 537.82273 -42.021094 
L 540.746014 -42.021094 
L 543.669297 -42.021094 
L 546.592581 -42.021094 
L 549.515865 -42.021094 
L 552.439149 -42.021094 
L 555.362433 -42.021094 
L 558.285717 -42.021094 
L 561.209001 -42.021094 
L 564.132285 -42.021094 
L 567.055568 -42.021094 
L 569.978852 -42.021094 
L 572.902136 -42.021094 
L 575.82542 -42.021094 
L 578.748704 -42.021094 
L 581.671988 -42.021094 
L 584.595272 -42.021094 
L 587.518556 -42.021094 
L 590.44184 -42.021094 
L 593.365123 -42.021094 
L 596.288407 -42.021094 
L 599.211691 -42.021094 
L 602.134975 -42.021094 
L 605.058259 -42.021094 
L 607.981543 -42.021094 
L 610.904827 -42.021094 
L 613.828111 -42.021094 
L 616.751395 -42.021094 
L 619.674678 -42.021094 
L 622.597962 -42.021094 
L 625.521246 -42.021094 
L 628.44453 -42.021094 
L 631.367814 -42.021094 
L 634.291098 -42.021094 
L 637.214382 -42.021094 
L 640.137666 -42.021094 
L 643.060949 -42.021094 
L 645.984233 -42.021094 
L 648.907517 -42.021094 
L 651.830801 -42.021094 
L 654.754085 -42.021094 
L 657.677369 -42.021094 
L 660.600653 -42.021094 
L 660.600653 -42.196201 
L 660.600653 -42.196201 
L 657.677369 -42.314374 
L 654.754085 -42.497139 
L 651.830801 -42.769959 
L 648.907517 -43.162796 
L 645.984233 -43.708036 
L 643.060949 -44.436844 
L 640.137666 -45.37396 
L 637.214382 -46.531377 
L 634.291098 -47.901794 
L 631.367814 -49.453191 
L 628.44453 -51.126036 
L 625.521246 -52.834515 
L 622.597962 -54.472553 
L 619.674678 -55.92449 
L 616.751395 -57.079158 
L 613.828111 -57.845104 
L 610.904827 -58.164193 
L 607.981543 -58.020877 
L 605.058259 -57.445211 
L 602.134975 -56.508912 
L 599.211691 -55.315217 
L 596.288407 -53.9845 
L 593.365123 -52.638309 
L 590.44184 -51.38457 
L 587.518556 -50.306177 
L 584.595272 -49.454298 
L 581.671988 -48.846767 
L 578.748704 -48.471042 
L 575.82542 -48.290653 
L 572.902136 -48.253789 
L 569.978852 -48.302576 
L 567.055568 -48.381796 
L 564.132285 -48.445962 
L 561.209001 -48.464006 
L 558.285717 -48.421198 
L 555.362433 -48.318336 
L 552.439149 -48.168651 
L 549.515865 -47.993232 
L 546.592581 -47.81596 
L 543.669297 -47.658932 
L 540.746014 -47.539158 
L 537.82273 -47.466969 
L 534.899446 -47.446169 
L 531.976162 -47.475598 
L 529.052878 -47.551552 
L 526.129594 -47.670387 
L 523.20631 -47.830709 
L 520.283026 -48.034689 
L 517.359742 -48.288241 
L 514.436459 -48.600033 
L 511.513175 -48.979519 
L 508.589891 -49.434336 
L 505.666607 -49.967564 
L 502.743323 -50.5754 
L 499.820039 -51.245743 
L 496.896755 -51.958082 
L 493.973471 -52.684808 
L 491.050187 -53.393823 
L 488.126904 -54.052038 
L 485.20362 -54.629159 
L 482.280336 -55.101106 
L 479.357052 -55.452516 
L 476.433768 -55.677948 
L 473.510484 -55.781738 
L 470.5872 -55.77668 
L 467.663916 -55.681926 
L 464.740633 -55.520586 
L 461.817349 -55.317471 
L 458.894065 -55.097281 
L 455.970781 -54.883377 
L 453.047497 -54.697066 
L 450.124213 -54.557213 
L 447.200929 -54.479924 
L 444.277645 -54.478111 
L 441.354361 -54.560844 
L 438.431078 -54.73262 
L 435.507794 -54.992771 
L 432.58451 -55.335394 
L 429.661226 -55.750132 
L 426.737942 -56.224026 
L 423.814658 -56.744421 
L 420.891374 -57.302673 
L 417.96809 -57.898177 
L 415.044806 -58.542072 
L 412.121523 -59.260018 
L 409.198239 -60.09349 
L 406.274955 -61.099223 
L 403.351671 -62.346682 
L 400.428387 -63.913643 
L 397.505103 -65.880232 
L 394.581819 -68.321968 
L 391.658535 -71.302519 
L 388.735252 -74.866894 
L 385.811968 -79.035656 
L 382.888684 -83.800395 
L 379.9654 -89.120287 
L 377.042116 -94.919231 
L 374.118832 -101.083077 
L 371.195548 -107.456927 
L 368.272264 -113.843441 
L 365.34898 -120.00411 
L 362.425697 -125.666093 
L 359.502413 -130.536969 
L 356.579129 -134.328256 
L 353.655845 -136.786081 
L 350.732561 -137.724601 
L 347.809277 -137.055693 
L 344.885993 -134.807909 
L 341.962709 -131.129329 
L 339.039425 -126.272286 
L 336.116142 -120.562236 
L 333.192858 -114.356849 
L 330.269574 -108.003553 
L 327.34629 -101.803716 
L 324.423006 -95.989362 
L 321.499722 -90.714796 
L 318.576438 -86.061753 
L 315.653154 -82.053899 
L 312.72987 -78.675302 
L 309.806587 -75.887864 
L 306.883303 -73.644363 
L 303.960019 -71.8958 
L 301.036735 -70.593665 
L 298.113451 -69.688886 
L 295.190167 -69.129603 
L 292.266883 -68.859573 
L 289.343599 -68.818275 
L 286.420316 -68.942959 
L 283.497032 -69.172245 
L 280.573748 -69.450449 
L 277.650464 -69.731697 
L 274.72718 -69.982955 
L 271.803896 -70.185331 
L 268.880612 -70.333312 
L 265.957328 -70.43198 
L 263.034044 -70.49262 
L 260.110761 -70.52745 
L 257.187477 -70.544442 
L 254.264193 -70.543198 
L 251.340909 -70.512705 
L 248.417625 -70.43145 
L 245.494341 -70.269906 
L 242.571057 -69.995015 
L 239.647773 -69.575879 
L 236.724489 -68.98976 
L 233.801206 -68.227417 
L 230.877922 -67.296978 
L 227.954638 -66.225778 
L 225.031354 -65.059884 
L 222.10807 -63.861293 
L 219.184786 -62.703073 
L 216.261502 -61.662932 
L 213.338218 -60.815839 
L 210.414935 -60.226436 
L 207.491651 -59.942047 
L 204.568367 -59.987078 
L 201.645083 -60.359607 
L 198.721799 -61.030928 
L 195.798515 -61.948753 
L 192.875231 -63.04463 
L 189.951947 -64.245928 
L 187.028663 -65.492344 
L 184.10538 -66.756362 
L 181.182096 -68.066392 
L 178.258812 -69.53044 
L 175.335528 -71.357113 
L 172.412244 -73.869699 
L 169.48896 -77.507982 
L 166.565676 -82.811955 
L 163.642392 -90.381995 
L 160.719108 -100.812166 
L 157.795825 -114.59755 
L 154.872541 -132.022806 
L 151.949257 -153.046684 
L 149.025973 -177.204096 
L 146.102689 -203.55108 
L 143.179405 -230.676116 
L 140.256121 -256.792441 
L 137.332837 -279.910865 
L 134.409554 -298.074027 
L 131.48627 -309.615878 
L 128.562986 -313.399665 
L 125.639702 -308.987759 
L 122.716418 -296.708396 
L 119.793134 -277.605329 
L 116.86985 -253.281113 
L 113.946566 -225.666571 
L 111.023282 -196.762276 
L 108.099999 -168.399581 
L 105.176715 -142.059414 
L 102.253431 -118.770335 
L 99.330147 -99.088433 
L 96.406863 -83.145582 
L 93.483579 -70.742641 
L 90.560295 -61.461524 
L 87.637011 -54.773488 
L 84.713727 -50.12815 
L 81.790444 -47.0159 
L 78.86716 -45.00343 
z
" style="stroke: #fc8d62"/>
    </defs>
    <g clip-path="url(#p2ea8176415)">
     <use xlink:href="#m76f5ec8fb3" x="0" y="348.904219" style="fill: #fc8d62; fill-opacity: 0.5; stroke: #fc8d62"/>
    </g>
   </g>
   <g id="FillBetweenPolyCollection_2">
    <defs>
     <path id="m1d9cd10c26" d="M 68.095838 -43.991151 
L 68.095838 -42.021094 
L 71.127376 -42.021094 
L 74.158915 -42.021094 
L 77.190453 -42.021094 
L 80.221992 -42.021094 
L 83.25353 -42.021094 
L 86.285068 -42.021094 
L 89.316607 -42.021094 
L 92.348145 -42.021094 
L 95.379683 -42.021094 
L 98.411222 -42.021094 
L 101.44276 -42.021094 
L 104.474299 -42.021094 
L 107.505837 -42.021094 
L 110.537375 -42.021094 
L 113.568914 -42.021094 
L 116.600452 -42.021094 
L 119.63199 -42.021094 
L 122.663529 -42.021094 
L 125.695067 -42.021094 
L 128.726606 -42.021094 
L 131.758144 -42.021094 
L 134.789682 -42.021094 
L 137.821221 -42.021094 
L 140.852759 -42.021094 
L 143.884297 -42.021094 
L 146.915836 -42.021094 
L 149.947374 -42.021094 
L 152.978913 -42.021094 
L 156.010451 -42.021094 
L 159.041989 -42.021094 
L 162.073528 -42.021094 
L 165.105066 -42.021094 
L 168.136604 -42.021094 
L 171.168143 -42.021094 
L 174.199681 -42.021094 
L 177.23122 -42.021094 
L 180.262758 -42.021094 
L 183.294296 -42.021094 
L 186.325835 -42.021094 
L 189.357373 -42.021094 
L 192.388911 -42.021094 
L 195.42045 -42.021094 
L 198.451988 -42.021094 
L 201.483527 -42.021094 
L 204.515065 -42.021094 
L 207.546603 -42.021094 
L 210.578142 -42.021094 
L 213.60968 -42.021094 
L 216.641218 -42.021094 
L 219.672757 -42.021094 
L 222.704295 -42.021094 
L 225.735833 -42.021094 
L 228.767372 -42.021094 
L 231.79891 -42.021094 
L 234.830449 -42.021094 
L 237.861987 -42.021094 
L 240.893525 -42.021094 
L 243.925064 -42.021094 
L 246.956602 -42.021094 
L 249.98814 -42.021094 
L 253.019679 -42.021094 
L 256.051217 -42.021094 
L 259.082756 -42.021094 
L 262.114294 -42.021094 
L 265.145832 -42.021094 
L 268.177371 -42.021094 
L 271.208909 -42.021094 
L 274.240447 -42.021094 
L 277.271986 -42.021094 
L 280.303524 -42.021094 
L 283.335063 -42.021094 
L 286.366601 -42.021094 
L 289.398139 -42.021094 
L 292.429678 -42.021094 
L 295.461216 -42.021094 
L 298.492754 -42.021094 
L 301.524293 -42.021094 
L 304.555831 -42.021094 
L 307.58737 -42.021094 
L 310.618908 -42.021094 
L 313.650446 -42.021094 
L 316.681985 -42.021094 
L 319.713523 -42.021094 
L 322.745061 -42.021094 
L 325.7766 -42.021094 
L 328.808138 -42.021094 
L 331.839677 -42.021094 
L 334.871215 -42.021094 
L 337.902753 -42.021094 
L 340.934292 -42.021094 
L 343.96583 -42.021094 
L 346.997368 -42.021094 
L 350.028907 -42.021094 
L 353.060445 -42.021094 
L 356.091984 -42.021094 
L 359.123522 -42.021094 
L 362.15506 -42.021094 
L 365.186599 -42.021094 
L 368.218137 -42.021094 
L 371.249675 -42.021094 
L 374.281214 -42.021094 
L 377.312752 -42.021094 
L 380.344291 -42.021094 
L 383.375829 -42.021094 
L 386.407367 -42.021094 
L 389.438906 -42.021094 
L 392.470444 -42.021094 
L 395.501982 -42.021094 
L 398.533521 -42.021094 
L 401.565059 -42.021094 
L 404.596598 -42.021094 
L 407.628136 -42.021094 
L 410.659674 -42.021094 
L 413.691213 -42.021094 
L 416.722751 -42.021094 
L 419.754289 -42.021094 
L 422.785828 -42.021094 
L 425.817366 -42.021094 
L 428.848905 -42.021094 
L 431.880443 -42.021094 
L 434.911981 -42.021094 
L 437.94352 -42.021094 
L 440.975058 -42.021094 
L 444.006596 -42.021094 
L 447.038135 -42.021094 
L 450.069673 -42.021094 
L 453.101212 -42.021094 
L 456.13275 -42.021094 
L 459.164288 -42.021094 
L 462.195827 -42.021094 
L 465.227365 -42.021094 
L 468.258903 -42.021094 
L 471.290442 -42.021094 
L 474.32198 -42.021094 
L 477.353519 -42.021094 
L 480.385057 -42.021094 
L 483.416595 -42.021094 
L 486.448134 -42.021094 
L 489.479672 -42.021094 
L 492.51121 -42.021094 
L 495.542749 -42.021094 
L 498.574287 -42.021094 
L 501.605826 -42.021094 
L 504.637364 -42.021094 
L 507.668902 -42.021094 
L 510.700441 -42.021094 
L 513.731979 -42.021094 
L 516.763517 -42.021094 
L 519.795056 -42.021094 
L 522.826594 -42.021094 
L 525.858132 -42.021094 
L 528.889671 -42.021094 
L 531.921209 -42.021094 
L 534.952748 -42.021094 
L 537.984286 -42.021094 
L 541.015824 -42.021094 
L 544.047363 -42.021094 
L 547.078901 -42.021094 
L 550.110439 -42.021094 
L 553.141978 -42.021094 
L 556.173516 -42.021094 
L 559.205055 -42.021094 
L 562.236593 -42.021094 
L 565.268131 -42.021094 
L 568.29967 -42.021094 
L 571.331208 -42.021094 
L 574.362746 -42.021094 
L 577.394285 -42.021094 
L 580.425823 -42.021094 
L 583.457362 -42.021094 
L 586.4889 -42.021094 
L 589.520438 -42.021094 
L 592.551977 -42.021094 
L 595.583515 -42.021094 
L 598.615053 -42.021094 
L 601.646592 -42.021094 
L 604.67813 -42.021094 
L 607.709669 -42.021094 
L 610.741207 -42.021094 
L 613.772745 -42.021094 
L 616.804284 -42.021094 
L 619.835822 -42.021094 
L 622.86736 -42.021094 
L 625.898899 -42.021094 
L 628.930437 -42.021094 
L 631.961976 -42.021094 
L 634.993514 -42.021094 
L 638.025052 -42.021094 
L 641.056591 -42.021094 
L 644.088129 -42.021094 
L 647.119667 -42.021094 
L 650.151206 -42.021094 
L 653.182744 -42.021094 
L 656.214283 -42.021094 
L 659.245821 -42.021094 
L 662.277359 -42.021094 
L 665.308898 -42.021094 
L 668.340436 -42.021094 
L 671.371974 -42.021094 
L 671.371974 -42.4251 
L 671.371974 -42.4251 
L 668.340436 -42.649315 
L 665.308898 -42.976033 
L 662.277359 -43.440088 
L 659.245821 -44.082351 
L 656.214283 -44.948188 
L 653.182744 -46.084602 
L 650.151206 -47.535955 
L 647.119667 -49.338352 
L 644.088129 -51.513068 
L 641.056591 -54.059715 
L 638.025052 -56.950122 
L 634.993514 -60.124058 
L 631.961976 -63.487942 
L 628.930437 -66.917431 
L 625.898899 -70.26431 
L 622.86736 -73.367456 
L 619.835822 -76.066929 
L 616.804284 -78.219581 
L 613.772745 -79.714106 
L 610.741207 -80.483389 
L 607.709669 -80.512229 
L 604.67813 -79.839192 
L 601.646592 -78.552203 
L 598.615053 -76.778482 
L 595.583515 -74.670262 
L 592.551977 -72.388379 
L 589.520438 -70.086 
L 586.4889 -67.894649 
L 583.457362 -65.914169 
L 580.425823 -64.207529 
L 577.394285 -62.800635 
L 574.362746 -61.686524 
L 571.331208 -60.832813 
L 568.29967 -60.190949 
L 565.268131 -59.705766 
L 562.236593 -59.324039 
L 559.205055 -59.001067 
L 556.173516 -58.704771 
L 553.141978 -58.417219 
L 550.110439 -58.133888 
L 547.078901 -57.861247 
L 544.047363 -57.613362 
L 541.015824 -57.408248 
L 537.984286 -57.264551 
L 534.952748 -57.198969 
L 531.921209 -57.224589 
L 528.889671 -57.350117 
L 525.858132 -57.579826 
L 522.826594 -57.913962 
L 519.795056 -58.349336 
L 516.763517 -58.879894 
L 513.731979 -59.49712 
L 510.700441 -60.190276 
L 507.668902 -60.9465 
L 504.637364 -61.7509 
L 501.605826 -62.586735 
L 498.574287 -63.435793 
L 495.542749 -64.278979 
L 492.51121 -65.097119 
L 489.479672 -65.871881 
L 486.448134 -66.586748 
L 483.416595 -67.227924 
L 480.385057 -67.7851 
L 477.353519 -68.252036 
L 474.32198 -68.62691 
L 471.290442 -68.91243 
L 468.258903 -69.115709 
L 465.227365 -69.247868 
L 462.195827 -69.323396 
L 459.164288 -69.359246 
L 456.13275 -69.373717 
L 453.101212 -69.385187 
L 450.069673 -69.410804 
L 447.038135 -69.465294 
L 444.006596 -69.560034 
L 440.975058 -69.702552 
L 437.94352 -69.896586 
L 434.911981 -70.14273 
L 431.880443 -70.439654 
L 428.848905 -70.785761 
L 425.817366 -71.181058 
L 422.785828 -71.62894 
L 419.754289 -72.137557 
L 416.722751 -72.720442 
L 413.691213 -73.396122 
L 410.659674 -74.186595 
L 407.628136 -75.114661 
L 404.596598 -76.200339 
L 401.565059 -77.456751 
L 398.533521 -78.886034 
L 395.501982 -80.475927 
L 392.470444 -82.197675 
L 389.438906 -84.005795 
L 386.407367 -85.840019 
L 383.375829 -87.629409 
L 380.344291 -89.298308 
L 377.312752 -90.773431 
L 374.281214 -91.99116 
L 371.249675 -92.903997 
L 368.218137 -93.485217 
L 365.186599 -93.73099 
L 362.15506 -93.659668 
L 359.123522 -93.30835 
L 356.091984 -92.72732 
L 353.060445 -91.973219 
L 350.028907 -91.102038 
L 346.997368 -90.162941 
L 343.96583 -89.193753 
L 340.934292 -88.218636 
L 337.902753 -87.24808 
L 334.871215 -86.280987 
L 331.839677 -85.308337 
L 328.808138 -84.317711 
L 325.7766 -83.297908 
L 322.745061 -82.242921 
L 319.713523 -81.154701 
L 316.681985 -80.044335 
L 313.650446 -78.931558 
L 310.618908 -77.84273 
L 307.58737 -76.807658 
L 304.555831 -75.855787 
L 301.524293 -75.012344 
L 298.492754 -74.295009 
L 295.461216 -73.711587 
L 292.429678 -73.258969 
L 289.398139 -72.923507 
L 286.366601 -72.682685 
L 283.335063 -72.507842 
L 280.303524 -72.36751 
L 277.271986 -72.230934 
L 274.240447 -72.071282 
L 271.208909 -71.868147 
L 268.177371 -71.609055 
L 265.145832 -71.289835 
L 262.114294 -70.913871 
L 259.082756 -70.490436 
L 256.051217 -70.032386 
L 253.019679 -69.553634 
L 249.98814 -69.066778 
L 246.956602 -68.581279 
L 243.925064 -68.102448 
L 240.893525 -67.631398 
L 237.861987 -67.165935 
L 234.830449 -66.702223 
L 231.79891 -66.236914 
L 228.767372 -65.76936 
L 225.735833 -65.303474 
L 222.704295 -64.848894 
L 219.672757 -64.421184 
L 216.641218 -64.040998 
L 213.60968 -63.732346 
L 210.578142 -63.52027 
L 207.546603 -63.428461 
L 204.515065 -63.477409 
L 201.483527 -63.683734 
L 198.451988 -64.061242 
L 195.42045 -64.624065 
L 192.388911 -65.391946 
L 189.357373 -66.397339 
L 186.325835 -67.69353 
L 183.294296 -69.362546 
L 180.262758 -71.521191 
L 177.23122 -74.323299 
L 174.199681 -77.956264 
L 171.168143 -82.630239 
L 168.136604 -88.559102 
L 165.105066 -95.933465 
L 162.073528 -104.887434 
L 159.041989 -115.462492 
L 156.010451 -127.573323 
L 152.978913 -140.981391 
L 149.947374 -155.282196 
L 146.915836 -169.911153 
L 143.884297 -184.170919 
L 140.852759 -197.279886 
L 137.821221 -208.437998 
L 134.789682 -216.902658 
L 131.758144 -222.065024 
L 128.726606 -223.516042 
L 125.695067 -221.092491 
L 122.663529 -214.896063 
L 119.63199 -205.282568 
L 116.600452 -192.822993 
L 113.568914 -178.242454 
L 110.537375 -162.34616 
L 107.505837 -145.9429 
L 104.474299 -129.776046 
L 101.44276 -114.469913 
L 98.411222 -100.496114 
L 95.379683 -88.161008 
L 92.348145 -77.612161 
L 89.316607 -68.859424 
L 86.285068 -61.805098 
L 83.25353 -56.277571 
L 80.221992 -52.063684 
L 77.190453 -48.936401 
L 74.158915 -46.675957 
L 71.127376 -45.083974 
L 68.095838 -43.991151 
z
" style="stroke: #66c2a5"/>
    </defs>
    <g clip-path="url(#p2ea8176415)">
     <use xlink:href="#m1d9cd10c26" x="0" y="348.904219" style="fill: #66c2a5; fill-opacity: 0.5; stroke: #66c2a5"/>
    </g>
   </g>
   <g id="patch_3">
    <path d="M 37.932031 306.883125 
L 37.932031 21.935625 
" style="fill: none; stroke: #cccccc; stroke-width: 1.25; stroke-linejoin: miter; stroke-linecap: square"/>
   </g>
   <g id="patch_4">
    <path d="M 701.535781 306.883125 
L 701.535781 21.935625 
" style="fill: none; stroke: #cccccc; stroke-width: 1.25; stroke-linejoin: miter; stroke-linecap: square"/>
   </g>
   <g id="patch_5">
    <path d="M 37.932031 306.883125 
L 701.535781 306.883125 
" style="fill: none; stroke: #cccccc; stroke-width: 1.25; stroke-linejoin: miter; stroke-linecap: square"/>
   </g>
   <g id="patch_6">
    <path d="M 37.932031 21.935625 
L 701.535781 21.935625 
" style="fill: none; stroke: #cccccc; stroke-width: 1.25; stroke-linejoin: miter; stroke-linecap: square"/>
   </g>
   <g id="text_15">
    <!-- Sentiment Subjectivity Distribution (Title) -->
    <g style="fill: #262626" transform="translate(262.259844 15.935625) scale(0.12 -0.12)">
     <defs>
      <path id="ArialMT-6d" d="M 422 0 
L 422 3319 
L 925 3319 
L 925 2853 
Q 1081 3097 1340 3245 
Q 1600 3394 1931 3394 
Q 2300 3394 2536 3241 
Q 2772 3088 2869 2813 
Q 3263 3394 3894 3394 
Q 4388 3394 4653 3120 
Q 4919 2847 4919 2278 
L 4919 0 
L 4359 0 
L 4359 2091 
Q 4359 2428 4304 2576 
Q 4250 2725 4106 2815 
Q 3963 2906 3769 2906 
Q 3419 2906 3187 2673 
Q 2956 2441 2956 1928 
L 2956 0 
L 2394 0 
L 2394 2156 
Q 2394 2531 2256 2718 
Q 2119 2906 1806 2906 
Q 1569 2906 1367 2781 
Q 1166 2656 1075 2415 
Q 984 2175 984 1722 
L 984 0 
L 422 0 
z
" transform="scale(0.015625)"/>
      <path id="ArialMT-20" transform="scale(0.015625)"/>
      <path id="ArialMT-72" d="M 416 0 
L 416 3319 
L 922 3319 
L 922 2816 
Q 1116 3169 1280 3281 
Q 1444 3394 1641 3394 
Q 1925 3394 2219 3213 
L 2025 2691 
Q 1819 2813 1613 2813 
Q 1428 2813 1281 2702 
Q 1134 2591 1072 2394 
Q 978 2094 978 1738 
L 978 0 
L 416 0 
z
" transform="scale(0.015625)"/>
      <path id="ArialMT-6f" d="M 213 1659 
Q 213 2581 725 3025 
Q 1153 3394 1769 3394 
Q 2453 3394 2887 2945 
Q 3322 2497 3322 1706 
Q 3322 1066 3130 698 
Q 2938 331 2570 128 
Q 2203 -75 1769 -75 
Q 1072 -75 642 372 
Q 213 819 213 1659 
z
M 791 1659 
Q 791 1022 1069 705 
Q 1347 388 1769 388 
Q 2188 388 2466 706 
Q 2744 1025 2744 1678 
Q 2744 2294 2464 2611 
Q 2184 2928 1769 2928 
Q 1347 2928 1069 2612 
Q 791 2297 791 1659 
z
" transform="scale(0.015625)"/>
      <path id="ArialMT-28" d="M 1497 -1347 
Q 1031 -759 709 28 
Q 388 816 388 1659 
Q 388 2403 628 3084 
Q 909 3875 1497 4659 
L 1900 4659 
Q 1522 4009 1400 3731 
Q 1209 3300 1100 2831 
Q 966 2247 966 1656 
Q 966 153 1900 -1347 
L 1497 -1347 
z
" transform="scale(0.015625)"/>
      <path id="ArialMT-54" d="M 1659 0 
L 1659 4041 
L 150 4041 
L 150 4581 
L 3781 4581 
L 3781 4041 
L 2266 4041 
L 2266 0 
L 1659 0 
z
" transform="scale(0.015625)"/>
      <path id="ArialMT-6c" d="M 409 0 
L 409 4581 
L 972 4581 
L 972 0 
L 409 0 
z
" transform="scale(0.015625)"/>
      <path id="ArialMT-29" d="M 791 -1347 
L 388 -1347 
Q 1322 153 1322 1656 
Q 1322 2244 1188 2822 
Q 1081 3291 891 3722 
Q 769 4003 388 4659 
L 791 4659 
Q 1378 3875 1659 3084 
Q 1900 2403 1900 1659 
Q 1900 816 1576 28 
Q 1253 -759 791 -1347 
z
" transform="scale(0.015625)"/>
     </defs>
     <use xlink:href="#ArialMT-53"/>
     <use xlink:href="#ArialMT-65" transform="translate(66.699219 0)"/>
     <use xlink:href="#ArialMT-6e" transform="translate(122.314453 0)"/>
     <use xlink:href="#ArialMT-74" transform="translate(177.929688 0)"/>
     <use xlink:href="#ArialMT-69" transform="translate(205.712891 0)"/>
     <use xlink:href="#ArialMT-6d" transform="translate(227.929688 0)"/>
     <use xlink:href="#ArialMT-65" transform="translate(311.230469 0)"/>
     <use xlink:href="#ArialMT-6e" transform="translate(366.845703 0)"/>
     <use xlink:href="#ArialMT-74" transform="translate(422.460938 0)"/>
     <use xlink:href="#ArialMT-20" transform="translate(450.244141 0)"/>
     <use xlink:href="#ArialMT-53" transform="translate(478.027344 0)"/>
     <use xlink:href="#ArialMT-75" transform="translate(544.726562 0)"/>
     <use xlink:href="#ArialMT-62" transform="translate(600.341797 0)"/>
     <use xlink:href="#ArialMT-6a" transform="translate(655.957031 0)"/>
     <use xlink:href="#ArialMT-65" transform="translate(678.173828 0)"/>
     <use xlink:href="#ArialMT-63" transform="translate(733.789062 0)"/>
     <use xlink:href="#ArialMT-74" transform="translate(783.789062 0)"/>
     <use xlink:href="#ArialMT-69" transform="translate(811.572266 0)"/>
     <use xlink:href="#ArialMT-76" transform="translate(833.789062 0)"/>
     <use xlink:href="#ArialMT-69" transform="translate(883.789062 0)"/>
     <use xlink:href="#ArialMT-74" transform="translate(906.005859 0)"/>
     <use xlink:href="#ArialMT-79" transform="translate(933.789062 0)"/>
     <use xlink:href="#ArialMT-20" transform="translate(983.789062 0)"/>
     <use xlink:href="#ArialMT-44" transform="translate(1011.572266 0)"/>
     <use xlink:href="#ArialMT-69" transform="translate(1083.789062 0)"/>
     <use xlink:href="#ArialMT-73" transform="translate(1106.005859 0)"/>
     <use xlink:href="#ArialMT-74" transform="translate(1156.005859 0)"/>
     <use xlink:href="#ArialMT-72" transform="translate(1183.789062 0)"/>
     <use xlink:href="#ArialMT-69" transform="translate(1217.089844 0)"/>
     <use xlink:href="#ArialMT-62" transform="translate(1239.306641 0)"/>
     <use xlink:href="#ArialMT-75" transform="translate(1294.921875 0)"/>
     <use xlink:href="#ArialMT-74" transform="translate(1350.537109 0)"/>
     <use xlink:href="#ArialMT-69" transform="translate(1378.320312 0)"/>
     <use xlink:href="#ArialMT-6f" transform="translate(1400.537109 0)"/>
     <use xlink:href="#ArialMT-6e" transform="translate(1456.152344 0)"/>
     <use xlink:href="#ArialMT-20" transform="translate(1511.767578 0)"/>
     <use xlink:href="#ArialMT-28" transform="translate(1539.550781 0)"/>
     <use xlink:href="#ArialMT-54" transform="translate(1572.851562 0)"/>
     <use xlink:href="#ArialMT-69" transform="translate(1630.185547 0)"/>
     <use xlink:href="#ArialMT-74" transform="translate(1652.402344 0)"/>
     <use xlink:href="#ArialMT-6c" transform="translate(1680.185547 0)"/>
     <use xlink:href="#ArialMT-65" transform="translate(1702.402344 0)"/>
     <use xlink:href="#ArialMT-29" transform="translate(1758.017578 0)"/>
    </g>
   </g>
   <g id="legend_1">
    <g id="patch_7">
     <path d="M 617.684844 62.38125 
L 693.835781 62.38125 
Q 696.035781 62.38125 696.035781 60.18125 
L 696.035781 29.635625 
Q 696.035781 27.435625 693.835781 27.435625 
L 617.684844 27.435625 
Q 615.484844 27.435625 615.484844 29.635625 
L 615.484844 60.18125 
Q 615.484844 62.38125 617.684844 62.38125 
z
" style="fill: #ffffff; opacity: 0.8; stroke: #cccccc; stroke-linejoin: miter"/>
    </g>
    <g id="patch_8">
     <path d="M 619.884844 39.843281 
L 641.884844 39.843281 
L 641.884844 32.143281 
L 619.884844 32.143281 
z
" style="fill: #fc8d62; fill-opacity: 0.5; stroke: #fc8d62; stroke-linejoin: miter"/>
    </g>
    <g id="text_16">
     <!-- Fake (0) -->
     <g style="fill: #262626" transform="translate(650.684844 39.843281) scale(0.11 -0.11)">
      <defs>
       <path id="ArialMT-46" d="M 525 0 
L 525 4581 
L 3616 4581 
L 3616 4041 
L 1131 4041 
L 1131 2622 
L 3281 2622 
L 3281 2081 
L 1131 2081 
L 1131 0 
L 525 0 
z
" transform="scale(0.015625)"/>
       <path id="ArialMT-61" d="M 2588 409 
Q 2275 144 1986 34 
Q 1697 -75 1366 -75 
Q 819 -75 525 192 
Q 231 459 231 875 
Q 231 1119 342 1320 
Q 453 1522 633 1644 
Q 813 1766 1038 1828 
Q 1203 1872 1538 1913 
Q 2219 1994 2541 2106 
Q 2544 2222 2544 2253 
Q 2544 2597 2384 2738 
Q 2169 2928 1744 2928 
Q 1347 2928 1158 2789 
Q 969 2650 878 2297 
L 328 2372 
Q 403 2725 575 2942 
Q 747 3159 1072 3276 
Q 1397 3394 1825 3394 
Q 2250 3394 2515 3294 
Q 2781 3194 2906 3042 
Q 3031 2891 3081 2659 
Q 3109 2516 3109 2141 
L 3109 1391 
Q 3109 606 3145 398 
Q 3181 191 3288 0 
L 2700 0 
Q 2613 175 2588 409 
z
M 2541 1666 
Q 2234 1541 1622 1453 
Q 1275 1403 1131 1340 
Q 988 1278 909 1158 
Q 831 1038 831 891 
Q 831 666 1001 516 
Q 1172 366 1500 366 
Q 1825 366 2078 508 
Q 2331 650 2450 897 
Q 2541 1088 2541 1459 
L 2541 1666 
z
" transform="scale(0.015625)"/>
       <path id="ArialMT-6b" d="M 425 0 
L 425 4581 
L 988 4581 
L 988 1969 
L 2319 3319 
L 3047 3319 
L 1778 2088 
L 3175 0 
L 2481 0 
L 1384 1697 
L 988 1316 
L 988 0 
L 425 0 
z
" transform="scale(0.015625)"/>
      </defs>
      <use xlink:href="#ArialMT-46"/>
      <use xlink:href="#ArialMT-61" transform="translate(61.083984 0)"/>
      <use xlink:href="#ArialMT-6b" transform="translate(116.699219 0)"/>
      <use xlink:href="#ArialMT-65" transform="translate(166.699219 0)"/>
      <use xlink:href="#ArialMT-20" transform="translate(222.314453 0)"/>
      <use xlink:href="#ArialMT-28" transform="translate(250.097656 0)"/>
      <use xlink:href="#ArialMT-30" transform="translate(283.398438 0)"/>
      <use xlink:href="#ArialMT-29" transform="translate(339.013672 0)"/>
     </g>
    </g>
    <g id="patch_9">
     <path d="M 619.884844 55.666094 
L 641.884844 55.666094 
L 641.884844 47.966094 
L 619.884844 47.966094 
z
" style="fill: #66c2a5; fill-opacity: 0.5; stroke: #66c2a5; stroke-linejoin: miter"/>
    </g>
    <g id="text_17">
     <!-- Real (1) -->
     <g style="fill: #262626" transform="translate(650.684844 55.666094) scale(0.11 -0.11)">
      <defs>
       <path id="ArialMT-52" d="M 503 0 
L 503 4581 
L 2534 4581 
Q 3147 4581 3465 4457 
Q 3784 4334 3975 4021 
Q 4166 3709 4166 3331 
Q 4166 2844 3850 2509 
Q 3534 2175 2875 2084 
Q 3116 1969 3241 1856 
Q 3506 1613 3744 1247 
L 4541 0 
L 3778 0 
L 3172 953 
Q 2906 1366 2734 1584 
Q 2563 1803 2427 1890 
Q 2291 1978 2150 2013 
Q 2047 2034 1813 2034 
L 1109 2034 
L 1109 0 
L 503 0 
z
M 1109 2559 
L 2413 2559 
Q 2828 2559 3062 2645 
Q 3297 2731 3419 2920 
Q 3541 3109 3541 3331 
Q 3541 3656 3305 3865 
Q 3069 4075 2559 4075 
L 1109 4075 
L 1109 2559 
z
" transform="scale(0.015625)"/>
      </defs>
      <use xlink:href="#ArialMT-52"/>
      <use xlink:href="#ArialMT-65" transform="translate(72.216797 0)"/>
      <use xlink:href="#ArialMT-61" transform="translate(127.832031 0)"/>
      <use xlink:href="#ArialMT-6c" transform="translate(183.447266 0)"/>
      <use xlink:href="#ArialMT-20" transform="translate(205.664062 0)"/>
      <use xlink:href="#ArialMT-28" transform="translate(233.447266 0)"/>
      <use xlink:href="#ArialMT-31" transform="translate(266.748047 0)"/>
      <use xlink:href="#ArialMT-29" transform="translate(322.363281 0)"/>
     </g>
    </g>
   </g>
  </g>
 </g>
 <defs>
  <clipPath id="p2ea8176415">
   <rect x="37.932031" y="21.935625" width="663.60375" height="284.9475"/>
  </clipPath>
 </defs>
</svg>
