<?xml version="1.0" encoding="utf-8" standalone="no"?>
<!DOCTYPE svg PUBLIC "-//W3C//DTD SVG 1.1//EN"
  "http://www.w3.org/Graphics/SVG/1.1/DTD/svg11.dtd">
<svg xmlns:xlink="http://www.w3.org/1999/xlink" width="708.735781pt" height="348.904219pt" viewBox="0 0 708.735781 348.904219" xmlns="http://www.w3.org/2000/svg" version="1.1">
 <metadata>
  <rdf:RDF xmlns:dc="http://purl.org/dc/elements/1.1/" xmlns:cc="http://creativecommons.org/ns#" xmlns:rdf="http://www.w3.org/1999/02/22-rdf-syntax-ns#">
   <cc:Work>
    <dc:type rdf:resource="http://purl.org/dc/dcmitype/StillImage"/>
    <dc:date>2025-05-17T18:11:27.035442</dc:date>
    <dc:format>image/svg+xml</dc:format>
    <dc:creator>
     <cc:Agent>
      <dc:title>Matplotlib v3.10.1, https://matplotlib.org/</dc:title>
     </cc:Agent>
    </dc:creator>
   </cc:Work>
  </rdf:RDF>
 </metadata>
 <defs>
  <style type="text/css">*{stroke-linejoin: round; stroke-linecap: butt}</style>
 </defs>
 <g id="figure_1">
  <g id="patch_1">
   <path d="M 0 348.904219 
L 708.735781 348.904219 
L 708.735781 0 
L 0 0 
z
" style="fill: #ffffff"/>
  </g>
  <g id="axes_1">
   <g id="patch_2">
    <path d="M 37.932031 306.883125 
L 701.535781 306.883125 
L 701.535781 21.935625 
L 37.932031 21.935625 
z
" style="fill: #ffffff"/>
   </g>
   <g id="matplotlib.axis_1">
    <g id="xtick_1">
     <g id="text_1">
      <!-- 0.0 -->
      <g style="fill: #262626" transform="translate(88.376594 324.256719) scale(0.11 -0.11)">
       <defs>
        <path id="ArialMT-30" d="M 266 2259 
Q 266 3072 433 3567 
Q 600 4063 929 4331 
Q 1259 4600 1759 4600 
Q 2128 4600 2406 4451 
Q 2684 4303 2865 4023 
Q 3047 3744 3150 3342 
Q 3253 2941 3253 2259 
Q 3253 1453 3087 958 
Q 2922 463 2592 192 
Q 2263 -78 1759 -78 
Q 1097 -78 719 397 
Q 266 969 266 2259 
z
M 844 2259 
Q 844 1131 1108 757 
Q 1372 384 1759 384 
Q 2147 384 2411 759 
Q 2675 1134 2675 2259 
Q 2675 3391 2411 3762 
Q 2147 4134 1753 4134 
Q 1366 4134 1134 3806 
Q 844 3388 844 2259 
z
" transform="scale(0.015625)"/>
        <path id="ArialMT-2e" d="M 581 0 
L 581 641 
L 1222 641 
L 1222 0 
L 581 0 
z
" transform="scale(0.015625)"/>
       </defs>
       <use xlink:href="#ArialMT-30"/>
       <use xlink:href="#ArialMT-2e" transform="translate(55.615234 0)"/>
       <use xlink:href="#ArialMT-30" transform="translate(83.398438 0)"/>
      </g>
     </g>
    </g>
    <g id="xtick_2">
     <g id="text_2">
      <!-- 0.2 -->
      <g style="fill: #262626" transform="translate(197.861519 324.256719) scale(0.11 -0.11)">
       <defs>
        <path id="ArialMT-32" d="M 3222 541 
L 3222 0 
L 194 0 
Q 188 203 259 391 
Q 375 700 629 1000 
Q 884 1300 1366 1694 
Q 2113 2306 2375 2664 
Q 2638 3022 2638 3341 
Q 2638 3675 2398 3904 
Q 2159 4134 1775 4134 
Q 1369 4134 1125 3890 
Q 881 3647 878 3216 
L 300 3275 
Q 359 3922 746 4261 
Q 1134 4600 1788 4600 
Q 2447 4600 2831 4234 
Q 3216 3869 3216 3328 
Q 3216 3053 3103 2787 
Q 2991 2522 2730 2228 
Q 2469 1934 1863 1422 
Q 1356 997 1212 845 
Q 1069 694 975 541 
L 3222 541 
z
" transform="scale(0.015625)"/>
       </defs>
       <use xlink:href="#ArialMT-30"/>
       <use xlink:href="#ArialMT-2e" transform="translate(55.615234 0)"/>
       <use xlink:href="#ArialMT-32" transform="translate(83.398438 0)"/>
      </g>
     </g>
    </g>
    <g id="xtick_3">
     <g id="text_3">
      <!-- 0.4 -->
      <g style="fill: #262626" transform="translate(307.346444 324.256719) scale(0.11 -0.11)">
       <defs>
        <path id="ArialMT-34" d="M 2069 0 
L 2069 1097 
L 81 1097 
L 81 1613 
L 2172 4581 
L 2631 4581 
L 2631 1613 
L 3250 1613 
L 3250 1097 
L 2631 1097 
L 2631 0 
L 2069 0 
z
M 2069 1613 
L 2069 3678 
L 634 1613 
L 2069 1613 
z
" transform="scale(0.015625)"/>
       </defs>
       <use xlink:href="#ArialMT-30"/>
       <use xlink:href="#ArialMT-2e" transform="translate(55.615234 0)"/>
       <use xlink:href="#ArialMT-34" transform="translate(83.398438 0)"/>
      </g>
     </g>
    </g>
    <g id="xtick_4">
     <g id="text_4">
      <!-- 0.6 -->
      <g style="fill: #262626" transform="translate(416.831369 324.256719) scale(0.11 -0.11)">
       <defs>
        <path id="ArialMT-36" d="M 3184 3459 
L 2625 3416 
Q 2550 3747 2413 3897 
Q 2184 4138 1850 4138 
Q 1581 4138 1378 3988 
Q 1113 3794 959 3422 
Q 806 3050 800 2363 
Q 1003 2672 1297 2822 
Q 1591 2972 1913 2972 
Q 2475 2972 2870 2558 
Q 3266 2144 3266 1488 
Q 3266 1056 3080 686 
Q 2894 316 2569 119 
Q 2244 -78 1831 -78 
Q 1128 -78 684 439 
Q 241 956 241 2144 
Q 241 3472 731 4075 
Q 1159 4600 1884 4600 
Q 2425 4600 2770 4297 
Q 3116 3994 3184 3459 
z
M 888 1484 
Q 888 1194 1011 928 
Q 1134 663 1356 523 
Q 1578 384 1822 384 
Q 2178 384 2434 671 
Q 2691 959 2691 1453 
Q 2691 1928 2437 2201 
Q 2184 2475 1800 2475 
Q 1419 2475 1153 2201 
Q 888 1928 888 1484 
z
" transform="scale(0.015625)"/>
       </defs>
       <use xlink:href="#ArialMT-30"/>
       <use xlink:href="#ArialMT-2e" transform="translate(55.615234 0)"/>
       <use xlink:href="#ArialMT-36" transform="translate(83.398438 0)"/>
      </g>
     </g>
    </g>
    <g id="xtick_5">
     <g id="text_5">
      <!-- 0.8 -->
      <g style="fill: #262626" transform="translate(526.316293 324.256719) scale(0.11 -0.11)">
       <defs>
        <path id="ArialMT-38" d="M 1131 2484 
Q 781 2613 612 2850 
Q 444 3088 444 3419 
Q 444 3919 803 4259 
Q 1163 4600 1759 4600 
Q 2359 4600 2725 4251 
Q 3091 3903 3091 3403 
Q 3091 3084 2923 2848 
Q 2756 2613 2416 2484 
Q 2838 2347 3058 2040 
Q 3278 1734 3278 1309 
Q 3278 722 2862 322 
Q 2447 -78 1769 -78 
Q 1091 -78 675 323 
Q 259 725 259 1325 
Q 259 1772 486 2073 
Q 713 2375 1131 2484 
z
M 1019 3438 
Q 1019 3113 1228 2906 
Q 1438 2700 1772 2700 
Q 2097 2700 2305 2904 
Q 2513 3109 2513 3406 
Q 2513 3716 2298 3927 
Q 2084 4138 1766 4138 
Q 1444 4138 1231 3931 
Q 1019 3725 1019 3438 
z
M 838 1322 
Q 838 1081 952 856 
Q 1066 631 1291 507 
Q 1516 384 1775 384 
Q 2178 384 2440 643 
Q 2703 903 2703 1303 
Q 2703 1709 2433 1975 
Q 2163 2241 1756 2241 
Q 1359 2241 1098 1978 
Q 838 1716 838 1322 
z
" transform="scale(0.015625)"/>
       </defs>
       <use xlink:href="#ArialMT-30"/>
       <use xlink:href="#ArialMT-2e" transform="translate(55.615234 0)"/>
       <use xlink:href="#ArialMT-38" transform="translate(83.398438 0)"/>
      </g>
     </g>
    </g>
    <g id="xtick_6">
     <g id="text_6">
      <!-- 1.0 -->
      <g style="fill: #262626" transform="translate(635.801218 324.256719) scale(0.11 -0.11)">
       <defs>
        <path id="ArialMT-31" d="M 2384 0 
L 1822 0 
L 1822 3584 
Q 1619 3391 1289 3197 
Q 959 3003 697 2906 
L 697 3450 
Q 1169 3672 1522 3987 
Q 1875 4303 2022 4600 
L 2384 4600 
L 2384 0 
z
" transform="scale(0.015625)"/>
       </defs>
       <use xlink:href="#ArialMT-31"/>
       <use xlink:href="#ArialMT-2e" transform="translate(55.615234 0)"/>
       <use xlink:href="#ArialMT-30" transform="translate(83.398438 0)"/>
      </g>
     </g>
    </g>
    <g id="text_7">
     <!-- Subjectivity -->
     <g style="fill: #262626" transform="translate(339.388906 339.178594) scale(0.12 -0.12)">
      <defs>
       <path id="ArialMT-53" d="M 288 1472 
L 859 1522 
Q 900 1178 1048 958 
Q 1197 738 1509 602 
Q 1822 466 2213 466 
Q 2559 466 2825 569 
Q 3091 672 3220 851 
Q 3350 1031 3350 1244 
Q 3350 1459 3225 1620 
Q 3100 1781 2813 1891 
Q 2628 1963 1997 2114 
Q 1366 2266 1113 2400 
Q 784 2572 623 2826 
Q 463 3081 463 3397 
Q 463 3744 659 4045 
Q 856 4347 1234 4503 
Q 1613 4659 2075 4659 
Q 2584 4659 2973 4495 
Q 3363 4331 3572 4012 
Q 3781 3694 3797 3291 
L 3216 3247 
Q 3169 3681 2898 3903 
Q 2628 4125 2100 4125 
Q 1550 4125 1298 3923 
Q 1047 3722 1047 3438 
Q 1047 3191 1225 3031 
Q 1400 2872 2139 2705 
Q 2878 2538 3153 2413 
Q 3553 2228 3743 1945 
Q 3934 1663 3934 1294 
Q 3934 928 3725 604 
Q 3516 281 3123 101 
Q 2731 -78 2241 -78 
Q 1619 -78 1198 103 
Q 778 284 539 648 
Q 300 1013 288 1472 
z
" transform="scale(0.015625)"/>
       <path id="ArialMT-75" d="M 2597 0 
L 2597 488 
Q 2209 -75 1544 -75 
Q 1250 -75 995 37 
Q 741 150 617 320 
Q 494 491 444 738 
Q 409 903 409 1263 
L 409 3319 
L 972 3319 
L 972 1478 
Q 972 1038 1006 884 
Q 1059 663 1231 536 
Q 1403 409 1656 409 
Q 1909 409 2131 539 
Q 2353 669 2445 892 
Q 2538 1116 2538 1541 
L 2538 3319 
L 3100 3319 
L 3100 0 
L 2597 0 
z
" transform="scale(0.015625)"/>
       <path id="ArialMT-62" d="M 941 0 
L 419 0 
L 419 4581 
L 981 4581 
L 981 2947 
Q 1338 3394 1891 3394 
Q 2197 3394 2470 3270 
Q 2744 3147 2920 2923 
Q 3097 2700 3197 2384 
Q 3297 2069 3297 1709 
Q 3297 856 2875 390 
Q 2453 -75 1863 -75 
Q 1275 -75 941 416 
L 941 0 
z
M 934 1684 
Q 934 1088 1097 822 
Q 1363 388 1816 388 
Q 2184 388 2453 708 
Q 2722 1028 2722 1663 
Q 2722 2313 2464 2622 
Q 2206 2931 1841 2931 
Q 1472 2931 1203 2611 
Q 934 2291 934 1684 
z
" transform="scale(0.015625)"/>
       <path id="ArialMT-6a" d="M 419 3928 
L 419 4581 
L 981 4581 
L 981 3928 
L 419 3928 
z
M -294 -1288 
L -188 -809 
Q -19 -853 78 -853 
Q 250 -853 334 -739 
Q 419 -625 419 -169 
L 419 3319 
L 981 3319 
L 981 -181 
Q 981 -794 822 -1034 
Q 619 -1347 147 -1347 
Q -81 -1347 -294 -1288 
z
" transform="scale(0.015625)"/>
       <path id="ArialMT-65" d="M 2694 1069 
L 3275 997 
Q 3138 488 2766 206 
Q 2394 -75 1816 -75 
Q 1088 -75 661 373 
Q 234 822 234 1631 
Q 234 2469 665 2931 
Q 1097 3394 1784 3394 
Q 2450 3394 2872 2941 
Q 3294 2488 3294 1666 
Q 3294 1616 3291 1516 
L 816 1516 
Q 847 969 1125 678 
Q 1403 388 1819 388 
Q 2128 388 2347 550 
Q 2566 713 2694 1069 
z
M 847 1978 
L 2700 1978 
Q 2663 2397 2488 2606 
Q 2219 2931 1791 2931 
Q 1403 2931 1139 2672 
Q 875 2413 847 1978 
z
" transform="scale(0.015625)"/>
       <path id="ArialMT-63" d="M 2588 1216 
L 3141 1144 
Q 3050 572 2676 248 
Q 2303 -75 1759 -75 
Q 1078 -75 664 370 
Q 250 816 250 1647 
Q 250 2184 428 2587 
Q 606 2991 970 3192 
Q 1334 3394 1763 3394 
Q 2303 3394 2647 3120 
Q 2991 2847 3088 2344 
L 2541 2259 
Q 2463 2594 2264 2762 
Q 2066 2931 1784 2931 
Q 1359 2931 1093 2626 
Q 828 2322 828 1663 
Q 828 994 1084 691 
Q 1341 388 1753 388 
Q 2084 388 2306 591 
Q 2528 794 2588 1216 
z
" transform="scale(0.015625)"/>
       <path id="ArialMT-74" d="M 1650 503 
L 1731 6 
Q 1494 -44 1306 -44 
Q 1000 -44 831 53 
Q 663 150 594 308 
Q 525 466 525 972 
L 525 2881 
L 113 2881 
L 113 3319 
L 525 3319 
L 525 4141 
L 1084 4478 
L 1084 3319 
L 1650 3319 
L 1650 2881 
L 1084 2881 
L 1084 941 
Q 1084 700 1114 631 
Q 1144 563 1211 522 
Q 1278 481 1403 481 
Q 1497 481 1650 503 
z
" transform="scale(0.015625)"/>
       <path id="ArialMT-69" d="M 425 3934 
L 425 4581 
L 988 4581 
L 988 3934 
L 425 3934 
z
M 425 0 
L 425 3319 
L 988 3319 
L 988 0 
L 425 0 
z
" transform="scale(0.015625)"/>
       <path id="ArialMT-76" d="M 1344 0 
L 81 3319 
L 675 3319 
L 1388 1331 
Q 1503 1009 1600 663 
Q 1675 925 1809 1294 
L 2547 3319 
L 3125 3319 
L 1869 0 
L 1344 0 
z
" transform="scale(0.015625)"/>
       <path id="ArialMT-79" d="M 397 -1278 
L 334 -750 
Q 519 -800 656 -800 
Q 844 -800 956 -737 
Q 1069 -675 1141 -563 
Q 1194 -478 1313 -144 
Q 1328 -97 1363 -6 
L 103 3319 
L 709 3319 
L 1400 1397 
Q 1534 1031 1641 628 
Q 1738 1016 1872 1384 
L 2581 3319 
L 3144 3319 
L 1881 -56 
Q 1678 -603 1566 -809 
Q 1416 -1088 1222 -1217 
Q 1028 -1347 759 -1347 
Q 597 -1347 397 -1278 
z
" transform="scale(0.015625)"/>
      </defs>
      <use xlink:href="#ArialMT-53"/>
      <use xlink:href="#ArialMT-75" transform="translate(66.699219 0)"/>
      <use xlink:href="#ArialMT-62" transform="translate(122.314453 0)"/>
      <use xlink:href="#ArialMT-6a" transform="translate(177.929688 0)"/>
      <use xlink:href="#ArialMT-65" transform="translate(200.146484 0)"/>
      <use xlink:href="#ArialMT-63" transform="translate(255.761719 0)"/>
      <use xlink:href="#ArialMT-74" transform="translate(305.761719 0)"/>
      <use xlink:href="#ArialMT-69" transform="translate(333.544922 0)"/>
      <use xlink:href="#ArialMT-76" transform="translate(355.761719 0)"/>
      <use xlink:href="#ArialMT-69" transform="translate(405.761719 0)"/>
      <use xlink:href="#ArialMT-74" transform="translate(427.978516 0)"/>
      <use xlink:href="#ArialMT-79" transform="translate(455.761719 0)"/>
     </g>
    </g>
   </g>
   <g id="matplotlib.axis_2">
    <g id="ytick_1">
     <g id="text_8">
      <!-- 0 -->
      <g style="fill: #262626" transform="translate(22.315 310.819922) scale(0.11 -0.11)">
       <use xlink:href="#ArialMT-30"/>
      </g>
     </g>
    </g>
    <g id="ytick_2">
     <g id="text_9">
      <!-- 1 -->
      <g style="fill: #262626" transform="translate(22.315 253.549598) scale(0.11 -0.11)">
       <use xlink:href="#ArialMT-31"/>
      </g>
     </g>
    </g>
    <g id="ytick_3">
     <g id="text_10">
      <!-- 2 -->
      <g style="fill: #262626" transform="translate(22.315 196.279274) scale(0.11 -0.11)">
       <use xlink:href="#ArialMT-32"/>
      </g>
     </g>
    </g>
    <g id="ytick_4">
     <g id="text_11">
      <!-- 3 -->
      <g style="fill: #262626" transform="translate(22.315 139.00895) scale(0.11 -0.11)">
       <defs>
        <path id="ArialMT-33" d="M 269 1209 
L 831 1284 
Q 928 806 1161 595 
Q 1394 384 1728 384 
Q 2125 384 2398 659 
Q 2672 934 2672 1341 
Q 2672 1728 2419 1979 
Q 2166 2231 1775 2231 
Q 1616 2231 1378 2169 
L 1441 2663 
Q 1497 2656 1531 2656 
Q 1891 2656 2178 2843 
Q 2466 3031 2466 3422 
Q 2466 3731 2256 3934 
Q 2047 4138 1716 4138 
Q 1388 4138 1169 3931 
Q 950 3725 888 3313 
L 325 3413 
Q 428 3978 793 4289 
Q 1159 4600 1703 4600 
Q 2078 4600 2393 4439 
Q 2709 4278 2876 4000 
Q 3044 3722 3044 3409 
Q 3044 3113 2884 2869 
Q 2725 2625 2413 2481 
Q 2819 2388 3044 2092 
Q 3269 1797 3269 1353 
Q 3269 753 2831 336 
Q 2394 -81 1725 -81 
Q 1122 -81 723 278 
Q 325 638 269 1209 
z
" transform="scale(0.015625)"/>
       </defs>
       <use xlink:href="#ArialMT-33"/>
      </g>
     </g>
    </g>
    <g id="ytick_5">
     <g id="text_12">
      <!-- 4 -->
      <g style="fill: #262626" transform="translate(22.315 81.738626) scale(0.11 -0.11)">
       <use xlink:href="#ArialMT-34"/>
      </g>
     </g>
    </g>
    <g id="text_13">
     <!-- Density -->
     <g style="fill: #262626" transform="translate(15.789375 184.415625) rotate(-90) scale(0.12 -0.12)">
      <defs>
       <path id="ArialMT-44" d="M 494 0 
L 494 4581 
L 2072 4581 
Q 2606 4581 2888 4516 
Q 3281 4425 3559 4188 
Q 3922 3881 4101 3404 
Q 4281 2928 4281 2316 
Q 4281 1794 4159 1391 
Q 4038 988 3847 723 
Q 3656 459 3429 307 
Q 3203 156 2883 78 
Q 2563 0 2147 0 
L 494 0 
z
M 1100 541 
L 2078 541 
Q 2531 541 2789 625 
Q 3047 709 3200 863 
Q 3416 1078 3536 1442 
Q 3656 1806 3656 2325 
Q 3656 3044 3420 3430 
Q 3184 3816 2847 3947 
Q 2603 4041 2063 4041 
L 1100 4041 
L 1100 541 
z
" transform="scale(0.015625)"/>
       <path id="ArialMT-6e" d="M 422 0 
L 422 3319 
L 928 3319 
L 928 2847 
Q 1294 3394 1984 3394 
Q 2284 3394 2536 3286 
Q 2788 3178 2913 3003 
Q 3038 2828 3088 2588 
Q 3119 2431 3119 2041 
L 3119 0 
L 2556 0 
L 2556 2019 
Q 2556 2363 2490 2533 
Q 2425 2703 2258 2804 
Q 2091 2906 1866 2906 
Q 1506 2906 1245 2678 
Q 984 2450 984 1813 
L 984 0 
L 422 0 
z
" transform="scale(0.015625)"/>
       <path id="ArialMT-73" d="M 197 991 
L 753 1078 
Q 800 744 1014 566 
Q 1228 388 1613 388 
Q 2000 388 2187 545 
Q 2375 703 2375 916 
Q 2375 1106 2209 1216 
Q 2094 1291 1634 1406 
Q 1016 1563 777 1677 
Q 538 1791 414 1992 
Q 291 2194 291 2438 
Q 291 2659 392 2848 
Q 494 3038 669 3163 
Q 800 3259 1026 3326 
Q 1253 3394 1513 3394 
Q 1903 3394 2198 3281 
Q 2494 3169 2634 2976 
Q 2775 2784 2828 2463 
L 2278 2388 
Q 2241 2644 2061 2787 
Q 1881 2931 1553 2931 
Q 1166 2931 1000 2803 
Q 834 2675 834 2503 
Q 834 2394 903 2306 
Q 972 2216 1119 2156 
Q 1203 2125 1616 2013 
Q 2213 1853 2448 1751 
Q 2684 1650 2818 1456 
Q 2953 1263 2953 975 
Q 2953 694 2789 445 
Q 2625 197 2315 61 
Q 2006 -75 1616 -75 
Q 969 -75 630 194 
Q 291 463 197 991 
z
" transform="scale(0.015625)"/>
      </defs>
      <use xlink:href="#ArialMT-44"/>
      <use xlink:href="#ArialMT-65" transform="translate(72.216797 0)"/>
      <use xlink:href="#ArialMT-6e" transform="translate(127.832031 0)"/>
      <use xlink:href="#ArialMT-73" transform="translate(183.447266 0)"/>
      <use xlink:href="#ArialMT-69" transform="translate(233.447266 0)"/>
      <use xlink:href="#ArialMT-74" transform="translate(255.664062 0)"/>
      <use xlink:href="#ArialMT-79" transform="translate(283.447266 0)"/>
     </g>
    </g>
   </g>
   <g id="FillBetweenPolyCollection_1">
    <defs>
     <path id="m46a5da81ea" d="M 74.171272 -42.205804 
L 74.171272 -42.021094 
L 77.141751 -42.021094 
L 80.112229 -42.021094 
L 83.082708 -42.021094 
L 86.053187 -42.021094 
L 89.023666 -42.021094 
L 91.994144 -42.021094 
L 94.964623 -42.021094 
L 97.935102 -42.021094 
L 100.905581 -42.021094 
L 103.876059 -42.021094 
L 106.846538 -42.021094 
L 109.817017 -42.021094 
L 112.787496 -42.021094 
L 115.757974 -42.021094 
L 118.728453 -42.021094 
L 121.698932 -42.021094 
L 124.66941 -42.021094 
L 127.639889 -42.021094 
L 130.610368 -42.021094 
L 133.580847 -42.021094 
L 136.551325 -42.021094 
L 139.521804 -42.021094 
L 142.492283 -42.021094 
L 145.462762 -42.021094 
L 148.43324 -42.021094 
L 151.403719 -42.021094 
L 154.374198 -42.021094 
L 157.344677 -42.021094 
L 160.315155 -42.021094 
L 163.285634 -42.021094 
L 166.256113 -42.021094 
L 169.226592 -42.021094 
L 172.19707 -42.021094 
L 175.167549 -42.021094 
L 178.138028 -42.021094 
L 181.108506 -42.021094 
L 184.078985 -42.021094 
L 187.049464 -42.021094 
L 190.019943 -42.021094 
L 192.990421 -42.021094 
L 195.9609 -42.021094 
L 198.931379 -42.021094 
L 201.901858 -42.021094 
L 204.872336 -42.021094 
L 207.842815 -42.021094 
L 210.813294 -42.021094 
L 213.783773 -42.021094 
L 216.754251 -42.021094 
L 219.72473 -42.021094 
L 222.695209 -42.021094 
L 225.665688 -42.021094 
L 228.636166 -42.021094 
L 231.606645 -42.021094 
L 234.577124 -42.021094 
L 237.547602 -42.021094 
L 240.518081 -42.021094 
L 243.48856 -42.021094 
L 246.459039 -42.021094 
L 249.429517 -42.021094 
L 252.399996 -42.021094 
L 255.370475 -42.021094 
L 258.340954 -42.021094 
L 261.311432 -42.021094 
L 264.281911 -42.021094 
L 267.25239 -42.021094 
L 270.222869 -42.021094 
L 273.193347 -42.021094 
L 276.163826 -42.021094 
L 279.134305 -42.021094 
L 282.104784 -42.021094 
L 285.075262 -42.021094 
L 288.045741 -42.021094 
L 291.01622 -42.021094 
L 293.986698 -42.021094 
L 296.957177 -42.021094 
L 299.927656 -42.021094 
L 302.898135 -42.021094 
L 305.868613 -42.021094 
L 308.839092 -42.021094 
L 311.809571 -42.021094 
L 314.78005 -42.021094 
L 317.750528 -42.021094 
L 320.721007 -42.021094 
L 323.691486 -42.021094 
L 326.661965 -42.021094 
L 329.632443 -42.021094 
L 332.602922 -42.021094 
L 335.573401 -42.021094 
L 338.54388 -42.021094 
L 341.514358 -42.021094 
L 344.484837 -42.021094 
L 347.455316 -42.021094 
L 350.425794 -42.021094 
L 353.396273 -42.021094 
L 356.366752 -42.021094 
L 359.337231 -42.021094 
L 362.307709 -42.021094 
L 365.278188 -42.021094 
L 368.248667 -42.021094 
L 371.219146 -42.021094 
L 374.189624 -42.021094 
L 377.160103 -42.021094 
L 380.130582 -42.021094 
L 383.101061 -42.021094 
L 386.071539 -42.021094 
L 389.042018 -42.021094 
L 392.012497 -42.021094 
L 394.982976 -42.021094 
L 397.953454 -42.021094 
L 400.923933 -42.021094 
L 403.894412 -42.021094 
L 406.86489 -42.021094 
L 409.835369 -42.021094 
L 412.805848 -42.021094 
L 415.776327 -42.021094 
L 418.746805 -42.021094 
L 421.717284 -42.021094 
L 424.687763 -42.021094 
L 427.658242 -42.021094 
L 430.62872 -42.021094 
L 433.599199 -42.021094 
L 436.569678 -42.021094 
L 439.540157 -42.021094 
L 442.510635 -42.021094 
L 445.481114 -42.021094 
L 448.451593 -42.021094 
L 451.422072 -42.021094 
L 454.39255 -42.021094 
L 457.363029 -42.021094 
L 460.333508 -42.021094 
L 463.303986 -42.021094 
L 466.274465 -42.021094 
L 469.244944 -42.021094 
L 472.215423 -42.021094 
L 475.185901 -42.021094 
L 478.15638 -42.021094 
L 481.126859 -42.021094 
L 484.097338 -42.021094 
L 487.067816 -42.021094 
L 490.038295 -42.021094 
L 493.008774 -42.021094 
L 495.979253 -42.021094 
L 498.949731 -42.021094 
L 501.92021 -42.021094 
L 504.890689 -42.021094 
L 507.861167 -42.021094 
L 510.831646 -42.021094 
L 513.802125 -42.021094 
L 516.772604 -42.021094 
L 519.743082 -42.021094 
L 522.713561 -42.021094 
L 525.68404 -42.021094 
L 528.654519 -42.021094 
L 531.624997 -42.021094 
L 534.595476 -42.021094 
L 537.565955 -42.021094 
L 540.536434 -42.021094 
L 543.506912 -42.021094 
L 546.477391 -42.021094 
L 549.44787 -42.021094 
L 552.418349 -42.021094 
L 555.388827 -42.021094 
L 558.359306 -42.021094 
L 561.329785 -42.021094 
L 564.300263 -42.021094 
L 567.270742 -42.021094 
L 570.241221 -42.021094 
L 573.2117 -42.021094 
L 576.182178 -42.021094 
L 579.152657 -42.021094 
L 582.123136 -42.021094 
L 585.093615 -42.021094 
L 588.064093 -42.021094 
L 591.034572 -42.021094 
L 594.005051 -42.021094 
L 596.97553 -42.021094 
L 599.946008 -42.021094 
L 602.916487 -42.021094 
L 605.886966 -42.021094 
L 608.857445 -42.021094 
L 611.827923 -42.021094 
L 614.798402 -42.021094 
L 617.768881 -42.021094 
L 620.739359 -42.021094 
L 623.709838 -42.021094 
L 626.680317 -42.021094 
L 629.650796 -42.021094 
L 632.621274 -42.021094 
L 635.591753 -42.021094 
L 638.562232 -42.021094 
L 641.532711 -42.021094 
L 644.503189 -42.021094 
L 647.473668 -42.021094 
L 650.444147 -42.021094 
L 653.414626 -42.021094 
L 656.385104 -42.021094 
L 659.355583 -42.021094 
L 662.326062 -42.021094 
L 665.296541 -42.021094 
L 665.296541 -42.036343 
L 665.296541 -42.036343 
L 662.326062 -42.068793 
L 659.355583 -42.147436 
L 656.385104 -42.304477 
L 653.414626 -42.559386 
L 650.444147 -42.887159 
L 647.473668 -43.201729 
L 644.503189 -43.385771 
L 641.532711 -43.360731 
L 638.562232 -43.141956 
L 635.591753 -42.827217 
L 632.621274 -42.530118 
L 629.650796 -42.319325 
L 626.680317 -42.205404 
L 623.709838 -42.164084 
L 620.739359 -42.162413 
L 617.768881 -42.171754 
L 614.798402 -42.172525 
L 611.827923 -42.157543 
L 608.857445 -42.133291 
L 605.886966 -42.116535 
L 602.916487 -42.127407 
L 599.946008 -42.181309 
L 596.97553 -42.280288 
L 594.005051 -42.406428 
L 591.034572 -42.524437 
L 588.064093 -42.597677 
L 585.093615 -42.608825 
L 582.123136 -42.568378 
L 579.152657 -42.504572 
L 576.182178 -42.445788 
L 573.2117 -42.410034 
L 570.241221 -42.404283 
L 567.270742 -42.427136 
L 564.300263 -42.470985 
L 561.329785 -42.525393 
L 558.359306 -42.582163 
L 555.388827 -42.638208 
L 552.418349 -42.693386 
L 549.44787 -42.746074 
L 546.477391 -42.791803 
L 543.506912 -42.826364 
L 540.536434 -42.849485 
L 537.565955 -42.865196 
L 534.595476 -42.879886 
L 531.624997 -42.901517 
L 528.654519 -42.939963 
L 525.68404 -43.005834 
L 522.713561 -43.108463 
L 519.743082 -43.25615 
L 516.772604 -43.456906 
L 513.802125 -43.713269 
L 510.831646 -44.011414 
L 507.861167 -44.316835 
L 504.890689 -44.587022 
L 501.92021 -44.792976 
L 498.949731 -44.931075 
L 495.979253 -45.020493 
L 493.008774 -45.096596 
L 490.038295 -45.202822 
L 487.067816 -45.37092 
L 484.097338 -45.593251 
L 481.126859 -45.817559 
L 478.15638 -45.987231 
L 475.185901 -46.101446 
L 472.215423 -46.234845 
L 469.244944 -46.486069 
L 466.274465 -46.894764 
L 463.303986 -47.402857 
L 460.333508 -47.897713 
L 457.363029 -48.299329 
L 454.39255 -48.615889 
L 451.422072 -48.925717 
L 448.451593 -49.308954 
L 445.481114 -49.787312 
L 442.510635 -50.315508 
L 439.540157 -50.825291 
L 436.569678 -51.284179 
L 433.599199 -51.723533 
L 430.62872 -52.221564 
L 427.658242 -52.867165 
L 424.687763 -53.739385 
L 421.717284 -54.908913 
L 418.746805 -56.438916 
L 415.776327 -58.368174 
L 412.805848 -60.690717 
L 409.835369 -63.360453 
L 406.86489 -66.326126 
L 403.894412 -69.570141 
L 400.923933 -73.121912 
L 397.953454 -77.039541 
L 394.982976 -81.376202 
L 392.012497 -86.162572 
L 389.042018 -91.439296 
L 386.071539 -97.331212 
L 383.101061 -104.075414 
L 380.130582 -111.906302 
L 377.160103 -120.840217 
L 374.189624 -130.566999 
L 371.219146 -140.61929 
L 368.248667 -150.723243 
L 365.278188 -161.01124 
L 362.307709 -171.88558 
L 359.337231 -183.670076 
L 356.366752 -196.36927 
L 353.396273 -209.680672 
L 350.425794 -223.139648 
L 347.455316 -236.241432 
L 344.484837 -248.532686 
L 341.514358 -259.721115 
L 338.54388 -269.747603 
L 335.573401 -278.719615 
L 332.602922 -286.746 
L 329.632443 -293.842505 
L 326.661965 -299.97818 
L 323.691486 -305.135911 
L 320.721007 -309.254813 
L 317.750528 -312.121492 
L 314.78005 -313.399665 
L 311.809571 -312.847642 
L 308.839092 -310.534022 
L 305.868613 -306.826692 
L 302.898135 -302.150283 
L 299.927656 -296.726315 
L 296.957177 -290.499525 
L 293.986698 -283.267619 
L 291.01622 -274.883673 
L 288.045741 -265.394271 
L 285.075262 -255.052678 
L 282.104784 -244.22924 
L 279.134305 -233.303272 
L 276.163826 -222.614576 
L 273.193347 -212.453711 
L 270.222869 -202.991397 
L 267.25239 -194.133433 
L 264.281911 -185.466137 
L 261.311432 -176.467245 
L 258.340954 -166.897677 
L 255.370475 -157.036358 
L 252.399996 -147.525459 
L 249.429517 -138.977085 
L 246.459039 -131.690095 
L 243.48856 -125.6285 
L 240.518081 -120.536434 
L 237.547602 -116.040661 
L 234.577124 -111.734482 
L 231.606645 -107.291526 
L 228.636166 -102.587183 
L 225.665688 -97.750231 
L 222.695209 -93.100135 
L 219.72473 -88.99568 
L 216.754251 -85.664503 
L 213.783773 -83.089388 
L 210.813294 -81.008061 
L 207.842815 -79.038366 
L 204.872336 -76.870702 
L 201.901858 -74.41399 
L 198.931379 -71.80106 
L 195.9609 -69.257704 
L 192.990421 -66.937858 
L 190.019943 -64.844864 
L 187.049464 -62.885405 
L 184.078985 -60.995158 
L 181.108506 -59.221021 
L 178.138028 -57.694454 
L 175.167549 -56.531559 
L 172.19707 -55.747508 
L 169.226592 -55.247921 
L 166.256113 -54.900558 
L 163.285634 -54.629123 
L 160.315155 -54.437444 
L 157.344677 -54.323435 
L 154.374198 -54.168996 
L 151.403719 -53.753688 
L 148.43324 -52.921181 
L 145.462762 -51.741497 
L 142.492283 -50.494595 
L 139.521804 -49.48444 
L 136.551325 -48.854298 
L 133.580847 -48.544046 
L 130.610368 -48.384743 
L 127.639889 -48.228371 
L 124.66941 -48.018938 
L 121.698932 -47.781418 
L 118.728453 -47.576786 
L 115.757974 -47.498714 
L 112.787496 -47.739457 
L 109.817017 -48.639065 
L 106.846538 -50.551837 
L 103.876059 -53.473565 
L 100.905581 -56.686676 
L 97.935102 -58.878979 
L 94.964623 -58.876973 
L 91.994144 -56.469863 
L 89.023666 -52.569769 
L 86.053187 -48.560755 
L 83.082708 -45.458995 
L 80.112229 -43.552592 
L 77.141751 -42.599024 
L 74.171272 -42.205804 
z
" style="stroke: #fc8d62"/>
    </defs>
    <g clip-path="url(#p2503d82665)">
     <use xlink:href="#m46a5da81ea" x="0" y="348.904219" style="fill: #fc8d62; fill-opacity: 0.5; stroke: #fc8d62"/>
    </g>
   </g>
   <g id="FillBetweenPolyCollection_2">
    <defs>
     <path id="m6b725a230f" d="M 68.095838 -42.672789 
L 68.095838 -42.021094 
L 71.127376 -42.021094 
L 74.158915 -42.021094 
L 77.190453 -42.021094 
L 80.221992 -42.021094 
L 83.25353 -42.021094 
L 86.285068 -42.021094 
L 89.316607 -42.021094 
L 92.348145 -42.021094 
L 95.379683 -42.021094 
L 98.411222 -42.021094 
L 101.44276 -42.021094 
L 104.474299 -42.021094 
L 107.505837 -42.021094 
L 110.537375 -42.021094 
L 113.568914 -42.021094 
L 116.600452 -42.021094 
L 119.63199 -42.021094 
L 122.663529 -42.021094 
L 125.695067 -42.021094 
L 128.726606 -42.021094 
L 131.758144 -42.021094 
L 134.789682 -42.021094 
L 137.821221 -42.021094 
L 140.852759 -42.021094 
L 143.884297 -42.021094 
L 146.915836 -42.021094 
L 149.947374 -42.021094 
L 152.978913 -42.021094 
L 156.010451 -42.021094 
L 159.041989 -42.021094 
L 162.073528 -42.021094 
L 165.105066 -42.021094 
L 168.136604 -42.021094 
L 171.168143 -42.021094 
L 174.199681 -42.021094 
L 177.23122 -42.021094 
L 180.262758 -42.021094 
L 183.294296 -42.021094 
L 186.325835 -42.021094 
L 189.357373 -42.021094 
L 192.388911 -42.021094 
L 195.42045 -42.021094 
L 198.451988 -42.021094 
L 201.483527 -42.021094 
L 204.515065 -42.021094 
L 207.546603 -42.021094 
L 210.578142 -42.021094 
L 213.60968 -42.021094 
L 216.641218 -42.021094 
L 219.672757 -42.021094 
L 222.704295 -42.021094 
L 225.735833 -42.021094 
L 228.767372 -42.021094 
L 231.79891 -42.021094 
L 234.830449 -42.021094 
L 237.861987 -42.021094 
L 240.893525 -42.021094 
L 243.925064 -42.021094 
L 246.956602 -42.021094 
L 249.98814 -42.021094 
L 253.019679 -42.021094 
L 256.051217 -42.021094 
L 259.082756 -42.021094 
L 262.114294 -42.021094 
L 265.145832 -42.021094 
L 268.177371 -42.021094 
L 271.208909 -42.021094 
L 274.240447 -42.021094 
L 277.271986 -42.021094 
L 280.303524 -42.021094 
L 283.335063 -42.021094 
L 286.366601 -42.021094 
L 289.398139 -42.021094 
L 292.429678 -42.021094 
L 295.461216 -42.021094 
L 298.492754 -42.021094 
L 301.524293 -42.021094 
L 304.555831 -42.021094 
L 307.58737 -42.021094 
L 310.618908 -42.021094 
L 313.650446 -42.021094 
L 316.681985 -42.021094 
L 319.713523 -42.021094 
L 322.745061 -42.021094 
L 325.7766 -42.021094 
L 328.808138 -42.021094 
L 331.839677 -42.021094 
L 334.871215 -42.021094 
L 337.902753 -42.021094 
L 340.934292 -42.021094 
L 343.96583 -42.021094 
L 346.997368 -42.021094 
L 350.028907 -42.021094 
L 353.060445 -42.021094 
L 356.091984 -42.021094 
L 359.123522 -42.021094 
L 362.15506 -42.021094 
L 365.186599 -42.021094 
L 368.218137 -42.021094 
L 371.249675 -42.021094 
L 374.281214 -42.021094 
L 377.312752 -42.021094 
L 380.344291 -42.021094 
L 383.375829 -42.021094 
L 386.407367 -42.021094 
L 389.438906 -42.021094 
L 392.470444 -42.021094 
L 395.501982 -42.021094 
L 398.533521 -42.021094 
L 401.565059 -42.021094 
L 404.596598 -42.021094 
L 407.628136 -42.021094 
L 410.659674 -42.021094 
L 413.691213 -42.021094 
L 416.722751 -42.021094 
L 419.754289 -42.021094 
L 422.785828 -42.021094 
L 425.817366 -42.021094 
L 428.848905 -42.021094 
L 431.880443 -42.021094 
L 434.911981 -42.021094 
L 437.94352 -42.021094 
L 440.975058 -42.021094 
L 444.006596 -42.021094 
L 447.038135 -42.021094 
L 450.069673 -42.021094 
L 453.101212 -42.021094 
L 456.13275 -42.021094 
L 459.164288 -42.021094 
L 462.195827 -42.021094 
L 465.227365 -42.021094 
L 468.258903 -42.021094 
L 471.290442 -42.021094 
L 474.32198 -42.021094 
L 477.353519 -42.021094 
L 480.385057 -42.021094 
L 483.416595 -42.021094 
L 486.448134 -42.021094 
L 489.479672 -42.021094 
L 492.51121 -42.021094 
L 495.542749 -42.021094 
L 498.574287 -42.021094 
L 501.605826 -42.021094 
L 504.637364 -42.021094 
L 507.668902 -42.021094 
L 510.700441 -42.021094 
L 513.731979 -42.021094 
L 516.763517 -42.021094 
L 519.795056 -42.021094 
L 522.826594 -42.021094 
L 525.858132 -42.021094 
L 528.889671 -42.021094 
L 531.921209 -42.021094 
L 534.952748 -42.021094 
L 537.984286 -42.021094 
L 541.015824 -42.021094 
L 544.047363 -42.021094 
L 547.078901 -42.021094 
L 550.110439 -42.021094 
L 553.141978 -42.021094 
L 556.173516 -42.021094 
L 559.205055 -42.021094 
L 562.236593 -42.021094 
L 565.268131 -42.021094 
L 568.29967 -42.021094 
L 571.331208 -42.021094 
L 574.362746 -42.021094 
L 577.394285 -42.021094 
L 580.425823 -42.021094 
L 583.457362 -42.021094 
L 586.4889 -42.021094 
L 589.520438 -42.021094 
L 592.551977 -42.021094 
L 595.583515 -42.021094 
L 598.615053 -42.021094 
L 601.646592 -42.021094 
L 604.67813 -42.021094 
L 607.709669 -42.021094 
L 610.741207 -42.021094 
L 613.772745 -42.021094 
L 616.804284 -42.021094 
L 619.835822 -42.021094 
L 622.86736 -42.021094 
L 625.898899 -42.021094 
L 628.930437 -42.021094 
L 631.961976 -42.021094 
L 634.993514 -42.021094 
L 638.025052 -42.021094 
L 641.056591 -42.021094 
L 644.088129 -42.021094 
L 647.119667 -42.021094 
L 650.151206 -42.021094 
L 653.182744 -42.021094 
L 656.214283 -42.021094 
L 659.245821 -42.021094 
L 662.277359 -42.021094 
L 665.308898 -42.021094 
L 668.340436 -42.021094 
L 671.371974 -42.021094 
L 671.371974 -42.082012 
L 671.371974 -42.082012 
L 668.340436 -42.174569 
L 665.308898 -42.36885 
L 662.277359 -42.729793 
L 659.245821 -43.320115 
L 656.214283 -44.162822 
L 653.182744 -45.197673 
L 650.151206 -46.260534 
L 647.119667 -47.114685 
L 644.088129 -47.536019 
L 641.056591 -47.41304 
L 638.025052 -46.801723 
L 634.993514 -45.898674 
L 631.961976 -44.949205 
L 628.930437 -44.147176 
L 625.898899 -43.580109 
L 622.86736 -43.235405 
L 619.835822 -43.04589 
L 616.804284 -42.940258 
L 613.772745 -42.874782 
L 610.741207 -42.840667 
L 607.709669 -42.85348 
L 604.67813 -42.934649 
L 601.646592 -43.093372 
L 598.615053 -43.314513 
L 595.583515 -43.556185 
L 592.551977 -43.759081 
L 589.520438 -43.86597 
L 586.4889 -43.84409 
L 583.457362 -43.69952 
L 580.425823 -43.475471 
L 577.394285 -43.235365 
L 574.362746 -43.039923 
L 571.331208 -42.929228 
L 568.29967 -42.915816 
L 565.268131 -42.988208 
L 562.236593 -43.120502 
L 559.205055 -43.283209 
L 556.173516 -43.451945 
L 553.141978 -43.612095 
L 550.110439 -43.758869 
L 547.078901 -43.89333 
L 544.047363 -44.016573 
L 541.015824 -44.12566 
L 537.984286 -44.214848 
L 534.952748 -44.282508 
L 531.921209 -44.339422 
L 528.889671 -44.411711 
L 525.858132 -44.534584 
L 522.826594 -44.739335 
L 519.795056 -45.040356 
L 516.763517 -45.428545 
L 513.731979 -45.874057 
L 510.700441 -46.337904 
L 507.668902 -46.788637 
L 504.637364 -47.216749 
L 501.605826 -47.638146 
L 498.574287 -48.082881 
L 495.542749 -48.575 
L 492.51121 -49.116389 
L 489.479672 -49.685394 
L 486.448134 -50.251132 
L 483.416595 -50.794935 
L 480.385057 -51.327383 
L 477.353519 -51.892858 
L 474.32198 -52.559345 
L 471.290442 -53.396583 
L 468.258903 -54.450403 
L 465.227365 -55.724619 
L 462.195827 -57.18115 
L 459.164288 -58.761661 
L 456.13275 -60.422072 
L 453.101212 -62.162144 
L 450.069673 -64.032979 
L 447.038135 -66.117162 
L 444.006596 -68.492679 
L 440.975058 -71.20168 
L 437.94352 -74.240977 
L 434.911981 -77.576142 
L 431.880443 -81.167482 
L 428.848905 -84.994111 
L 425.817366 -89.069267 
L 422.785828 -93.445982 
L 419.754289 -98.211863 
L 416.722751 -103.470578 
L 413.691213 -109.312271 
L 410.659674 -115.78397 
L 407.628136 -122.875105 
L 404.596598 -130.526592 
L 401.565059 -138.658367 
L 398.533521 -147.199716 
L 395.501982 -156.1069 
L 392.470444 -165.362001 
L 389.438906 -174.957586 
L 386.407367 -184.876177 
L 383.375829 -195.071105 
L 380.344291 -205.451837 
L 377.312752 -215.877749 
L 374.281214 -226.167167 
L 371.249675 -236.125304 
L 368.218137 -245.582083 
L 365.186599 -254.41871 
L 362.15506 -262.565051 
L 359.123522 -269.96955 
L 356.091984 -276.562898 
L 353.060445 -282.238612 
L 350.028907 -286.859179 
L 346.997368 -290.280617 
L 343.96583 -292.382001 
L 340.934292 -293.088943 
L 337.902753 -292.385563 
L 334.871215 -290.315749 
L 331.839677 -286.978941 
L 328.808138 -282.524623 
L 325.7766 -277.142752 
L 322.745061 -271.041923 
L 319.713523 -264.41183 
L 316.681985 -257.380078 
L 313.650446 -249.983199 
L 310.618908 -242.167772 
L 307.58737 -233.823746 
L 304.555831 -224.840709 
L 301.524293 -215.173553 
L 298.492754 -204.899781 
L 295.461216 -194.243366 
L 292.429678 -183.540957 
L 289.398139 -173.149084 
L 286.366601 -163.328964 
L 283.335063 -154.169583 
L 280.303524 -145.594461 
L 277.271986 -137.448397 
L 274.240447 -129.612108 
L 271.208909 -122.079558 
L 268.177371 -114.961239 
L 265.145832 -108.423059 
L 262.114294 -102.603015 
L 259.082756 -97.550377 
L 256.051217 -93.210709 
L 253.019679 -89.452592 
L 249.98814 -86.113749 
L 246.956602 -83.041489 
L 243.925064 -80.113132 
L 240.893525 -77.238982 
L 237.861987 -74.361968 
L 234.830449 -71.464924 
L 231.79891 -68.580907 
L 228.767372 -65.789906 
L 225.735833 -63.191494 
L 222.704295 -60.863314 
L 219.672757 -58.829879 
L 216.641218 -57.06041 
L 213.60968 -55.494344 
L 210.578142 -54.076792 
L 207.546603 -52.784152 
L 204.515065 -51.6287 
L 201.483527 -50.6421 
L 198.451988 -49.847237 
L 195.42045 -49.234027 
L 192.388911 -48.754042 
L 189.357373 -48.338433 
L 186.325835 -47.928531 
L 183.294296 -47.499883 
L 180.262758 -47.065656 
L 177.23122 -46.660059 
L 174.199681 -46.314986 
L 171.168143 -46.044685 
L 168.136604 -45.844695 
L 165.105066 -45.700204 
L 162.073528 -45.593909 
L 159.041989 -45.50744 
L 156.010451 -45.419209 
L 152.978913 -45.306287 
L 149.947374 -45.153397 
L 146.915836 -44.962711 
L 143.884297 -44.754525 
L 140.852759 -44.555831 
L 137.821221 -44.384839 
L 134.789682 -44.244121 
L 131.758144 -44.130359 
L 128.726606 -44.061819 
L 125.695067 -44.122765 
L 122.663529 -44.523935 
L 119.63199 -45.667017 
L 116.600452 -48.169145 
L 113.568914 -52.765851 
L 110.537375 -60.01752 
L 107.505837 -69.84917 
L 104.474299 -81.139337 
L 101.44276 -91.700566 
L 98.411222 -98.876336 
L 95.379683 -100.593202 
L 92.348145 -96.312519 
L 89.316607 -87.289713 
L 86.285068 -75.971454 
L 83.25353 -64.921919 
L 80.221992 -55.914439 
L 77.190453 -49.601739 
L 74.158915 -45.741123 
L 71.127376 -43.662916 
L 68.095838 -42.672789 
z
" style="stroke: #66c2a5"/>
    </defs>
    <g clip-path="url(#p2503d82665)">
     <use xlink:href="#m6b725a230f" x="0" y="348.904219" style="fill: #66c2a5; fill-opacity: 0.5; stroke: #66c2a5"/>
    </g>
   </g>
   <g id="patch_3">
    <path d="M 37.932031 306.883125 
L 37.932031 21.935625 
" style="fill: none; stroke: #cccccc; stroke-width: 1.25; stroke-linejoin: miter; stroke-linecap: square"/>
   </g>
   <g id="patch_4">
    <path d="M 701.535781 306.883125 
L 701.535781 21.935625 
" style="fill: none; stroke: #cccccc; stroke-width: 1.25; stroke-linejoin: miter; stroke-linecap: square"/>
   </g>
   <g id="patch_5">
    <path d="M 37.932031 306.883125 
L 701.535781 306.883125 
" style="fill: none; stroke: #cccccc; stroke-width: 1.25; stroke-linejoin: miter; stroke-linecap: square"/>
   </g>
   <g id="patch_6">
    <path d="M 37.932031 21.935625 
L 701.535781 21.935625 
" style="fill: none; stroke: #cccccc; stroke-width: 1.25; stroke-linejoin: miter; stroke-linecap: square"/>
   </g>
   <g id="text_14">
    <!-- Sentiment Subjectivity Distribution (Text) -->
    <g style="fill: #262626" transform="translate(262.368594 15.935625) scale(0.12 -0.12)">
     <defs>
      <path id="ArialMT-6d" d="M 422 0 
L 422 3319 
L 925 3319 
L 925 2853 
Q 1081 3097 1340 3245 
Q 1600 3394 1931 3394 
Q 2300 3394 2536 3241 
Q 2772 3088 2869 2813 
Q 3263 3394 3894 3394 
Q 4388 3394 4653 3120 
Q 4919 2847 4919 2278 
L 4919 0 
L 4359 0 
L 4359 2091 
Q 4359 2428 4304 2576 
Q 4250 2725 4106 2815 
Q 3963 2906 3769 2906 
Q 3419 2906 3187 2673 
Q 2956 2441 2956 1928 
L 2956 0 
L 2394 0 
L 2394 2156 
Q 2394 2531 2256 2718 
Q 2119 2906 1806 2906 
Q 1569 2906 1367 2781 
Q 1166 2656 1075 2415 
Q 984 2175 984 1722 
L 984 0 
L 422 0 
z
" transform="scale(0.015625)"/>
      <path id="ArialMT-20" transform="scale(0.015625)"/>
      <path id="ArialMT-72" d="M 416 0 
L 416 3319 
L 922 3319 
L 922 2816 
Q 1116 3169 1280 3281 
Q 1444 3394 1641 3394 
Q 1925 3394 2219 3213 
L 2025 2691 
Q 1819 2813 1613 2813 
Q 1428 2813 1281 2702 
Q 1134 2591 1072 2394 
Q 978 2094 978 1738 
L 978 0 
L 416 0 
z
" transform="scale(0.015625)"/>
      <path id="ArialMT-6f" d="M 213 1659 
Q 213 2581 725 3025 
Q 1153 3394 1769 3394 
Q 2453 3394 2887 2945 
Q 3322 2497 3322 1706 
Q 3322 1066 3130 698 
Q 2938 331 2570 128 
Q 2203 -75 1769 -75 
Q 1072 -75 642 372 
Q 213 819 213 1659 
z
M 791 1659 
Q 791 1022 1069 705 
Q 1347 388 1769 388 
Q 2188 388 2466 706 
Q 2744 1025 2744 1678 
Q 2744 2294 2464 2611 
Q 2184 2928 1769 2928 
Q 1347 2928 1069 2612 
Q 791 2297 791 1659 
z
" transform="scale(0.015625)"/>
      <path id="ArialMT-28" d="M 1497 -1347 
Q 1031 -759 709 28 
Q 388 816 388 1659 
Q 388 2403 628 3084 
Q 909 3875 1497 4659 
L 1900 4659 
Q 1522 4009 1400 3731 
Q 1209 3300 1100 2831 
Q 966 2247 966 1656 
Q 966 153 1900 -1347 
L 1497 -1347 
z
" transform="scale(0.015625)"/>
      <path id="ArialMT-54" d="M 1659 0 
L 1659 4041 
L 150 4041 
L 150 4581 
L 3781 4581 
L 3781 4041 
L 2266 4041 
L 2266 0 
L 1659 0 
z
" transform="scale(0.015625)"/>
      <path id="ArialMT-78" d="M 47 0 
L 1259 1725 
L 138 3319 
L 841 3319 
L 1350 2541 
Q 1494 2319 1581 2169 
Q 1719 2375 1834 2534 
L 2394 3319 
L 3066 3319 
L 1919 1756 
L 3153 0 
L 2463 0 
L 1781 1031 
L 1600 1309 
L 728 0 
L 47 0 
z
" transform="scale(0.015625)"/>
      <path id="ArialMT-29" d="M 791 -1347 
L 388 -1347 
Q 1322 153 1322 1656 
Q 1322 2244 1188 2822 
Q 1081 3291 891 3722 
Q 769 4003 388 4659 
L 791 4659 
Q 1378 3875 1659 3084 
Q 1900 2403 1900 1659 
Q 1900 816 1576 28 
Q 1253 -759 791 -1347 
z
" transform="scale(0.015625)"/>
     </defs>
     <use xlink:href="#ArialMT-53"/>
     <use xlink:href="#ArialMT-65" transform="translate(66.699219 0)"/>
     <use xlink:href="#ArialMT-6e" transform="translate(122.314453 0)"/>
     <use xlink:href="#ArialMT-74" transform="translate(177.929688 0)"/>
     <use xlink:href="#ArialMT-69" transform="translate(205.712891 0)"/>
     <use xlink:href="#ArialMT-6d" transform="translate(227.929688 0)"/>
     <use xlink:href="#ArialMT-65" transform="translate(311.230469 0)"/>
     <use xlink:href="#ArialMT-6e" transform="translate(366.845703 0)"/>
     <use xlink:href="#ArialMT-74" transform="translate(422.460938 0)"/>
     <use xlink:href="#ArialMT-20" transform="translate(450.244141 0)"/>
     <use xlink:href="#ArialMT-53" transform="translate(478.027344 0)"/>
     <use xlink:href="#ArialMT-75" transform="translate(544.726562 0)"/>
     <use xlink:href="#ArialMT-62" transform="translate(600.341797 0)"/>
     <use xlink:href="#ArialMT-6a" transform="translate(655.957031 0)"/>
     <use xlink:href="#ArialMT-65" transform="translate(678.173828 0)"/>
     <use xlink:href="#ArialMT-63" transform="translate(733.789062 0)"/>
     <use xlink:href="#ArialMT-74" transform="translate(783.789062 0)"/>
     <use xlink:href="#ArialMT-69" transform="translate(811.572266 0)"/>
     <use xlink:href="#ArialMT-76" transform="translate(833.789062 0)"/>
     <use xlink:href="#ArialMT-69" transform="translate(883.789062 0)"/>
     <use xlink:href="#ArialMT-74" transform="translate(906.005859 0)"/>
     <use xlink:href="#ArialMT-79" transform="translate(933.789062 0)"/>
     <use xlink:href="#ArialMT-20" transform="translate(983.789062 0)"/>
     <use xlink:href="#ArialMT-44" transform="translate(1011.572266 0)"/>
     <use xlink:href="#ArialMT-69" transform="translate(1083.789062 0)"/>
     <use xlink:href="#ArialMT-73" transform="translate(1106.005859 0)"/>
     <use xlink:href="#ArialMT-74" transform="translate(1156.005859 0)"/>
     <use xlink:href="#ArialMT-72" transform="translate(1183.789062 0)"/>
     <use xlink:href="#ArialMT-69" transform="translate(1217.089844 0)"/>
     <use xlink:href="#ArialMT-62" transform="translate(1239.306641 0)"/>
     <use xlink:href="#ArialMT-75" transform="translate(1294.921875 0)"/>
     <use xlink:href="#ArialMT-74" transform="translate(1350.537109 0)"/>
     <use xlink:href="#ArialMT-69" transform="translate(1378.320312 0)"/>
     <use xlink:href="#ArialMT-6f" transform="translate(1400.537109 0)"/>
     <use xlink:href="#ArialMT-6e" transform="translate(1456.152344 0)"/>
     <use xlink:href="#ArialMT-20" transform="translate(1511.767578 0)"/>
     <use xlink:href="#ArialMT-28" transform="translate(1539.550781 0)"/>
     <use xlink:href="#ArialMT-54" transform="translate(1572.851562 0)"/>
     <use xlink:href="#ArialMT-65" transform="translate(1622.810547 0)"/>
     <use xlink:href="#ArialMT-78" transform="translate(1678.425781 0)"/>
     <use xlink:href="#ArialMT-74" transform="translate(1728.425781 0)"/>
     <use xlink:href="#ArialMT-29" transform="translate(1756.208984 0)"/>
    </g>
   </g>
   <g id="legend_1">
    <g id="patch_7">
     <path d="M 617.684844 62.38125 
L 693.835781 62.38125 
Q 696.035781 62.38125 696.035781 60.18125 
L 696.035781 29.635625 
Q 696.035781 27.435625 693.835781 27.435625 
L 617.684844 27.435625 
Q 615.484844 27.435625 615.484844 29.635625 
L 615.484844 60.18125 
Q 615.484844 62.38125 617.684844 62.38125 
z
" style="fill: #ffffff; opacity: 0.8; stroke: #cccccc; stroke-linejoin: miter"/>
    </g>
    <g id="patch_8">
     <path d="M 619.884844 39.843281 
L 641.884844 39.843281 
L 641.884844 32.143281 
L 619.884844 32.143281 
z
" style="fill: #fc8d62; fill-opacity: 0.5; stroke: #fc8d62; stroke-linejoin: miter"/>
    </g>
    <g id="text_15">
     <!-- Fake (0) -->
     <g style="fill: #262626" transform="translate(650.684844 39.843281) scale(0.11 -0.11)">
      <defs>
       <path id="ArialMT-46" d="M 525 0 
L 525 4581 
L 3616 4581 
L 3616 4041 
L 1131 4041 
L 1131 2622 
L 3281 2622 
L 3281 2081 
L 1131 2081 
L 1131 0 
L 525 0 
z
" transform="scale(0.015625)"/>
       <path id="ArialMT-61" d="M 2588 409 
Q 2275 144 1986 34 
Q 1697 -75 1366 -75 
Q 819 -75 525 192 
Q 231 459 231 875 
Q 231 1119 342 1320 
Q 453 1522 633 1644 
Q 813 1766 1038 1828 
Q 1203 1872 1538 1913 
Q 2219 1994 2541 2106 
Q 2544 2222 2544 2253 
Q 2544 2597 2384 2738 
Q 2169 2928 1744 2928 
Q 1347 2928 1158 2789 
Q 969 2650 878 2297 
L 328 2372 
Q 403 2725 575 2942 
Q 747 3159 1072 3276 
Q 1397 3394 1825 3394 
Q 2250 3394 2515 3294 
Q 2781 3194 2906 3042 
Q 3031 2891 3081 2659 
Q 3109 2516 3109 2141 
L 3109 1391 
Q 3109 606 3145 398 
Q 3181 191 3288 0 
L 2700 0 
Q 2613 175 2588 409 
z
M 2541 1666 
Q 2234 1541 1622 1453 
Q 1275 1403 1131 1340 
Q 988 1278 909 1158 
Q 831 1038 831 891 
Q 831 666 1001 516 
Q 1172 366 1500 366 
Q 1825 366 2078 508 
Q 2331 650 2450 897 
Q 2541 1088 2541 1459 
L 2541 1666 
z
" transform="scale(0.015625)"/>
       <path id="ArialMT-6b" d="M 425 0 
L 425 4581 
L 988 4581 
L 988 1969 
L 2319 3319 
L 3047 3319 
L 1778 2088 
L 3175 0 
L 2481 0 
L 1384 1697 
L 988 1316 
L 988 0 
L 425 0 
z
" transform="scale(0.015625)"/>
      </defs>
      <use xlink:href="#ArialMT-46"/>
      <use xlink:href="#ArialMT-61" transform="translate(61.083984 0)"/>
      <use xlink:href="#ArialMT-6b" transform="translate(116.699219 0)"/>
      <use xlink:href="#ArialMT-65" transform="translate(166.699219 0)"/>
      <use xlink:href="#ArialMT-20" transform="translate(222.314453 0)"/>
      <use xlink:href="#ArialMT-28" transform="translate(250.097656 0)"/>
      <use xlink:href="#ArialMT-30" transform="translate(283.398438 0)"/>
      <use xlink:href="#ArialMT-29" transform="translate(339.013672 0)"/>
     </g>
    </g>
    <g id="patch_9">
     <path d="M 619.884844 55.666094 
L 641.884844 55.666094 
L 641.884844 47.966094 
L 619.884844 47.966094 
z
" style="fill: #66c2a5; fill-opacity: 0.5; stroke: #66c2a5; stroke-linejoin: miter"/>
    </g>
    <g id="text_16">
     <!-- Real (1) -->
     <g style="fill: #262626" transform="translate(650.684844 55.666094) scale(0.11 -0.11)">
      <defs>
       <path id="ArialMT-52" d="M 503 0 
L 503 4581 
L 2534 4581 
Q 3147 4581 3465 4457 
Q 3784 4334 3975 4021 
Q 4166 3709 4166 3331 
Q 4166 2844 3850 2509 
Q 3534 2175 2875 2084 
Q 3116 1969 3241 1856 
Q 3506 1613 3744 1247 
L 4541 0 
L 3778 0 
L 3172 953 
Q 2906 1366 2734 1584 
Q 2563 1803 2427 1890 
Q 2291 1978 2150 2013 
Q 2047 2034 1813 2034 
L 1109 2034 
L 1109 0 
L 503 0 
z
M 1109 2559 
L 2413 2559 
Q 2828 2559 3062 2645 
Q 3297 2731 3419 2920 
Q 3541 3109 3541 3331 
Q 3541 3656 3305 3865 
Q 3069 4075 2559 4075 
L 1109 4075 
L 1109 2559 
z
" transform="scale(0.015625)"/>
       <path id="ArialMT-6c" d="M 409 0 
L 409 4581 
L 972 4581 
L 972 0 
L 409 0 
z
" transform="scale(0.015625)"/>
      </defs>
      <use xlink:href="#ArialMT-52"/>
      <use xlink:href="#ArialMT-65" transform="translate(72.216797 0)"/>
      <use xlink:href="#ArialMT-61" transform="translate(127.832031 0)"/>
      <use xlink:href="#ArialMT-6c" transform="translate(183.447266 0)"/>
      <use xlink:href="#ArialMT-20" transform="translate(205.664062 0)"/>
      <use xlink:href="#ArialMT-28" transform="translate(233.447266 0)"/>
      <use xlink:href="#ArialMT-31" transform="translate(266.748047 0)"/>
      <use xlink:href="#ArialMT-29" transform="translate(322.363281 0)"/>
     </g>
    </g>
   </g>
  </g>
 </g>
 <defs>
  <clipPath id="p2503d82665">
   <rect x="37.932031" y="21.935625" width="663.60375" height="284.9475"/>
  </clipPath>
 </defs>
</svg>
